M48
; DRILL file {KiCad 6.0.5+dfsg-1} date Сб 02 июл 2022 19:28:52
; FORMAT={-:-/ absolute / inch / decimal}
; #@! TF.CreationDate,2022-07-02T19:28:52+03:00
; #@! TF.GenerationSoftware,Kicad,Pcbnew,6.0.5+dfsg-1
; #@! TF.FileFunction,Plated,1,4,PTH
FMAT,2
INCH
; #@! TA.AperFunction,Plated,PTH,ViaDrill
T1C0.0157
; #@! TA.AperFunction,Plated,PTH,ComponentDrill
T2C0.0157
%
G90
G05
T1
X2.164Y-5.3555
X2.165Y-5.4854
X2.2045Y-5.7045
X2.311Y-6.0211
X2.3156Y-5.4541
X2.3467Y-5.7041
X2.3738Y-5.9904
X2.4116Y-5.901
X2.4136Y-5.2055
X2.4522Y-5.5026
X2.4813Y-5.234
X2.4935Y-5.5825
X2.4998Y-5.901
X2.549Y-5.8203
X2.5775Y-5.3719
X2.5844Y-5.9069
X2.6014Y-5.8325
X2.6163Y-5.3419
X2.6648Y-5.388
X2.6833Y-6.0211
X2.7156Y-5.4262
X2.7287Y-5.3634
X2.7768Y-5.3579
X2.7799Y-6.0398
X2.7967Y-5.8955
X2.8004Y-5.3246
X2.827Y-5.5498
X2.8344Y-5.388
X2.8608Y-5.3531
X2.8803Y-5.9429
X2.9303Y-5.9945
X2.9347Y-5.4232
X2.9852Y-5.7919
X3.0039Y-5.4586
X3.0679Y-5.8506
X3.0793Y-5.786
X3.1047Y-5.2055
X3.1057Y-5.7069
X3.113Y-5.8937
X3.1467Y-5.5026
X3.147Y-5.9911
X3.1478Y-5.2833
X3.1511Y-5.7978
X3.1733Y-5.244
X3.1829Y-5.888
X3.1855Y-5.8203
X3.188Y-5.5514
X3.251Y-5.8668
X3.2616Y-5.6159
X3.2982Y-5.8636
X3.3061Y-5.347
X3.34Y-5.8768
X3.3553Y-5.388
X3.4071Y-5.4232
X3.4153Y-5.8212
X3.4508Y-5.9362
X3.4537Y-5.3531
X3.4762Y-5.9927
X3.4775Y-6.0381
X3.4927Y-5.6396
X3.501Y-5.59
X3.5019Y-5.244
X3.5067Y-5.2833
X3.5211Y-5.5482
X3.5439Y-5.3555
X3.5522Y-6.0396
X3.6159Y-5.8955
X3.6205Y-5.6616
X3.622Y-5.3685
X3.6531Y-5.9445
X3.6654Y-5.7902
X3.6713Y-5.3831
X3.6929Y-5.4586
X3.7019Y-5.7272
X3.7031Y-5.9915
X3.7072Y-5.422
X3.749Y-5.8579
X3.7624Y-6.0681
X3.7775Y-5.2155
X3.7841Y-5.7927
X3.7882Y-5.8543
X3.8254Y-5.7533
X3.8287Y-5.4902
X3.8564Y-5.244
X3.8685Y-5.5809
X3.8921Y-5.8504
X3.8931Y-6.0396
X3.8994Y-5.6352
X3.903Y-5.6746
X3.9087Y-5.8083
X3.9299Y-5.2833
X3.9299Y-5.5492
X3.9415Y-5.9892
X3.9748Y-5.8419
X3.9931Y-5.3411
X4.0386Y-5.8886
X4.0431Y-5.3947
X4.0563Y-5.8134
X4.0813Y-5.4258
X4.0937Y-5.8457
X4.0969Y-6.0697
X4.1205Y-5.367
X4.1276Y-5.878
X4.1772Y-5.2155
X4.1862Y-5.4872
X4.1878Y-5.7264
X4.1909Y-5.6398
X4.1961Y-5.2833
X4.2136Y-5.5486
X4.2445Y-5.8669
X4.2492Y-5.8099
X4.2545Y-5.2009
X4.2579Y-5.943
X4.2717Y-5.3839
X4.2986Y-5.2046
X4.311Y-5.3835
X4.3332Y-5.9031
X4.3409Y-6.0396
X4.3801Y-5.8955
X4.3823Y-5.4586
X4.4091Y-5.3661
X4.4205Y-5.9069
X4.4291Y-5.8203
X4.4358Y-5.4965
X4.4811Y-5.2055
X4.4913Y-5.9862
X4.5144Y-5.3959
X4.5451Y-5.4301
X4.5528Y-5.244
X4.564Y-5.5825
X4.5833Y-5.7226
X4.6193Y-5.2823
X4.6193Y-5.5484
X4.6598Y-5.878
X4.6766Y-5.7982
X4.6829Y-5.3427
X4.7006Y-5.9935
X4.7352Y-5.3998
X4.7441Y-5.8384
X4.7801Y-5.4301
X4.7858Y-5.6
X4.8126Y-5.8768
X4.8211Y-5.4744
X4.8313Y-5.3531
X4.8555Y-5.4552
X4.8781Y-5.9089
X4.8784Y-6.0681
X4.8959Y-5.5478
X4.9171Y-5.8738
X4.9177Y-6.0681
X4.9775Y-5.8406
X4.9787Y-5.4539
X4.9921Y-5.1972
X5.0087Y-5.639
X5.037Y-5.7543
X5.0667Y-5.4586
X5.0675Y-5.3596
X5.0736Y-5.6346
X5.1008Y-5.8406
X5.1116Y-6.0396
X5.1163Y-5.4628
X5.1775Y-5.9089
X5.1827Y-5.2079
X5.2069Y-5.2931
X5.211Y-5.9453
X5.2221Y-5.3713
X5.2306Y-5.244
X5.2467Y-5.8084
X5.2506Y-5.5825
X5.261Y-5.9886
X5.3085Y-5.7923
X5.3232Y-5.4539
X5.3683Y-5.3455
X5.4183Y-5.351
X5.4354Y-5.6654
X5.4699Y-5.351
X5.5134Y-5.6685
X5.5167Y-5.3514
X5.5171Y-5.2116
X5.5203Y-5.4736
T2
X2.3598Y-6.1547
X2.4598Y-6.1547
X2.5598Y-6.1547
X2.6598Y-6.1547
X2.7598Y-6.1547
X2.8598Y-6.1547
X2.9598Y-6.1547
X3.0598Y-6.1547
X3.1598Y-6.1547
X3.2598Y-6.1547
X3.3598Y-6.1547
X3.4598Y-6.1547
X3.5598Y-6.1547
X3.6598Y-6.1547
X3.7598Y-6.1547
X3.8598Y-6.1547
X3.9598Y-6.1547
X4.0598Y-6.1547
X4.1598Y-6.1547
X4.2598Y-6.1547
X4.3598Y-6.1547
X4.4598Y-6.1547
X4.5598Y-6.1547
X4.6598Y-6.1547
X4.7598Y-6.1547
X4.8598Y-6.1547
X4.9598Y-6.1547
X5.0598Y-6.1547
X5.1598Y-6.1547
X5.2598Y-6.1547
T0
M30
