%TF.GenerationSoftware,KiCad,Pcbnew,6.0.5+dfsg-1*%
%TF.CreationDate,2022-07-02T19:28:49+03:00*%
%TF.ProjectId,simm3016,73696d6d-3330-4313-962e-6b696361645f,2*%
%TF.SameCoordinates,Original*%
%TF.FileFunction,Legend,Top*%
%TF.FilePolarity,Positive*%
%FSLAX46Y46*%
G04 Gerber Fmt 4.6, Leading zero omitted, Abs format (unit mm)*
G04 Created by KiCad (PCBNEW 6.0.5+dfsg-1) date 2022-07-02 19:28:49*
%MOMM*%
%LPD*%
G01*
G04 APERTURE LIST*
%ADD10C,0.200000*%
%ADD11C,0.150000*%
%ADD12C,0.100000*%
%ADD13C,0.120000*%
G04 APERTURE END LIST*
D10*
X125895952Y-137032380D02*
X126086428Y-137032380D01*
X126181666Y-137080000D01*
X126276904Y-137175238D01*
X126324523Y-137365714D01*
X126324523Y-137699047D01*
X126276904Y-137889523D01*
X126181666Y-137984761D01*
X126086428Y-138032380D01*
X125895952Y-138032380D01*
X125800714Y-137984761D01*
X125705476Y-137889523D01*
X125657857Y-137699047D01*
X125657857Y-137365714D01*
X125705476Y-137175238D01*
X125800714Y-137080000D01*
X125895952Y-137032380D01*
X126753095Y-138032380D02*
X126753095Y-137032380D01*
X127134047Y-137032380D01*
X127229285Y-137080000D01*
X127276904Y-137127619D01*
X127324523Y-137222857D01*
X127324523Y-137365714D01*
X127276904Y-137460952D01*
X127229285Y-137508571D01*
X127134047Y-137556190D01*
X126753095Y-137556190D01*
X127610238Y-137032380D02*
X128181666Y-137032380D01*
X127895952Y-138032380D02*
X127895952Y-137032380D01*
X128515000Y-138032380D02*
X128515000Y-137032380D01*
X129181666Y-137032380D02*
X129372142Y-137032380D01*
X129467380Y-137080000D01*
X129562619Y-137175238D01*
X129610238Y-137365714D01*
X129610238Y-137699047D01*
X129562619Y-137889523D01*
X129467380Y-137984761D01*
X129372142Y-138032380D01*
X129181666Y-138032380D01*
X129086428Y-137984761D01*
X128991190Y-137889523D01*
X128943571Y-137699047D01*
X128943571Y-137365714D01*
X128991190Y-137175238D01*
X129086428Y-137080000D01*
X129181666Y-137032380D01*
X130038809Y-138032380D02*
X130038809Y-137032380D01*
X130610238Y-138032380D01*
X130610238Y-137032380D01*
X131038809Y-137746666D02*
X131515000Y-137746666D01*
X130943571Y-138032380D02*
X131276904Y-137032380D01*
X131610238Y-138032380D01*
X132419761Y-138032380D02*
X131943571Y-138032380D01*
X131943571Y-137032380D01*
X133800714Y-138413333D02*
X133753095Y-138365714D01*
X133657857Y-138222857D01*
X133610238Y-138127619D01*
X133562619Y-137984761D01*
X133515000Y-137746666D01*
X133515000Y-137556190D01*
X133562619Y-137318095D01*
X133610238Y-137175238D01*
X133657857Y-137080000D01*
X133753095Y-136937142D01*
X133800714Y-136889523D01*
X134181666Y-138032380D02*
X134181666Y-137032380D01*
X134562619Y-137032380D01*
X134657857Y-137080000D01*
X134705476Y-137127619D01*
X134753095Y-137222857D01*
X134753095Y-137365714D01*
X134705476Y-137460952D01*
X134657857Y-137508571D01*
X134562619Y-137556190D01*
X134181666Y-137556190D01*
X135134047Y-137746666D02*
X135610238Y-137746666D01*
X135038809Y-138032380D02*
X135372142Y-137032380D01*
X135705476Y-138032380D01*
X136610238Y-138032380D02*
X136276904Y-137556190D01*
X136038809Y-138032380D02*
X136038809Y-137032380D01*
X136419761Y-137032380D01*
X136515000Y-137080000D01*
X136562619Y-137127619D01*
X136610238Y-137222857D01*
X136610238Y-137365714D01*
X136562619Y-137460952D01*
X136515000Y-137508571D01*
X136419761Y-137556190D01*
X136038809Y-137556190D01*
X137038809Y-138032380D02*
X137038809Y-137032380D01*
X137372142Y-137032380D02*
X137943571Y-137032380D01*
X137657857Y-138032380D02*
X137657857Y-137032380D01*
X138467380Y-137556190D02*
X138467380Y-138032380D01*
X138134047Y-137032380D02*
X138467380Y-137556190D01*
X138800714Y-137032380D01*
X139038809Y-138413333D02*
X139086428Y-138365714D01*
X139181666Y-138222857D01*
X139229285Y-138127619D01*
X139276904Y-137984761D01*
X139324523Y-137746666D01*
X139324523Y-137556190D01*
X139276904Y-137318095D01*
X139229285Y-137175238D01*
X139181666Y-137080000D01*
X139086428Y-136937142D01*
X139038809Y-136889523D01*
D11*
X58575714Y-157432380D02*
X58004285Y-157432380D01*
X58290000Y-157432380D02*
X58290000Y-156432380D01*
X58194761Y-156575238D01*
X58099523Y-156670476D01*
X58004285Y-156718095D01*
X135080476Y-156332380D02*
X135699523Y-156332380D01*
X135366190Y-156713333D01*
X135509047Y-156713333D01*
X135604285Y-156760952D01*
X135651904Y-156808571D01*
X135699523Y-156903809D01*
X135699523Y-157141904D01*
X135651904Y-157237142D01*
X135604285Y-157284761D01*
X135509047Y-157332380D01*
X135223333Y-157332380D01*
X135128095Y-157284761D01*
X135080476Y-157237142D01*
X136318571Y-156332380D02*
X136413809Y-156332380D01*
X136509047Y-156380000D01*
X136556666Y-156427619D01*
X136604285Y-156522857D01*
X136651904Y-156713333D01*
X136651904Y-156951428D01*
X136604285Y-157141904D01*
X136556666Y-157237142D01*
X136509047Y-157284761D01*
X136413809Y-157332380D01*
X136318571Y-157332380D01*
X136223333Y-157284761D01*
X136175714Y-157237142D01*
X136128095Y-157141904D01*
X136080476Y-156951428D01*
X136080476Y-156713333D01*
X136128095Y-156522857D01*
X136175714Y-156427619D01*
X136223333Y-156380000D01*
X136318571Y-156332380D01*
D12*
%TO.C,D8*%
X114609523Y-131961904D02*
X114609523Y-131161904D01*
X114800000Y-131161904D01*
X114914285Y-131200000D01*
X114990476Y-131276190D01*
X115028571Y-131352380D01*
X115066666Y-131504761D01*
X115066666Y-131619047D01*
X115028571Y-131771428D01*
X114990476Y-131847619D01*
X114914285Y-131923809D01*
X114800000Y-131961904D01*
X114609523Y-131961904D01*
X115523809Y-131504761D02*
X115447619Y-131466666D01*
X115409523Y-131428571D01*
X115371428Y-131352380D01*
X115371428Y-131314285D01*
X115409523Y-131238095D01*
X115447619Y-131200000D01*
X115523809Y-131161904D01*
X115676190Y-131161904D01*
X115752380Y-131200000D01*
X115790476Y-131238095D01*
X115828571Y-131314285D01*
X115828571Y-131352380D01*
X115790476Y-131428571D01*
X115752380Y-131466666D01*
X115676190Y-131504761D01*
X115523809Y-131504761D01*
X115447619Y-131542857D01*
X115409523Y-131580952D01*
X115371428Y-131657142D01*
X115371428Y-131809523D01*
X115409523Y-131885714D01*
X115447619Y-131923809D01*
X115523809Y-131961904D01*
X115676190Y-131961904D01*
X115752380Y-131923809D01*
X115790476Y-131885714D01*
X115828571Y-131809523D01*
X115828571Y-131657142D01*
X115790476Y-131580952D01*
X115752380Y-131542857D01*
X115676190Y-131504761D01*
D11*
%TO.C,C2*%
X117253333Y-149047142D02*
X117205714Y-149094761D01*
X117062857Y-149142380D01*
X116967619Y-149142380D01*
X116824761Y-149094761D01*
X116729523Y-148999523D01*
X116681904Y-148904285D01*
X116634285Y-148713809D01*
X116634285Y-148570952D01*
X116681904Y-148380476D01*
X116729523Y-148285238D01*
X116824761Y-148190000D01*
X116967619Y-148142380D01*
X117062857Y-148142380D01*
X117205714Y-148190000D01*
X117253333Y-148237619D01*
X117634285Y-148237619D02*
X117681904Y-148190000D01*
X117777142Y-148142380D01*
X118015238Y-148142380D01*
X118110476Y-148190000D01*
X118158095Y-148237619D01*
X118205714Y-148332857D01*
X118205714Y-148428095D01*
X118158095Y-148570952D01*
X117586666Y-149142380D01*
X118205714Y-149142380D01*
X117682380Y-152957619D02*
X117682380Y-153529047D01*
X117682380Y-153243333D02*
X116682380Y-153243333D01*
X116825238Y-153338571D01*
X116920476Y-153433809D01*
X116968095Y-153529047D01*
X116682380Y-152338571D02*
X116682380Y-152243333D01*
X116730000Y-152148095D01*
X116777619Y-152100476D01*
X116872857Y-152052857D01*
X117063333Y-152005238D01*
X117301428Y-152005238D01*
X117491904Y-152052857D01*
X117587142Y-152100476D01*
X117634761Y-152148095D01*
X117682380Y-152243333D01*
X117682380Y-152338571D01*
X117634761Y-152433809D01*
X117587142Y-152481428D01*
X117491904Y-152529047D01*
X117301428Y-152576666D01*
X117063333Y-152576666D01*
X116872857Y-152529047D01*
X116777619Y-152481428D01*
X116730000Y-152433809D01*
X116682380Y-152338571D01*
X116682380Y-151386190D02*
X116682380Y-151290952D01*
X116730000Y-151195714D01*
X116777619Y-151148095D01*
X116872857Y-151100476D01*
X117063333Y-151052857D01*
X117301428Y-151052857D01*
X117491904Y-151100476D01*
X117587142Y-151148095D01*
X117634761Y-151195714D01*
X117682380Y-151290952D01*
X117682380Y-151386190D01*
X117634761Y-151481428D01*
X117587142Y-151529047D01*
X117491904Y-151576666D01*
X117301428Y-151624285D01*
X117063333Y-151624285D01*
X116872857Y-151576666D01*
X116777619Y-151529047D01*
X116730000Y-151481428D01*
X116682380Y-151386190D01*
X117015714Y-150624285D02*
X117682380Y-150624285D01*
X117110952Y-150624285D02*
X117063333Y-150576666D01*
X117015714Y-150481428D01*
X117015714Y-150338571D01*
X117063333Y-150243333D01*
X117158571Y-150195714D01*
X117682380Y-150195714D01*
X117158571Y-149386190D02*
X117158571Y-149719523D01*
X117682380Y-149719523D02*
X116682380Y-149719523D01*
X116682380Y-149243333D01*
%TO.C,D4*%
X96681904Y-154392380D02*
X96681904Y-153392380D01*
X96920000Y-153392380D01*
X97062857Y-153440000D01*
X97158095Y-153535238D01*
X97205714Y-153630476D01*
X97253333Y-153820952D01*
X97253333Y-153963809D01*
X97205714Y-154154285D01*
X97158095Y-154249523D01*
X97062857Y-154344761D01*
X96920000Y-154392380D01*
X96681904Y-154392380D01*
X98110476Y-153725714D02*
X98110476Y-154392380D01*
X97872380Y-153344761D02*
X97634285Y-154059047D01*
X98253333Y-154059047D01*
%TO.C,C1*%
X97573333Y-148067142D02*
X97525714Y-148114761D01*
X97382857Y-148162380D01*
X97287619Y-148162380D01*
X97144761Y-148114761D01*
X97049523Y-148019523D01*
X97001904Y-147924285D01*
X96954285Y-147733809D01*
X96954285Y-147590952D01*
X97001904Y-147400476D01*
X97049523Y-147305238D01*
X97144761Y-147210000D01*
X97287619Y-147162380D01*
X97382857Y-147162380D01*
X97525714Y-147210000D01*
X97573333Y-147257619D01*
X98525714Y-148162380D02*
X97954285Y-148162380D01*
X98240000Y-148162380D02*
X98240000Y-147162380D01*
X98144761Y-147305238D01*
X98049523Y-147400476D01*
X97954285Y-147448095D01*
X97772380Y-152087619D02*
X97772380Y-152659047D01*
X97772380Y-152373333D02*
X96772380Y-152373333D01*
X96915238Y-152468571D01*
X97010476Y-152563809D01*
X97058095Y-152659047D01*
X96772380Y-151468571D02*
X96772380Y-151373333D01*
X96820000Y-151278095D01*
X96867619Y-151230476D01*
X96962857Y-151182857D01*
X97153333Y-151135238D01*
X97391428Y-151135238D01*
X97581904Y-151182857D01*
X97677142Y-151230476D01*
X97724761Y-151278095D01*
X97772380Y-151373333D01*
X97772380Y-151468571D01*
X97724761Y-151563809D01*
X97677142Y-151611428D01*
X97581904Y-151659047D01*
X97391428Y-151706666D01*
X97153333Y-151706666D01*
X96962857Y-151659047D01*
X96867619Y-151611428D01*
X96820000Y-151563809D01*
X96772380Y-151468571D01*
X96772380Y-150516190D02*
X96772380Y-150420952D01*
X96820000Y-150325714D01*
X96867619Y-150278095D01*
X96962857Y-150230476D01*
X97153333Y-150182857D01*
X97391428Y-150182857D01*
X97581904Y-150230476D01*
X97677142Y-150278095D01*
X97724761Y-150325714D01*
X97772380Y-150420952D01*
X97772380Y-150516190D01*
X97724761Y-150611428D01*
X97677142Y-150659047D01*
X97581904Y-150706666D01*
X97391428Y-150754285D01*
X97153333Y-150754285D01*
X96962857Y-150706666D01*
X96867619Y-150659047D01*
X96820000Y-150611428D01*
X96772380Y-150516190D01*
X97105714Y-149754285D02*
X97772380Y-149754285D01*
X97200952Y-149754285D02*
X97153333Y-149706666D01*
X97105714Y-149611428D01*
X97105714Y-149468571D01*
X97153333Y-149373333D01*
X97248571Y-149325714D01*
X97772380Y-149325714D01*
X97248571Y-148516190D02*
X97248571Y-148849523D01*
X97772380Y-148849523D02*
X96772380Y-148849523D01*
X96772380Y-148373333D01*
%TO.C,D5*%
X116691904Y-154792380D02*
X116691904Y-153792380D01*
X116930000Y-153792380D01*
X117072857Y-153840000D01*
X117168095Y-153935238D01*
X117215714Y-154030476D01*
X117263333Y-154220952D01*
X117263333Y-154363809D01*
X117215714Y-154554285D01*
X117168095Y-154649523D01*
X117072857Y-154744761D01*
X116930000Y-154792380D01*
X116691904Y-154792380D01*
X118168095Y-153792380D02*
X117691904Y-153792380D01*
X117644285Y-154268571D01*
X117691904Y-154220952D01*
X117787142Y-154173333D01*
X118025238Y-154173333D01*
X118120476Y-154220952D01*
X118168095Y-154268571D01*
X118215714Y-154363809D01*
X118215714Y-154601904D01*
X118168095Y-154697142D01*
X118120476Y-154744761D01*
X118025238Y-154792380D01*
X117787142Y-154792380D01*
X117691904Y-154744761D01*
X117644285Y-154697142D01*
%TO.C,C3*%
X58823333Y-146987142D02*
X58775714Y-147034761D01*
X58632857Y-147082380D01*
X58537619Y-147082380D01*
X58394761Y-147034761D01*
X58299523Y-146939523D01*
X58251904Y-146844285D01*
X58204285Y-146653809D01*
X58204285Y-146510952D01*
X58251904Y-146320476D01*
X58299523Y-146225238D01*
X58394761Y-146130000D01*
X58537619Y-146082380D01*
X58632857Y-146082380D01*
X58775714Y-146130000D01*
X58823333Y-146177619D01*
X59156666Y-146082380D02*
X59775714Y-146082380D01*
X59442380Y-146463333D01*
X59585238Y-146463333D01*
X59680476Y-146510952D01*
X59728095Y-146558571D01*
X59775714Y-146653809D01*
X59775714Y-146891904D01*
X59728095Y-146987142D01*
X59680476Y-147034761D01*
X59585238Y-147082380D01*
X59299523Y-147082380D01*
X59204285Y-147034761D01*
X59156666Y-146987142D01*
X53594761Y-145882380D02*
X53023333Y-145882380D01*
X53309047Y-145882380D02*
X53309047Y-144882380D01*
X53213809Y-145025238D01*
X53118571Y-145120476D01*
X53023333Y-145168095D01*
X54451904Y-145215714D02*
X54451904Y-145882380D01*
X54023333Y-145215714D02*
X54023333Y-145739523D01*
X54070952Y-145834761D01*
X54166190Y-145882380D01*
X54309047Y-145882380D01*
X54404285Y-145834761D01*
X54451904Y-145787142D01*
X55261428Y-145358571D02*
X54928095Y-145358571D01*
X54928095Y-145882380D02*
X54928095Y-144882380D01*
X55404285Y-144882380D01*
%TO.C,C5*%
X140023333Y-150837142D02*
X139975714Y-150884761D01*
X139832857Y-150932380D01*
X139737619Y-150932380D01*
X139594761Y-150884761D01*
X139499523Y-150789523D01*
X139451904Y-150694285D01*
X139404285Y-150503809D01*
X139404285Y-150360952D01*
X139451904Y-150170476D01*
X139499523Y-150075238D01*
X139594761Y-149980000D01*
X139737619Y-149932380D01*
X139832857Y-149932380D01*
X139975714Y-149980000D01*
X140023333Y-150027619D01*
X140928095Y-149932380D02*
X140451904Y-149932380D01*
X140404285Y-150408571D01*
X140451904Y-150360952D01*
X140547142Y-150313333D01*
X140785238Y-150313333D01*
X140880476Y-150360952D01*
X140928095Y-150408571D01*
X140975714Y-150503809D01*
X140975714Y-150741904D01*
X140928095Y-150837142D01*
X140880476Y-150884761D01*
X140785238Y-150932380D01*
X140547142Y-150932380D01*
X140451904Y-150884761D01*
X140404285Y-150837142D01*
X139044761Y-152532380D02*
X138473333Y-152532380D01*
X138759047Y-152532380D02*
X138759047Y-151532380D01*
X138663809Y-151675238D01*
X138568571Y-151770476D01*
X138473333Y-151818095D01*
X139901904Y-151865714D02*
X139901904Y-152532380D01*
X139473333Y-151865714D02*
X139473333Y-152389523D01*
X139520952Y-152484761D01*
X139616190Y-152532380D01*
X139759047Y-152532380D01*
X139854285Y-152484761D01*
X139901904Y-152437142D01*
X140711428Y-152008571D02*
X140378095Y-152008571D01*
X140378095Y-152532380D02*
X140378095Y-151532380D01*
X140854285Y-151532380D01*
%TO.C,D1*%
X77051904Y-154582380D02*
X77051904Y-153582380D01*
X77290000Y-153582380D01*
X77432857Y-153630000D01*
X77528095Y-153725238D01*
X77575714Y-153820476D01*
X77623333Y-154010952D01*
X77623333Y-154153809D01*
X77575714Y-154344285D01*
X77528095Y-154439523D01*
X77432857Y-154534761D01*
X77290000Y-154582380D01*
X77051904Y-154582380D01*
X78575714Y-154582380D02*
X78004285Y-154582380D01*
X78290000Y-154582380D02*
X78290000Y-153582380D01*
X78194761Y-153725238D01*
X78099523Y-153820476D01*
X78004285Y-153868095D01*
D12*
%TO.C,D9*%
X132199523Y-131961904D02*
X132199523Y-131161904D01*
X132390000Y-131161904D01*
X132504285Y-131200000D01*
X132580476Y-131276190D01*
X132618571Y-131352380D01*
X132656666Y-131504761D01*
X132656666Y-131619047D01*
X132618571Y-131771428D01*
X132580476Y-131847619D01*
X132504285Y-131923809D01*
X132390000Y-131961904D01*
X132199523Y-131961904D01*
X133037619Y-131961904D02*
X133190000Y-131961904D01*
X133266190Y-131923809D01*
X133304285Y-131885714D01*
X133380476Y-131771428D01*
X133418571Y-131619047D01*
X133418571Y-131314285D01*
X133380476Y-131238095D01*
X133342380Y-131200000D01*
X133266190Y-131161904D01*
X133113809Y-131161904D01*
X133037619Y-131200000D01*
X132999523Y-131238095D01*
X132961428Y-131314285D01*
X132961428Y-131504761D01*
X132999523Y-131580952D01*
X133037619Y-131619047D01*
X133113809Y-131657142D01*
X133266190Y-131657142D01*
X133342380Y-131619047D01*
X133380476Y-131580952D01*
X133418571Y-131504761D01*
D11*
%TO.C,C4*%
X77943333Y-148157142D02*
X77895714Y-148204761D01*
X77752857Y-148252380D01*
X77657619Y-148252380D01*
X77514761Y-148204761D01*
X77419523Y-148109523D01*
X77371904Y-148014285D01*
X77324285Y-147823809D01*
X77324285Y-147680952D01*
X77371904Y-147490476D01*
X77419523Y-147395238D01*
X77514761Y-147300000D01*
X77657619Y-147252380D01*
X77752857Y-147252380D01*
X77895714Y-147300000D01*
X77943333Y-147347619D01*
X78800476Y-147585714D02*
X78800476Y-148252380D01*
X78562380Y-147204761D02*
X78324285Y-147919047D01*
X78943333Y-147919047D01*
X77584761Y-149972380D02*
X77013333Y-149972380D01*
X77299047Y-149972380D02*
X77299047Y-148972380D01*
X77203809Y-149115238D01*
X77108571Y-149210476D01*
X77013333Y-149258095D01*
X78441904Y-149305714D02*
X78441904Y-149972380D01*
X78013333Y-149305714D02*
X78013333Y-149829523D01*
X78060952Y-149924761D01*
X78156190Y-149972380D01*
X78299047Y-149972380D01*
X78394285Y-149924761D01*
X78441904Y-149877142D01*
X79251428Y-149448571D02*
X78918095Y-149448571D01*
X78918095Y-149972380D02*
X78918095Y-148972380D01*
X79394285Y-148972380D01*
D12*
%TO.C,D6*%
X97269523Y-131961904D02*
X97269523Y-131161904D01*
X97460000Y-131161904D01*
X97574285Y-131200000D01*
X97650476Y-131276190D01*
X97688571Y-131352380D01*
X97726666Y-131504761D01*
X97726666Y-131619047D01*
X97688571Y-131771428D01*
X97650476Y-131847619D01*
X97574285Y-131923809D01*
X97460000Y-131961904D01*
X97269523Y-131961904D01*
X98412380Y-131161904D02*
X98260000Y-131161904D01*
X98183809Y-131200000D01*
X98145714Y-131238095D01*
X98069523Y-131352380D01*
X98031428Y-131504761D01*
X98031428Y-131809523D01*
X98069523Y-131885714D01*
X98107619Y-131923809D01*
X98183809Y-131961904D01*
X98336190Y-131961904D01*
X98412380Y-131923809D01*
X98450476Y-131885714D01*
X98488571Y-131809523D01*
X98488571Y-131619047D01*
X98450476Y-131542857D01*
X98412380Y-131504761D01*
X98336190Y-131466666D01*
X98183809Y-131466666D01*
X98107619Y-131504761D01*
X98069523Y-131542857D01*
X98031428Y-131619047D01*
%TO.C,D2*%
X62219523Y-131991904D02*
X62219523Y-131191904D01*
X62410000Y-131191904D01*
X62524285Y-131230000D01*
X62600476Y-131306190D01*
X62638571Y-131382380D01*
X62676666Y-131534761D01*
X62676666Y-131649047D01*
X62638571Y-131801428D01*
X62600476Y-131877619D01*
X62524285Y-131953809D01*
X62410000Y-131991904D01*
X62219523Y-131991904D01*
X62981428Y-131268095D02*
X63019523Y-131230000D01*
X63095714Y-131191904D01*
X63286190Y-131191904D01*
X63362380Y-131230000D01*
X63400476Y-131268095D01*
X63438571Y-131344285D01*
X63438571Y-131420476D01*
X63400476Y-131534761D01*
X62943333Y-131991904D01*
X63438571Y-131991904D01*
%TO.C,D3*%
X79349523Y-131961904D02*
X79349523Y-131161904D01*
X79540000Y-131161904D01*
X79654285Y-131200000D01*
X79730476Y-131276190D01*
X79768571Y-131352380D01*
X79806666Y-131504761D01*
X79806666Y-131619047D01*
X79768571Y-131771428D01*
X79730476Y-131847619D01*
X79654285Y-131923809D01*
X79540000Y-131961904D01*
X79349523Y-131961904D01*
X80073333Y-131161904D02*
X80568571Y-131161904D01*
X80301904Y-131466666D01*
X80416190Y-131466666D01*
X80492380Y-131504761D01*
X80530476Y-131542857D01*
X80568571Y-131619047D01*
X80568571Y-131809523D01*
X80530476Y-131885714D01*
X80492380Y-131923809D01*
X80416190Y-131961904D01*
X80187619Y-131961904D01*
X80111428Y-131923809D01*
X80073333Y-131885714D01*
D11*
%TO.C,D7*%
X136251904Y-154452380D02*
X136251904Y-153452380D01*
X136490000Y-153452380D01*
X136632857Y-153500000D01*
X136728095Y-153595238D01*
X136775714Y-153690476D01*
X136823333Y-153880952D01*
X136823333Y-154023809D01*
X136775714Y-154214285D01*
X136728095Y-154309523D01*
X136632857Y-154404761D01*
X136490000Y-154452380D01*
X136251904Y-154452380D01*
X137156666Y-153452380D02*
X137823333Y-153452380D01*
X137394761Y-154452380D01*
D13*
%TO.C,D8*%
X106710000Y-132100000D02*
X123550000Y-132100000D01*
X107510000Y-142960000D02*
X106710000Y-142160000D01*
X106710000Y-142160000D02*
X106710000Y-132100000D01*
X123550000Y-132100000D02*
X123550000Y-142960000D01*
X123550000Y-142960000D02*
X107510000Y-142960000D01*
%TO.C,C2*%
X117155000Y-146491252D02*
X117155000Y-145968748D01*
X118625000Y-146491252D02*
X118625000Y-145968748D01*
%TO.C,D4*%
X79600000Y-153470000D02*
X79600000Y-143410000D01*
X79600000Y-143410000D02*
X96440000Y-143410000D01*
X96440000Y-143410000D02*
X96440000Y-154270000D01*
X80400000Y-154270000D02*
X79600000Y-153470000D01*
X96440000Y-154270000D02*
X80400000Y-154270000D01*
%TO.C,C1*%
X97255000Y-145391252D02*
X97255000Y-144868748D01*
X98725000Y-145391252D02*
X98725000Y-144868748D01*
%TO.C,D5*%
X99620000Y-143320000D02*
X116460000Y-143320000D01*
X99620000Y-153380000D02*
X99620000Y-143320000D01*
X116460000Y-154180000D02*
X100420000Y-154180000D01*
X116460000Y-143320000D02*
X116460000Y-154180000D01*
X100420000Y-154180000D02*
X99620000Y-153380000D01*
%TO.C,C3*%
X57528748Y-145665000D02*
X58051252Y-145665000D01*
X57528748Y-144195000D02*
X58051252Y-144195000D01*
%TO.C,C5*%
X138728748Y-145665000D02*
X139251252Y-145665000D01*
X138728748Y-144195000D02*
X139251252Y-144195000D01*
%TO.C,D1*%
X59970000Y-143300000D02*
X76810000Y-143300000D01*
X76810000Y-154160000D02*
X60770000Y-154160000D01*
X76810000Y-143300000D02*
X76810000Y-154160000D01*
X60770000Y-154160000D02*
X59970000Y-153360000D01*
X59970000Y-153360000D02*
X59970000Y-143300000D01*
%TO.C,D9*%
X124110000Y-132100000D02*
X140950000Y-132100000D01*
X140950000Y-132100000D02*
X140950000Y-142960000D01*
X140950000Y-142960000D02*
X124910000Y-142960000D01*
X124910000Y-142960000D02*
X124110000Y-142160000D01*
X124110000Y-142160000D02*
X124110000Y-132100000D01*
%TO.C,C4*%
X77455000Y-145428752D02*
X77455000Y-144906248D01*
X78925000Y-145428752D02*
X78925000Y-144906248D01*
%TO.C,D6*%
X89200000Y-132090000D02*
X106040000Y-132090000D01*
X90000000Y-142950000D02*
X89200000Y-142150000D01*
X89200000Y-142150000D02*
X89200000Y-132090000D01*
X106040000Y-142950000D02*
X90000000Y-142950000D01*
X106040000Y-132090000D02*
X106040000Y-142950000D01*
%TO.C,D2*%
X71040000Y-132110000D02*
X71040000Y-142970000D01*
X55000000Y-142970000D02*
X54200000Y-142170000D01*
X54200000Y-132110000D02*
X71040000Y-132110000D01*
X71040000Y-142970000D02*
X55000000Y-142970000D01*
X54200000Y-142170000D02*
X54200000Y-132110000D01*
%TO.C,D3*%
X88560000Y-132110000D02*
X88560000Y-142970000D01*
X71720000Y-142170000D02*
X71720000Y-132110000D01*
X71720000Y-132110000D02*
X88560000Y-132110000D01*
X88560000Y-142970000D02*
X72520000Y-142970000D01*
X72520000Y-142970000D02*
X71720000Y-142170000D01*
%TO.C,D7*%
X119190000Y-143380000D02*
X136030000Y-143380000D01*
X136030000Y-143380000D02*
X136030000Y-154240000D01*
X119190000Y-153440000D02*
X119190000Y-143380000D01*
X119990000Y-154240000D02*
X119190000Y-153440000D01*
X136030000Y-154240000D02*
X119990000Y-154240000D01*
%TD*%
M02*
