%TF.GenerationSoftware,KiCad,Pcbnew,6.0.0+dfsg1-2*%
%TF.CreationDate,2022-02-11T22:49:32+03:00*%
%TF.ProjectId,simm3016,73696d6d-3330-4313-962e-6b696361645f,rev?*%
%TF.SameCoordinates,Original*%
%TF.FileFunction,Soldermask,Top*%
%TF.FilePolarity,Negative*%
%FSLAX46Y46*%
G04 Gerber Fmt 4.6, Leading zero omitted, Abs format (unit mm)*
G04 Created by KiCad (PCBNEW 6.0.0+dfsg1-2) date 2022-02-11 22:49:32*
%MOMM*%
%LPD*%
G01*
G04 APERTURE LIST*
G04 Aperture macros list*
%AMRoundRect*
0 Rectangle with rounded corners*
0 $1 Rounding radius*
0 $2 $3 $4 $5 $6 $7 $8 $9 X,Y pos of 4 corners*
0 Add a 4 corners polygon primitive as box body*
4,1,4,$2,$3,$4,$5,$6,$7,$8,$9,$2,$3,0*
0 Add four circle primitives for the rounded corners*
1,1,$1+$1,$2,$3*
1,1,$1+$1,$4,$5*
1,1,$1+$1,$6,$7*
1,1,$1+$1,$8,$9*
0 Add four rect primitives between the rounded corners*
20,1,$1+$1,$2,$3,$4,$5,0*
20,1,$1+$1,$4,$5,$6,$7,0*
20,1,$1+$1,$6,$7,$8,$9,0*
20,1,$1+$1,$8,$9,$2,$3,0*%
G04 Aperture macros list end*
%ADD10R,0.600000X3.000000*%
%ADD11RoundRect,0.250000X0.475000X-0.337500X0.475000X0.337500X-0.475000X0.337500X-0.475000X-0.337500X0*%
%ADD12RoundRect,0.250000X-0.337500X-0.475000X0.337500X-0.475000X0.337500X0.475000X-0.337500X0.475000X0*%
%ADD13R,1.900000X2.000000*%
%ADD14C,3.700000*%
G04 APERTURE END LIST*
D10*
%TO.C,D8*%
X189920000Y-129230000D03*
X191190000Y-129230000D03*
X192460000Y-129230000D03*
X193730000Y-129230000D03*
X195000000Y-129230000D03*
X196270000Y-129230000D03*
X198840000Y-129200000D03*
X200110000Y-129200000D03*
X201380000Y-129200000D03*
X202650000Y-129200000D03*
X203920000Y-129200000D03*
X205190000Y-129200000D03*
X205140000Y-122400000D03*
X203920000Y-122370000D03*
X202650000Y-122370000D03*
X201380000Y-122370000D03*
X200110000Y-122370000D03*
X198840000Y-122370000D03*
X196240000Y-122400000D03*
X194970000Y-122400000D03*
X193700000Y-122400000D03*
X192430000Y-122400000D03*
X191160000Y-122400000D03*
X189890000Y-122400000D03*
%TD*%
D11*
%TO.C,C2*%
X200300000Y-135537500D03*
X200300000Y-133462500D03*
%TD*%
D10*
%TO.C,D4*%
X162810000Y-140540000D03*
X164080000Y-140540000D03*
X165350000Y-140540000D03*
X166620000Y-140540000D03*
X167890000Y-140540000D03*
X169160000Y-140540000D03*
X171730000Y-140510000D03*
X173000000Y-140510000D03*
X174270000Y-140510000D03*
X175540000Y-140510000D03*
X176810000Y-140510000D03*
X178080000Y-140510000D03*
X178030000Y-133710000D03*
X176810000Y-133680000D03*
X175540000Y-133680000D03*
X174270000Y-133680000D03*
X173000000Y-133680000D03*
X171730000Y-133680000D03*
X169130000Y-133710000D03*
X167860000Y-133710000D03*
X166590000Y-133710000D03*
X165320000Y-133710000D03*
X164050000Y-133710000D03*
X162780000Y-133710000D03*
%TD*%
D11*
%TO.C,C1*%
X180400000Y-134437500D03*
X180400000Y-132362500D03*
%TD*%
D10*
%TO.C,D5*%
X182830000Y-140450000D03*
X184100000Y-140450000D03*
X185370000Y-140450000D03*
X186640000Y-140450000D03*
X187910000Y-140450000D03*
X189180000Y-140450000D03*
X191750000Y-140420000D03*
X193020000Y-140420000D03*
X194290000Y-140420000D03*
X195560000Y-140420000D03*
X196830000Y-140420000D03*
X198100000Y-140420000D03*
X198050000Y-133620000D03*
X196830000Y-133590000D03*
X195560000Y-133590000D03*
X194290000Y-133590000D03*
X193020000Y-133590000D03*
X191750000Y-133590000D03*
X189150000Y-133620000D03*
X187880000Y-133620000D03*
X186610000Y-133620000D03*
X185340000Y-133620000D03*
X184070000Y-133620000D03*
X182800000Y-133620000D03*
%TD*%
D12*
%TO.C,C3*%
X139162500Y-133200000D03*
X141237500Y-133200000D03*
%TD*%
%TO.C,C5*%
X220362500Y-133200000D03*
X222437500Y-133200000D03*
%TD*%
D10*
%TO.C,D1*%
X143180000Y-140430000D03*
X144450000Y-140430000D03*
X145720000Y-140430000D03*
X146990000Y-140430000D03*
X148260000Y-140430000D03*
X149530000Y-140430000D03*
X152100000Y-140400000D03*
X153370000Y-140400000D03*
X154640000Y-140400000D03*
X155910000Y-140400000D03*
X157180000Y-140400000D03*
X158450000Y-140400000D03*
X158400000Y-133600000D03*
X157180000Y-133570000D03*
X155910000Y-133570000D03*
X154640000Y-133570000D03*
X153370000Y-133570000D03*
X152100000Y-133570000D03*
X149500000Y-133600000D03*
X148230000Y-133600000D03*
X146960000Y-133600000D03*
X145690000Y-133600000D03*
X144420000Y-133600000D03*
X143150000Y-133600000D03*
%TD*%
%TO.C,D9*%
X207320000Y-129230000D03*
X208590000Y-129230000D03*
X209860000Y-129230000D03*
X211130000Y-129230000D03*
X212400000Y-129230000D03*
X213670000Y-129230000D03*
X216240000Y-129200000D03*
X217510000Y-129200000D03*
X218780000Y-129200000D03*
X220050000Y-129200000D03*
X221320000Y-129200000D03*
X222590000Y-129200000D03*
X222540000Y-122400000D03*
X221320000Y-122370000D03*
X220050000Y-122370000D03*
X218780000Y-122370000D03*
X217510000Y-122370000D03*
X216240000Y-122370000D03*
X213640000Y-122400000D03*
X212370000Y-122400000D03*
X211100000Y-122400000D03*
X209830000Y-122400000D03*
X208560000Y-122400000D03*
X207290000Y-122400000D03*
%TD*%
D11*
%TO.C,C4*%
X160600000Y-134475000D03*
X160600000Y-132400000D03*
%TD*%
D13*
%TO.C,J1*%
X216010000Y-145300000D03*
X213470000Y-145300000D03*
X210930000Y-145300000D03*
X208390000Y-145300000D03*
X205850000Y-145300000D03*
X203310000Y-145300000D03*
X200770000Y-145300000D03*
X198230000Y-145300000D03*
X195690000Y-145300000D03*
X193150000Y-145300000D03*
X190610000Y-145300000D03*
X188070000Y-145300000D03*
X185530000Y-145300000D03*
X182990000Y-145300000D03*
X180450000Y-145300000D03*
X177910000Y-145300000D03*
X175370000Y-145300000D03*
X172830000Y-145300000D03*
X170290000Y-145300000D03*
X167750000Y-145300000D03*
X165210000Y-145300000D03*
X162670000Y-145300000D03*
X160130000Y-145300000D03*
X157590000Y-145300000D03*
X155050000Y-145300000D03*
X152510000Y-145300000D03*
X149970000Y-145300000D03*
X147430000Y-145300000D03*
X144890000Y-145300000D03*
X142350000Y-145300000D03*
D14*
X138450000Y-136400000D03*
X220550000Y-136400000D03*
%TD*%
D10*
%TO.C,D6*%
X172410000Y-129220000D03*
X173680000Y-129220000D03*
X174950000Y-129220000D03*
X176220000Y-129220000D03*
X177490000Y-129220000D03*
X178760000Y-129220000D03*
X181330000Y-129190000D03*
X182600000Y-129190000D03*
X183870000Y-129190000D03*
X185140000Y-129190000D03*
X186410000Y-129190000D03*
X187680000Y-129190000D03*
X187630000Y-122390000D03*
X186410000Y-122360000D03*
X185140000Y-122360000D03*
X183870000Y-122360000D03*
X182600000Y-122360000D03*
X181330000Y-122360000D03*
X178730000Y-122390000D03*
X177460000Y-122390000D03*
X176190000Y-122390000D03*
X174920000Y-122390000D03*
X173650000Y-122390000D03*
X172380000Y-122390000D03*
%TD*%
%TO.C,D2*%
X137410000Y-129240000D03*
X138680000Y-129240000D03*
X139950000Y-129240000D03*
X141220000Y-129240000D03*
X142490000Y-129240000D03*
X143760000Y-129240000D03*
X146330000Y-129210000D03*
X147600000Y-129210000D03*
X148870000Y-129210000D03*
X150140000Y-129210000D03*
X151410000Y-129210000D03*
X152680000Y-129210000D03*
X152630000Y-122410000D03*
X151410000Y-122380000D03*
X150140000Y-122380000D03*
X148870000Y-122380000D03*
X147600000Y-122380000D03*
X146330000Y-122380000D03*
X143730000Y-122410000D03*
X142460000Y-122410000D03*
X141190000Y-122410000D03*
X139920000Y-122410000D03*
X138650000Y-122410000D03*
X137380000Y-122410000D03*
%TD*%
%TO.C,D3*%
X154930000Y-129240000D03*
X156200000Y-129240000D03*
X157470000Y-129240000D03*
X158740000Y-129240000D03*
X160010000Y-129240000D03*
X161280000Y-129240000D03*
X163850000Y-129210000D03*
X165120000Y-129210000D03*
X166390000Y-129210000D03*
X167660000Y-129210000D03*
X168930000Y-129210000D03*
X170200000Y-129210000D03*
X170150000Y-122410000D03*
X168930000Y-122380000D03*
X167660000Y-122380000D03*
X166390000Y-122380000D03*
X165120000Y-122380000D03*
X163850000Y-122380000D03*
X161250000Y-122410000D03*
X159980000Y-122410000D03*
X158710000Y-122410000D03*
X157440000Y-122410000D03*
X156170000Y-122410000D03*
X154900000Y-122410000D03*
%TD*%
%TO.C,D7*%
X202400000Y-140510000D03*
X203670000Y-140510000D03*
X204940000Y-140510000D03*
X206210000Y-140510000D03*
X207480000Y-140510000D03*
X208750000Y-140510000D03*
X211320000Y-140480000D03*
X212590000Y-140480000D03*
X213860000Y-140480000D03*
X215130000Y-140480000D03*
X216400000Y-140480000D03*
X217670000Y-140480000D03*
X217620000Y-133680000D03*
X216400000Y-133650000D03*
X215130000Y-133650000D03*
X213860000Y-133650000D03*
X212590000Y-133650000D03*
X211320000Y-133650000D03*
X208720000Y-133680000D03*
X207450000Y-133680000D03*
X206180000Y-133680000D03*
X204910000Y-133680000D03*
X203640000Y-133680000D03*
X202370000Y-133680000D03*
%TD*%
M02*
