%TF.GenerationSoftware,KiCad,Pcbnew,6.0.0+dfsg1-2*%
%TF.CreationDate,2022-02-11T22:49:31+03:00*%
%TF.ProjectId,simm3016,73696d6d-3330-4313-962e-6b696361645f,rev?*%
%TF.SameCoordinates,Original*%
%TF.FileFunction,Copper,L4,Bot*%
%TF.FilePolarity,Positive*%
%FSLAX46Y46*%
G04 Gerber Fmt 4.6, Leading zero omitted, Abs format (unit mm)*
G04 Created by KiCad (PCBNEW 6.0.0+dfsg1-2) date 2022-02-11 22:49:31*
%MOMM*%
%LPD*%
G01*
G04 APERTURE LIST*
%TA.AperFunction,ComponentPad*%
%ADD10R,1.900000X2.000000*%
%TD*%
%TA.AperFunction,ViaPad*%
%ADD11C,0.800000*%
%TD*%
%TA.AperFunction,Conductor*%
%ADD12C,0.250000*%
%TD*%
G04 APERTURE END LIST*
D10*
%TO.P,J1,30,Pin_30*%
%TO.N,+5V*%
X216010000Y-145300000D03*
%TO.P,J1,29,Pin_29*%
%TO.N,/DP*%
X213470000Y-145300000D03*
%TO.P,J1,28,Pin_28*%
%TO.N,/~{CASP}*%
X210930000Y-145300000D03*
%TO.P,J1,27,Pin_27*%
%TO.N,/~{RAS}*%
X208390000Y-145300000D03*
%TO.P,J1,26,Pin_26*%
%TO.N,/QP*%
X205850000Y-145300000D03*
%TO.P,J1,25,Pin_25*%
%TO.N,/DQ7*%
X203310000Y-145300000D03*
%TO.P,J1,24,Pin_24*%
%TO.N,/A11*%
X200770000Y-145300000D03*
%TO.P,J1,23,Pin_23*%
%TO.N,/DQ6*%
X198230000Y-145300000D03*
%TO.P,J1,22,Pin_22*%
%TO.N,GNDD*%
X195690000Y-145300000D03*
%TO.P,J1,21,Pin_21*%
%TO.N,/~{WE}*%
X193150000Y-145300000D03*
%TO.P,J1,20,Pin_20*%
%TO.N,/DQ5*%
X190610000Y-145300000D03*
%TO.P,J1,19,Pin_19*%
%TO.N,/A10*%
X188070000Y-145300000D03*
%TO.P,J1,18,Pin_18*%
%TO.N,/A9*%
X185530000Y-145300000D03*
%TO.P,J1,17,Pin_17*%
%TO.N,/A8*%
X182990000Y-145300000D03*
%TO.P,J1,16,Pin_16*%
%TO.N,/DQ4*%
X180450000Y-145300000D03*
%TO.P,J1,15,Pin_15*%
%TO.N,/A7*%
X177910000Y-145300000D03*
%TO.P,J1,14,Pin_14*%
%TO.N,/A6*%
X175370000Y-145300000D03*
%TO.P,J1,13,Pin_13*%
%TO.N,/DQ3*%
X172830000Y-145300000D03*
%TO.P,J1,12,Pin_12*%
%TO.N,/A5*%
X170290000Y-145300000D03*
%TO.P,J1,11,Pin_11*%
%TO.N,/A4*%
X167750000Y-145300000D03*
%TO.P,J1,10,Pin_10*%
%TO.N,/DQ2*%
X165210000Y-145300000D03*
%TO.P,J1,9,Pin_9*%
%TO.N,GNDD*%
X162670000Y-145300000D03*
%TO.P,J1,8,Pin_8*%
%TO.N,/A3*%
X160130000Y-145300000D03*
%TO.P,J1,7,Pin_7*%
%TO.N,/A2*%
X157590000Y-145300000D03*
%TO.P,J1,6,Pin_6*%
%TO.N,/DQ1*%
X155050000Y-145300000D03*
%TO.P,J1,5,Pin_5*%
%TO.N,/A1*%
X152510000Y-145300000D03*
%TO.P,J1,4,Pin_4*%
%TO.N,/A0*%
X149970000Y-145300000D03*
%TO.P,J1,3,Pin_3*%
%TO.N,/DQ0*%
X147430000Y-145300000D03*
%TO.P,J1,2,Pin_2*%
%TO.N,/~{CAS}*%
X144890000Y-145300000D03*
%TO.P,J1,1,Pin_1*%
%TO.N,+5V*%
X142350000Y-145300000D03*
%TD*%
D11*
%TO.N,+5V*%
X142705000Y-140425000D03*
X189435000Y-129205000D03*
X220470000Y-132170000D03*
X179575000Y-134405000D03*
X182525000Y-140395000D03*
X154215000Y-129235000D03*
X138405000Y-133165000D03*
X201805000Y-140505000D03*
X171845000Y-129195000D03*
X160625000Y-135235000D03*
X137400000Y-127600000D03*
X201195000Y-135545000D03*
X162345000Y-140445000D03*
X206765000Y-129185000D03*
%TO.N,GNDD*%
X178525000Y-135405000D03*
X218275000Y-133665000D03*
X158235000Y-135385000D03*
X161295000Y-133225000D03*
X198825000Y-133625000D03*
X142015000Y-133155000D03*
X222545000Y-120645000D03*
X222535000Y-124195000D03*
X205125000Y-124239500D03*
X152625000Y-124239500D03*
X170135000Y-124239500D03*
X187070500Y-124591039D03*
X181545000Y-132405000D03*
X222450000Y-132250000D03*
%TO.N,/~{WE}*%
X186470000Y-142440000D03*
X145905000Y-138155000D03*
X176210500Y-126919500D03*
X164985489Y-137285489D03*
X158709500Y-126919500D03*
X206320497Y-142399500D03*
X211105000Y-126919500D03*
X193719500Y-126919500D03*
X141225000Y-126805000D03*
X160335000Y-136875000D03*
X205690000Y-126600000D03*
X143665000Y-138155000D03*
%TO.N,/~{RAS}*%
X187250000Y-137570000D03*
X162335000Y-128035000D03*
X195079011Y-127880000D03*
X188860000Y-131520498D03*
X166185000Y-137205000D03*
X179659502Y-127720000D03*
X207320000Y-142399500D03*
X188740000Y-127644000D03*
X163255000Y-137825000D03*
X210350000Y-134430000D03*
X144695000Y-128035000D03*
X211280000Y-131390000D03*
X212365000Y-127025000D03*
%TO.N,/A11*%
X148055000Y-138305498D03*
X211970000Y-136620000D03*
X169159511Y-136129511D03*
X181690000Y-135800000D03*
X194910000Y-136105500D03*
X202910500Y-136565000D03*
X163320500Y-136105000D03*
X208839500Y-136620000D03*
X185439989Y-135930489D03*
%TO.N,/A10*%
X215775000Y-130065000D03*
X148485000Y-136415000D03*
X190340000Y-135840500D03*
X163385000Y-129275000D03*
X198335000Y-130065000D03*
X180670500Y-130025902D03*
X145745000Y-130065000D03*
X215677299Y-135802701D03*
X171335000Y-130255000D03*
%TO.N,/A0*%
X182229502Y-129220000D03*
X165255000Y-130915000D03*
X170739500Y-141637701D03*
X172635000Y-141675000D03*
X181295000Y-141675000D03*
X199739502Y-129200000D03*
X178630000Y-136970000D03*
X192670000Y-141675000D03*
X217620000Y-126800000D03*
X153020000Y-141680000D03*
X212245000Y-141675000D03*
X181270000Y-136870000D03*
%TO.N,/A1*%
X174255000Y-138015000D03*
X193665000Y-138015000D03*
X167245000Y-137540500D03*
X213919500Y-138355000D03*
X153445000Y-138015000D03*
X206315000Y-138355000D03*
X184990000Y-137840000D03*
%TO.N,/A2*%
X207305000Y-137465000D03*
X170060000Y-139050000D03*
X194690500Y-138304855D03*
X214770000Y-139280000D03*
X190559500Y-139220969D03*
X155570000Y-139220000D03*
X175200000Y-139260000D03*
%TO.N,/A3*%
X156840000Y-140530000D03*
X196490000Y-140320000D03*
X192474500Y-138210000D03*
X190220000Y-137290000D03*
X216040000Y-140380000D03*
X176470000Y-140455000D03*
X170705000Y-140485000D03*
X203970000Y-130510000D03*
%TO.N,/A4*%
X221345000Y-124185000D03*
X168949511Y-126019511D03*
X203825000Y-126195000D03*
X176439502Y-133740000D03*
X156950489Y-126019511D03*
X151385000Y-126095000D03*
X176571880Y-125987615D03*
X197855000Y-126195000D03*
X219454501Y-126075499D03*
X186075000Y-126085000D03*
%TO.N,/A5*%
X202685000Y-125425000D03*
X175510000Y-135340000D03*
X197075000Y-125325000D03*
X150095000Y-125125000D03*
X175660000Y-125000000D03*
X167635000Y-125125000D03*
X185105000Y-125295000D03*
X154405000Y-125125000D03*
X220035000Y-124185000D03*
%TO.N,/A6*%
X194400000Y-124570000D03*
X153540000Y-123515000D03*
X215050489Y-124700500D03*
X174369989Y-132074511D03*
X218765000Y-124045000D03*
X166385000Y-124085000D03*
X148865000Y-123955000D03*
X174410000Y-124630000D03*
X183835000Y-123935000D03*
X201355000Y-123975000D03*
X177634602Y-137060491D03*
%TO.N,/A7*%
X214665000Y-122715000D03*
X199739502Y-122440000D03*
X147879500Y-124715000D03*
X182229502Y-122465000D03*
X188990498Y-122465000D03*
X171480498Y-122465000D03*
X162365000Y-122465000D03*
%TO.N,/A8*%
X180361951Y-121468049D03*
X171358049Y-121468049D03*
X181453831Y-131403224D03*
X215268049Y-121468049D03*
X191910000Y-125010000D03*
X190475533Y-120372863D03*
X198051951Y-121468049D03*
X145435000Y-121214000D03*
X171125000Y-131515000D03*
X163011951Y-121468049D03*
%TO.N,/A9*%
X188512068Y-120743538D03*
X178359502Y-120743549D03*
X188779502Y-133720000D03*
X161269500Y-120489500D03*
X143715000Y-120489500D03*
X214050000Y-120550000D03*
X209210000Y-120280000D03*
X196230500Y-120489500D03*
%TO.N,/~{CAS}*%
X147155000Y-136105500D03*
%TO.N,/DQ1*%
X141109051Y-141205000D03*
X150565000Y-141205000D03*
%TO.N,/DQ2*%
X161480000Y-137970000D03*
%TO.N,/DQ5*%
X183370500Y-136655000D03*
X186390000Y-136750000D03*
%TO.N,/DQ7*%
X204650000Y-137540000D03*
X191593634Y-120466366D03*
X200770000Y-137570000D03*
X190910558Y-125020980D03*
%TO.N,/DP*%
X209630000Y-131500000D03*
X208870000Y-126800000D03*
%TO.N,/~{CASP}*%
X211125000Y-124405000D03*
%TD*%
D12*
%TO.N,/~{WE}*%
X186650000Y-142399500D02*
X193150500Y-142399500D01*
X158709500Y-126919500D02*
X141339500Y-126919500D01*
X141339500Y-126919500D02*
X141225000Y-126805000D01*
X193150500Y-142399500D02*
X206320497Y-142399500D01*
X143665000Y-138155000D02*
X145905000Y-138155000D01*
X176210500Y-126919500D02*
X158709500Y-126919500D01*
X164575000Y-136875000D02*
X164985489Y-137285489D01*
X193150000Y-144600000D02*
X193150000Y-142400000D01*
X193719500Y-126919500D02*
X176210500Y-126919500D01*
X207494020Y-126919500D02*
X208160000Y-127585480D01*
X193719500Y-126919500D02*
X207494020Y-126919500D01*
X208160000Y-127585480D02*
X210439020Y-127585480D01*
X193150000Y-142400000D02*
X193150500Y-142399500D01*
X210439020Y-127585480D02*
X211105000Y-126919500D01*
X160335000Y-136875000D02*
X164575000Y-136875000D01*
%TO.N,/~{RAS}*%
X211280000Y-131390000D02*
X211280000Y-133500000D01*
X188630000Y-127490000D02*
X190180000Y-127490000D01*
X211355000Y-128035000D02*
X212365000Y-127025000D01*
X207320000Y-142399500D02*
X208390000Y-143469500D01*
X172615000Y-128035000D02*
X179745000Y-128035000D01*
X170665000Y-128035000D02*
X171030000Y-127670000D01*
X205375000Y-128035000D02*
X205970000Y-127440000D01*
X188085000Y-128035000D02*
X188630000Y-127490000D01*
X190180000Y-127490000D02*
X190725000Y-128035000D01*
X207875000Y-128035000D02*
X211355000Y-128035000D01*
X171030000Y-127670000D02*
X172250000Y-127670000D01*
X165380000Y-138010000D02*
X166185000Y-137205000D01*
X179745000Y-128035000D02*
X188085000Y-128035000D01*
X144695000Y-128035000D02*
X170665000Y-128035000D01*
X172250000Y-127670000D02*
X172615000Y-128035000D01*
X211280000Y-133500000D02*
X210350000Y-134430000D01*
X163255000Y-137825000D02*
X163440000Y-138010000D01*
X207280000Y-127440000D02*
X207875000Y-128035000D01*
X208390000Y-143469500D02*
X208390000Y-144600000D01*
X205970000Y-127440000D02*
X207280000Y-127440000D01*
X190725000Y-128035000D02*
X205375000Y-128035000D01*
X163440000Y-138010000D02*
X165380000Y-138010000D01*
%TO.N,/A11*%
X202910500Y-136565000D02*
X208784500Y-136565000D01*
X148055000Y-138355000D02*
X148055000Y-138305498D01*
X187940489Y-135930489D02*
X179629511Y-135930489D01*
X208839500Y-136620000D02*
X211970000Y-136620000D01*
X179430489Y-136129511D02*
X169159511Y-136129511D01*
X150280489Y-136129511D02*
X148055000Y-138355000D01*
X179629511Y-135930489D02*
X179430489Y-136129511D01*
X208784500Y-136565000D02*
X208839500Y-136620000D01*
X202910500Y-136565000D02*
X188575000Y-136565000D01*
X169159511Y-136129511D02*
X150280489Y-136129511D01*
X188575000Y-136565000D02*
X187940489Y-135930489D01*
%TO.N,/A10*%
X163345000Y-130065000D02*
X163345000Y-129315000D01*
X190335000Y-135835500D02*
X190340000Y-135840500D01*
X147815000Y-130065000D02*
X145745000Y-130065000D01*
X163345000Y-130065000D02*
X147815000Y-130065000D01*
X215775000Y-130065000D02*
X215775000Y-135705000D01*
X201100000Y-129700000D02*
X205700000Y-129700000D01*
X215775000Y-135705000D02*
X215677299Y-135802701D01*
X147879500Y-130129500D02*
X147879500Y-135809500D01*
X190335000Y-130065000D02*
X198335000Y-130065000D01*
X147815000Y-130065000D02*
X147879500Y-130129500D01*
X190335000Y-130065000D02*
X190335000Y-135835500D01*
X200735000Y-130065000D02*
X201100000Y-129700000D01*
X163345000Y-129315000D02*
X163385000Y-129275000D01*
X205700000Y-129700000D02*
X206065000Y-130065000D01*
X198335000Y-130065000D02*
X200735000Y-130065000D01*
X206065000Y-130065000D02*
X215775000Y-130065000D01*
X147879500Y-135809500D02*
X148485000Y-136415000D01*
X163345000Y-130065000D02*
X180915000Y-130065000D01*
X180709598Y-130065000D02*
X180670500Y-130025902D01*
X190335000Y-130065000D02*
X180915000Y-130065000D01*
%TO.N,/A0*%
X190110000Y-128400000D02*
X190880000Y-129170000D01*
X217620000Y-126800000D02*
X217410011Y-127009989D01*
X181295000Y-141675000D02*
X192644502Y-141675000D01*
X190910000Y-129200000D02*
X199739502Y-129200000D01*
X217410011Y-127470000D02*
X215760000Y-129120011D01*
X178730000Y-136870000D02*
X178630000Y-136970000D01*
X215760000Y-129190000D02*
X207800000Y-129190000D01*
X206464897Y-128460489D02*
X205725386Y-129200000D01*
X207070489Y-128460489D02*
X206464897Y-128460489D01*
X217410011Y-127009989D02*
X217410011Y-127470000D01*
X215760000Y-129120011D02*
X215760000Y-129190000D01*
X205725386Y-129200000D02*
X199739502Y-129200000D01*
X152994502Y-141675000D02*
X172635000Y-141675000D01*
X190880000Y-129170000D02*
X190910000Y-129200000D01*
X207800000Y-129190000D02*
X207070489Y-128460489D01*
X188360000Y-129220000D02*
X189180000Y-128400000D01*
X178750000Y-136870000D02*
X178730000Y-136870000D01*
X188300000Y-129220000D02*
X188360000Y-129220000D01*
X172635000Y-141675000D02*
X181295000Y-141675000D01*
X182229502Y-129220000D02*
X188300000Y-129220000D01*
X189180000Y-128400000D02*
X190110000Y-128400000D01*
X192644502Y-141675000D02*
X212245000Y-141675000D01*
X181270000Y-136870000D02*
X178750000Y-136870000D01*
%TO.N,/A1*%
X206315000Y-138355000D02*
X197275000Y-138355000D01*
X184990000Y-137840000D02*
X174430000Y-137840000D01*
X153445000Y-138015000D02*
X159935000Y-138015000D01*
X167245000Y-138265000D02*
X167245000Y-137945000D01*
X184990000Y-137840000D02*
X185444511Y-138294511D01*
X174255000Y-138015000D02*
X167315000Y-138015000D01*
X174430000Y-137840000D02*
X174255000Y-138015000D01*
X213919500Y-138355000D02*
X206315000Y-138355000D01*
X192204886Y-137455000D02*
X196375000Y-137455000D01*
X160675480Y-138755480D02*
X166754520Y-138755480D01*
X167245000Y-137945000D02*
X167245000Y-137540500D01*
X167315000Y-138015000D02*
X167245000Y-137945000D01*
X159935000Y-138015000D02*
X160675480Y-138755480D01*
X185444511Y-138294511D02*
X191365375Y-138294511D01*
X197275000Y-138355000D02*
X196375000Y-137455000D01*
X194225000Y-137455000D02*
X193665000Y-138015000D01*
X191365375Y-138294511D02*
X192204886Y-137455000D01*
X166754520Y-138755480D02*
X167245000Y-138265000D01*
%TO.N,/A2*%
X194690500Y-138304855D02*
X195764855Y-138304855D01*
X175164502Y-139255000D02*
X175198533Y-139220969D01*
X214290000Y-137370000D02*
X214754502Y-137834502D01*
X195764855Y-138304855D02*
X196715000Y-139255000D01*
X207400000Y-137370000D02*
X214290000Y-137370000D01*
X214754502Y-137834502D02*
X214754502Y-139275000D01*
X196715000Y-139255000D02*
X196735000Y-139275000D01*
X159855000Y-139205000D02*
X159825000Y-139235000D01*
X175198533Y-139220969D02*
X193774386Y-139220969D01*
X159825000Y-139235000D02*
X155534502Y-139235000D01*
X193774386Y-139220969D02*
X194690500Y-138304855D01*
X207305000Y-137465000D02*
X207400000Y-137370000D01*
X175114502Y-139205000D02*
X175164502Y-139255000D01*
X159855000Y-139205000D02*
X175114502Y-139205000D01*
X196735000Y-139275000D02*
X214754502Y-139275000D01*
%TO.N,/A3*%
X201339511Y-139780489D02*
X202105103Y-139780489D01*
X176434502Y-140455000D02*
X181440386Y-140455000D01*
X182840489Y-139670489D02*
X183485000Y-140315000D01*
X176404502Y-140485000D02*
X176434502Y-140455000D01*
X196454502Y-140315000D02*
X200805000Y-140315000D01*
X214080000Y-135230000D02*
X216024502Y-137174502D01*
X202105103Y-139780489D02*
X202635000Y-140310386D01*
X181440386Y-140455000D02*
X182224897Y-139670489D01*
X161175000Y-140535000D02*
X161989511Y-139720489D01*
X200805000Y-140315000D02*
X201339511Y-139780489D01*
X182224897Y-139670489D02*
X182840489Y-139670489D01*
X161175000Y-140535000D02*
X156825000Y-140535000D01*
X183485000Y-140315000D02*
X196454502Y-140315000D01*
X202709614Y-140385000D02*
X216024502Y-140385000D01*
X216024502Y-137174502D02*
X216024502Y-140385000D01*
X208690000Y-135230000D02*
X214080000Y-135230000D01*
X203970000Y-130510000D02*
X208690000Y-135230000D01*
X162670489Y-139720489D02*
X163435000Y-140485000D01*
X170705000Y-140485000D02*
X176404502Y-140485000D01*
X202635000Y-140310386D02*
X202709614Y-140385000D01*
X163435000Y-140485000D02*
X170705000Y-140485000D01*
X161989511Y-139720489D02*
X162670489Y-139720489D01*
%TO.N,/A4*%
X203944501Y-126075499D02*
X203825000Y-126195000D01*
X221345000Y-124185000D02*
X219454501Y-126075499D01*
X219454501Y-126075499D02*
X207315499Y-126075499D01*
X207100000Y-125860000D02*
X204755718Y-125860000D01*
X156950489Y-126019511D02*
X186030489Y-126019511D01*
X204540219Y-126075499D02*
X203944501Y-126075499D01*
X197855000Y-126195000D02*
X186185000Y-126195000D01*
X203825000Y-126195000D02*
X197855000Y-126195000D01*
X207315499Y-126075499D02*
X207100000Y-125860000D01*
X151460489Y-126019511D02*
X151385000Y-126095000D01*
X156950489Y-126019511D02*
X151460489Y-126019511D01*
X186185000Y-126195000D02*
X186075000Y-126085000D01*
X204755718Y-125860000D02*
X204540219Y-126075499D01*
%TO.N,/A5*%
X207300480Y-125410480D02*
X207315000Y-125425000D01*
X204569521Y-125410480D02*
X207300480Y-125410480D01*
X154405000Y-125125000D02*
X167635000Y-125125000D01*
X189735000Y-125325000D02*
X185135000Y-125325000D01*
X176895489Y-125245489D02*
X175104511Y-125245489D01*
X192795000Y-125325000D02*
X192795000Y-125365000D01*
X218795000Y-125425000D02*
X220035000Y-124185000D01*
X192795000Y-125365000D02*
X192414520Y-125745480D01*
X197075000Y-125325000D02*
X192795000Y-125325000D01*
X202965000Y-125325000D02*
X197075000Y-125325000D01*
X202685000Y-125425000D02*
X204555000Y-125425000D01*
X192414520Y-125745480D02*
X190155480Y-125745480D01*
X207315000Y-125425000D02*
X218795000Y-125425000D01*
X170150000Y-125460000D02*
X169815000Y-125125000D01*
X167635000Y-125125000D02*
X169815000Y-125125000D01*
X175104511Y-125245489D02*
X174890000Y-125460000D01*
X174890000Y-125460000D02*
X170150000Y-125460000D01*
X176945000Y-125295000D02*
X185105000Y-125295000D01*
X150095000Y-125125000D02*
X154405000Y-125125000D01*
X176945000Y-125295000D02*
X176895489Y-125245489D01*
X190155480Y-125745480D02*
X189735000Y-125325000D01*
X204555000Y-125425000D02*
X204569521Y-125410480D01*
X185135000Y-125325000D02*
X185105000Y-125295000D01*
%TO.N,/A6*%
X215075000Y-124045000D02*
X215075000Y-124675989D01*
X166385000Y-123515000D02*
X183835000Y-123515000D01*
X153525000Y-123515000D02*
X166385000Y-123515000D01*
X148865000Y-123955000D02*
X149305000Y-123515000D01*
X218765000Y-124045000D02*
X215075000Y-124045000D01*
X183835000Y-123515000D02*
X183835000Y-123935000D01*
X194400000Y-124570000D02*
X194400000Y-123540000D01*
X149305000Y-123515000D02*
X153525000Y-123515000D01*
X201365000Y-123965000D02*
X201355000Y-123975000D01*
X201365000Y-123515000D02*
X212885000Y-123515000D01*
X201365000Y-123515000D02*
X201365000Y-123965000D01*
X183835000Y-123515000D02*
X194375000Y-123515000D01*
X194400000Y-123540000D02*
X194375000Y-123515000D01*
X194375000Y-123515000D02*
X201365000Y-123515000D01*
X215075000Y-124045000D02*
X213415000Y-124045000D01*
X215075000Y-124675989D02*
X215050489Y-124700500D01*
X166385000Y-124085000D02*
X166385000Y-123515000D01*
X213415000Y-124045000D02*
X212885000Y-123515000D01*
X174410000Y-124630000D02*
X174410000Y-123550000D01*
%TO.N,/A7*%
X147879500Y-124715000D02*
X147879500Y-122520500D01*
X147879500Y-122520500D02*
X147935000Y-122465000D01*
X197935498Y-122575000D02*
X214525000Y-122575000D01*
X147935000Y-122465000D02*
X188815000Y-122465000D01*
X214525000Y-122575000D02*
X214665000Y-122715000D01*
X197915000Y-122465000D02*
X197935498Y-122485498D01*
X188815000Y-122465000D02*
X197915000Y-122465000D01*
X197935498Y-122485498D02*
X197935498Y-122575000D01*
%TO.N,/A8*%
X145435000Y-121214000D02*
X145689049Y-121468049D01*
X163011951Y-121468049D02*
X171358049Y-121468049D01*
X190401951Y-121468049D02*
X190401951Y-120446445D01*
X215268049Y-121468049D02*
X198051951Y-121468049D01*
X171358049Y-121468049D02*
X190401951Y-121468049D01*
X145689049Y-121468049D02*
X163011951Y-121468049D01*
X190401951Y-121468049D02*
X198051951Y-121468049D01*
X190401951Y-120446445D02*
X190475533Y-120372863D01*
%TO.N,/A9*%
X213659500Y-120489500D02*
X213675000Y-120505000D01*
X178613551Y-120489500D02*
X178359502Y-120743549D01*
X188919500Y-120489500D02*
X161269500Y-120489500D01*
X214050000Y-120550000D02*
X213989500Y-120489500D01*
X188258030Y-120489500D02*
X188512068Y-120743538D01*
X192878352Y-119648352D02*
X189760648Y-119648352D01*
X196230500Y-120489500D02*
X213659500Y-120489500D01*
X196230500Y-120489500D02*
X193719500Y-120489500D01*
X189760648Y-119648352D02*
X188919500Y-120489500D01*
X213989500Y-120489500D02*
X213659500Y-120489500D01*
X143715000Y-120489500D02*
X161269500Y-120489500D01*
X193719500Y-120489500D02*
X192878352Y-119648352D01*
%TO.N,/DQ1*%
X141109051Y-141205000D02*
X150565000Y-141205000D01*
%TO.N,/DQ7*%
X200770000Y-137570000D02*
X204620000Y-137570000D01*
X204620000Y-137570000D02*
X204650000Y-137540000D01*
%TD*%
M02*
