%TF.GenerationSoftware,KiCad,Pcbnew,6.0.0+dfsg1-2*%
%TF.CreationDate,2022-02-11T22:49:31+03:00*%
%TF.ProjectId,simm3016,73696d6d-3330-4313-962e-6b696361645f,rev?*%
%TF.SameCoordinates,Original*%
%TF.FileFunction,Copper,L1,Top*%
%TF.FilePolarity,Positive*%
%FSLAX46Y46*%
G04 Gerber Fmt 4.6, Leading zero omitted, Abs format (unit mm)*
G04 Created by KiCad (PCBNEW 6.0.0+dfsg1-2) date 2022-02-11 22:49:31*
%MOMM*%
%LPD*%
G01*
G04 APERTURE LIST*
G04 Aperture macros list*
%AMRoundRect*
0 Rectangle with rounded corners*
0 $1 Rounding radius*
0 $2 $3 $4 $5 $6 $7 $8 $9 X,Y pos of 4 corners*
0 Add a 4 corners polygon primitive as box body*
4,1,4,$2,$3,$4,$5,$6,$7,$8,$9,$2,$3,0*
0 Add four circle primitives for the rounded corners*
1,1,$1+$1,$2,$3*
1,1,$1+$1,$4,$5*
1,1,$1+$1,$6,$7*
1,1,$1+$1,$8,$9*
0 Add four rect primitives between the rounded corners*
20,1,$1+$1,$2,$3,$4,$5,0*
20,1,$1+$1,$4,$5,$6,$7,0*
20,1,$1+$1,$6,$7,$8,$9,0*
20,1,$1+$1,$8,$9,$2,$3,0*%
G04 Aperture macros list end*
%TA.AperFunction,SMDPad,CuDef*%
%ADD10R,0.600000X3.000000*%
%TD*%
%TA.AperFunction,SMDPad,CuDef*%
%ADD11RoundRect,0.250000X0.475000X-0.337500X0.475000X0.337500X-0.475000X0.337500X-0.475000X-0.337500X0*%
%TD*%
%TA.AperFunction,SMDPad,CuDef*%
%ADD12RoundRect,0.250000X-0.337500X-0.475000X0.337500X-0.475000X0.337500X0.475000X-0.337500X0.475000X0*%
%TD*%
%TA.AperFunction,ComponentPad*%
%ADD13R,1.900000X2.000000*%
%TD*%
%TA.AperFunction,ViaPad*%
%ADD14C,0.800000*%
%TD*%
%TA.AperFunction,Conductor*%
%ADD15C,0.250000*%
%TD*%
%TA.AperFunction,Conductor*%
%ADD16C,0.200000*%
%TD*%
G04 APERTURE END LIST*
D10*
%TO.P,D8,1,+5V*%
%TO.N,+5V*%
X189920000Y-129230000D03*
%TO.P,D8,2,D*%
%TO.N,/DQ7*%
X191190000Y-129230000D03*
%TO.P,D8,3*%
%TO.N,N/C*%
X192460000Y-129230000D03*
%TO.P,D8,4,~{W}*%
%TO.N,/~{WE}*%
X193730000Y-129230000D03*
%TO.P,D8,5,~{RAS}*%
%TO.N,/~{RAS}*%
X195000000Y-129230000D03*
%TO.P,D8,6,A11*%
%TO.N,/A11*%
X196270000Y-129230000D03*
%TO.P,D8,7,A10*%
%TO.N,/A10*%
X198840000Y-129200000D03*
%TO.P,D8,8,A0*%
%TO.N,/A0*%
X200110000Y-129200000D03*
%TO.P,D8,9,A1*%
%TO.N,/A1*%
X201380000Y-129200000D03*
%TO.P,D8,10,A2*%
%TO.N,/A2*%
X202650000Y-129200000D03*
%TO.P,D8,11,A3*%
%TO.N,/A3*%
X203920000Y-129200000D03*
%TO.P,D8,12*%
%TO.N,N/C*%
X205190000Y-129200000D03*
%TO.P,D8,13,GND*%
%TO.N,GNDD*%
X205140000Y-122400000D03*
%TO.P,D8,14,A4*%
%TO.N,/A4*%
X203920000Y-122370000D03*
%TO.P,D8,15,A5*%
%TO.N,/A5*%
X202650000Y-122370000D03*
%TO.P,D8,16,A6*%
%TO.N,/A6*%
X201380000Y-122370000D03*
%TO.P,D8,17,A7*%
%TO.N,/A7*%
X200110000Y-122370000D03*
%TO.P,D8,18,A8*%
%TO.N,/A8*%
X198840000Y-122370000D03*
%TO.P,D8,19,A9*%
%TO.N,/A9*%
X196240000Y-122400000D03*
%TO.P,D8,20*%
%TO.N,N/C*%
X194970000Y-122400000D03*
%TO.P,D8,21,~{CAS}*%
%TO.N,/~{CAS}*%
X193700000Y-122400000D03*
%TO.P,D8,22*%
%TO.N,N/C*%
X192430000Y-122400000D03*
%TO.P,D8,23,Q*%
%TO.N,/DQ7*%
X191160000Y-122400000D03*
%TO.P,D8,24*%
%TO.N,N/C*%
X189890000Y-122400000D03*
%TD*%
D11*
%TO.P,C2,1*%
%TO.N,+5V*%
X200300000Y-135537500D03*
%TO.P,C2,2*%
%TO.N,GNDD*%
X200300000Y-133462500D03*
%TD*%
D10*
%TO.P,D4,1,+5V*%
%TO.N,+5V*%
X162810000Y-140540000D03*
%TO.P,D4,2,D*%
%TO.N,/DQ3*%
X164080000Y-140540000D03*
%TO.P,D4,3*%
%TO.N,N/C*%
X165350000Y-140540000D03*
%TO.P,D4,4,~{W}*%
%TO.N,/~{WE}*%
X166620000Y-140540000D03*
%TO.P,D4,5,~{RAS}*%
%TO.N,/~{RAS}*%
X167890000Y-140540000D03*
%TO.P,D4,6,A11*%
%TO.N,/A11*%
X169160000Y-140540000D03*
%TO.P,D4,7,A10*%
%TO.N,/A10*%
X171730000Y-140510000D03*
%TO.P,D4,8,A0*%
%TO.N,/A0*%
X173000000Y-140510000D03*
%TO.P,D4,9,A1*%
%TO.N,/A1*%
X174270000Y-140510000D03*
%TO.P,D4,10,A2*%
%TO.N,/A2*%
X175540000Y-140510000D03*
%TO.P,D4,11,A3*%
%TO.N,/A3*%
X176810000Y-140510000D03*
%TO.P,D4,12*%
%TO.N,N/C*%
X178080000Y-140510000D03*
%TO.P,D4,13,GND*%
%TO.N,GNDD*%
X178030000Y-133710000D03*
%TO.P,D4,14,A4*%
%TO.N,/A4*%
X176810000Y-133680000D03*
%TO.P,D4,15,A5*%
%TO.N,/A5*%
X175540000Y-133680000D03*
%TO.P,D4,16,A6*%
%TO.N,/A6*%
X174270000Y-133680000D03*
%TO.P,D4,17,A7*%
%TO.N,/A7*%
X173000000Y-133680000D03*
%TO.P,D4,18,A8*%
%TO.N,/A8*%
X171730000Y-133680000D03*
%TO.P,D4,19,A9*%
%TO.N,/A9*%
X169130000Y-133710000D03*
%TO.P,D4,20*%
%TO.N,N/C*%
X167860000Y-133710000D03*
%TO.P,D4,21,~{CAS}*%
%TO.N,/~{CAS}*%
X166590000Y-133710000D03*
%TO.P,D4,22*%
%TO.N,N/C*%
X165320000Y-133710000D03*
%TO.P,D4,23,Q*%
%TO.N,/DQ3*%
X164050000Y-133710000D03*
%TO.P,D4,24*%
%TO.N,N/C*%
X162780000Y-133710000D03*
%TD*%
D11*
%TO.P,C1,1*%
%TO.N,+5V*%
X180400000Y-134437500D03*
%TO.P,C1,2*%
%TO.N,GNDD*%
X180400000Y-132362500D03*
%TD*%
D10*
%TO.P,D5,1,+5V*%
%TO.N,+5V*%
X182830000Y-140450000D03*
%TO.P,D5,2,D*%
%TO.N,/DQ4*%
X184100000Y-140450000D03*
%TO.P,D5,3*%
%TO.N,N/C*%
X185370000Y-140450000D03*
%TO.P,D5,4,~{W}*%
%TO.N,/~{WE}*%
X186640000Y-140450000D03*
%TO.P,D5,5,~{RAS}*%
%TO.N,/~{RAS}*%
X187910000Y-140450000D03*
%TO.P,D5,6,A11*%
%TO.N,/A11*%
X189180000Y-140450000D03*
%TO.P,D5,7,A10*%
%TO.N,/A10*%
X191750000Y-140420000D03*
%TO.P,D5,8,A0*%
%TO.N,/A0*%
X193020000Y-140420000D03*
%TO.P,D5,9,A1*%
%TO.N,/A1*%
X194290000Y-140420000D03*
%TO.P,D5,10,A2*%
%TO.N,/A2*%
X195560000Y-140420000D03*
%TO.P,D5,11,A3*%
%TO.N,/A3*%
X196830000Y-140420000D03*
%TO.P,D5,12*%
%TO.N,N/C*%
X198100000Y-140420000D03*
%TO.P,D5,13,GND*%
%TO.N,GNDD*%
X198050000Y-133620000D03*
%TO.P,D5,14,A4*%
%TO.N,/A4*%
X196830000Y-133590000D03*
%TO.P,D5,15,A5*%
%TO.N,/A5*%
X195560000Y-133590000D03*
%TO.P,D5,16,A6*%
%TO.N,/A6*%
X194290000Y-133590000D03*
%TO.P,D5,17,A7*%
%TO.N,/A7*%
X193020000Y-133590000D03*
%TO.P,D5,18,A8*%
%TO.N,/A8*%
X191750000Y-133590000D03*
%TO.P,D5,19,A9*%
%TO.N,/A9*%
X189150000Y-133620000D03*
%TO.P,D5,20*%
%TO.N,N/C*%
X187880000Y-133620000D03*
%TO.P,D5,21,~{CAS}*%
%TO.N,/~{CAS}*%
X186610000Y-133620000D03*
%TO.P,D5,22*%
%TO.N,N/C*%
X185340000Y-133620000D03*
%TO.P,D5,23,Q*%
%TO.N,/DQ4*%
X184070000Y-133620000D03*
%TO.P,D5,24*%
%TO.N,N/C*%
X182800000Y-133620000D03*
%TD*%
D12*
%TO.P,C3,1*%
%TO.N,+5V*%
X139162500Y-133200000D03*
%TO.P,C3,2*%
%TO.N,GNDD*%
X141237500Y-133200000D03*
%TD*%
%TO.P,C5,1*%
%TO.N,+5V*%
X220362500Y-133200000D03*
%TO.P,C5,2*%
%TO.N,GNDD*%
X222437500Y-133200000D03*
%TD*%
D10*
%TO.P,D1,1,+5V*%
%TO.N,+5V*%
X143180000Y-140430000D03*
%TO.P,D1,2,D*%
%TO.N,/DQ0*%
X144450000Y-140430000D03*
%TO.P,D1,3*%
%TO.N,N/C*%
X145720000Y-140430000D03*
%TO.P,D1,4,~{W}*%
%TO.N,/~{WE}*%
X146990000Y-140430000D03*
%TO.P,D1,5,~{RAS}*%
%TO.N,/~{RAS}*%
X148260000Y-140430000D03*
%TO.P,D1,6,A11*%
%TO.N,/A11*%
X149530000Y-140430000D03*
%TO.P,D1,7,A10*%
%TO.N,/A10*%
X152100000Y-140400000D03*
%TO.P,D1,8,A0*%
%TO.N,/A0*%
X153370000Y-140400000D03*
%TO.P,D1,9,A1*%
%TO.N,/A1*%
X154640000Y-140400000D03*
%TO.P,D1,10,A2*%
%TO.N,/A2*%
X155910000Y-140400000D03*
%TO.P,D1,11,A3*%
%TO.N,/A3*%
X157180000Y-140400000D03*
%TO.P,D1,12*%
%TO.N,N/C*%
X158450000Y-140400000D03*
%TO.P,D1,13,GND*%
%TO.N,GNDD*%
X158400000Y-133600000D03*
%TO.P,D1,14,A4*%
%TO.N,/A4*%
X157180000Y-133570000D03*
%TO.P,D1,15,A5*%
%TO.N,/A5*%
X155910000Y-133570000D03*
%TO.P,D1,16,A6*%
%TO.N,/A6*%
X154640000Y-133570000D03*
%TO.P,D1,17,A7*%
%TO.N,/A7*%
X153370000Y-133570000D03*
%TO.P,D1,18,A8*%
%TO.N,/A8*%
X152100000Y-133570000D03*
%TO.P,D1,19,A9*%
%TO.N,/A9*%
X149500000Y-133600000D03*
%TO.P,D1,20*%
%TO.N,N/C*%
X148230000Y-133600000D03*
%TO.P,D1,21,~{CAS}*%
%TO.N,/~{CAS}*%
X146960000Y-133600000D03*
%TO.P,D1,22*%
%TO.N,N/C*%
X145690000Y-133600000D03*
%TO.P,D1,23,Q*%
%TO.N,/DQ0*%
X144420000Y-133600000D03*
%TO.P,D1,24*%
%TO.N,N/C*%
X143150000Y-133600000D03*
%TD*%
%TO.P,D9,1,+5V*%
%TO.N,+5V*%
X207320000Y-129230000D03*
%TO.P,D9,2,D*%
%TO.N,/DP*%
X208590000Y-129230000D03*
%TO.P,D9,3*%
%TO.N,N/C*%
X209860000Y-129230000D03*
%TO.P,D9,4,~{W}*%
%TO.N,/~{WE}*%
X211130000Y-129230000D03*
%TO.P,D9,5,~{RAS}*%
%TO.N,/~{RAS}*%
X212400000Y-129230000D03*
%TO.P,D9,6,A11*%
%TO.N,/A11*%
X213670000Y-129230000D03*
%TO.P,D9,7,A10*%
%TO.N,/A10*%
X216240000Y-129200000D03*
%TO.P,D9,8,A0*%
%TO.N,/A0*%
X217510000Y-129200000D03*
%TO.P,D9,9,A1*%
%TO.N,/A1*%
X218780000Y-129200000D03*
%TO.P,D9,10,A2*%
%TO.N,/A2*%
X220050000Y-129200000D03*
%TO.P,D9,11,A3*%
%TO.N,/A3*%
X221320000Y-129200000D03*
%TO.P,D9,12*%
%TO.N,N/C*%
X222590000Y-129200000D03*
%TO.P,D9,13,GND*%
%TO.N,GNDD*%
X222540000Y-122400000D03*
%TO.P,D9,14,A4*%
%TO.N,/A4*%
X221320000Y-122370000D03*
%TO.P,D9,15,A5*%
%TO.N,/A5*%
X220050000Y-122370000D03*
%TO.P,D9,16,A6*%
%TO.N,/A6*%
X218780000Y-122370000D03*
%TO.P,D9,17,A7*%
%TO.N,/A7*%
X217510000Y-122370000D03*
%TO.P,D9,18,A8*%
%TO.N,/A8*%
X216240000Y-122370000D03*
%TO.P,D9,19,A9*%
%TO.N,/A9*%
X213640000Y-122400000D03*
%TO.P,D9,20*%
%TO.N,N/C*%
X212370000Y-122400000D03*
%TO.P,D9,21,~{CAS}*%
%TO.N,/~{CASP}*%
X211100000Y-122400000D03*
%TO.P,D9,22*%
%TO.N,N/C*%
X209830000Y-122400000D03*
%TO.P,D9,23,Q*%
%TO.N,/QP*%
X208560000Y-122400000D03*
%TO.P,D9,24*%
%TO.N,N/C*%
X207290000Y-122400000D03*
%TD*%
D11*
%TO.P,C4,1*%
%TO.N,+5V*%
X160600000Y-134475000D03*
%TO.P,C4,2*%
%TO.N,GNDD*%
X160600000Y-132400000D03*
%TD*%
D13*
%TO.P,J1,30,Pin_30*%
%TO.N,+5V*%
X216010000Y-145300000D03*
%TO.P,J1,29,Pin_29*%
%TO.N,/DP*%
X213470000Y-145300000D03*
%TO.P,J1,28,Pin_28*%
%TO.N,/~{CASP}*%
X210930000Y-145300000D03*
%TO.P,J1,27,Pin_27*%
%TO.N,/~{RAS}*%
X208390000Y-145300000D03*
%TO.P,J1,26,Pin_26*%
%TO.N,/QP*%
X205850000Y-145300000D03*
%TO.P,J1,25,Pin_25*%
%TO.N,/DQ7*%
X203310000Y-145300000D03*
%TO.P,J1,24,Pin_24*%
%TO.N,/A11*%
X200770000Y-145300000D03*
%TO.P,J1,23,Pin_23*%
%TO.N,/DQ6*%
X198230000Y-145300000D03*
%TO.P,J1,22,Pin_22*%
%TO.N,GNDD*%
X195690000Y-145300000D03*
%TO.P,J1,21,Pin_21*%
%TO.N,/~{WE}*%
X193150000Y-145300000D03*
%TO.P,J1,20,Pin_20*%
%TO.N,/DQ5*%
X190610000Y-145300000D03*
%TO.P,J1,19,Pin_19*%
%TO.N,/A10*%
X188070000Y-145300000D03*
%TO.P,J1,18,Pin_18*%
%TO.N,/A9*%
X185530000Y-145300000D03*
%TO.P,J1,17,Pin_17*%
%TO.N,/A8*%
X182990000Y-145300000D03*
%TO.P,J1,16,Pin_16*%
%TO.N,/DQ4*%
X180450000Y-145300000D03*
%TO.P,J1,15,Pin_15*%
%TO.N,/A7*%
X177910000Y-145300000D03*
%TO.P,J1,14,Pin_14*%
%TO.N,/A6*%
X175370000Y-145300000D03*
%TO.P,J1,13,Pin_13*%
%TO.N,/DQ3*%
X172830000Y-145300000D03*
%TO.P,J1,12,Pin_12*%
%TO.N,/A5*%
X170290000Y-145300000D03*
%TO.P,J1,11,Pin_11*%
%TO.N,/A4*%
X167750000Y-145300000D03*
%TO.P,J1,10,Pin_10*%
%TO.N,/DQ2*%
X165210000Y-145300000D03*
%TO.P,J1,9,Pin_9*%
%TO.N,GNDD*%
X162670000Y-145300000D03*
%TO.P,J1,8,Pin_8*%
%TO.N,/A3*%
X160130000Y-145300000D03*
%TO.P,J1,7,Pin_7*%
%TO.N,/A2*%
X157590000Y-145300000D03*
%TO.P,J1,6,Pin_6*%
%TO.N,/DQ1*%
X155050000Y-145300000D03*
%TO.P,J1,5,Pin_5*%
%TO.N,/A1*%
X152510000Y-145300000D03*
%TO.P,J1,4,Pin_4*%
%TO.N,/A0*%
X149970000Y-145300000D03*
%TO.P,J1,3,Pin_3*%
%TO.N,/DQ0*%
X147430000Y-145300000D03*
%TO.P,J1,2,Pin_2*%
%TO.N,/~{CAS}*%
X144890000Y-145300000D03*
%TO.P,J1,1,Pin_1*%
%TO.N,+5V*%
X142350000Y-145300000D03*
%TD*%
D10*
%TO.P,D6,1,+5V*%
%TO.N,+5V*%
X172410000Y-129220000D03*
%TO.P,D6,2,D*%
%TO.N,/DQ5*%
X173680000Y-129220000D03*
%TO.P,D6,3*%
%TO.N,N/C*%
X174950000Y-129220000D03*
%TO.P,D6,4,~{W}*%
%TO.N,/~{WE}*%
X176220000Y-129220000D03*
%TO.P,D6,5,~{RAS}*%
%TO.N,/~{RAS}*%
X177490000Y-129220000D03*
%TO.P,D6,6,A11*%
%TO.N,/A11*%
X178760000Y-129220000D03*
%TO.P,D6,7,A10*%
%TO.N,/A10*%
X181330000Y-129190000D03*
%TO.P,D6,8,A0*%
%TO.N,/A0*%
X182600000Y-129190000D03*
%TO.P,D6,9,A1*%
%TO.N,/A1*%
X183870000Y-129190000D03*
%TO.P,D6,10,A2*%
%TO.N,/A2*%
X185140000Y-129190000D03*
%TO.P,D6,11,A3*%
%TO.N,/A3*%
X186410000Y-129190000D03*
%TO.P,D6,12*%
%TO.N,N/C*%
X187680000Y-129190000D03*
%TO.P,D6,13,GND*%
%TO.N,GNDD*%
X187630000Y-122390000D03*
%TO.P,D6,14,A4*%
%TO.N,/A4*%
X186410000Y-122360000D03*
%TO.P,D6,15,A5*%
%TO.N,/A5*%
X185140000Y-122360000D03*
%TO.P,D6,16,A6*%
%TO.N,/A6*%
X183870000Y-122360000D03*
%TO.P,D6,17,A7*%
%TO.N,/A7*%
X182600000Y-122360000D03*
%TO.P,D6,18,A8*%
%TO.N,/A8*%
X181330000Y-122360000D03*
%TO.P,D6,19,A9*%
%TO.N,/A9*%
X178730000Y-122390000D03*
%TO.P,D6,20*%
%TO.N,N/C*%
X177460000Y-122390000D03*
%TO.P,D6,21,~{CAS}*%
%TO.N,/~{CAS}*%
X176190000Y-122390000D03*
%TO.P,D6,22*%
%TO.N,N/C*%
X174920000Y-122390000D03*
%TO.P,D6,23,Q*%
%TO.N,/DQ5*%
X173650000Y-122390000D03*
%TO.P,D6,24*%
%TO.N,N/C*%
X172380000Y-122390000D03*
%TD*%
%TO.P,D2,1,+5V*%
%TO.N,+5V*%
X137410000Y-129240000D03*
%TO.P,D2,2,D*%
%TO.N,/DQ1*%
X138680000Y-129240000D03*
%TO.P,D2,3*%
%TO.N,N/C*%
X139950000Y-129240000D03*
%TO.P,D2,4,~{W}*%
%TO.N,/~{WE}*%
X141220000Y-129240000D03*
%TO.P,D2,5,~{RAS}*%
%TO.N,/~{RAS}*%
X142490000Y-129240000D03*
%TO.P,D2,6,A11*%
%TO.N,/A11*%
X143760000Y-129240000D03*
%TO.P,D2,7,A10*%
%TO.N,/A10*%
X146330000Y-129210000D03*
%TO.P,D2,8,A0*%
%TO.N,/A0*%
X147600000Y-129210000D03*
%TO.P,D2,9,A1*%
%TO.N,/A1*%
X148870000Y-129210000D03*
%TO.P,D2,10,A2*%
%TO.N,/A2*%
X150140000Y-129210000D03*
%TO.P,D2,11,A3*%
%TO.N,/A3*%
X151410000Y-129210000D03*
%TO.P,D2,12*%
%TO.N,N/C*%
X152680000Y-129210000D03*
%TO.P,D2,13,GND*%
%TO.N,GNDD*%
X152630000Y-122410000D03*
%TO.P,D2,14,A4*%
%TO.N,/A4*%
X151410000Y-122380000D03*
%TO.P,D2,15,A5*%
%TO.N,/A5*%
X150140000Y-122380000D03*
%TO.P,D2,16,A6*%
%TO.N,/A6*%
X148870000Y-122380000D03*
%TO.P,D2,17,A7*%
%TO.N,/A7*%
X147600000Y-122380000D03*
%TO.P,D2,18,A8*%
%TO.N,/A8*%
X146330000Y-122380000D03*
%TO.P,D2,19,A9*%
%TO.N,/A9*%
X143730000Y-122410000D03*
%TO.P,D2,20*%
%TO.N,N/C*%
X142460000Y-122410000D03*
%TO.P,D2,21,~{CAS}*%
%TO.N,/~{CAS}*%
X141190000Y-122410000D03*
%TO.P,D2,22*%
%TO.N,N/C*%
X139920000Y-122410000D03*
%TO.P,D2,23,Q*%
%TO.N,/DQ1*%
X138650000Y-122410000D03*
%TO.P,D2,24*%
%TO.N,N/C*%
X137380000Y-122410000D03*
%TD*%
%TO.P,D3,1,+5V*%
%TO.N,+5V*%
X154930000Y-129240000D03*
%TO.P,D3,2,D*%
%TO.N,/DQ2*%
X156200000Y-129240000D03*
%TO.P,D3,3*%
%TO.N,N/C*%
X157470000Y-129240000D03*
%TO.P,D3,4,~{W}*%
%TO.N,/~{WE}*%
X158740000Y-129240000D03*
%TO.P,D3,5,~{RAS}*%
%TO.N,/~{RAS}*%
X160010000Y-129240000D03*
%TO.P,D3,6,A11*%
%TO.N,/A11*%
X161280000Y-129240000D03*
%TO.P,D3,7,A10*%
%TO.N,/A10*%
X163850000Y-129210000D03*
%TO.P,D3,8,A0*%
%TO.N,/A0*%
X165120000Y-129210000D03*
%TO.P,D3,9,A1*%
%TO.N,/A1*%
X166390000Y-129210000D03*
%TO.P,D3,10,A2*%
%TO.N,/A2*%
X167660000Y-129210000D03*
%TO.P,D3,11,A3*%
%TO.N,/A3*%
X168930000Y-129210000D03*
%TO.P,D3,12*%
%TO.N,N/C*%
X170200000Y-129210000D03*
%TO.P,D3,13,GND*%
%TO.N,GNDD*%
X170150000Y-122410000D03*
%TO.P,D3,14,A4*%
%TO.N,/A4*%
X168930000Y-122380000D03*
%TO.P,D3,15,A5*%
%TO.N,/A5*%
X167660000Y-122380000D03*
%TO.P,D3,16,A6*%
%TO.N,/A6*%
X166390000Y-122380000D03*
%TO.P,D3,17,A7*%
%TO.N,/A7*%
X165120000Y-122380000D03*
%TO.P,D3,18,A8*%
%TO.N,/A8*%
X163850000Y-122380000D03*
%TO.P,D3,19,A9*%
%TO.N,/A9*%
X161250000Y-122410000D03*
%TO.P,D3,20*%
%TO.N,N/C*%
X159980000Y-122410000D03*
%TO.P,D3,21,~{CAS}*%
%TO.N,/~{CAS}*%
X158710000Y-122410000D03*
%TO.P,D3,22*%
%TO.N,N/C*%
X157440000Y-122410000D03*
%TO.P,D3,23,Q*%
%TO.N,/DQ2*%
X156170000Y-122410000D03*
%TO.P,D3,24*%
%TO.N,N/C*%
X154900000Y-122410000D03*
%TD*%
%TO.P,D7,1,+5V*%
%TO.N,+5V*%
X202400000Y-140510000D03*
%TO.P,D7,2,D*%
%TO.N,/DQ6*%
X203670000Y-140510000D03*
%TO.P,D7,3*%
%TO.N,N/C*%
X204940000Y-140510000D03*
%TO.P,D7,4,~{W}*%
%TO.N,/~{WE}*%
X206210000Y-140510000D03*
%TO.P,D7,5,~{RAS}*%
%TO.N,/~{RAS}*%
X207480000Y-140510000D03*
%TO.P,D7,6,A11*%
%TO.N,/A11*%
X208750000Y-140510000D03*
%TO.P,D7,7,A10*%
%TO.N,/A10*%
X211320000Y-140480000D03*
%TO.P,D7,8,A0*%
%TO.N,/A0*%
X212590000Y-140480000D03*
%TO.P,D7,9,A1*%
%TO.N,/A1*%
X213860000Y-140480000D03*
%TO.P,D7,10,A2*%
%TO.N,/A2*%
X215130000Y-140480000D03*
%TO.P,D7,11,A3*%
%TO.N,/A3*%
X216400000Y-140480000D03*
%TO.P,D7,12*%
%TO.N,N/C*%
X217670000Y-140480000D03*
%TO.P,D7,13,GND*%
%TO.N,GNDD*%
X217620000Y-133680000D03*
%TO.P,D7,14,A4*%
%TO.N,/A4*%
X216400000Y-133650000D03*
%TO.P,D7,15,A5*%
%TO.N,/A5*%
X215130000Y-133650000D03*
%TO.P,D7,16,A6*%
%TO.N,/A6*%
X213860000Y-133650000D03*
%TO.P,D7,17,A7*%
%TO.N,/A7*%
X212590000Y-133650000D03*
%TO.P,D7,18,A8*%
%TO.N,/A8*%
X211320000Y-133650000D03*
%TO.P,D7,19,A9*%
%TO.N,/A9*%
X208720000Y-133680000D03*
%TO.P,D7,20*%
%TO.N,N/C*%
X207450000Y-133680000D03*
%TO.P,D7,21,~{CAS}*%
%TO.N,/~{CAS}*%
X206180000Y-133680000D03*
%TO.P,D7,22*%
%TO.N,N/C*%
X204910000Y-133680000D03*
%TO.P,D7,23,Q*%
%TO.N,/DQ6*%
X203640000Y-133680000D03*
%TO.P,D7,24*%
%TO.N,N/C*%
X202370000Y-133680000D03*
%TD*%
D14*
%TO.N,+5V*%
X142705000Y-140425000D03*
X189435000Y-129205000D03*
X220470000Y-132170000D03*
X179575000Y-134405000D03*
X182525000Y-140395000D03*
X154215000Y-129235000D03*
X138405000Y-133165000D03*
X201805000Y-140505000D03*
X171845000Y-129195000D03*
X160625000Y-135235000D03*
X137400000Y-127600000D03*
X201195000Y-135545000D03*
X162345000Y-140445000D03*
X206765000Y-129185000D03*
%TO.N,GNDD*%
X178525000Y-135405000D03*
X218275000Y-133665000D03*
X158235000Y-135385000D03*
X161295000Y-133225000D03*
X198825000Y-133625000D03*
X142015000Y-133155000D03*
X222545000Y-120645000D03*
X222535000Y-124195000D03*
X205125000Y-124239500D03*
X152625000Y-124239500D03*
X170135000Y-124239500D03*
X187070500Y-124591039D03*
X181545000Y-132405000D03*
X222450000Y-132250000D03*
%TO.N,/~{WE}*%
X186470000Y-142440000D03*
X145905000Y-138155000D03*
X176210500Y-126919500D03*
X164985489Y-137285489D03*
X158709500Y-126919500D03*
X206320497Y-142399500D03*
X211105000Y-126919500D03*
X193719500Y-126919500D03*
X141225000Y-126805000D03*
X160335000Y-136875000D03*
X205690000Y-126600000D03*
X143665000Y-138155000D03*
%TO.N,/~{RAS}*%
X187250000Y-137570000D03*
X162335000Y-128035000D03*
X195079011Y-127880000D03*
X188860000Y-131520498D03*
X166185000Y-137205000D03*
X179659502Y-127720000D03*
X207320000Y-142399500D03*
X188740000Y-127644000D03*
X163255000Y-137825000D03*
X210350000Y-134430000D03*
X144695000Y-128035000D03*
X211280000Y-131390000D03*
X212365000Y-127025000D03*
%TO.N,/A11*%
X148055000Y-138305498D03*
X211970000Y-136620000D03*
X169159511Y-136129511D03*
X181690000Y-135800000D03*
X194910000Y-136105500D03*
X202910500Y-136565000D03*
X163320500Y-136105000D03*
X208839500Y-136620000D03*
X185439989Y-135930489D03*
%TO.N,/A10*%
X215775000Y-130065000D03*
X148485000Y-136415000D03*
X190340000Y-135840500D03*
X163385000Y-129275000D03*
X198335000Y-130065000D03*
X180670500Y-130025902D03*
X145745000Y-130065000D03*
X215677299Y-135802701D03*
X171335000Y-130255000D03*
%TO.N,/A0*%
X182229502Y-129220000D03*
X165255000Y-130915000D03*
X170739500Y-141637701D03*
X172635000Y-141675000D03*
X181295000Y-141675000D03*
X199739502Y-129200000D03*
X178630000Y-136970000D03*
X192670000Y-141675000D03*
X217620000Y-126800000D03*
X153020000Y-141680000D03*
X212245000Y-141675000D03*
X181270000Y-136870000D03*
%TO.N,/A1*%
X174255000Y-138015000D03*
X193665000Y-138015000D03*
X167245000Y-137540500D03*
X213919500Y-138355000D03*
X153445000Y-138015000D03*
X206315000Y-138355000D03*
X184990000Y-137840000D03*
%TO.N,/A2*%
X207305000Y-137465000D03*
X170060000Y-139050000D03*
X194690500Y-138304855D03*
X214770000Y-139280000D03*
X190559500Y-139220969D03*
X155570000Y-139220000D03*
X175200000Y-139260000D03*
%TO.N,/A3*%
X156840000Y-140530000D03*
X196490000Y-140320000D03*
X192474500Y-138210000D03*
X190220000Y-137290000D03*
X216040000Y-140380000D03*
X176470000Y-140455000D03*
X170705000Y-140485000D03*
X203970000Y-130510000D03*
%TO.N,/A4*%
X221345000Y-124185000D03*
X168949511Y-126019511D03*
X203825000Y-126195000D03*
X176439502Y-133740000D03*
X156950489Y-126019511D03*
X151385000Y-126095000D03*
X176571880Y-125987615D03*
X197855000Y-126195000D03*
X219454501Y-126075499D03*
X186075000Y-126085000D03*
%TO.N,/A5*%
X202685000Y-125425000D03*
X175510000Y-135340000D03*
X197075000Y-125325000D03*
X150095000Y-125125000D03*
X175660000Y-125000000D03*
X167635000Y-125125000D03*
X185105000Y-125295000D03*
X154405000Y-125125000D03*
X220035000Y-124185000D03*
%TO.N,/A6*%
X194400000Y-124570000D03*
X153540000Y-123515000D03*
X215050489Y-124700500D03*
X174369989Y-132074511D03*
X218765000Y-124045000D03*
X166385000Y-124085000D03*
X148865000Y-123955000D03*
X174410000Y-124630000D03*
X183835000Y-123935000D03*
X201355000Y-123975000D03*
X177634602Y-137060491D03*
%TO.N,/A7*%
X214665000Y-122715000D03*
X199739502Y-122440000D03*
X147879500Y-124715000D03*
X182229502Y-122465000D03*
X188990498Y-122465000D03*
X171480498Y-122465000D03*
X162365000Y-122465000D03*
%TO.N,/A8*%
X180361951Y-121468049D03*
X171358049Y-121468049D03*
X181453831Y-131403224D03*
X215268049Y-121468049D03*
X191910000Y-125010000D03*
X190475533Y-120372863D03*
X198051951Y-121468049D03*
X145435000Y-121214000D03*
X171125000Y-131515000D03*
X163011951Y-121468049D03*
%TO.N,/A9*%
X188512068Y-120743538D03*
X178359502Y-120743549D03*
X188779502Y-133720000D03*
X161269500Y-120489500D03*
X143715000Y-120489500D03*
X214050000Y-120550000D03*
X209210000Y-120280000D03*
X196230500Y-120489500D03*
%TO.N,/~{CAS}*%
X147155000Y-136105500D03*
%TO.N,/DQ1*%
X141109051Y-141205000D03*
X150565000Y-141205000D03*
%TO.N,/DQ2*%
X161480000Y-137970000D03*
%TO.N,/DQ5*%
X183370500Y-136655000D03*
X186390000Y-136750000D03*
%TO.N,/DQ7*%
X204650000Y-137540000D03*
X191593634Y-120466366D03*
X200770000Y-137570000D03*
X190910558Y-125020980D03*
%TO.N,/DP*%
X209630000Y-131500000D03*
X208870000Y-126800000D03*
%TO.N,/~{CASP}*%
X211125000Y-124405000D03*
%TD*%
D15*
%TO.N,+5V*%
X207315000Y-129205000D02*
X206785000Y-129205000D01*
X201162500Y-135512500D02*
X201195000Y-135545000D01*
X137410000Y-129240000D02*
X137410000Y-127610000D01*
X137410000Y-127610000D02*
X137400000Y-127600000D01*
X182555000Y-140425000D02*
X182525000Y-140395000D01*
X200295000Y-135512500D02*
X201162500Y-135512500D01*
X162415000Y-140515000D02*
X162345000Y-140445000D01*
X138415000Y-133175000D02*
X138405000Y-133165000D01*
X154235000Y-129215000D02*
X154215000Y-129235000D01*
X182825000Y-140425000D02*
X182555000Y-140425000D01*
X189915000Y-129205000D02*
X189435000Y-129205000D01*
X179582500Y-134412500D02*
X179575000Y-134405000D01*
X139157500Y-133175000D02*
X138415000Y-133175000D01*
X142725000Y-140405000D02*
X142705000Y-140425000D01*
X160595000Y-135205000D02*
X160625000Y-135235000D01*
X202395000Y-140485000D02*
X201825000Y-140485000D01*
X162805000Y-140515000D02*
X162415000Y-140515000D01*
X172405000Y-129195000D02*
X171845000Y-129195000D01*
X201825000Y-140485000D02*
X201805000Y-140505000D01*
X143175000Y-140405000D02*
X142725000Y-140405000D01*
X154925000Y-129215000D02*
X154235000Y-129215000D01*
X206785000Y-129205000D02*
X206765000Y-129185000D01*
X160595000Y-134450000D02*
X160595000Y-135205000D01*
X180395000Y-134412500D02*
X179582500Y-134412500D01*
%TO.N,GNDD*%
X205135000Y-124229500D02*
X205125000Y-124239500D01*
X205135000Y-122375000D02*
X205135000Y-124229500D01*
X152625000Y-122385000D02*
X152625000Y-124239500D01*
X141232500Y-133175000D02*
X141995000Y-133175000D01*
X199012500Y-133437500D02*
X198825000Y-133625000D01*
X178025000Y-134905000D02*
X178525000Y-135405000D01*
X170145000Y-122385000D02*
X170145000Y-124229500D01*
X180395000Y-132337500D02*
X181477500Y-132337500D01*
X217615000Y-133655000D02*
X218265000Y-133655000D01*
X181477500Y-132337500D02*
X181545000Y-132405000D01*
X200295000Y-133437500D02*
X199012500Y-133437500D01*
X198795000Y-133595000D02*
X198825000Y-133625000D01*
X158395000Y-135225000D02*
X158235000Y-135385000D01*
X187625000Y-124036539D02*
X187070500Y-124591039D01*
X160595000Y-132525000D02*
X161295000Y-133225000D01*
X187625000Y-122365000D02*
X187625000Y-124036539D01*
X158395000Y-133575000D02*
X158395000Y-135225000D01*
X222535000Y-122375000D02*
X222535000Y-120655000D01*
X170145000Y-124229500D02*
X170135000Y-124239500D01*
X222535000Y-122375000D02*
X222535000Y-124195000D01*
X222535000Y-120655000D02*
X222545000Y-120645000D01*
X141995000Y-133175000D02*
X142015000Y-133155000D01*
X218265000Y-133655000D02*
X218275000Y-133665000D01*
X222450000Y-132250000D02*
X222450000Y-133187500D01*
X198045000Y-133595000D02*
X198795000Y-133595000D01*
%TO.N,/DQ0*%
X144445000Y-142365000D02*
X144445000Y-140405000D01*
X144445000Y-142365000D02*
X146680000Y-144600000D01*
X144415000Y-133575000D02*
X144415000Y-140375000D01*
%TO.N,/~{WE}*%
X143885000Y-131735000D02*
X141515000Y-131735000D01*
X166615000Y-140515000D02*
X166615000Y-138695000D01*
X186470000Y-142440000D02*
X186640000Y-142270000D01*
X158735000Y-129215000D02*
X158735000Y-126945000D01*
X176215000Y-126924000D02*
X176210500Y-126919500D01*
X160335000Y-136875000D02*
X159685000Y-136225000D01*
X176215000Y-129195000D02*
X176215000Y-126924000D01*
X193725000Y-129205000D02*
X193725000Y-126925000D01*
X186640000Y-142270000D02*
X186640000Y-140450000D01*
X141515000Y-131735000D02*
X141215000Y-131435000D01*
X143885000Y-131735000D02*
X143790489Y-131829511D01*
X146985000Y-139235000D02*
X145905000Y-138155000D01*
X158735000Y-126945000D02*
X158709500Y-126919500D01*
X211125000Y-126939500D02*
X211105000Y-126919500D01*
X211125000Y-129205000D02*
X211125000Y-126939500D01*
X143790489Y-131829511D02*
X143790489Y-138029511D01*
X159685000Y-136225000D02*
X159545000Y-136225000D01*
X143790489Y-138029511D02*
X143665000Y-138155000D01*
X159545000Y-131225000D02*
X159545000Y-136225000D01*
X206210000Y-140510000D02*
X206210000Y-142289003D01*
X206210000Y-142289003D02*
X206320497Y-142399500D01*
X158735000Y-130415000D02*
X159545000Y-131225000D01*
X141215000Y-131435000D02*
X141215000Y-129215000D01*
X165205489Y-137285489D02*
X164985489Y-137285489D01*
X193725000Y-126925000D02*
X193719500Y-126919500D01*
X166615000Y-138695000D02*
X165205489Y-137285489D01*
X141225000Y-126805000D02*
X141225000Y-129205000D01*
%TO.N,/~{RAS}*%
X147534520Y-142325480D02*
X148255000Y-141605000D01*
X212395000Y-129205000D02*
X212395000Y-127055000D01*
X162150489Y-136230489D02*
X163125000Y-137205000D01*
X142490000Y-129240000D02*
X142490000Y-130920000D01*
X207480000Y-140510000D02*
X207480000Y-142239500D01*
X163125000Y-137695000D02*
X163255000Y-137825000D01*
X142490000Y-130920000D02*
X142855480Y-131285480D01*
X187910000Y-138230000D02*
X187250000Y-137570000D01*
X144695000Y-127705978D02*
X144695000Y-128035000D01*
X178114511Y-127395489D02*
X177490000Y-128020000D01*
X207480000Y-142239500D02*
X207320000Y-142399500D01*
X142485000Y-129215000D02*
X142485000Y-127315000D01*
X161052980Y-131462980D02*
X161382980Y-131462980D01*
X160005000Y-128015000D02*
X160765000Y-127255000D01*
X145075480Y-142325480D02*
X147534520Y-142325480D01*
X211280000Y-131410000D02*
X211280000Y-131390000D01*
X145074511Y-138575489D02*
X145074511Y-142324511D01*
X145044511Y-138545489D02*
X145074511Y-138575489D01*
X179659502Y-127670480D02*
X179384511Y-127395489D01*
X212400000Y-130300000D02*
X211285000Y-131415000D01*
X142855480Y-131285480D02*
X144569991Y-131285480D01*
X161764022Y-127255000D02*
X162335000Y-127825978D01*
X211285000Y-131415000D02*
X211280000Y-131410000D01*
X162335000Y-127825978D02*
X162335000Y-128035000D01*
X162150489Y-132230489D02*
X162150489Y-136230489D01*
X179384511Y-127395489D02*
X178114511Y-127395489D01*
X187910000Y-140450000D02*
X187910000Y-138230000D01*
X160765000Y-127255000D02*
X161764022Y-127255000D01*
X145044511Y-131760000D02*
X145044511Y-138545489D01*
X166185000Y-137505114D02*
X167885000Y-139205114D01*
X160005000Y-130415000D02*
X161052980Y-131462980D01*
X142485000Y-127315000D02*
X144304022Y-127315000D01*
X163125000Y-137205000D02*
X163125000Y-137695000D01*
X179659502Y-127650480D02*
X179659502Y-127720000D01*
X144569991Y-131285480D02*
X145044511Y-131760000D01*
X161382980Y-131462980D02*
X162150489Y-132230489D01*
X212395000Y-127055000D02*
X212365000Y-127025000D01*
X144304022Y-127315000D02*
X144695000Y-127705978D01*
X166185000Y-137205000D02*
X166185000Y-137505114D01*
X145074511Y-142324511D02*
X145075480Y-142325480D01*
X179519511Y-127510489D02*
X179695000Y-127685978D01*
%TO.N,/A11*%
X147750000Y-136830000D02*
X149170000Y-138250000D01*
X194914511Y-136005489D02*
X194914511Y-136100989D01*
X178760000Y-129220000D02*
X179224520Y-129684520D01*
X186950000Y-138400000D02*
X186890000Y-138400000D01*
X169155000Y-136134022D02*
X169159511Y-136129511D01*
X149114502Y-138305498D02*
X149170000Y-138250000D01*
X161275000Y-130415000D02*
X162720489Y-131860489D01*
X146330489Y-131790489D02*
X146330489Y-136750489D01*
X162720489Y-131860489D02*
X163399511Y-131860489D01*
X208750000Y-140510000D02*
X208750000Y-136709500D01*
X163399511Y-131860489D02*
X163405000Y-131865978D01*
X194914511Y-136100989D02*
X194910000Y-136105500D01*
X181690000Y-134102507D02*
X181690000Y-135800000D01*
X148055000Y-138305498D02*
X149114502Y-138305498D01*
X169155000Y-140515000D02*
X169155000Y-136134022D01*
X185439989Y-136949989D02*
X185439989Y-135930489D01*
X186890000Y-138400000D02*
X185439989Y-136949989D01*
X211965489Y-131825489D02*
X211965489Y-136615489D01*
X149525000Y-138605000D02*
X149170000Y-138250000D01*
X187264511Y-142253533D02*
X187264511Y-138714511D01*
X163405000Y-136105000D02*
X163320500Y-136105000D01*
X163405000Y-131865978D02*
X163405000Y-136105000D01*
X179224520Y-132824520D02*
X179925480Y-133525480D01*
X187264511Y-138714511D02*
X186950000Y-138400000D01*
X179925480Y-133525480D02*
X181112973Y-133525480D01*
X189180000Y-141650000D02*
X188220000Y-142610000D01*
X194914511Y-131785489D02*
X194914511Y-136005489D01*
X211965489Y-136615489D02*
X211970000Y-136620000D01*
X146330489Y-136750489D02*
X146410000Y-136830000D01*
X187620978Y-142610000D02*
X187264511Y-142253533D01*
X149525000Y-140405000D02*
X149525000Y-138605000D01*
X213670000Y-130430000D02*
X212274511Y-131825489D01*
X212274511Y-131825489D02*
X211965489Y-131825489D01*
X146410000Y-136830000D02*
X147750000Y-136830000D01*
X181112973Y-133525480D02*
X181690000Y-134102507D01*
X143755000Y-129215000D02*
X146330489Y-131790489D01*
X188220000Y-142610000D02*
X187620978Y-142610000D01*
X179224520Y-129684520D02*
X179224520Y-132824520D01*
X208750000Y-136709500D02*
X208839500Y-136620000D01*
X196270000Y-130430000D02*
X194914511Y-131785489D01*
%TO.N,/A10*%
X171730000Y-137410000D02*
X171730000Y-140510000D01*
X213580000Y-137020000D02*
X214490000Y-137020000D01*
X163845000Y-129185000D02*
X163475000Y-129185000D01*
X215677299Y-135832701D02*
X215677299Y-135802701D01*
X171335000Y-130255000D02*
X171335000Y-130574022D01*
X211320000Y-139280000D02*
X213580000Y-137020000D01*
X163475000Y-129185000D02*
X163385000Y-129275000D01*
X191750000Y-140420000D02*
X191750000Y-137250500D01*
X171335000Y-130574022D02*
X172375489Y-131614511D01*
X191750000Y-137250500D02*
X190340000Y-135840500D01*
X148485000Y-136765000D02*
X148485000Y-136415000D01*
X172375489Y-131614511D02*
X172375489Y-136764511D01*
X214490000Y-137020000D02*
X215677299Y-135832701D01*
X172375489Y-136764511D02*
X171730000Y-137410000D01*
X152095000Y-140375000D02*
X148485000Y-136765000D01*
%TO.N,/A0*%
X165115000Y-130775000D02*
X165255000Y-130915000D01*
X181310000Y-141660000D02*
X181295000Y-141675000D01*
X182600000Y-130390000D02*
X183424511Y-131214511D01*
X178630000Y-136970000D02*
X181310000Y-139650000D01*
X147595000Y-135305000D02*
X147595000Y-129185000D01*
X147825000Y-135535000D02*
X147595000Y-135305000D01*
X153365000Y-139175000D02*
X152605000Y-138415000D01*
X152605000Y-138415000D02*
X151775000Y-138415000D01*
X181999022Y-136870000D02*
X183424511Y-135444511D01*
X148895000Y-135535000D02*
X147825000Y-135535000D01*
X151775000Y-138415000D02*
X148895000Y-135535000D01*
X182259502Y-129190000D02*
X182229502Y-129220000D01*
X182600000Y-129190000D02*
X182259502Y-129190000D01*
X181310000Y-139650000D02*
X181310000Y-141660000D01*
X183424511Y-131214511D02*
X183424511Y-135444511D01*
X165115000Y-129185000D02*
X165115000Y-130775000D01*
X181999022Y-136870000D02*
X181270000Y-136870000D01*
X217620000Y-126800000D02*
X217620000Y-129090000D01*
%TO.N,/A1*%
X204285489Y-131855489D02*
X201775489Y-131855489D01*
X150455000Y-132175000D02*
X150455000Y-134995000D01*
X201775489Y-131855489D02*
X201380000Y-131460000D01*
X206315000Y-138355000D02*
X206315000Y-136869282D01*
X184715489Y-137565489D02*
X184990000Y-137840000D01*
X218999511Y-134719511D02*
X215364022Y-138355000D01*
X183870000Y-130390000D02*
X184715489Y-131235489D01*
X204285489Y-131855489D02*
X204285489Y-135504511D01*
X201380000Y-131460000D02*
X201380000Y-129200000D01*
X204885749Y-136104771D02*
X205550489Y-136104771D01*
X150030489Y-131750489D02*
X150455000Y-132175000D01*
X174265000Y-138025000D02*
X174255000Y-138015000D01*
X215364022Y-138355000D02*
X213919500Y-138355000D01*
X166385000Y-131075000D02*
X167230489Y-131920489D01*
X204285489Y-135504511D02*
X204885749Y-136104771D01*
X167230489Y-137525989D02*
X167245000Y-137540500D01*
X150455000Y-134995000D02*
X154635000Y-139175000D01*
X148865000Y-129185000D02*
X148865000Y-130950718D01*
X149664771Y-131750489D02*
X150030489Y-131750489D01*
X193665000Y-138535000D02*
X193665000Y-138015000D01*
X218999511Y-133364897D02*
X218999511Y-134719511D01*
X213855000Y-138355000D02*
X213919500Y-138355000D01*
X184715489Y-131235489D02*
X184715489Y-137565489D01*
X166385000Y-129185000D02*
X166385000Y-131075000D01*
X167230489Y-131920489D02*
X167230489Y-137525989D01*
X174265000Y-140485000D02*
X174265000Y-138025000D01*
X148865000Y-130950718D02*
X149664771Y-131750489D01*
X194285000Y-139155000D02*
X193665000Y-138535000D01*
X213855000Y-140455000D02*
X213855000Y-138355000D01*
X206315000Y-136869282D02*
X205550489Y-136104771D01*
X218775000Y-129175000D02*
X218775000Y-133140386D01*
X218775000Y-133140386D02*
X218999511Y-133364897D01*
%TO.N,/A2*%
X185985489Y-135444511D02*
X186520978Y-135980000D01*
X150135000Y-129185000D02*
X150135000Y-131219282D01*
X155534502Y-138994502D02*
X155534502Y-139235000D01*
X221900000Y-138700000D02*
X219500000Y-138700000D01*
X195555000Y-139169355D02*
X194690500Y-138304855D01*
X202650000Y-127600000D02*
X202930000Y-127320000D01*
X214754502Y-139275000D02*
X215079740Y-139275000D01*
X155910000Y-142920000D02*
X157590000Y-144600000D01*
X215130000Y-139280000D02*
X214770000Y-139280000D01*
X222774521Y-135424521D02*
X222774521Y-137825479D01*
X167655000Y-130385000D02*
X168465480Y-131195480D01*
X190559500Y-138843782D02*
X190559500Y-139220969D01*
X153391467Y-137290489D02*
X153830489Y-137290489D01*
X206825489Y-136985489D02*
X207305000Y-137465000D01*
X186520978Y-135980000D02*
X187710000Y-135980000D01*
X206040489Y-127790489D02*
X206040489Y-130240489D01*
X222774521Y-137825479D02*
X221900000Y-138700000D01*
X169884022Y-131995000D02*
X169884022Y-138974022D01*
X185140000Y-131030000D02*
X185984511Y-131874511D01*
X202930000Y-127320000D02*
X205570000Y-127320000D01*
X202650000Y-129200000D02*
X202650000Y-127600000D01*
X150135000Y-131219282D02*
X151382859Y-132467141D01*
X185140000Y-129190000D02*
X185140000Y-131030000D01*
X205570000Y-127320000D02*
X206040489Y-127790489D01*
X187710000Y-135994282D02*
X190559500Y-138843782D01*
X185984511Y-131874511D02*
X185985489Y-131874511D01*
X185985489Y-131874511D02*
X185985489Y-135444511D01*
X218750000Y-137950000D02*
X216460000Y-137950000D01*
X155905000Y-139605498D02*
X155534502Y-139235000D01*
X155910000Y-140400000D02*
X155910000Y-142920000D01*
X151382859Y-132467141D02*
X151382859Y-135281881D01*
X168465480Y-131195480D02*
X169084502Y-131195480D01*
X221525480Y-131875480D02*
X221525480Y-134175480D01*
X206040489Y-130240489D02*
X206825489Y-131025489D01*
X220050000Y-130400000D02*
X221525480Y-131875480D01*
X151382859Y-135281881D02*
X153391467Y-137290489D01*
X169884022Y-138974022D02*
X170065000Y-139155000D01*
X153830489Y-137290489D02*
X155534502Y-138994502D01*
X219500000Y-138700000D02*
X218750000Y-137950000D01*
X187710000Y-135980000D02*
X187710000Y-135994282D01*
X216460000Y-137950000D02*
X215130000Y-139280000D01*
X221525480Y-134175480D02*
X222774521Y-135424521D01*
X169084502Y-131195480D02*
X169884022Y-131995000D01*
X206825489Y-131025489D02*
X206825489Y-136985489D01*
%TO.N,/A3*%
X188450000Y-135520000D02*
X190220000Y-137290000D01*
X152991467Y-135480489D02*
X154010489Y-135480489D01*
X223025489Y-131525489D02*
X222445489Y-131525489D01*
X170385000Y-131955000D02*
X170385000Y-137585000D01*
X192570000Y-138085386D02*
X192474500Y-138180886D01*
X157180000Y-141650000D02*
X160130000Y-144600000D01*
X152535000Y-131720489D02*
X152724511Y-131910000D01*
X152190489Y-131720489D02*
X152535000Y-131720489D01*
X152724511Y-131910000D02*
X152724511Y-135213533D01*
X221405718Y-139830000D02*
X223349520Y-137886198D01*
X176434502Y-140455000D02*
X176775000Y-140455000D01*
X223349520Y-131849520D02*
X223025489Y-131525489D01*
X187330978Y-135520000D02*
X188450000Y-135520000D01*
X170875000Y-140315000D02*
X170705000Y-140485000D01*
X186410000Y-130390000D02*
X187255489Y-131235489D01*
X222445489Y-131525489D02*
X221320000Y-130400000D01*
X157175000Y-138645000D02*
X157175000Y-140375000D01*
X196830000Y-139220000D02*
X194900489Y-137290489D01*
X152724511Y-135213533D02*
X152991467Y-135480489D01*
X187255489Y-131235489D02*
X187255489Y-135444511D01*
X170875000Y-138075000D02*
X170875000Y-140315000D01*
X170385000Y-131955000D02*
X170385000Y-131860261D01*
X194900489Y-137290489D02*
X193364897Y-137290489D01*
X170385000Y-137585000D02*
X170875000Y-138075000D01*
X151405000Y-129185000D02*
X151405000Y-130935000D01*
X193364897Y-137290489D02*
X192570000Y-138085386D01*
X216395000Y-139255000D02*
X217019511Y-138630489D01*
X192474500Y-138180886D02*
X192474500Y-138210000D01*
X223349520Y-137886198D02*
X223349520Y-131849520D01*
X217019511Y-138630489D02*
X218290489Y-138630489D01*
X187255489Y-135444511D02*
X187330978Y-135520000D01*
X218290489Y-138630489D02*
X219490000Y-139830000D01*
X170385000Y-131860261D02*
X168930000Y-130405260D01*
X151405000Y-130935000D02*
X152190489Y-131720489D01*
X219490000Y-139830000D02*
X221405718Y-139830000D01*
X154010489Y-135480489D02*
X157175000Y-138645000D01*
%TO.N,/A4*%
X151405000Y-126075000D02*
X151405000Y-122355000D01*
X176844511Y-133645489D02*
X176844511Y-127310103D01*
X186075000Y-124445000D02*
X186075000Y-125875000D01*
X197470000Y-131750000D02*
X197470000Y-126580000D01*
X218134511Y-131024511D02*
X218134511Y-127375489D01*
X216400000Y-132450000D02*
X217825489Y-131024511D01*
X197470000Y-126580000D02*
X197855000Y-126195000D01*
X221345000Y-124185000D02*
X221345000Y-122375000D01*
X168925000Y-122355000D02*
X168925000Y-125995000D01*
X176935011Y-126350746D02*
X176571880Y-125987615D01*
X186405000Y-124115000D02*
X186095000Y-124425000D01*
X156840489Y-126129511D02*
X156950489Y-126019511D01*
X218134511Y-127375489D02*
X219434501Y-126075499D01*
X176844511Y-127310103D02*
X176935011Y-127219603D01*
X203915000Y-122345000D02*
X203915000Y-126105000D01*
X157175000Y-133545000D02*
X157175000Y-131655000D01*
X168925000Y-125995000D02*
X168949511Y-126019511D01*
X156840489Y-131320489D02*
X156840489Y-126129511D01*
X203915000Y-126105000D02*
X203825000Y-126195000D01*
X186095000Y-124425000D02*
X186075000Y-124445000D01*
X151385000Y-126095000D02*
X151405000Y-126075000D01*
X217825489Y-131024511D02*
X218134511Y-131024511D01*
X196830000Y-132390000D02*
X197470000Y-131750000D01*
X176935011Y-127219603D02*
X176935011Y-126350746D01*
X157175000Y-131655000D02*
X156840489Y-131320489D01*
X219434501Y-126075499D02*
X219454501Y-126075499D01*
X186405000Y-122335000D02*
X186405000Y-124115000D01*
%TO.N,/A5*%
X216864511Y-126530875D02*
X216864511Y-130875489D01*
X155570489Y-126290489D02*
X154405000Y-125125000D01*
X185135000Y-125265000D02*
X185135000Y-122335000D01*
X167655000Y-122355000D02*
X167655000Y-125105000D01*
X175660000Y-125000000D02*
X175485989Y-125174011D01*
X155905000Y-131625000D02*
X155570489Y-131290489D01*
X196940000Y-125460000D02*
X197075000Y-125325000D01*
X175485989Y-127219603D02*
X175574511Y-127308125D01*
X218144511Y-126075489D02*
X217319897Y-126075489D01*
X216864511Y-130875489D02*
X215130000Y-132610000D01*
X202675000Y-125415000D02*
X202685000Y-125425000D01*
X167655000Y-125105000D02*
X167635000Y-125125000D01*
X196940000Y-131010000D02*
X196940000Y-125460000D01*
X220035000Y-124185000D02*
X220035000Y-122355000D01*
X185105000Y-125295000D02*
X185135000Y-125265000D01*
X202675000Y-122375000D02*
X202675000Y-125415000D01*
X155570489Y-131290489D02*
X155570489Y-126290489D01*
X175485989Y-125174011D02*
X175485989Y-127219603D01*
X150135000Y-125085000D02*
X150135000Y-122355000D01*
X195560000Y-132390000D02*
X196940000Y-131010000D01*
X220035000Y-124185000D02*
X218144511Y-126075489D01*
X155905000Y-133545000D02*
X155905000Y-131625000D01*
X175574511Y-133645489D02*
X175574511Y-127308125D01*
X150095000Y-125125000D02*
X150135000Y-125085000D01*
X217319897Y-126075489D02*
X216864511Y-126530875D01*
%TO.N,/A6*%
X201355000Y-123975000D02*
X201355000Y-122365000D01*
X214505489Y-131804511D02*
X214505489Y-133004511D01*
X166385000Y-122355000D02*
X166385000Y-124085000D01*
X153665000Y-123655000D02*
X153525000Y-123515000D01*
X194560000Y-127170000D02*
X194560000Y-124730000D01*
X153665000Y-126694022D02*
X153665000Y-123655000D01*
X174304511Y-124745489D02*
X174304511Y-124735489D01*
X194354511Y-127375489D02*
X194560000Y-127170000D01*
X153409511Y-126949511D02*
X153665000Y-126694022D01*
X154640000Y-133570000D02*
X154640000Y-131880000D01*
X174304511Y-133645489D02*
X174304511Y-124745489D01*
X183835000Y-123935000D02*
X183835000Y-122365000D01*
X215050489Y-124455089D02*
X215050489Y-131259511D01*
X154640000Y-131880000D02*
X153409511Y-130649511D01*
X153409511Y-130649511D02*
X153409511Y-126949511D01*
X194354511Y-133525489D02*
X194354511Y-127375489D01*
X174304511Y-124735489D02*
X174410000Y-124630000D01*
X194560000Y-124730000D02*
X194400000Y-124570000D01*
X214505489Y-133004511D02*
X213860000Y-133650000D01*
X215050489Y-131259511D02*
X214505489Y-131804511D01*
X148865000Y-122355000D02*
X148865000Y-123955000D01*
%TO.N,/A7*%
X162365000Y-123324022D02*
X162365000Y-122465000D01*
X152050489Y-130859511D02*
X152235978Y-131045000D01*
X164350000Y-124320000D02*
X163360978Y-124320000D01*
X172280978Y-124740000D02*
X171480498Y-123939520D01*
X214665000Y-122715000D02*
X215615489Y-123665489D01*
X200110000Y-122370000D02*
X199809502Y-122370000D01*
X171480498Y-123939520D02*
X171480498Y-122465000D01*
X152595000Y-131045000D02*
X153365000Y-131815000D01*
X165115000Y-123555000D02*
X164350000Y-124320000D01*
X214310000Y-131364282D02*
X213848793Y-131825489D01*
X214665000Y-122715000D02*
X214665000Y-123826000D01*
X193084511Y-127585489D02*
X192994989Y-127495967D01*
X177839022Y-137820000D02*
X176660000Y-137820000D01*
X215615489Y-123665489D02*
X215615489Y-124194511D01*
X151488533Y-126819511D02*
X152050489Y-127381467D01*
X174110000Y-137220000D02*
X176060000Y-137220000D01*
X215615489Y-124194511D02*
X215615978Y-124195000D01*
X176660000Y-137820000D02*
X176060000Y-137220000D01*
X213790500Y-124700500D02*
X214310000Y-125220000D01*
X193084511Y-133525489D02*
X193084511Y-127585489D01*
X178909511Y-138890489D02*
X177839022Y-137820000D01*
X192994989Y-124754989D02*
X192525489Y-124285489D01*
X189326467Y-124285489D02*
X188990498Y-123949520D01*
X173034511Y-125024511D02*
X172750000Y-124740000D01*
X148660386Y-124715000D02*
X150764897Y-126819511D01*
X182600000Y-122360000D02*
X182334502Y-122360000D01*
X217505000Y-123545000D02*
X216855000Y-124195000D01*
X214665000Y-123826000D02*
X213790500Y-124700500D01*
X213848793Y-131825489D02*
X213315489Y-131825489D01*
X152050489Y-127381467D02*
X152050489Y-130859511D01*
X147879500Y-124715000D02*
X148660386Y-124715000D01*
X199809502Y-122370000D02*
X199739502Y-122440000D01*
X173000000Y-133680000D02*
X173000000Y-136110000D01*
X163360978Y-124320000D02*
X162365000Y-123324022D01*
X147595000Y-124430500D02*
X147879500Y-124715000D01*
X150764897Y-126819511D02*
X151488533Y-126819511D01*
X192525489Y-124285489D02*
X189326467Y-124285489D01*
X182334502Y-122360000D02*
X182229502Y-122465000D01*
X215615978Y-124195000D02*
X216855000Y-124195000D01*
X173000000Y-136110000D02*
X174110000Y-137220000D01*
X153365000Y-131815000D02*
X153365000Y-133545000D01*
X177910000Y-144600000D02*
X178909511Y-143600489D01*
X213315489Y-131825489D02*
X213310000Y-131820000D01*
X178909511Y-143600489D02*
X178909511Y-138890489D01*
X188990498Y-123949520D02*
X188990498Y-122465000D01*
X173034511Y-133645489D02*
X173034511Y-125024511D01*
X213310000Y-131820000D02*
X212590000Y-132540000D01*
X147595000Y-122355000D02*
X147595000Y-124430500D01*
X172750000Y-124740000D02*
X172280978Y-124740000D01*
X152235978Y-131045000D02*
X152595000Y-131045000D01*
X192994989Y-127495967D02*
X192994989Y-124754989D01*
X214310000Y-125220000D02*
X214310000Y-131364282D01*
%TO.N,/A8*%
X212969022Y-124250000D02*
X213015489Y-124203533D01*
X191814511Y-133525489D02*
X191814511Y-125105489D01*
X148965000Y-125715000D02*
X150759511Y-127509511D01*
X210380489Y-127239511D02*
X210380489Y-126589511D01*
X150759511Y-130988533D02*
X152095000Y-132324022D01*
X150759511Y-127509511D02*
X150779511Y-127509511D01*
X210380489Y-126589511D02*
X212720000Y-124250000D01*
X147854886Y-125715000D02*
X148965000Y-125715000D01*
X215268049Y-120581951D02*
X215268049Y-121468049D01*
X163011951Y-121521951D02*
X163845000Y-122355000D01*
X211320000Y-133650000D02*
X210505489Y-132835489D01*
X146325000Y-122104000D02*
X145435000Y-121214000D01*
X214511587Y-119825489D02*
X215268049Y-120581951D01*
X180458049Y-121468049D02*
X181325000Y-122335000D01*
X215358049Y-121468049D02*
X216235000Y-122345000D01*
X171725000Y-133655000D02*
X171725000Y-132115000D01*
X215268049Y-121468049D02*
X215358049Y-121468049D01*
X171725000Y-132115000D02*
X171125000Y-131515000D01*
X146325000Y-124185114D02*
X147854886Y-125715000D01*
X146325000Y-122355000D02*
X146325000Y-124185114D01*
X210505489Y-132835489D02*
X210505489Y-127364511D01*
X213015489Y-120559897D02*
X213749897Y-119825489D01*
X213015489Y-124203533D02*
X213015489Y-120559897D01*
X213749897Y-119825489D02*
X214511587Y-119825489D01*
X198051951Y-121561951D02*
X198835000Y-122345000D01*
X150785489Y-127515489D02*
X150764511Y-127536467D01*
X198051951Y-121468049D02*
X198051951Y-121561951D01*
X212720000Y-124250000D02*
X212969022Y-124250000D01*
X180361951Y-121468049D02*
X180458049Y-121468049D01*
X191814511Y-125105489D02*
X191910000Y-125010000D01*
X150779511Y-127509511D02*
X150785489Y-127515489D01*
X210505489Y-127364511D02*
X210380489Y-127239511D01*
X150764511Y-127536467D02*
X150764511Y-130988533D01*
X163011951Y-121468049D02*
X163011951Y-121521951D01*
%TO.N,/A9*%
X164275000Y-126615000D02*
X166245000Y-126615000D01*
X168835000Y-131645000D02*
X169125000Y-131935000D01*
X209205489Y-120284511D02*
X209205489Y-124224511D01*
X148225000Y-131105000D02*
X148225000Y-127415000D01*
X166245000Y-126615000D02*
X167035489Y-127405489D01*
X209235489Y-124735489D02*
X209900000Y-125400000D01*
X209900000Y-126910000D02*
X209235489Y-127574511D01*
X149495000Y-132375000D02*
X148225000Y-131105000D01*
X161245000Y-120514000D02*
X161269500Y-120489500D01*
X209900000Y-125400000D02*
X209900000Y-126910000D01*
X143725000Y-122385000D02*
X143725000Y-120499500D01*
X209235489Y-130869911D02*
X208720000Y-131385400D01*
X146700000Y-125890000D02*
X146030000Y-125890000D01*
X214050000Y-120550000D02*
X213640000Y-120960000D01*
X148225000Y-127415000D02*
X146700000Y-125890000D01*
X167035489Y-127405489D02*
X167035489Y-131089771D01*
X196235000Y-120494000D02*
X196230500Y-120489500D01*
X213640000Y-120960000D02*
X213640000Y-122400000D01*
X196235000Y-122375000D02*
X196235000Y-120494000D01*
X167035489Y-131089771D02*
X167590718Y-131645000D01*
X161245000Y-122385000D02*
X161245000Y-120514000D01*
X143725000Y-120499500D02*
X143715000Y-120489500D01*
X208720000Y-131385400D02*
X208720000Y-133680000D01*
X209205489Y-124224511D02*
X209235489Y-124254511D01*
X209210000Y-120280000D02*
X209205489Y-120284511D01*
X169125000Y-131935000D02*
X169125000Y-133685000D01*
X209235489Y-127574511D02*
X209235489Y-130869911D01*
X167590718Y-131645000D02*
X168835000Y-131645000D01*
X209235489Y-124254511D02*
X209235489Y-124735489D01*
X161245000Y-123585000D02*
X164275000Y-126615000D01*
X143725000Y-123585000D02*
X146030000Y-125890000D01*
%TO.N,/~{CAS}*%
X141185000Y-122385000D02*
X141185000Y-124395000D01*
X193020000Y-119760000D02*
X193015000Y-119765000D01*
X202025489Y-127175489D02*
X202025489Y-130875489D01*
X197327440Y-123417440D02*
X200430000Y-126520000D01*
X197327440Y-120212560D02*
X197327440Y-123417440D01*
X166585000Y-132485000D02*
X165960489Y-131860489D01*
X141185000Y-124395000D02*
X143345000Y-126555000D01*
X145965000Y-126555000D02*
X146955000Y-127545000D01*
X205704739Y-131390000D02*
X206180000Y-131865261D01*
X186605000Y-133595000D02*
X186605000Y-131665000D01*
X162632307Y-128762307D02*
X163125000Y-128269614D01*
X162632307Y-130562307D02*
X163225000Y-131155000D01*
X193690000Y-119760000D02*
X193020000Y-119760000D01*
X161095000Y-124505000D02*
X159625000Y-124505000D01*
X141515000Y-119765000D02*
X141185000Y-120095000D01*
X202025489Y-130875489D02*
X202540000Y-131390000D01*
X200430000Y-126520000D02*
X201370000Y-126520000D01*
X163125000Y-128269614D02*
X163125000Y-126535000D01*
X176780000Y-124870000D02*
X177565000Y-125655000D01*
X185785489Y-130845489D02*
X185785489Y-127386467D01*
X146960000Y-135910500D02*
X147155000Y-136105500D01*
X192718352Y-119648352D02*
X192835000Y-119765000D01*
X192835000Y-119765000D02*
X192835000Y-119735000D01*
X158705000Y-122385000D02*
X158705000Y-119785000D01*
X193690000Y-119760000D02*
X196874880Y-119760000D01*
X143345000Y-126555000D02*
X145965000Y-126555000D01*
X164354022Y-131155000D02*
X163225000Y-131155000D01*
X158705000Y-119785000D02*
X158725000Y-119765000D01*
X189381648Y-119648352D02*
X192718352Y-119648352D01*
X201370000Y-126520000D02*
X202025489Y-127175489D01*
X146955000Y-127545000D02*
X146955000Y-133575000D01*
X141185000Y-120095000D02*
X141185000Y-122385000D01*
X158725000Y-119765000D02*
X176165000Y-119765000D01*
X176780000Y-124130000D02*
X176780000Y-124870000D01*
X206180000Y-131865261D02*
X206180000Y-133680000D01*
X196874880Y-119760000D02*
X197327440Y-120212560D01*
X193700000Y-119770000D02*
X193690000Y-119760000D01*
X192835000Y-119765000D02*
X193015000Y-119765000D01*
X163125000Y-126535000D02*
X161095000Y-124505000D01*
X176185000Y-122365000D02*
X176185000Y-119785000D01*
X159625000Y-124505000D02*
X158705000Y-123585000D01*
X185785489Y-127386467D02*
X184054022Y-125655000D01*
X141515000Y-119765000D02*
X158725000Y-119765000D01*
X162632307Y-128762307D02*
X162632307Y-130562307D01*
X202540000Y-131390000D02*
X205704739Y-131390000D01*
X176190000Y-123540000D02*
X176780000Y-124130000D01*
X176185000Y-119785000D02*
X176165000Y-119765000D01*
X189265000Y-119765000D02*
X189381648Y-119648352D01*
X177565000Y-125655000D02*
X184054022Y-125655000D01*
X186605000Y-131665000D02*
X185785489Y-130845489D01*
X165960489Y-131860489D02*
X165059511Y-131860489D01*
X176165000Y-119765000D02*
X189265000Y-119765000D01*
X165059511Y-131860489D02*
X164354022Y-131155000D01*
X146960000Y-133600000D02*
X146960000Y-135910500D01*
X193700000Y-122400000D02*
X193700000Y-119770000D01*
D16*
%TO.N,/DQ1*%
X140150000Y-131910000D02*
X140150000Y-134050000D01*
D15*
X155050000Y-144600000D02*
X152945000Y-142495000D01*
X152945000Y-142495000D02*
X151765978Y-142495000D01*
X151765978Y-142495000D02*
X150655000Y-141384022D01*
D16*
X140150000Y-134050000D02*
X141109051Y-135009051D01*
D15*
X138645000Y-122385000D02*
X138645000Y-129185000D01*
D16*
X141109051Y-135009051D02*
X141109051Y-141205000D01*
D15*
X150655000Y-141295000D02*
X150565000Y-141205000D01*
D16*
X138680000Y-130440000D02*
X140150000Y-131910000D01*
D15*
X150655000Y-141384022D02*
X150655000Y-141295000D01*
%TO.N,/DQ2*%
X161480000Y-137970000D02*
X159570000Y-137970000D01*
X157675000Y-126905000D02*
X157675000Y-125719408D01*
X159069511Y-131890489D02*
X158115489Y-130936467D01*
X158115489Y-130936467D02*
X158115489Y-127345489D01*
X156165000Y-122385000D02*
X156165000Y-129185000D01*
X159069511Y-137469511D02*
X159069511Y-131890489D01*
X158115489Y-127345489D02*
X157675000Y-126905000D01*
X157675000Y-125719408D02*
X156980592Y-125025000D01*
X159570000Y-137970000D02*
X159069511Y-137469511D01*
X156980592Y-125025000D02*
X156165000Y-125025000D01*
%TO.N,/DQ3*%
X167140978Y-142370000D02*
X170600000Y-142370000D01*
X164080000Y-141719022D02*
X164725489Y-142364511D01*
X172830000Y-144600000D02*
X170600000Y-142370000D01*
X164725489Y-142364511D02*
X167135489Y-142364511D01*
X164045000Y-140485000D02*
X164045000Y-133685000D01*
X167135489Y-142364511D02*
X167140978Y-142370000D01*
%TO.N,/DQ4*%
X184095000Y-140425000D02*
X184095000Y-133625000D01*
X181129022Y-144600000D02*
X184100000Y-141629022D01*
%TO.N,/DQ5*%
X187740000Y-136660000D02*
X186615826Y-136660000D01*
X190610000Y-144600000D02*
X190610000Y-141709022D01*
X182425500Y-137600000D02*
X183370500Y-136655000D01*
X179480000Y-136010000D02*
X179480000Y-136980000D01*
X189835000Y-140934022D02*
X189835000Y-138755000D01*
X173645489Y-135585489D02*
X173645489Y-131164511D01*
X186414406Y-136774406D02*
X186390000Y-136750000D01*
X179480000Y-136980000D02*
X180100000Y-137600000D01*
X186615826Y-136660000D02*
X186501420Y-136774406D01*
X179480000Y-136010000D02*
X179360489Y-136129511D01*
X186501420Y-136774406D02*
X186414406Y-136774406D01*
X173645000Y-129165000D02*
X173645000Y-122365000D01*
X174189511Y-136129511D02*
X173645489Y-135585489D01*
X189835000Y-138755000D02*
X187740000Y-136660000D01*
X173675000Y-131135000D02*
X173675000Y-129195000D01*
X179360489Y-136129511D02*
X174189511Y-136129511D01*
X180100000Y-137600000D02*
X182425500Y-137600000D01*
X190610000Y-141709022D02*
X189835000Y-140934022D01*
X173645489Y-131164511D02*
X173675000Y-131135000D01*
%TO.N,/DQ6*%
X203395000Y-142575000D02*
X203665000Y-142305000D01*
X203665000Y-142305000D02*
X203665000Y-140485000D01*
X200255000Y-142575000D02*
X203395000Y-142575000D01*
X203635000Y-133655000D02*
X203635000Y-140455000D01*
X198230000Y-144600000D02*
X200255000Y-142575000D01*
%TO.N,/DQ7*%
X191190000Y-125300422D02*
X190910558Y-125020980D01*
X204650000Y-137540000D02*
X205580000Y-138470000D01*
X191190000Y-129230000D02*
X191190000Y-125300422D01*
X192540978Y-136830000D02*
X195370000Y-136830000D01*
X191160000Y-122400000D02*
X191160000Y-120900000D01*
X196110000Y-137570000D02*
X200770000Y-137570000D01*
X191125489Y-131034511D02*
X191125489Y-135414511D01*
X191125489Y-135414511D02*
X192540978Y-136830000D01*
X203350000Y-144600000D02*
X205580000Y-142370000D01*
X191160000Y-120900000D02*
X191593634Y-120466366D01*
X195370000Y-136830000D02*
X196110000Y-137570000D01*
X191185000Y-130975000D02*
X191125489Y-131034511D01*
X191185000Y-130975000D02*
X191185000Y-129205000D01*
X205580000Y-142370000D02*
X205580000Y-138470000D01*
%TO.N,/DP*%
X209575000Y-131445000D02*
X209630000Y-131500000D01*
X209575000Y-131395000D02*
X209575000Y-142035000D01*
X213470000Y-144600000D02*
X211415000Y-142545000D01*
X208590000Y-127080000D02*
X208870000Y-126800000D01*
X211415000Y-142545000D02*
X210085000Y-142545000D01*
X209575000Y-142035000D02*
X210085000Y-142545000D01*
X208590000Y-129230000D02*
X208590000Y-127080000D01*
%TO.N,/QP*%
X208104511Y-142745489D02*
X208104511Y-135474022D01*
X207960489Y-125149511D02*
X208555000Y-124555000D01*
X208555000Y-124555000D02*
X208555000Y-122375000D01*
X208104511Y-142745489D02*
X206250000Y-144600000D01*
X208095489Y-131055489D02*
X207960489Y-130920489D01*
X208104511Y-135474022D02*
X208095489Y-135465000D01*
X207960489Y-130920489D02*
X207960489Y-125149511D01*
X208095489Y-135465000D02*
X208095489Y-131055489D01*
%TO.N,/~{CASP}*%
X211125000Y-124405000D02*
X211125000Y-122405000D01*
%TD*%
M02*
