%TF.GenerationSoftware,KiCad,Pcbnew,6.0.0+dfsg1-2*%
%TF.CreationDate,2022-02-11T22:49:32+03:00*%
%TF.ProjectId,simm3016,73696d6d-3330-4313-962e-6b696361645f,rev?*%
%TF.SameCoordinates,Original*%
%TF.FileFunction,Legend,Top*%
%TF.FilePolarity,Positive*%
%FSLAX46Y46*%
G04 Gerber Fmt 4.6, Leading zero omitted, Abs format (unit mm)*
G04 Created by KiCad (PCBNEW 6.0.0+dfsg1-2) date 2022-02-11 22:49:32*
%MOMM*%
%LPD*%
G01*
G04 APERTURE LIST*
%ADD10C,0.150000*%
%ADD11C,0.120000*%
G04 APERTURE END LIST*
D10*
X140985714Y-145702380D02*
X140414285Y-145702380D01*
X140700000Y-145702380D02*
X140700000Y-144702380D01*
X140604761Y-144845238D01*
X140509523Y-144940476D01*
X140414285Y-144988095D01*
X217490476Y-144602380D02*
X218109523Y-144602380D01*
X217776190Y-144983333D01*
X217919047Y-144983333D01*
X218014285Y-145030952D01*
X218061904Y-145078571D01*
X218109523Y-145173809D01*
X218109523Y-145411904D01*
X218061904Y-145507142D01*
X218014285Y-145554761D01*
X217919047Y-145602380D01*
X217633333Y-145602380D01*
X217538095Y-145554761D01*
X217490476Y-145507142D01*
X218728571Y-144602380D02*
X218823809Y-144602380D01*
X218919047Y-144650000D01*
X218966666Y-144697619D01*
X219014285Y-144792857D01*
X219061904Y-144983333D01*
X219061904Y-145221428D01*
X219014285Y-145411904D01*
X218966666Y-145507142D01*
X218919047Y-145554761D01*
X218823809Y-145602380D01*
X218728571Y-145602380D01*
X218633333Y-145554761D01*
X218585714Y-145507142D01*
X218538095Y-145411904D01*
X218490476Y-145221428D01*
X218490476Y-144983333D01*
X218538095Y-144792857D01*
X218585714Y-144697619D01*
X218633333Y-144650000D01*
X218728571Y-144602380D01*
%TO.C,D8*%
X196861904Y-120532380D02*
X196861904Y-119532380D01*
X197100000Y-119532380D01*
X197242857Y-119580000D01*
X197338095Y-119675238D01*
X197385714Y-119770476D01*
X197433333Y-119960952D01*
X197433333Y-120103809D01*
X197385714Y-120294285D01*
X197338095Y-120389523D01*
X197242857Y-120484761D01*
X197100000Y-120532380D01*
X196861904Y-120532380D01*
X198004761Y-119960952D02*
X197909523Y-119913333D01*
X197861904Y-119865714D01*
X197814285Y-119770476D01*
X197814285Y-119722857D01*
X197861904Y-119627619D01*
X197909523Y-119580000D01*
X198004761Y-119532380D01*
X198195238Y-119532380D01*
X198290476Y-119580000D01*
X198338095Y-119627619D01*
X198385714Y-119722857D01*
X198385714Y-119770476D01*
X198338095Y-119865714D01*
X198290476Y-119913333D01*
X198195238Y-119960952D01*
X198004761Y-119960952D01*
X197909523Y-120008571D01*
X197861904Y-120056190D01*
X197814285Y-120151428D01*
X197814285Y-120341904D01*
X197861904Y-120437142D01*
X197909523Y-120484761D01*
X198004761Y-120532380D01*
X198195238Y-120532380D01*
X198290476Y-120484761D01*
X198338095Y-120437142D01*
X198385714Y-120341904D01*
X198385714Y-120151428D01*
X198338095Y-120056190D01*
X198290476Y-120008571D01*
X198195238Y-119960952D01*
%TO.C,C2*%
X199663333Y-137317142D02*
X199615714Y-137364761D01*
X199472857Y-137412380D01*
X199377619Y-137412380D01*
X199234761Y-137364761D01*
X199139523Y-137269523D01*
X199091904Y-137174285D01*
X199044285Y-136983809D01*
X199044285Y-136840952D01*
X199091904Y-136650476D01*
X199139523Y-136555238D01*
X199234761Y-136460000D01*
X199377619Y-136412380D01*
X199472857Y-136412380D01*
X199615714Y-136460000D01*
X199663333Y-136507619D01*
X200044285Y-136507619D02*
X200091904Y-136460000D01*
X200187142Y-136412380D01*
X200425238Y-136412380D01*
X200520476Y-136460000D01*
X200568095Y-136507619D01*
X200615714Y-136602857D01*
X200615714Y-136698095D01*
X200568095Y-136840952D01*
X199996666Y-137412380D01*
X200615714Y-137412380D01*
X199692380Y-138892380D02*
X199120952Y-138892380D01*
X199406666Y-138892380D02*
X199406666Y-137892380D01*
X199311428Y-138035238D01*
X199216190Y-138130476D01*
X199120952Y-138178095D01*
X200311428Y-137892380D02*
X200406666Y-137892380D01*
X200501904Y-137940000D01*
X200549523Y-137987619D01*
X200597142Y-138082857D01*
X200644761Y-138273333D01*
X200644761Y-138511428D01*
X200597142Y-138701904D01*
X200549523Y-138797142D01*
X200501904Y-138844761D01*
X200406666Y-138892380D01*
X200311428Y-138892380D01*
X200216190Y-138844761D01*
X200168571Y-138797142D01*
X200120952Y-138701904D01*
X200073333Y-138511428D01*
X200073333Y-138273333D01*
X200120952Y-138082857D01*
X200168571Y-137987619D01*
X200216190Y-137940000D01*
X200311428Y-137892380D01*
X201263809Y-137892380D02*
X201359047Y-137892380D01*
X201454285Y-137940000D01*
X201501904Y-137987619D01*
X201549523Y-138082857D01*
X201597142Y-138273333D01*
X201597142Y-138511428D01*
X201549523Y-138701904D01*
X201501904Y-138797142D01*
X201454285Y-138844761D01*
X201359047Y-138892380D01*
X201263809Y-138892380D01*
X201168571Y-138844761D01*
X201120952Y-138797142D01*
X201073333Y-138701904D01*
X201025714Y-138511428D01*
X201025714Y-138273333D01*
X201073333Y-138082857D01*
X201120952Y-137987619D01*
X201168571Y-137940000D01*
X201263809Y-137892380D01*
X202025714Y-138225714D02*
X202025714Y-138892380D01*
X202025714Y-138320952D02*
X202073333Y-138273333D01*
X202168571Y-138225714D01*
X202311428Y-138225714D01*
X202406666Y-138273333D01*
X202454285Y-138368571D01*
X202454285Y-138892380D01*
X203263809Y-138368571D02*
X202930476Y-138368571D01*
X202930476Y-138892380D02*
X202930476Y-137892380D01*
X203406666Y-137892380D01*
%TO.C,D4*%
X179091904Y-142662380D02*
X179091904Y-141662380D01*
X179330000Y-141662380D01*
X179472857Y-141710000D01*
X179568095Y-141805238D01*
X179615714Y-141900476D01*
X179663333Y-142090952D01*
X179663333Y-142233809D01*
X179615714Y-142424285D01*
X179568095Y-142519523D01*
X179472857Y-142614761D01*
X179330000Y-142662380D01*
X179091904Y-142662380D01*
X180520476Y-141995714D02*
X180520476Y-142662380D01*
X180282380Y-141614761D02*
X180044285Y-142329047D01*
X180663333Y-142329047D01*
%TO.C,C1*%
X179983333Y-136337142D02*
X179935714Y-136384761D01*
X179792857Y-136432380D01*
X179697619Y-136432380D01*
X179554761Y-136384761D01*
X179459523Y-136289523D01*
X179411904Y-136194285D01*
X179364285Y-136003809D01*
X179364285Y-135860952D01*
X179411904Y-135670476D01*
X179459523Y-135575238D01*
X179554761Y-135480000D01*
X179697619Y-135432380D01*
X179792857Y-135432380D01*
X179935714Y-135480000D01*
X179983333Y-135527619D01*
X180935714Y-136432380D02*
X180364285Y-136432380D01*
X180650000Y-136432380D02*
X180650000Y-135432380D01*
X180554761Y-135575238D01*
X180459523Y-135670476D01*
X180364285Y-135718095D01*
X179862380Y-138412380D02*
X179290952Y-138412380D01*
X179576666Y-138412380D02*
X179576666Y-137412380D01*
X179481428Y-137555238D01*
X179386190Y-137650476D01*
X179290952Y-137698095D01*
X180481428Y-137412380D02*
X180576666Y-137412380D01*
X180671904Y-137460000D01*
X180719523Y-137507619D01*
X180767142Y-137602857D01*
X180814761Y-137793333D01*
X180814761Y-138031428D01*
X180767142Y-138221904D01*
X180719523Y-138317142D01*
X180671904Y-138364761D01*
X180576666Y-138412380D01*
X180481428Y-138412380D01*
X180386190Y-138364761D01*
X180338571Y-138317142D01*
X180290952Y-138221904D01*
X180243333Y-138031428D01*
X180243333Y-137793333D01*
X180290952Y-137602857D01*
X180338571Y-137507619D01*
X180386190Y-137460000D01*
X180481428Y-137412380D01*
X181433809Y-137412380D02*
X181529047Y-137412380D01*
X181624285Y-137460000D01*
X181671904Y-137507619D01*
X181719523Y-137602857D01*
X181767142Y-137793333D01*
X181767142Y-138031428D01*
X181719523Y-138221904D01*
X181671904Y-138317142D01*
X181624285Y-138364761D01*
X181529047Y-138412380D01*
X181433809Y-138412380D01*
X181338571Y-138364761D01*
X181290952Y-138317142D01*
X181243333Y-138221904D01*
X181195714Y-138031428D01*
X181195714Y-137793333D01*
X181243333Y-137602857D01*
X181290952Y-137507619D01*
X181338571Y-137460000D01*
X181433809Y-137412380D01*
X182195714Y-137745714D02*
X182195714Y-138412380D01*
X182195714Y-137840952D02*
X182243333Y-137793333D01*
X182338571Y-137745714D01*
X182481428Y-137745714D01*
X182576666Y-137793333D01*
X182624285Y-137888571D01*
X182624285Y-138412380D01*
X183433809Y-137888571D02*
X183100476Y-137888571D01*
X183100476Y-138412380D02*
X183100476Y-137412380D01*
X183576666Y-137412380D01*
%TO.C,D5*%
X199151904Y-142942380D02*
X199151904Y-141942380D01*
X199390000Y-141942380D01*
X199532857Y-141990000D01*
X199628095Y-142085238D01*
X199675714Y-142180476D01*
X199723333Y-142370952D01*
X199723333Y-142513809D01*
X199675714Y-142704285D01*
X199628095Y-142799523D01*
X199532857Y-142894761D01*
X199390000Y-142942380D01*
X199151904Y-142942380D01*
X200628095Y-141942380D02*
X200151904Y-141942380D01*
X200104285Y-142418571D01*
X200151904Y-142370952D01*
X200247142Y-142323333D01*
X200485238Y-142323333D01*
X200580476Y-142370952D01*
X200628095Y-142418571D01*
X200675714Y-142513809D01*
X200675714Y-142751904D01*
X200628095Y-142847142D01*
X200580476Y-142894761D01*
X200485238Y-142942380D01*
X200247142Y-142942380D01*
X200151904Y-142894761D01*
X200104285Y-142847142D01*
%TO.C,C3*%
X141233333Y-135257142D02*
X141185714Y-135304761D01*
X141042857Y-135352380D01*
X140947619Y-135352380D01*
X140804761Y-135304761D01*
X140709523Y-135209523D01*
X140661904Y-135114285D01*
X140614285Y-134923809D01*
X140614285Y-134780952D01*
X140661904Y-134590476D01*
X140709523Y-134495238D01*
X140804761Y-134400000D01*
X140947619Y-134352380D01*
X141042857Y-134352380D01*
X141185714Y-134400000D01*
X141233333Y-134447619D01*
X141566666Y-134352380D02*
X142185714Y-134352380D01*
X141852380Y-134733333D01*
X141995238Y-134733333D01*
X142090476Y-134780952D01*
X142138095Y-134828571D01*
X142185714Y-134923809D01*
X142185714Y-135161904D01*
X142138095Y-135257142D01*
X142090476Y-135304761D01*
X141995238Y-135352380D01*
X141709523Y-135352380D01*
X141614285Y-135304761D01*
X141566666Y-135257142D01*
X136004761Y-134152380D02*
X135433333Y-134152380D01*
X135719047Y-134152380D02*
X135719047Y-133152380D01*
X135623809Y-133295238D01*
X135528571Y-133390476D01*
X135433333Y-133438095D01*
X136861904Y-133485714D02*
X136861904Y-134152380D01*
X136433333Y-133485714D02*
X136433333Y-134009523D01*
X136480952Y-134104761D01*
X136576190Y-134152380D01*
X136719047Y-134152380D01*
X136814285Y-134104761D01*
X136861904Y-134057142D01*
X137671428Y-133628571D02*
X137338095Y-133628571D01*
X137338095Y-134152380D02*
X137338095Y-133152380D01*
X137814285Y-133152380D01*
%TO.C,C5*%
X222433333Y-139107142D02*
X222385714Y-139154761D01*
X222242857Y-139202380D01*
X222147619Y-139202380D01*
X222004761Y-139154761D01*
X221909523Y-139059523D01*
X221861904Y-138964285D01*
X221814285Y-138773809D01*
X221814285Y-138630952D01*
X221861904Y-138440476D01*
X221909523Y-138345238D01*
X222004761Y-138250000D01*
X222147619Y-138202380D01*
X222242857Y-138202380D01*
X222385714Y-138250000D01*
X222433333Y-138297619D01*
X223338095Y-138202380D02*
X222861904Y-138202380D01*
X222814285Y-138678571D01*
X222861904Y-138630952D01*
X222957142Y-138583333D01*
X223195238Y-138583333D01*
X223290476Y-138630952D01*
X223338095Y-138678571D01*
X223385714Y-138773809D01*
X223385714Y-139011904D01*
X223338095Y-139107142D01*
X223290476Y-139154761D01*
X223195238Y-139202380D01*
X222957142Y-139202380D01*
X222861904Y-139154761D01*
X222814285Y-139107142D01*
X221454761Y-140802380D02*
X220883333Y-140802380D01*
X221169047Y-140802380D02*
X221169047Y-139802380D01*
X221073809Y-139945238D01*
X220978571Y-140040476D01*
X220883333Y-140088095D01*
X222311904Y-140135714D02*
X222311904Y-140802380D01*
X221883333Y-140135714D02*
X221883333Y-140659523D01*
X221930952Y-140754761D01*
X222026190Y-140802380D01*
X222169047Y-140802380D01*
X222264285Y-140754761D01*
X222311904Y-140707142D01*
X223121428Y-140278571D02*
X222788095Y-140278571D01*
X222788095Y-140802380D02*
X222788095Y-139802380D01*
X223264285Y-139802380D01*
%TO.C,D1*%
X159461904Y-142852380D02*
X159461904Y-141852380D01*
X159700000Y-141852380D01*
X159842857Y-141900000D01*
X159938095Y-141995238D01*
X159985714Y-142090476D01*
X160033333Y-142280952D01*
X160033333Y-142423809D01*
X159985714Y-142614285D01*
X159938095Y-142709523D01*
X159842857Y-142804761D01*
X159700000Y-142852380D01*
X159461904Y-142852380D01*
X160985714Y-142852380D02*
X160414285Y-142852380D01*
X160700000Y-142852380D02*
X160700000Y-141852380D01*
X160604761Y-141995238D01*
X160509523Y-142090476D01*
X160414285Y-142138095D01*
%TO.C,D9*%
X214511904Y-120632380D02*
X214511904Y-119632380D01*
X214750000Y-119632380D01*
X214892857Y-119680000D01*
X214988095Y-119775238D01*
X215035714Y-119870476D01*
X215083333Y-120060952D01*
X215083333Y-120203809D01*
X215035714Y-120394285D01*
X214988095Y-120489523D01*
X214892857Y-120584761D01*
X214750000Y-120632380D01*
X214511904Y-120632380D01*
X215559523Y-120632380D02*
X215750000Y-120632380D01*
X215845238Y-120584761D01*
X215892857Y-120537142D01*
X215988095Y-120394285D01*
X216035714Y-120203809D01*
X216035714Y-119822857D01*
X215988095Y-119727619D01*
X215940476Y-119680000D01*
X215845238Y-119632380D01*
X215654761Y-119632380D01*
X215559523Y-119680000D01*
X215511904Y-119727619D01*
X215464285Y-119822857D01*
X215464285Y-120060952D01*
X215511904Y-120156190D01*
X215559523Y-120203809D01*
X215654761Y-120251428D01*
X215845238Y-120251428D01*
X215940476Y-120203809D01*
X215988095Y-120156190D01*
X216035714Y-120060952D01*
%TO.C,C4*%
X160353333Y-136427142D02*
X160305714Y-136474761D01*
X160162857Y-136522380D01*
X160067619Y-136522380D01*
X159924761Y-136474761D01*
X159829523Y-136379523D01*
X159781904Y-136284285D01*
X159734285Y-136093809D01*
X159734285Y-135950952D01*
X159781904Y-135760476D01*
X159829523Y-135665238D01*
X159924761Y-135570000D01*
X160067619Y-135522380D01*
X160162857Y-135522380D01*
X160305714Y-135570000D01*
X160353333Y-135617619D01*
X161210476Y-135855714D02*
X161210476Y-136522380D01*
X160972380Y-135474761D02*
X160734285Y-136189047D01*
X161353333Y-136189047D01*
X159994761Y-138242380D02*
X159423333Y-138242380D01*
X159709047Y-138242380D02*
X159709047Y-137242380D01*
X159613809Y-137385238D01*
X159518571Y-137480476D01*
X159423333Y-137528095D01*
X160851904Y-137575714D02*
X160851904Y-138242380D01*
X160423333Y-137575714D02*
X160423333Y-138099523D01*
X160470952Y-138194761D01*
X160566190Y-138242380D01*
X160709047Y-138242380D01*
X160804285Y-138194761D01*
X160851904Y-138147142D01*
X161661428Y-137718571D02*
X161328095Y-137718571D01*
X161328095Y-138242380D02*
X161328095Y-137242380D01*
X161804285Y-137242380D01*
%TO.C,D6*%
X179151904Y-120632380D02*
X179151904Y-119632380D01*
X179390000Y-119632380D01*
X179532857Y-119680000D01*
X179628095Y-119775238D01*
X179675714Y-119870476D01*
X179723333Y-120060952D01*
X179723333Y-120203809D01*
X179675714Y-120394285D01*
X179628095Y-120489523D01*
X179532857Y-120584761D01*
X179390000Y-120632380D01*
X179151904Y-120632380D01*
X180580476Y-119632380D02*
X180390000Y-119632380D01*
X180294761Y-119680000D01*
X180247142Y-119727619D01*
X180151904Y-119870476D01*
X180104285Y-120060952D01*
X180104285Y-120441904D01*
X180151904Y-120537142D01*
X180199523Y-120584761D01*
X180294761Y-120632380D01*
X180485238Y-120632380D01*
X180580476Y-120584761D01*
X180628095Y-120537142D01*
X180675714Y-120441904D01*
X180675714Y-120203809D01*
X180628095Y-120108571D01*
X180580476Y-120060952D01*
X180485238Y-120013333D01*
X180294761Y-120013333D01*
X180199523Y-120060952D01*
X180151904Y-120108571D01*
X180104285Y-120203809D01*
%TO.C,D2*%
X144581904Y-120492380D02*
X144581904Y-119492380D01*
X144820000Y-119492380D01*
X144962857Y-119540000D01*
X145058095Y-119635238D01*
X145105714Y-119730476D01*
X145153333Y-119920952D01*
X145153333Y-120063809D01*
X145105714Y-120254285D01*
X145058095Y-120349523D01*
X144962857Y-120444761D01*
X144820000Y-120492380D01*
X144581904Y-120492380D01*
X145534285Y-119587619D02*
X145581904Y-119540000D01*
X145677142Y-119492380D01*
X145915238Y-119492380D01*
X146010476Y-119540000D01*
X146058095Y-119587619D01*
X146105714Y-119682857D01*
X146105714Y-119778095D01*
X146058095Y-119920952D01*
X145486666Y-120492380D01*
X146105714Y-120492380D01*
%TO.C,D3*%
X161701904Y-120602380D02*
X161701904Y-119602380D01*
X161940000Y-119602380D01*
X162082857Y-119650000D01*
X162178095Y-119745238D01*
X162225714Y-119840476D01*
X162273333Y-120030952D01*
X162273333Y-120173809D01*
X162225714Y-120364285D01*
X162178095Y-120459523D01*
X162082857Y-120554761D01*
X161940000Y-120602380D01*
X161701904Y-120602380D01*
X162606666Y-119602380D02*
X163225714Y-119602380D01*
X162892380Y-119983333D01*
X163035238Y-119983333D01*
X163130476Y-120030952D01*
X163178095Y-120078571D01*
X163225714Y-120173809D01*
X163225714Y-120411904D01*
X163178095Y-120507142D01*
X163130476Y-120554761D01*
X163035238Y-120602380D01*
X162749523Y-120602380D01*
X162654285Y-120554761D01*
X162606666Y-120507142D01*
%TO.C,D7*%
X218661904Y-142722380D02*
X218661904Y-141722380D01*
X218900000Y-141722380D01*
X219042857Y-141770000D01*
X219138095Y-141865238D01*
X219185714Y-141960476D01*
X219233333Y-142150952D01*
X219233333Y-142293809D01*
X219185714Y-142484285D01*
X219138095Y-142579523D01*
X219042857Y-142674761D01*
X218900000Y-142722380D01*
X218661904Y-142722380D01*
X219566666Y-141722380D02*
X220233333Y-141722380D01*
X219804761Y-142722380D01*
D11*
%TO.C,D8*%
X189120000Y-120370000D02*
X205960000Y-120370000D01*
X189920000Y-131230000D02*
X189120000Y-130430000D01*
X189120000Y-130430000D02*
X189120000Y-120370000D01*
X205960000Y-120370000D02*
X205960000Y-131230000D01*
X205960000Y-131230000D02*
X189920000Y-131230000D01*
%TO.C,C2*%
X199565000Y-134761252D02*
X199565000Y-134238748D01*
X201035000Y-134761252D02*
X201035000Y-134238748D01*
%TO.C,D4*%
X162010000Y-141740000D02*
X162010000Y-131680000D01*
X162010000Y-131680000D02*
X178850000Y-131680000D01*
X178850000Y-131680000D02*
X178850000Y-142540000D01*
X162810000Y-142540000D02*
X162010000Y-141740000D01*
X178850000Y-142540000D02*
X162810000Y-142540000D01*
%TO.C,C1*%
X179665000Y-133661252D02*
X179665000Y-133138748D01*
X181135000Y-133661252D02*
X181135000Y-133138748D01*
%TO.C,D5*%
X182030000Y-131590000D02*
X198870000Y-131590000D01*
X182030000Y-141650000D02*
X182030000Y-131590000D01*
X198870000Y-142450000D02*
X182830000Y-142450000D01*
X198870000Y-131590000D02*
X198870000Y-142450000D01*
X182830000Y-142450000D02*
X182030000Y-141650000D01*
%TO.C,C3*%
X139938748Y-133935000D02*
X140461252Y-133935000D01*
X139938748Y-132465000D02*
X140461252Y-132465000D01*
%TO.C,C5*%
X221138748Y-133935000D02*
X221661252Y-133935000D01*
X221138748Y-132465000D02*
X221661252Y-132465000D01*
%TO.C,D1*%
X142380000Y-131570000D02*
X159220000Y-131570000D01*
X159220000Y-142430000D02*
X143180000Y-142430000D01*
X159220000Y-131570000D02*
X159220000Y-142430000D01*
X143180000Y-142430000D02*
X142380000Y-141630000D01*
X142380000Y-141630000D02*
X142380000Y-131570000D01*
%TO.C,D9*%
X206520000Y-120370000D02*
X223360000Y-120370000D01*
X223360000Y-120370000D02*
X223360000Y-131230000D01*
X223360000Y-131230000D02*
X207320000Y-131230000D01*
X207320000Y-131230000D02*
X206520000Y-130430000D01*
X206520000Y-130430000D02*
X206520000Y-120370000D01*
%TO.C,C4*%
X159865000Y-133698752D02*
X159865000Y-133176248D01*
X161335000Y-133698752D02*
X161335000Y-133176248D01*
%TO.C,D6*%
X171610000Y-120360000D02*
X188450000Y-120360000D01*
X172410000Y-131220000D02*
X171610000Y-130420000D01*
X171610000Y-130420000D02*
X171610000Y-120360000D01*
X188450000Y-131220000D02*
X172410000Y-131220000D01*
X188450000Y-120360000D02*
X188450000Y-131220000D01*
%TO.C,D2*%
X153450000Y-120380000D02*
X153450000Y-131240000D01*
X137410000Y-131240000D02*
X136610000Y-130440000D01*
X136610000Y-120380000D02*
X153450000Y-120380000D01*
X153450000Y-131240000D02*
X137410000Y-131240000D01*
X136610000Y-130440000D02*
X136610000Y-120380000D01*
%TO.C,D3*%
X170970000Y-120380000D02*
X170970000Y-131240000D01*
X154130000Y-130440000D02*
X154130000Y-120380000D01*
X154130000Y-120380000D02*
X170970000Y-120380000D01*
X170970000Y-131240000D02*
X154930000Y-131240000D01*
X154930000Y-131240000D02*
X154130000Y-130440000D01*
%TO.C,D7*%
X201600000Y-131650000D02*
X218440000Y-131650000D01*
X218440000Y-131650000D02*
X218440000Y-142510000D01*
X201600000Y-141710000D02*
X201600000Y-131650000D01*
X202400000Y-142510000D02*
X201600000Y-141710000D01*
X218440000Y-142510000D02*
X202400000Y-142510000D01*
%TD*%
M02*
