M48
; DRILL file {KiCad 6.0.0+dfsg1-2} date Пт 11 фев 2022 22:49:34
; FORMAT={-:-/ absolute / inch / decimal}
; #@! TF.CreationDate,2022-02-11T22:49:34+03:00
; #@! TF.GenerationSoftware,Kicad,Pcbnew,6.0.0+dfsg1-2
; #@! TF.FileFunction,Plated,1,4,PTH
FMAT,2
INCH
; #@! TA.AperFunction,Plated,PTH,ViaDrill
T1C0.0157
; #@! TA.AperFunction,Plated,PTH,ComponentDrill
T2C0.0157
%
G90
G05
T1
X5.4094Y-5.0236
X5.449Y-5.2427
X5.5555Y-5.5593
X5.56Y-4.9923
X5.5911Y-5.2423
X5.6183Y-5.5285
X5.6561Y-5.4392
X5.6581Y-4.7437
X5.6967Y-5.0407
X5.7258Y-4.7722
X5.738Y-5.1207
X5.7443Y-5.4392
X5.7935Y-5.3585
X5.822Y-4.91
X5.8289Y-5.4451
X5.8459Y-5.3707
X5.8608Y-4.8801
X5.9093Y-4.9262
X5.9278Y-5.5593
X5.96Y-4.9644
X6.0089Y-4.8913
X6.0244Y-5.578
X6.0411Y-5.4337
X6.0449Y-4.8628
X6.0715Y-5.088
X6.0789Y-4.9262
X6.1248Y-5.4811
X6.1748Y-5.5327
X6.1792Y-4.9614
X6.2297Y-5.3301
X6.2484Y-4.9968
X6.3124Y-5.3888
X6.3238Y-5.3242
X6.3492Y-4.7437
X6.3502Y-5.2451
X6.3575Y-5.4319
X6.3911Y-5.0407
X6.3915Y-5.5293
X6.3923Y-4.8215
X6.4178Y-4.7822
X6.4274Y-5.4262
X6.4299Y-5.3585
X6.4325Y-5.0896
X6.4955Y-5.4049
X6.5061Y-5.1541
X6.5427Y-5.4018
X6.5506Y-4.8852
X6.5844Y-5.415
X6.5998Y-4.9262
X6.6516Y-4.9614
X6.6598Y-5.3594
X6.6953Y-5.4744
X6.6982Y-4.8913
X6.7207Y-5.5309
X6.722Y-5.5763
X6.7372Y-5.1778
X6.7455Y-5.1281
X6.7464Y-4.7822
X6.7512Y-4.8215
X6.7656Y-5.0864
X6.7967Y-5.5778
X6.8604Y-5.4337
X6.865Y-5.1998
X6.8665Y-4.9067
X6.8976Y-5.4827
X6.9098Y-5.3283
X6.9157Y-4.9213
X6.9374Y-4.9968
X6.9464Y-5.2654
X6.9476Y-5.5297
X6.9516Y-4.9601
X6.9935Y-5.3961
X7.022Y-4.7537
X7.0285Y-5.3309
X7.0327Y-5.3925
X7.0699Y-5.2915
X7.0732Y-5.0283
X7.1009Y-4.7822
X7.113Y-5.1191
X7.1366Y-5.3886
X7.1376Y-5.5778
X7.1439Y-5.1734
X7.1474Y-5.2128
X7.1531Y-5.3465
X7.1744Y-4.8215
X7.1744Y-5.0874
X7.186Y-5.5274
X7.2193Y-5.3801
X7.2376Y-4.8793
X7.2831Y-5.4268
X7.2876Y-4.9329
X7.3008Y-5.3516
X7.3258Y-4.964
X7.3382Y-5.3839
X7.3413Y-5.6079
X7.365Y-4.9052
X7.372Y-5.4161
X7.4217Y-4.7537
X7.4307Y-5.0254
X7.4323Y-5.2646
X7.4354Y-5.178
X7.4406Y-4.8215
X7.4581Y-5.0868
X7.489Y-5.4051
X7.4937Y-5.3481
X7.499Y-4.7391
X7.5023Y-5.4811
X7.5162Y-4.9221
X7.5431Y-4.7428
X7.5555Y-4.9217
X7.5777Y-5.4413
X7.5854Y-5.5778
X7.6246Y-5.4337
X7.6268Y-4.9968
X7.6535Y-4.9043
X7.665Y-5.4451
X7.6736Y-5.3585
X7.6803Y-5.0346
X7.7256Y-4.7437
X7.7358Y-5.5244
X7.7589Y-4.9341
X7.7896Y-4.9683
X7.7973Y-4.7822
X7.8085Y-5.1207
X7.8278Y-5.2608
X7.8638Y-4.8205
X7.8638Y-5.0866
X7.9043Y-5.4161
X7.9211Y-5.3364
X7.9274Y-4.8809
X7.9451Y-5.5317
X7.9797Y-4.938
X7.9886Y-5.3766
X8.0246Y-4.9683
X8.0303Y-5.1382
X8.0571Y-5.415
X8.0758Y-4.8913
X8.098Y-4.9843
X8.1226Y-5.447
X8.1229Y-5.6063
X8.1404Y-5.086
X8.1616Y-5.412
X8.1622Y-5.6063
X8.222Y-5.3787
X8.2232Y-4.9921
X8.2366Y-4.7354
X8.2531Y-5.1772
X8.2815Y-5.2925
X8.3112Y-4.9968
X8.312Y-4.8978
X8.3181Y-5.1728
X8.3453Y-5.3787
X8.3561Y-5.5778
X8.3608Y-5.001
X8.422Y-5.447
X8.4272Y-4.7461
X8.4514Y-4.8313
X8.4555Y-5.4835
X8.4666Y-4.9095
X8.4751Y-4.7822
X8.4912Y-5.3466
X8.4951Y-5.1207
X8.5055Y-5.5268
X8.5677Y-4.9921
X8.5935Y-5.2624
X8.6128Y-4.8837
X8.6399Y-4.9636
X8.6628Y-4.8892
X8.6799Y-5.2035
X8.7144Y-4.8892
X8.7579Y-5.2067
X8.7612Y-4.8896
X8.7616Y-4.7498
T2
X5.6043Y-5.6929
X5.7043Y-5.6929
X5.8043Y-5.6929
X5.9043Y-5.6929
X6.0043Y-5.6929
X6.1043Y-5.6929
X6.2043Y-5.6929
X6.3043Y-5.6929
X6.4043Y-5.6929
X6.5043Y-5.6929
X6.6043Y-5.6929
X6.7043Y-5.6929
X6.8043Y-5.6929
X6.9043Y-5.6929
X7.0043Y-5.6929
X7.1043Y-5.6929
X7.2043Y-5.6929
X7.3043Y-5.6929
X7.4043Y-5.6929
X7.5043Y-5.6929
X7.6043Y-5.6929
X7.7043Y-5.6929
X7.8043Y-5.6929
X7.9043Y-5.6929
X8.0043Y-5.6929
X8.1043Y-5.6929
X8.2043Y-5.6929
X8.3043Y-5.6929
X8.4043Y-5.6929
X8.5043Y-5.6929
T0
M30
