%TF.GenerationSoftware,KiCad,Pcbnew,6.0.5+dfsg-1*%
%TF.CreationDate,2022-07-02T19:28:49+03:00*%
%TF.ProjectId,simm3016,73696d6d-3330-4313-962e-6b696361645f,2*%
%TF.SameCoordinates,Original*%
%TF.FileFunction,Paste,Top*%
%TF.FilePolarity,Positive*%
%FSLAX46Y46*%
G04 Gerber Fmt 4.6, Leading zero omitted, Abs format (unit mm)*
G04 Created by KiCad (PCBNEW 6.0.5+dfsg-1) date 2022-07-02 19:28:49*
%MOMM*%
%LPD*%
G01*
G04 APERTURE LIST*
G04 Aperture macros list*
%AMRoundRect*
0 Rectangle with rounded corners*
0 $1 Rounding radius*
0 $2 $3 $4 $5 $6 $7 $8 $9 X,Y pos of 4 corners*
0 Add a 4 corners polygon primitive as box body*
4,1,4,$2,$3,$4,$5,$6,$7,$8,$9,$2,$3,0*
0 Add four circle primitives for the rounded corners*
1,1,$1+$1,$2,$3*
1,1,$1+$1,$4,$5*
1,1,$1+$1,$6,$7*
1,1,$1+$1,$8,$9*
0 Add four rect primitives between the rounded corners*
20,1,$1+$1,$2,$3,$4,$5,0*
20,1,$1+$1,$4,$5,$6,$7,0*
20,1,$1+$1,$6,$7,$8,$9,0*
20,1,$1+$1,$8,$9,$2,$3,0*%
G04 Aperture macros list end*
%ADD10R,0.600000X3.000000*%
%ADD11RoundRect,0.250000X0.475000X-0.337500X0.475000X0.337500X-0.475000X0.337500X-0.475000X-0.337500X0*%
%ADD12RoundRect,0.250000X-0.337500X-0.475000X0.337500X-0.475000X0.337500X0.475000X-0.337500X0.475000X0*%
G04 APERTURE END LIST*
D10*
%TO.C,D8*%
X107510000Y-140960000D03*
X108780000Y-140960000D03*
X110050000Y-140960000D03*
X111320000Y-140960000D03*
X112590000Y-140960000D03*
X113860000Y-140960000D03*
X116430000Y-140930000D03*
X117700000Y-140930000D03*
X118970000Y-140930000D03*
X120240000Y-140930000D03*
X121510000Y-140930000D03*
X122780000Y-140930000D03*
X122730000Y-134130000D03*
X121510000Y-134100000D03*
X120240000Y-134100000D03*
X118970000Y-134100000D03*
X117700000Y-134100000D03*
X116430000Y-134100000D03*
X113830000Y-134130000D03*
X112560000Y-134130000D03*
X111290000Y-134130000D03*
X110020000Y-134130000D03*
X108750000Y-134130000D03*
X107480000Y-134130000D03*
%TD*%
D11*
%TO.C,C2*%
X117890000Y-147267500D03*
X117890000Y-145192500D03*
%TD*%
D10*
%TO.C,D4*%
X80400000Y-152270000D03*
X81670000Y-152270000D03*
X82940000Y-152270000D03*
X84210000Y-152270000D03*
X85480000Y-152270000D03*
X86750000Y-152270000D03*
X89320000Y-152240000D03*
X90590000Y-152240000D03*
X91860000Y-152240000D03*
X93130000Y-152240000D03*
X94400000Y-152240000D03*
X95670000Y-152240000D03*
X95620000Y-145440000D03*
X94400000Y-145410000D03*
X93130000Y-145410000D03*
X91860000Y-145410000D03*
X90590000Y-145410000D03*
X89320000Y-145410000D03*
X86720000Y-145440000D03*
X85450000Y-145440000D03*
X84180000Y-145440000D03*
X82910000Y-145440000D03*
X81640000Y-145440000D03*
X80370000Y-145440000D03*
%TD*%
D11*
%TO.C,C1*%
X97990000Y-146167500D03*
X97990000Y-144092500D03*
%TD*%
D10*
%TO.C,D5*%
X100420000Y-152180000D03*
X101690000Y-152180000D03*
X102960000Y-152180000D03*
X104230000Y-152180000D03*
X105500000Y-152180000D03*
X106770000Y-152180000D03*
X109340000Y-152150000D03*
X110610000Y-152150000D03*
X111880000Y-152150000D03*
X113150000Y-152150000D03*
X114420000Y-152150000D03*
X115690000Y-152150000D03*
X115640000Y-145350000D03*
X114420000Y-145320000D03*
X113150000Y-145320000D03*
X111880000Y-145320000D03*
X110610000Y-145320000D03*
X109340000Y-145320000D03*
X106740000Y-145350000D03*
X105470000Y-145350000D03*
X104200000Y-145350000D03*
X102930000Y-145350000D03*
X101660000Y-145350000D03*
X100390000Y-145350000D03*
%TD*%
D12*
%TO.C,C3*%
X56752500Y-144930000D03*
X58827500Y-144930000D03*
%TD*%
%TO.C,C5*%
X137952500Y-144930000D03*
X140027500Y-144930000D03*
%TD*%
D10*
%TO.C,D1*%
X60770000Y-152160000D03*
X62040000Y-152160000D03*
X63310000Y-152160000D03*
X64580000Y-152160000D03*
X65850000Y-152160000D03*
X67120000Y-152160000D03*
X69690000Y-152130000D03*
X70960000Y-152130000D03*
X72230000Y-152130000D03*
X73500000Y-152130000D03*
X74770000Y-152130000D03*
X76040000Y-152130000D03*
X75990000Y-145330000D03*
X74770000Y-145300000D03*
X73500000Y-145300000D03*
X72230000Y-145300000D03*
X70960000Y-145300000D03*
X69690000Y-145300000D03*
X67090000Y-145330000D03*
X65820000Y-145330000D03*
X64550000Y-145330000D03*
X63280000Y-145330000D03*
X62010000Y-145330000D03*
X60740000Y-145330000D03*
%TD*%
%TO.C,D9*%
X124910000Y-140960000D03*
X126180000Y-140960000D03*
X127450000Y-140960000D03*
X128720000Y-140960000D03*
X129990000Y-140960000D03*
X131260000Y-140960000D03*
X133830000Y-140930000D03*
X135100000Y-140930000D03*
X136370000Y-140930000D03*
X137640000Y-140930000D03*
X138910000Y-140930000D03*
X140180000Y-140930000D03*
X140130000Y-134130000D03*
X138910000Y-134100000D03*
X137640000Y-134100000D03*
X136370000Y-134100000D03*
X135100000Y-134100000D03*
X133830000Y-134100000D03*
X131230000Y-134130000D03*
X129960000Y-134130000D03*
X128690000Y-134130000D03*
X127420000Y-134130000D03*
X126150000Y-134130000D03*
X124880000Y-134130000D03*
%TD*%
D11*
%TO.C,C4*%
X78190000Y-146205000D03*
X78190000Y-144130000D03*
%TD*%
D10*
%TO.C,D6*%
X90000000Y-140950000D03*
X91270000Y-140950000D03*
X92540000Y-140950000D03*
X93810000Y-140950000D03*
X95080000Y-140950000D03*
X96350000Y-140950000D03*
X98920000Y-140920000D03*
X100190000Y-140920000D03*
X101460000Y-140920000D03*
X102730000Y-140920000D03*
X104000000Y-140920000D03*
X105270000Y-140920000D03*
X105220000Y-134120000D03*
X104000000Y-134090000D03*
X102730000Y-134090000D03*
X101460000Y-134090000D03*
X100190000Y-134090000D03*
X98920000Y-134090000D03*
X96320000Y-134120000D03*
X95050000Y-134120000D03*
X93780000Y-134120000D03*
X92510000Y-134120000D03*
X91240000Y-134120000D03*
X89970000Y-134120000D03*
%TD*%
%TO.C,D2*%
X55000000Y-140970000D03*
X56270000Y-140970000D03*
X57540000Y-140970000D03*
X58810000Y-140970000D03*
X60080000Y-140970000D03*
X61350000Y-140970000D03*
X63920000Y-140940000D03*
X65190000Y-140940000D03*
X66460000Y-140940000D03*
X67730000Y-140940000D03*
X69000000Y-140940000D03*
X70270000Y-140940000D03*
X70220000Y-134140000D03*
X69000000Y-134110000D03*
X67730000Y-134110000D03*
X66460000Y-134110000D03*
X65190000Y-134110000D03*
X63920000Y-134110000D03*
X61320000Y-134140000D03*
X60050000Y-134140000D03*
X58780000Y-134140000D03*
X57510000Y-134140000D03*
X56240000Y-134140000D03*
X54970000Y-134140000D03*
%TD*%
%TO.C,D3*%
X72520000Y-140970000D03*
X73790000Y-140970000D03*
X75060000Y-140970000D03*
X76330000Y-140970000D03*
X77600000Y-140970000D03*
X78870000Y-140970000D03*
X81440000Y-140940000D03*
X82710000Y-140940000D03*
X83980000Y-140940000D03*
X85250000Y-140940000D03*
X86520000Y-140940000D03*
X87790000Y-140940000D03*
X87740000Y-134140000D03*
X86520000Y-134110000D03*
X85250000Y-134110000D03*
X83980000Y-134110000D03*
X82710000Y-134110000D03*
X81440000Y-134110000D03*
X78840000Y-134140000D03*
X77570000Y-134140000D03*
X76300000Y-134140000D03*
X75030000Y-134140000D03*
X73760000Y-134140000D03*
X72490000Y-134140000D03*
%TD*%
%TO.C,D7*%
X119990000Y-152240000D03*
X121260000Y-152240000D03*
X122530000Y-152240000D03*
X123800000Y-152240000D03*
X125070000Y-152240000D03*
X126340000Y-152240000D03*
X128910000Y-152210000D03*
X130180000Y-152210000D03*
X131450000Y-152210000D03*
X132720000Y-152210000D03*
X133990000Y-152210000D03*
X135260000Y-152210000D03*
X135210000Y-145410000D03*
X133990000Y-145380000D03*
X132720000Y-145380000D03*
X131450000Y-145380000D03*
X130180000Y-145380000D03*
X128910000Y-145380000D03*
X126310000Y-145410000D03*
X125040000Y-145410000D03*
X123770000Y-145410000D03*
X122500000Y-145410000D03*
X121230000Y-145410000D03*
X119960000Y-145410000D03*
%TD*%
M02*
