%TF.GenerationSoftware,KiCad,Pcbnew,6.0.0+dfsg1-2*%
%TF.CreationDate,2022-02-11T22:47:22+03:00*%
%TF.ProjectId,simm3016_n,73696d6d-3330-4313-965f-6e2e6b696361,rev?*%
%TF.SameCoordinates,Original*%
%TF.FileFunction,Copper,L3,Inr*%
%TF.FilePolarity,Positive*%
%FSLAX46Y46*%
G04 Gerber Fmt 4.6, Leading zero omitted, Abs format (unit mm)*
G04 Created by KiCad (PCBNEW 6.0.0+dfsg1-2) date 2022-02-11 22:47:22*
%MOMM*%
%LPD*%
G01*
G04 APERTURE LIST*
%TA.AperFunction,ComponentPad*%
%ADD10R,1.900000X2.000000*%
%TD*%
%TA.AperFunction,ViaPad*%
%ADD11C,0.800000*%
%TD*%
G04 APERTURE END LIST*
D10*
%TO.N,+5V*%
%TO.C,J1*%
X142350000Y-144750000D03*
%TO.N,/~{CAS}*%
X144890000Y-144750000D03*
%TO.N,/DQ0*%
X147430000Y-144750000D03*
%TO.N,/A0*%
X149970000Y-144750000D03*
%TO.N,/A1*%
X152510000Y-144750000D03*
%TO.N,/DQ1*%
X155050000Y-144750000D03*
%TO.N,/A2*%
X157590000Y-144750000D03*
%TO.N,/A3*%
X160130000Y-144750000D03*
%TO.N,GNDD*%
X162670000Y-144750000D03*
%TO.N,/DQ2*%
X165210000Y-144750000D03*
%TO.N,/A4*%
X167750000Y-144750000D03*
%TO.N,/A5*%
X170290000Y-144750000D03*
%TO.N,/DQ3*%
X172830000Y-144750000D03*
%TO.N,/A6*%
X175370000Y-144750000D03*
%TO.N,/A7*%
X177910000Y-144750000D03*
%TO.N,/DQ4*%
X180450000Y-144750000D03*
%TO.N,/A8*%
X182990000Y-144750000D03*
%TO.N,/A9*%
X185530000Y-144750000D03*
%TO.N,/A10*%
X188070000Y-144750000D03*
%TO.N,/DQ5*%
X190610000Y-144750000D03*
%TO.N,/~{WE}*%
X193150000Y-144750000D03*
%TO.N,GNDD*%
X195690000Y-144750000D03*
%TO.N,/DQ6*%
X198230000Y-144750000D03*
%TO.N,/A11*%
X200770000Y-144750000D03*
%TO.N,/DQ7*%
X203310000Y-144750000D03*
%TO.N,GNDD*%
X205850000Y-144750000D03*
%TO.N,/~{RAS}*%
X208390000Y-144750000D03*
%TO.N,unconnected-(J1-Pad28)*%
X210930000Y-144750000D03*
%TO.N,unconnected-(J1-Pad29)*%
X213470000Y-144750000D03*
%TO.N,+5V*%
X216010000Y-144750000D03*
%TD*%
D11*
%TO.N,+5V*%
X200200000Y-133950000D03*
X178300000Y-133900000D03*
X210900000Y-134000000D03*
X156200000Y-133900000D03*
X167200000Y-134000000D03*
X189300000Y-133900000D03*
X145200000Y-134000000D03*
X218542500Y-133120000D03*
%TO.N,GNDD*%
X140300000Y-117900000D03*
X173450000Y-117950000D03*
X178300000Y-138200000D03*
X206150000Y-117899989D03*
X195400000Y-117899989D03*
X184350000Y-117899989D03*
X145431053Y-137968947D03*
X167200000Y-138200000D03*
X200200000Y-138200000D03*
X156300000Y-138300000D03*
X189300000Y-138000000D03*
X151350000Y-117900000D03*
X210900000Y-138100000D03*
X162450000Y-117900000D03*
X216600000Y-138100000D03*
X216950000Y-117950000D03*
%TO.N,/~{WE}*%
X196264511Y-129985489D03*
%TO.N,/~{RAS}*%
X206954511Y-127445489D03*
%TO.N,/A11*%
X195449502Y-126650000D03*
X164950000Y-126650000D03*
X153950000Y-126650000D03*
X208600000Y-126650000D03*
X143073522Y-126800000D03*
X173475500Y-126677248D03*
X218975500Y-126696501D03*
X187150000Y-126650000D03*
X197550000Y-126650000D03*
X176024500Y-126648381D03*
%TO.N,/A10*%
X208350000Y-124500000D03*
X176100000Y-124500000D03*
X143073522Y-124508100D03*
X164850000Y-124575500D03*
X219300000Y-124200000D03*
X153900000Y-124550000D03*
X197650000Y-124500000D03*
X186900000Y-124500000D03*
%TO.N,/A0*%
X197650000Y-123050000D03*
X219550000Y-123050000D03*
X208500000Y-123050000D03*
X175300000Y-123050000D03*
X142900000Y-133000000D03*
X142824500Y-123059099D03*
X186200000Y-123050000D03*
X164000000Y-123050000D03*
X153150000Y-123050000D03*
%TO.N,/A1*%
X208709989Y-121600999D03*
X140575500Y-121700000D03*
X219540011Y-121759989D03*
X146800000Y-134350000D03*
X175883051Y-121658536D03*
X197940011Y-121600999D03*
X153989849Y-121755989D03*
X142833599Y-121610098D03*
X164839849Y-121755989D03*
X186832116Y-121681554D03*
%TO.N,/A2*%
X208989011Y-120151998D03*
X143255227Y-120163871D03*
X142174500Y-130000000D03*
X154139011Y-120306988D03*
X187039011Y-120232553D03*
X219710989Y-120310989D03*
X176039011Y-120209535D03*
X164933210Y-120200999D03*
X198090477Y-120151998D03*
%TO.N,/A3*%
X142900000Y-119200000D03*
X159800000Y-135100000D03*
%TO.N,/A4*%
X147900000Y-141250000D03*
%TO.N,/A5*%
X148550000Y-142350000D03*
X140590000Y-120390000D03*
X167500000Y-142350000D03*
X146350000Y-142000000D03*
%TO.N,/A6*%
X211650000Y-141800000D03*
X220704605Y-125144687D03*
X204350000Y-137800000D03*
X191350000Y-141350000D03*
X194950000Y-142000000D03*
X183650000Y-142100000D03*
X206400000Y-141300000D03*
%TO.N,/A7*%
X219700000Y-125900000D03*
X202300000Y-141950000D03*
X182100000Y-142300000D03*
X196350000Y-138250000D03*
X211150000Y-139200000D03*
%TO.N,/A8*%
X174750000Y-125300000D03*
%TO.N,/A9*%
X185500000Y-127400000D03*
%TO.N,/~{CAS}*%
X151550000Y-128700000D03*
%TD*%
%TA.AperFunction,Conductor*%
%TO.N,GNDD*%
G36*
X223384121Y-117278002D02*
G01*
X223430614Y-117331658D01*
X223442000Y-117384000D01*
X223442000Y-145216000D01*
X223421998Y-145284121D01*
X223368342Y-145330614D01*
X223316000Y-145342000D01*
X217594500Y-145342000D01*
X217526379Y-145321998D01*
X217479886Y-145268342D01*
X217468500Y-145216000D01*
X217468500Y-143701866D01*
X217461745Y-143639684D01*
X217410615Y-143503295D01*
X217323261Y-143386739D01*
X217206705Y-143299385D01*
X217070316Y-143248255D01*
X217008134Y-143241500D01*
X215011866Y-143241500D01*
X214949684Y-143248255D01*
X214930230Y-143255548D01*
X214821699Y-143296234D01*
X214821696Y-143296236D01*
X214813295Y-143299385D01*
X214806113Y-143304768D01*
X214800509Y-143307836D01*
X214731152Y-143323005D01*
X214679491Y-143307836D01*
X214673887Y-143304768D01*
X214666705Y-143299385D01*
X214658304Y-143296236D01*
X214658301Y-143296234D01*
X214549770Y-143255548D01*
X214530316Y-143248255D01*
X214468134Y-143241500D01*
X212471866Y-143241500D01*
X212409684Y-143248255D01*
X212390230Y-143255548D01*
X212281699Y-143296234D01*
X212281696Y-143296236D01*
X212273295Y-143299385D01*
X212266113Y-143304768D01*
X212260509Y-143307836D01*
X212191152Y-143323005D01*
X212139491Y-143307836D01*
X212133887Y-143304768D01*
X212126705Y-143299385D01*
X212118304Y-143296236D01*
X212118301Y-143296234D01*
X212009770Y-143255548D01*
X211990316Y-143248255D01*
X211928134Y-143241500D01*
X209931866Y-143241500D01*
X209869684Y-143248255D01*
X209850230Y-143255548D01*
X209741699Y-143296234D01*
X209741696Y-143296236D01*
X209733295Y-143299385D01*
X209726113Y-143304768D01*
X209720509Y-143307836D01*
X209651152Y-143323005D01*
X209599491Y-143307836D01*
X209593887Y-143304768D01*
X209586705Y-143299385D01*
X209578304Y-143296236D01*
X209578301Y-143296234D01*
X209469770Y-143255548D01*
X209450316Y-143248255D01*
X209388134Y-143241500D01*
X207391866Y-143241500D01*
X207329684Y-143248255D01*
X207310230Y-143255548D01*
X207201699Y-143296234D01*
X207201696Y-143296236D01*
X207193295Y-143299385D01*
X207186113Y-143304768D01*
X207179983Y-143308124D01*
X207110626Y-143323293D01*
X207058965Y-143308124D01*
X207038058Y-143296677D01*
X206917606Y-143251522D01*
X206902351Y-143247895D01*
X206851486Y-143242369D01*
X206844672Y-143242000D01*
X206122115Y-143242000D01*
X206106876Y-143246475D01*
X206105671Y-143247865D01*
X206104000Y-143255548D01*
X206104000Y-144878000D01*
X206083998Y-144946121D01*
X206030342Y-144992614D01*
X205978000Y-145004000D01*
X205722000Y-145004000D01*
X205653879Y-144983998D01*
X205607386Y-144930342D01*
X205596000Y-144878000D01*
X205596000Y-143260116D01*
X205591525Y-143244877D01*
X205590135Y-143243672D01*
X205582452Y-143242001D01*
X204855331Y-143242001D01*
X204848510Y-143242371D01*
X204797648Y-143247895D01*
X204782396Y-143251521D01*
X204661942Y-143296677D01*
X204641035Y-143308124D01*
X204571678Y-143323293D01*
X204520017Y-143308124D01*
X204513887Y-143304768D01*
X204506705Y-143299385D01*
X204498304Y-143296236D01*
X204498301Y-143296234D01*
X204389770Y-143255548D01*
X204370316Y-143248255D01*
X204308134Y-143241500D01*
X202311866Y-143241500D01*
X202249684Y-143248255D01*
X202230230Y-143255548D01*
X202121699Y-143296234D01*
X202121696Y-143296236D01*
X202113295Y-143299385D01*
X202106113Y-143304768D01*
X202100509Y-143307836D01*
X202031152Y-143323005D01*
X201979491Y-143307836D01*
X201973887Y-143304768D01*
X201966705Y-143299385D01*
X201958304Y-143296236D01*
X201958301Y-143296234D01*
X201849770Y-143255548D01*
X201830316Y-143248255D01*
X201768134Y-143241500D01*
X199771866Y-143241500D01*
X199709684Y-143248255D01*
X199690230Y-143255548D01*
X199581699Y-143296234D01*
X199581696Y-143296236D01*
X199573295Y-143299385D01*
X199566113Y-143304768D01*
X199560509Y-143307836D01*
X199491152Y-143323005D01*
X199439491Y-143307836D01*
X199433887Y-143304768D01*
X199426705Y-143299385D01*
X199418304Y-143296236D01*
X199418301Y-143296234D01*
X199309770Y-143255548D01*
X199290316Y-143248255D01*
X199228134Y-143241500D01*
X197231866Y-143241500D01*
X197169684Y-143248255D01*
X197150230Y-143255548D01*
X197041699Y-143296234D01*
X197041696Y-143296236D01*
X197033295Y-143299385D01*
X197026113Y-143304768D01*
X197019983Y-143308124D01*
X196950626Y-143323293D01*
X196898965Y-143308124D01*
X196878058Y-143296677D01*
X196757606Y-143251522D01*
X196742351Y-143247895D01*
X196691486Y-143242369D01*
X196684672Y-143242000D01*
X195962115Y-143242000D01*
X195946876Y-143246475D01*
X195945671Y-143247865D01*
X195944000Y-143255548D01*
X195944000Y-144878000D01*
X195923998Y-144946121D01*
X195870342Y-144992614D01*
X195818000Y-145004000D01*
X195562000Y-145004000D01*
X195493879Y-144983998D01*
X195447386Y-144930342D01*
X195436000Y-144878000D01*
X195436000Y-143260116D01*
X195431525Y-143244877D01*
X195430135Y-143243672D01*
X195422452Y-143242001D01*
X194695331Y-143242001D01*
X194688510Y-143242371D01*
X194637648Y-143247895D01*
X194622396Y-143251521D01*
X194501942Y-143296677D01*
X194481035Y-143308124D01*
X194411678Y-143323293D01*
X194360017Y-143308124D01*
X194353887Y-143304768D01*
X194346705Y-143299385D01*
X194338304Y-143296236D01*
X194338301Y-143296234D01*
X194229770Y-143255548D01*
X194210316Y-143248255D01*
X194148134Y-143241500D01*
X192151866Y-143241500D01*
X192089684Y-143248255D01*
X192070230Y-143255548D01*
X191961699Y-143296234D01*
X191961696Y-143296236D01*
X191953295Y-143299385D01*
X191946113Y-143304768D01*
X191940509Y-143307836D01*
X191871152Y-143323005D01*
X191819491Y-143307836D01*
X191813887Y-143304768D01*
X191806705Y-143299385D01*
X191798304Y-143296236D01*
X191798301Y-143296234D01*
X191689770Y-143255548D01*
X191670316Y-143248255D01*
X191608134Y-143241500D01*
X189611866Y-143241500D01*
X189549684Y-143248255D01*
X189530230Y-143255548D01*
X189421699Y-143296234D01*
X189421696Y-143296236D01*
X189413295Y-143299385D01*
X189406113Y-143304768D01*
X189400509Y-143307836D01*
X189331152Y-143323005D01*
X189279491Y-143307836D01*
X189273887Y-143304768D01*
X189266705Y-143299385D01*
X189258304Y-143296236D01*
X189258301Y-143296234D01*
X189149770Y-143255548D01*
X189130316Y-143248255D01*
X189068134Y-143241500D01*
X187071866Y-143241500D01*
X187009684Y-143248255D01*
X186990230Y-143255548D01*
X186881699Y-143296234D01*
X186881696Y-143296236D01*
X186873295Y-143299385D01*
X186866113Y-143304768D01*
X186860509Y-143307836D01*
X186791152Y-143323005D01*
X186739491Y-143307836D01*
X186733887Y-143304768D01*
X186726705Y-143299385D01*
X186718304Y-143296236D01*
X186718301Y-143296234D01*
X186609770Y-143255548D01*
X186590316Y-143248255D01*
X186528134Y-143241500D01*
X184531866Y-143241500D01*
X184469684Y-143248255D01*
X184450230Y-143255548D01*
X184341699Y-143296234D01*
X184341696Y-143296236D01*
X184333295Y-143299385D01*
X184326113Y-143304768D01*
X184320509Y-143307836D01*
X184251152Y-143323005D01*
X184199491Y-143307836D01*
X184193887Y-143304768D01*
X184186705Y-143299385D01*
X184178304Y-143296236D01*
X184178301Y-143296234D01*
X184069770Y-143255548D01*
X184050316Y-143248255D01*
X183988134Y-143241500D01*
X183848120Y-143241500D01*
X183779999Y-143221498D01*
X183733506Y-143167842D01*
X183723402Y-143097568D01*
X183752896Y-143032988D01*
X183812622Y-142994604D01*
X183821923Y-142992253D01*
X183866616Y-142982753D01*
X183932288Y-142968794D01*
X183938319Y-142966109D01*
X184100722Y-142893803D01*
X184100724Y-142893802D01*
X184106752Y-142891118D01*
X184261253Y-142778866D01*
X184292824Y-142743803D01*
X184384621Y-142641852D01*
X184384622Y-142641851D01*
X184389040Y-142636944D01*
X184484527Y-142471556D01*
X184543542Y-142289928D01*
X184546990Y-142257128D01*
X184562814Y-142106565D01*
X184563504Y-142100000D01*
X184555532Y-142024147D01*
X184544232Y-141916635D01*
X184544232Y-141916633D01*
X184543542Y-141910072D01*
X184484527Y-141728444D01*
X184389040Y-141563056D01*
X184368216Y-141539928D01*
X184265675Y-141426045D01*
X184265674Y-141426044D01*
X184261253Y-141421134D01*
X184163346Y-141350000D01*
X190436496Y-141350000D01*
X190437186Y-141356565D01*
X190452274Y-141500115D01*
X190456458Y-141539928D01*
X190515473Y-141721556D01*
X190610960Y-141886944D01*
X190615378Y-141891851D01*
X190615379Y-141891852D01*
X190637694Y-141916635D01*
X190738747Y-142028866D01*
X190893248Y-142141118D01*
X190899276Y-142143802D01*
X190899278Y-142143803D01*
X191044591Y-142208500D01*
X191067712Y-142218794D01*
X191161113Y-142238647D01*
X191248056Y-142257128D01*
X191248061Y-142257128D01*
X191254513Y-142258500D01*
X191445487Y-142258500D01*
X191451939Y-142257128D01*
X191451944Y-142257128D01*
X191538887Y-142238647D01*
X191632288Y-142218794D01*
X191655409Y-142208500D01*
X191800722Y-142143803D01*
X191800724Y-142143802D01*
X191806752Y-142141118D01*
X191961253Y-142028866D01*
X191987244Y-142000000D01*
X194036496Y-142000000D01*
X194037186Y-142006565D01*
X194055129Y-142177279D01*
X194056458Y-142189928D01*
X194115473Y-142371556D01*
X194210960Y-142536944D01*
X194215378Y-142541851D01*
X194215379Y-142541852D01*
X194329678Y-142668794D01*
X194338747Y-142678866D01*
X194424429Y-142741118D01*
X194476385Y-142778866D01*
X194493248Y-142791118D01*
X194499276Y-142793802D01*
X194499278Y-142793803D01*
X194644591Y-142858500D01*
X194667712Y-142868794D01*
X194753101Y-142886944D01*
X194848056Y-142907128D01*
X194848061Y-142907128D01*
X194854513Y-142908500D01*
X195045487Y-142908500D01*
X195051939Y-142907128D01*
X195051944Y-142907128D01*
X195146899Y-142886944D01*
X195232288Y-142868794D01*
X195255409Y-142858500D01*
X195400722Y-142793803D01*
X195400724Y-142793802D01*
X195406752Y-142791118D01*
X195423616Y-142778866D01*
X195475571Y-142741118D01*
X195561253Y-142678866D01*
X195570322Y-142668794D01*
X195684621Y-142541852D01*
X195684622Y-142541851D01*
X195689040Y-142536944D01*
X195784527Y-142371556D01*
X195843542Y-142189928D01*
X195844872Y-142177279D01*
X195862814Y-142006565D01*
X195863504Y-142000000D01*
X195858249Y-141950000D01*
X201386496Y-141950000D01*
X201387186Y-141956565D01*
X201405327Y-142129164D01*
X201406458Y-142139928D01*
X201465473Y-142321556D01*
X201560960Y-142486944D01*
X201565378Y-142491851D01*
X201565379Y-142491852D01*
X201657176Y-142593803D01*
X201688747Y-142628866D01*
X201843248Y-142741118D01*
X201849276Y-142743802D01*
X201849278Y-142743803D01*
X201936753Y-142782749D01*
X202017712Y-142818794D01*
X202103101Y-142836944D01*
X202198056Y-142857128D01*
X202198061Y-142857128D01*
X202204513Y-142858500D01*
X202395487Y-142858500D01*
X202401939Y-142857128D01*
X202401944Y-142857128D01*
X202496899Y-142836944D01*
X202582288Y-142818794D01*
X202663247Y-142782749D01*
X202750722Y-142743803D01*
X202750724Y-142743802D01*
X202756752Y-142741118D01*
X202911253Y-142628866D01*
X202942824Y-142593803D01*
X203034621Y-142491852D01*
X203034622Y-142491851D01*
X203039040Y-142486944D01*
X203134527Y-142321556D01*
X203193542Y-142139928D01*
X203194674Y-142129164D01*
X203212814Y-141956565D01*
X203213504Y-141950000D01*
X203208648Y-141903794D01*
X203194232Y-141766635D01*
X203194232Y-141766633D01*
X203193542Y-141760072D01*
X203134527Y-141578444D01*
X203039040Y-141413056D01*
X202945242Y-141308882D01*
X202937244Y-141300000D01*
X205486496Y-141300000D01*
X205487186Y-141306565D01*
X205504235Y-141468774D01*
X205506458Y-141489928D01*
X205565473Y-141671556D01*
X205660960Y-141836944D01*
X205665378Y-141841851D01*
X205665379Y-141841852D01*
X205705980Y-141886944D01*
X205788747Y-141978866D01*
X205943248Y-142091118D01*
X205949276Y-142093802D01*
X205949278Y-142093803D01*
X206055550Y-142141118D01*
X206117712Y-142168794D01*
X206211113Y-142188647D01*
X206298056Y-142207128D01*
X206298061Y-142207128D01*
X206304513Y-142208500D01*
X206495487Y-142208500D01*
X206501939Y-142207128D01*
X206501944Y-142207128D01*
X206588887Y-142188647D01*
X206682288Y-142168794D01*
X206744450Y-142141118D01*
X206850722Y-142093803D01*
X206850724Y-142093802D01*
X206856752Y-142091118D01*
X207011253Y-141978866D01*
X207094020Y-141886944D01*
X207134621Y-141841852D01*
X207134622Y-141841851D01*
X207139040Y-141836944D01*
X207160370Y-141800000D01*
X210736496Y-141800000D01*
X210756458Y-141989928D01*
X210815473Y-142171556D01*
X210818776Y-142177278D01*
X210818777Y-142177279D01*
X210836803Y-142208500D01*
X210910960Y-142336944D01*
X210915378Y-142341851D01*
X210915379Y-142341852D01*
X210928627Y-142356565D01*
X211038747Y-142478866D01*
X211193248Y-142591118D01*
X211199276Y-142593802D01*
X211199278Y-142593803D01*
X211361681Y-142666109D01*
X211367712Y-142668794D01*
X211433365Y-142682749D01*
X211548056Y-142707128D01*
X211548061Y-142707128D01*
X211554513Y-142708500D01*
X211745487Y-142708500D01*
X211751939Y-142707128D01*
X211751944Y-142707128D01*
X211866635Y-142682749D01*
X211932288Y-142668794D01*
X211938319Y-142666109D01*
X212100722Y-142593803D01*
X212100724Y-142593802D01*
X212106752Y-142591118D01*
X212261253Y-142478866D01*
X212371373Y-142356565D01*
X212384621Y-142341852D01*
X212384622Y-142341851D01*
X212389040Y-142336944D01*
X212463197Y-142208500D01*
X212481223Y-142177279D01*
X212481224Y-142177278D01*
X212484527Y-142171556D01*
X212543542Y-141989928D01*
X212563504Y-141800000D01*
X212545221Y-141626045D01*
X212544232Y-141616635D01*
X212544232Y-141616633D01*
X212543542Y-141610072D01*
X212484527Y-141428444D01*
X212463990Y-141392872D01*
X212422571Y-141321134D01*
X212389040Y-141263056D01*
X212377285Y-141250000D01*
X212265675Y-141126045D01*
X212265674Y-141126044D01*
X212261253Y-141121134D01*
X212106752Y-141008882D01*
X212100724Y-141006198D01*
X212100722Y-141006197D01*
X211938319Y-140933891D01*
X211938318Y-140933891D01*
X211932288Y-140931206D01*
X211838888Y-140911353D01*
X211751944Y-140892872D01*
X211751939Y-140892872D01*
X211745487Y-140891500D01*
X211554513Y-140891500D01*
X211548061Y-140892872D01*
X211548056Y-140892872D01*
X211461112Y-140911353D01*
X211367712Y-140931206D01*
X211361682Y-140933891D01*
X211361681Y-140933891D01*
X211199278Y-141006197D01*
X211199276Y-141006198D01*
X211193248Y-141008882D01*
X211038747Y-141121134D01*
X211034326Y-141126044D01*
X211034325Y-141126045D01*
X210922716Y-141250000D01*
X210910960Y-141263056D01*
X210877429Y-141321134D01*
X210836011Y-141392872D01*
X210815473Y-141428444D01*
X210756458Y-141610072D01*
X210755768Y-141616633D01*
X210755768Y-141616635D01*
X210754779Y-141626045D01*
X210736496Y-141800000D01*
X207160370Y-141800000D01*
X207234527Y-141671556D01*
X207293542Y-141489928D01*
X207295766Y-141468774D01*
X207312814Y-141306565D01*
X207313504Y-141300000D01*
X207298137Y-141153794D01*
X207294232Y-141116635D01*
X207294232Y-141116633D01*
X207293542Y-141110072D01*
X207234527Y-140928444D01*
X207213990Y-140892872D01*
X207171209Y-140818774D01*
X207139040Y-140763056D01*
X207099169Y-140718774D01*
X207015675Y-140626045D01*
X207015674Y-140626044D01*
X207011253Y-140621134D01*
X206856752Y-140508882D01*
X206850724Y-140506198D01*
X206850722Y-140506197D01*
X206688319Y-140433891D01*
X206688318Y-140433891D01*
X206682288Y-140431206D01*
X206588888Y-140411353D01*
X206501944Y-140392872D01*
X206501939Y-140392872D01*
X206495487Y-140391500D01*
X206304513Y-140391500D01*
X206298061Y-140392872D01*
X206298056Y-140392872D01*
X206211112Y-140411353D01*
X206117712Y-140431206D01*
X206111682Y-140433891D01*
X206111681Y-140433891D01*
X205949278Y-140506197D01*
X205949276Y-140506198D01*
X205943248Y-140508882D01*
X205788747Y-140621134D01*
X205784326Y-140626044D01*
X205784325Y-140626045D01*
X205700832Y-140718774D01*
X205660960Y-140763056D01*
X205628791Y-140818774D01*
X205586011Y-140892872D01*
X205565473Y-140928444D01*
X205506458Y-141110072D01*
X205505768Y-141116633D01*
X205505768Y-141116635D01*
X205501863Y-141153794D01*
X205486496Y-141300000D01*
X202937244Y-141300000D01*
X202915675Y-141276045D01*
X202915674Y-141276044D01*
X202911253Y-141271134D01*
X202756752Y-141158882D01*
X202750724Y-141156198D01*
X202750722Y-141156197D01*
X202588319Y-141083891D01*
X202588318Y-141083891D01*
X202582288Y-141081206D01*
X202482861Y-141060072D01*
X202401944Y-141042872D01*
X202401939Y-141042872D01*
X202395487Y-141041500D01*
X202204513Y-141041500D01*
X202198061Y-141042872D01*
X202198056Y-141042872D01*
X202117139Y-141060072D01*
X202017712Y-141081206D01*
X202011682Y-141083891D01*
X202011681Y-141083891D01*
X201849278Y-141156197D01*
X201849276Y-141156198D01*
X201843248Y-141158882D01*
X201688747Y-141271134D01*
X201684326Y-141276044D01*
X201684325Y-141276045D01*
X201654759Y-141308882D01*
X201560960Y-141413056D01*
X201465473Y-141578444D01*
X201406458Y-141760072D01*
X201405768Y-141766633D01*
X201405768Y-141766635D01*
X201391352Y-141903794D01*
X201386496Y-141950000D01*
X195858249Y-141950000D01*
X195854052Y-141910072D01*
X195844232Y-141816635D01*
X195844232Y-141816633D01*
X195843542Y-141810072D01*
X195784527Y-141628444D01*
X195689040Y-141463056D01*
X195668216Y-141439928D01*
X195565675Y-141326045D01*
X195565674Y-141326044D01*
X195561253Y-141321134D01*
X195435590Y-141229834D01*
X195412094Y-141212763D01*
X195412093Y-141212762D01*
X195406752Y-141208882D01*
X195400724Y-141206198D01*
X195400722Y-141206197D01*
X195238319Y-141133891D01*
X195238318Y-141133891D01*
X195232288Y-141131206D01*
X195132861Y-141110072D01*
X195051944Y-141092872D01*
X195051939Y-141092872D01*
X195045487Y-141091500D01*
X194854513Y-141091500D01*
X194848061Y-141092872D01*
X194848056Y-141092872D01*
X194767139Y-141110072D01*
X194667712Y-141131206D01*
X194661682Y-141133891D01*
X194661681Y-141133891D01*
X194499278Y-141206197D01*
X194499276Y-141206198D01*
X194493248Y-141208882D01*
X194487907Y-141212762D01*
X194487906Y-141212763D01*
X194464410Y-141229834D01*
X194338747Y-141321134D01*
X194334326Y-141326044D01*
X194334325Y-141326045D01*
X194231785Y-141439928D01*
X194210960Y-141463056D01*
X194115473Y-141628444D01*
X194056458Y-141810072D01*
X194055768Y-141816633D01*
X194055768Y-141816635D01*
X194045948Y-141910072D01*
X194036496Y-142000000D01*
X191987244Y-142000000D01*
X192062306Y-141916635D01*
X192084621Y-141891852D01*
X192084622Y-141891851D01*
X192089040Y-141886944D01*
X192184527Y-141721556D01*
X192243542Y-141539928D01*
X192247727Y-141500115D01*
X192262814Y-141356565D01*
X192263504Y-141350000D01*
X192251301Y-141233891D01*
X192244232Y-141166635D01*
X192244232Y-141166633D01*
X192243542Y-141160072D01*
X192184527Y-140978444D01*
X192089040Y-140813056D01*
X192049169Y-140768774D01*
X191965675Y-140676045D01*
X191965674Y-140676044D01*
X191961253Y-140671134D01*
X191830375Y-140576045D01*
X191812094Y-140562763D01*
X191812093Y-140562762D01*
X191806752Y-140558882D01*
X191800724Y-140556198D01*
X191800722Y-140556197D01*
X191638319Y-140483891D01*
X191638318Y-140483891D01*
X191632288Y-140481206D01*
X191538888Y-140461353D01*
X191451944Y-140442872D01*
X191451939Y-140442872D01*
X191445487Y-140441500D01*
X191254513Y-140441500D01*
X191248061Y-140442872D01*
X191248056Y-140442872D01*
X191161112Y-140461353D01*
X191067712Y-140481206D01*
X191061682Y-140483891D01*
X191061681Y-140483891D01*
X190899278Y-140556197D01*
X190899276Y-140556198D01*
X190893248Y-140558882D01*
X190887907Y-140562762D01*
X190887906Y-140562763D01*
X190869625Y-140576045D01*
X190738747Y-140671134D01*
X190734326Y-140676044D01*
X190734325Y-140676045D01*
X190650832Y-140768774D01*
X190610960Y-140813056D01*
X190515473Y-140978444D01*
X190456458Y-141160072D01*
X190455768Y-141166633D01*
X190455768Y-141166635D01*
X190448699Y-141233891D01*
X190436496Y-141350000D01*
X184163346Y-141350000D01*
X184130375Y-141326045D01*
X184112094Y-141312763D01*
X184112093Y-141312762D01*
X184106752Y-141308882D01*
X184100724Y-141306198D01*
X184100722Y-141306197D01*
X183938319Y-141233891D01*
X183938318Y-141233891D01*
X183932288Y-141231206D01*
X183838888Y-141211353D01*
X183751944Y-141192872D01*
X183751939Y-141192872D01*
X183745487Y-141191500D01*
X183554513Y-141191500D01*
X183548061Y-141192872D01*
X183548056Y-141192872D01*
X183461112Y-141211353D01*
X183367712Y-141231206D01*
X183361682Y-141233891D01*
X183361681Y-141233891D01*
X183199278Y-141306197D01*
X183199276Y-141306198D01*
X183193248Y-141308882D01*
X183187907Y-141312762D01*
X183187906Y-141312763D01*
X183169625Y-141326045D01*
X183038747Y-141421134D01*
X183034326Y-141426044D01*
X183034325Y-141426045D01*
X182931785Y-141539928D01*
X182910960Y-141563056D01*
X182907659Y-141568774D01*
X182898037Y-141585440D01*
X182846656Y-141634434D01*
X182776942Y-141647872D01*
X182711874Y-141621823D01*
X182711253Y-141621134D01*
X182556752Y-141508882D01*
X182550724Y-141506198D01*
X182550722Y-141506197D01*
X182388319Y-141433891D01*
X182388318Y-141433891D01*
X182382288Y-141431206D01*
X182288888Y-141411353D01*
X182201944Y-141392872D01*
X182201939Y-141392872D01*
X182195487Y-141391500D01*
X182004513Y-141391500D01*
X181998061Y-141392872D01*
X181998056Y-141392872D01*
X181911112Y-141411353D01*
X181817712Y-141431206D01*
X181811682Y-141433891D01*
X181811681Y-141433891D01*
X181649278Y-141506197D01*
X181649276Y-141506198D01*
X181643248Y-141508882D01*
X181488747Y-141621134D01*
X181484326Y-141626044D01*
X181484325Y-141626045D01*
X181369300Y-141753794D01*
X181360960Y-141763056D01*
X181265473Y-141928444D01*
X181206458Y-142110072D01*
X181205768Y-142116633D01*
X181205768Y-142116635D01*
X181198065Y-142189928D01*
X181186496Y-142300000D01*
X181187186Y-142306565D01*
X181205129Y-142477279D01*
X181206458Y-142489928D01*
X181265473Y-142671556D01*
X181268776Y-142677278D01*
X181268777Y-142677279D01*
X181286803Y-142708500D01*
X181360960Y-142836944D01*
X181365378Y-142841851D01*
X181365379Y-142841852D01*
X181479678Y-142968794D01*
X181488747Y-142978866D01*
X181494087Y-142982746D01*
X181494095Y-142982753D01*
X181537820Y-143014520D01*
X181581175Y-143070742D01*
X181587251Y-143141478D01*
X181554119Y-143204270D01*
X181492299Y-143239181D01*
X181454962Y-143241432D01*
X181454928Y-143242053D01*
X181451531Y-143241869D01*
X181448134Y-143241500D01*
X179451866Y-143241500D01*
X179389684Y-143248255D01*
X179370230Y-143255548D01*
X179261699Y-143296234D01*
X179261696Y-143296236D01*
X179253295Y-143299385D01*
X179246113Y-143304768D01*
X179240509Y-143307836D01*
X179171152Y-143323005D01*
X179119491Y-143307836D01*
X179113887Y-143304768D01*
X179106705Y-143299385D01*
X179098304Y-143296236D01*
X179098301Y-143296234D01*
X178989770Y-143255548D01*
X178970316Y-143248255D01*
X178908134Y-143241500D01*
X176911866Y-143241500D01*
X176849684Y-143248255D01*
X176830230Y-143255548D01*
X176721699Y-143296234D01*
X176721696Y-143296236D01*
X176713295Y-143299385D01*
X176706113Y-143304768D01*
X176700509Y-143307836D01*
X176631152Y-143323005D01*
X176579491Y-143307836D01*
X176573887Y-143304768D01*
X176566705Y-143299385D01*
X176558304Y-143296236D01*
X176558301Y-143296234D01*
X176449770Y-143255548D01*
X176430316Y-143248255D01*
X176368134Y-143241500D01*
X174371866Y-143241500D01*
X174309684Y-143248255D01*
X174290230Y-143255548D01*
X174181699Y-143296234D01*
X174181696Y-143296236D01*
X174173295Y-143299385D01*
X174166113Y-143304768D01*
X174160509Y-143307836D01*
X174091152Y-143323005D01*
X174039491Y-143307836D01*
X174033887Y-143304768D01*
X174026705Y-143299385D01*
X174018304Y-143296236D01*
X174018301Y-143296234D01*
X173909770Y-143255548D01*
X173890316Y-143248255D01*
X173828134Y-143241500D01*
X171831866Y-143241500D01*
X171769684Y-143248255D01*
X171750230Y-143255548D01*
X171641699Y-143296234D01*
X171641696Y-143296236D01*
X171633295Y-143299385D01*
X171626113Y-143304768D01*
X171620509Y-143307836D01*
X171551152Y-143323005D01*
X171499491Y-143307836D01*
X171493887Y-143304768D01*
X171486705Y-143299385D01*
X171478304Y-143296236D01*
X171478301Y-143296234D01*
X171369770Y-143255548D01*
X171350316Y-143248255D01*
X171288134Y-143241500D01*
X169291866Y-143241500D01*
X169229684Y-143248255D01*
X169210230Y-143255548D01*
X169101699Y-143296234D01*
X169101696Y-143296236D01*
X169093295Y-143299385D01*
X169086113Y-143304768D01*
X169080509Y-143307836D01*
X169011152Y-143323005D01*
X168959491Y-143307836D01*
X168953887Y-143304768D01*
X168946705Y-143299385D01*
X168938304Y-143296236D01*
X168938301Y-143296234D01*
X168829770Y-143255548D01*
X168810316Y-143248255D01*
X168748134Y-143241500D01*
X168202308Y-143241500D01*
X168134187Y-143221498D01*
X168087694Y-143167842D01*
X168077590Y-143097568D01*
X168107084Y-143032988D01*
X168110816Y-143029183D01*
X168111253Y-143028866D01*
X168239040Y-142886944D01*
X168334527Y-142721556D01*
X168393542Y-142539928D01*
X168413504Y-142350000D01*
X168407190Y-142289928D01*
X168394232Y-142166635D01*
X168394232Y-142166633D01*
X168393542Y-142160072D01*
X168334527Y-141978444D01*
X168239040Y-141813056D01*
X168233196Y-141806565D01*
X168115675Y-141676045D01*
X168115674Y-141676044D01*
X168111253Y-141671134D01*
X167956752Y-141558882D01*
X167950724Y-141556198D01*
X167950722Y-141556197D01*
X167788319Y-141483891D01*
X167788318Y-141483891D01*
X167782288Y-141481206D01*
X167688887Y-141461353D01*
X167601944Y-141442872D01*
X167601939Y-141442872D01*
X167595487Y-141441500D01*
X167404513Y-141441500D01*
X167398061Y-141442872D01*
X167398056Y-141442872D01*
X167311113Y-141461353D01*
X167217712Y-141481206D01*
X167211682Y-141483891D01*
X167211681Y-141483891D01*
X167049278Y-141556197D01*
X167049276Y-141556198D01*
X167043248Y-141558882D01*
X166888747Y-141671134D01*
X166884326Y-141676044D01*
X166884325Y-141676045D01*
X166766805Y-141806565D01*
X166760960Y-141813056D01*
X166665473Y-141978444D01*
X166606458Y-142160072D01*
X166605768Y-142166633D01*
X166605768Y-142166635D01*
X166592810Y-142289928D01*
X166586496Y-142350000D01*
X166606458Y-142539928D01*
X166665473Y-142721556D01*
X166760960Y-142886944D01*
X166765378Y-142891851D01*
X166765379Y-142891852D01*
X166888747Y-143028866D01*
X166887184Y-143030273D01*
X166919242Y-143082311D01*
X166917890Y-143153295D01*
X166878375Y-143212279D01*
X166813244Y-143240536D01*
X166797692Y-143241500D01*
X166751866Y-143241500D01*
X166689684Y-143248255D01*
X166670230Y-143255548D01*
X166561699Y-143296234D01*
X166561696Y-143296236D01*
X166553295Y-143299385D01*
X166546113Y-143304768D01*
X166540509Y-143307836D01*
X166471152Y-143323005D01*
X166419491Y-143307836D01*
X166413887Y-143304768D01*
X166406705Y-143299385D01*
X166398304Y-143296236D01*
X166398301Y-143296234D01*
X166289770Y-143255548D01*
X166270316Y-143248255D01*
X166208134Y-143241500D01*
X164211866Y-143241500D01*
X164149684Y-143248255D01*
X164130230Y-143255548D01*
X164021699Y-143296234D01*
X164021696Y-143296236D01*
X164013295Y-143299385D01*
X164006113Y-143304768D01*
X163999983Y-143308124D01*
X163930626Y-143323293D01*
X163878965Y-143308124D01*
X163858058Y-143296677D01*
X163737606Y-143251522D01*
X163722351Y-143247895D01*
X163671486Y-143242369D01*
X163664672Y-143242000D01*
X162942115Y-143242000D01*
X162926876Y-143246475D01*
X162925671Y-143247865D01*
X162924000Y-143255548D01*
X162924000Y-144878000D01*
X162903998Y-144946121D01*
X162850342Y-144992614D01*
X162798000Y-145004000D01*
X162542000Y-145004000D01*
X162473879Y-144983998D01*
X162427386Y-144930342D01*
X162416000Y-144878000D01*
X162416000Y-143260116D01*
X162411525Y-143244877D01*
X162410135Y-143243672D01*
X162402452Y-143242001D01*
X161675331Y-143242001D01*
X161668510Y-143242371D01*
X161617648Y-143247895D01*
X161602396Y-143251521D01*
X161481942Y-143296677D01*
X161461035Y-143308124D01*
X161391678Y-143323293D01*
X161340017Y-143308124D01*
X161333887Y-143304768D01*
X161326705Y-143299385D01*
X161318304Y-143296236D01*
X161318301Y-143296234D01*
X161209770Y-143255548D01*
X161190316Y-143248255D01*
X161128134Y-143241500D01*
X159131866Y-143241500D01*
X159069684Y-143248255D01*
X159050230Y-143255548D01*
X158941699Y-143296234D01*
X158941696Y-143296236D01*
X158933295Y-143299385D01*
X158926113Y-143304768D01*
X158920509Y-143307836D01*
X158851152Y-143323005D01*
X158799491Y-143307836D01*
X158793887Y-143304768D01*
X158786705Y-143299385D01*
X158778304Y-143296236D01*
X158778301Y-143296234D01*
X158669770Y-143255548D01*
X158650316Y-143248255D01*
X158588134Y-143241500D01*
X156591866Y-143241500D01*
X156529684Y-143248255D01*
X156510230Y-143255548D01*
X156401699Y-143296234D01*
X156401696Y-143296236D01*
X156393295Y-143299385D01*
X156386113Y-143304768D01*
X156380509Y-143307836D01*
X156311152Y-143323005D01*
X156259491Y-143307836D01*
X156253887Y-143304768D01*
X156246705Y-143299385D01*
X156238304Y-143296236D01*
X156238301Y-143296234D01*
X156129770Y-143255548D01*
X156110316Y-143248255D01*
X156048134Y-143241500D01*
X154051866Y-143241500D01*
X153989684Y-143248255D01*
X153970230Y-143255548D01*
X153861699Y-143296234D01*
X153861696Y-143296236D01*
X153853295Y-143299385D01*
X153846113Y-143304768D01*
X153840509Y-143307836D01*
X153771152Y-143323005D01*
X153719491Y-143307836D01*
X153713887Y-143304768D01*
X153706705Y-143299385D01*
X153698304Y-143296236D01*
X153698301Y-143296234D01*
X153589770Y-143255548D01*
X153570316Y-143248255D01*
X153508134Y-143241500D01*
X151511866Y-143241500D01*
X151449684Y-143248255D01*
X151430230Y-143255548D01*
X151321699Y-143296234D01*
X151321696Y-143296236D01*
X151313295Y-143299385D01*
X151306113Y-143304768D01*
X151300509Y-143307836D01*
X151231152Y-143323005D01*
X151179491Y-143307836D01*
X151173887Y-143304768D01*
X151166705Y-143299385D01*
X151158304Y-143296236D01*
X151158301Y-143296234D01*
X151049770Y-143255548D01*
X151030316Y-143248255D01*
X150968134Y-143241500D01*
X149252308Y-143241500D01*
X149184187Y-143221498D01*
X149137694Y-143167842D01*
X149127590Y-143097568D01*
X149157084Y-143032988D01*
X149160816Y-143029183D01*
X149161253Y-143028866D01*
X149289040Y-142886944D01*
X149384527Y-142721556D01*
X149443542Y-142539928D01*
X149463504Y-142350000D01*
X149457190Y-142289928D01*
X149444232Y-142166635D01*
X149444232Y-142166633D01*
X149443542Y-142160072D01*
X149384527Y-141978444D01*
X149289040Y-141813056D01*
X149283196Y-141806565D01*
X149165675Y-141676045D01*
X149165674Y-141676044D01*
X149161253Y-141671134D01*
X149006752Y-141558882D01*
X149000724Y-141556198D01*
X149000722Y-141556197D01*
X148874759Y-141500115D01*
X148820663Y-141454135D01*
X148800014Y-141386208D01*
X148800698Y-141371847D01*
X148813504Y-141250000D01*
X148811529Y-141231206D01*
X148794232Y-141066635D01*
X148794232Y-141066633D01*
X148793542Y-141060072D01*
X148734527Y-140878444D01*
X148639040Y-140713056D01*
X148511253Y-140571134D01*
X148356752Y-140458882D01*
X148350724Y-140456198D01*
X148350722Y-140456197D01*
X148188319Y-140383891D01*
X148188318Y-140383891D01*
X148182288Y-140381206D01*
X148088887Y-140361353D01*
X148001944Y-140342872D01*
X148001939Y-140342872D01*
X147995487Y-140341500D01*
X147804513Y-140341500D01*
X147798061Y-140342872D01*
X147798056Y-140342872D01*
X147711113Y-140361353D01*
X147617712Y-140381206D01*
X147611682Y-140383891D01*
X147611681Y-140383891D01*
X147449278Y-140456197D01*
X147449276Y-140456198D01*
X147443248Y-140458882D01*
X147288747Y-140571134D01*
X147160960Y-140713056D01*
X147065473Y-140878444D01*
X147006458Y-141060072D01*
X147005769Y-141066631D01*
X147005768Y-141066634D01*
X147000489Y-141116864D01*
X146973476Y-141182520D01*
X146915254Y-141223150D01*
X146844309Y-141225853D01*
X146812178Y-141212811D01*
X146812089Y-141212760D01*
X146806752Y-141208882D01*
X146800726Y-141206199D01*
X146638319Y-141133891D01*
X146638318Y-141133891D01*
X146632288Y-141131206D01*
X146532861Y-141110072D01*
X146451944Y-141092872D01*
X146451939Y-141092872D01*
X146445487Y-141091500D01*
X146254513Y-141091500D01*
X146248061Y-141092872D01*
X146248056Y-141092872D01*
X146167139Y-141110072D01*
X146067712Y-141131206D01*
X146061682Y-141133891D01*
X146061681Y-141133891D01*
X145899278Y-141206197D01*
X145899276Y-141206198D01*
X145893248Y-141208882D01*
X145887907Y-141212762D01*
X145887906Y-141212763D01*
X145864410Y-141229834D01*
X145738747Y-141321134D01*
X145734326Y-141326044D01*
X145734325Y-141326045D01*
X145631785Y-141439928D01*
X145610960Y-141463056D01*
X145515473Y-141628444D01*
X145456458Y-141810072D01*
X145455768Y-141816633D01*
X145455768Y-141816635D01*
X145445948Y-141910072D01*
X145436496Y-142000000D01*
X145437186Y-142006565D01*
X145455129Y-142177279D01*
X145456458Y-142189928D01*
X145515473Y-142371556D01*
X145610960Y-142536944D01*
X145615378Y-142541851D01*
X145615379Y-142541852D01*
X145729678Y-142668794D01*
X145738747Y-142678866D01*
X145824429Y-142741118D01*
X145876385Y-142778866D01*
X145893248Y-142791118D01*
X145899276Y-142793802D01*
X145899278Y-142793803D01*
X146044591Y-142858500D01*
X146067712Y-142868794D01*
X146153101Y-142886944D01*
X146248056Y-142907128D01*
X146248061Y-142907128D01*
X146254513Y-142908500D01*
X146445487Y-142908500D01*
X146451939Y-142907128D01*
X146451944Y-142907128D01*
X146546899Y-142886944D01*
X146632288Y-142868794D01*
X146655409Y-142858500D01*
X146800722Y-142793803D01*
X146800724Y-142793802D01*
X146806752Y-142791118D01*
X146823616Y-142778866D01*
X146875571Y-142741118D01*
X146961253Y-142678866D01*
X146970322Y-142668794D01*
X147084621Y-142541852D01*
X147084622Y-142541851D01*
X147089040Y-142536944D01*
X147184527Y-142371556D01*
X147243542Y-142189928D01*
X147244872Y-142177279D01*
X147249511Y-142133136D01*
X147276524Y-142067480D01*
X147334746Y-142026850D01*
X147405691Y-142024147D01*
X147437822Y-142037189D01*
X147437911Y-142037240D01*
X147443248Y-142041118D01*
X147449274Y-142043801D01*
X147575241Y-142099885D01*
X147629337Y-142145865D01*
X147649986Y-142213792D01*
X147649302Y-142228153D01*
X147636496Y-142350000D01*
X147656458Y-142539928D01*
X147715473Y-142721556D01*
X147810960Y-142886944D01*
X147815378Y-142891851D01*
X147815379Y-142891852D01*
X147938747Y-143028866D01*
X147937184Y-143030273D01*
X147969242Y-143082311D01*
X147967890Y-143153295D01*
X147928375Y-143212279D01*
X147863244Y-143240536D01*
X147847692Y-143241500D01*
X146431866Y-143241500D01*
X146369684Y-143248255D01*
X146350230Y-143255548D01*
X146241699Y-143296234D01*
X146241696Y-143296236D01*
X146233295Y-143299385D01*
X146226113Y-143304768D01*
X146220509Y-143307836D01*
X146151152Y-143323005D01*
X146099491Y-143307836D01*
X146093887Y-143304768D01*
X146086705Y-143299385D01*
X146078304Y-143296236D01*
X146078301Y-143296234D01*
X145969770Y-143255548D01*
X145950316Y-143248255D01*
X145888134Y-143241500D01*
X143891866Y-143241500D01*
X143829684Y-143248255D01*
X143810230Y-143255548D01*
X143701699Y-143296234D01*
X143701696Y-143296236D01*
X143693295Y-143299385D01*
X143686113Y-143304768D01*
X143680509Y-143307836D01*
X143611152Y-143323005D01*
X143559491Y-143307836D01*
X143553887Y-143304768D01*
X143546705Y-143299385D01*
X143538304Y-143296236D01*
X143538301Y-143296234D01*
X143429770Y-143255548D01*
X143410316Y-143248255D01*
X143348134Y-143241500D01*
X141351866Y-143241500D01*
X141289684Y-143248255D01*
X141153295Y-143299385D01*
X141036739Y-143386739D01*
X140949385Y-143503295D01*
X140898255Y-143639684D01*
X140891500Y-143701866D01*
X140891500Y-145216000D01*
X140871498Y-145284121D01*
X140817842Y-145330614D01*
X140765500Y-145342000D01*
X137684000Y-145342000D01*
X137615879Y-145321998D01*
X137569386Y-145268342D01*
X137558000Y-145216000D01*
X137558000Y-140146710D01*
X137559746Y-140125806D01*
X137562264Y-140110838D01*
X137563071Y-140106042D01*
X137563224Y-140093503D01*
X137562532Y-140088668D01*
X137561487Y-140078403D01*
X137560811Y-140067214D01*
X137544812Y-139802720D01*
X137492301Y-139516178D01*
X137405634Y-139238054D01*
X137388508Y-139200000D01*
X210236496Y-139200000D01*
X210256458Y-139389928D01*
X210315473Y-139571556D01*
X210410960Y-139736944D01*
X210415378Y-139741851D01*
X210415379Y-139741852D01*
X210534325Y-139873955D01*
X210538747Y-139878866D01*
X210693248Y-139991118D01*
X210699276Y-139993802D01*
X210699278Y-139993803D01*
X210861681Y-140066109D01*
X210867712Y-140068794D01*
X210954460Y-140087233D01*
X211048056Y-140107128D01*
X211048061Y-140107128D01*
X211054513Y-140108500D01*
X211245487Y-140108500D01*
X211251939Y-140107128D01*
X211251944Y-140107128D01*
X211345540Y-140087233D01*
X211432288Y-140068794D01*
X211438319Y-140066109D01*
X211600722Y-139993803D01*
X211600724Y-139993802D01*
X211606752Y-139991118D01*
X211761253Y-139878866D01*
X211765675Y-139873955D01*
X211884621Y-139741852D01*
X211884622Y-139741851D01*
X211889040Y-139736944D01*
X211984527Y-139571556D01*
X212043542Y-139389928D01*
X212063504Y-139200000D01*
X212043542Y-139010072D01*
X211984527Y-138828444D01*
X211889040Y-138663056D01*
X211852487Y-138622459D01*
X211765675Y-138526045D01*
X211765674Y-138526044D01*
X211761253Y-138521134D01*
X211606752Y-138408882D01*
X211600724Y-138406198D01*
X211600722Y-138406197D01*
X211438319Y-138333891D01*
X211438318Y-138333891D01*
X211432288Y-138331206D01*
X211338888Y-138311353D01*
X211251944Y-138292872D01*
X211251939Y-138292872D01*
X211245487Y-138291500D01*
X211054513Y-138291500D01*
X211048061Y-138292872D01*
X211048056Y-138292872D01*
X210961112Y-138311353D01*
X210867712Y-138331206D01*
X210861682Y-138333891D01*
X210861681Y-138333891D01*
X210699278Y-138406197D01*
X210699276Y-138406198D01*
X210693248Y-138408882D01*
X210538747Y-138521134D01*
X210534326Y-138526044D01*
X210534325Y-138526045D01*
X210447514Y-138622459D01*
X210410960Y-138663056D01*
X210315473Y-138828444D01*
X210256458Y-139010072D01*
X210236496Y-139200000D01*
X137388508Y-139200000D01*
X137318209Y-139043803D01*
X137286075Y-138972404D01*
X137283021Y-138967351D01*
X137173960Y-138786944D01*
X137135367Y-138723103D01*
X137126813Y-138712185D01*
X137100549Y-138646227D01*
X137100000Y-138634481D01*
X137100000Y-138250000D01*
X195436496Y-138250000D01*
X195456458Y-138439928D01*
X195515473Y-138621556D01*
X195610960Y-138786944D01*
X195738747Y-138928866D01*
X195893248Y-139041118D01*
X195899276Y-139043802D01*
X195899278Y-139043803D01*
X196061681Y-139116109D01*
X196067712Y-139118794D01*
X196161113Y-139138647D01*
X196248056Y-139157128D01*
X196248061Y-139157128D01*
X196254513Y-139158500D01*
X196445487Y-139158500D01*
X196451939Y-139157128D01*
X196451944Y-139157128D01*
X196538887Y-139138647D01*
X196632288Y-139118794D01*
X196638319Y-139116109D01*
X196800722Y-139043803D01*
X196800724Y-139043802D01*
X196806752Y-139041118D01*
X196961253Y-138928866D01*
X197089040Y-138786944D01*
X197184527Y-138621556D01*
X197243542Y-138439928D01*
X197263504Y-138250000D01*
X197243542Y-138060072D01*
X197184527Y-137878444D01*
X197139237Y-137800000D01*
X203436496Y-137800000D01*
X203437186Y-137806565D01*
X203455229Y-137978230D01*
X203456458Y-137989928D01*
X203515473Y-138171556D01*
X203610960Y-138336944D01*
X203615378Y-138341851D01*
X203615379Y-138341852D01*
X203675733Y-138408882D01*
X203738747Y-138478866D01*
X203893248Y-138591118D01*
X203899276Y-138593802D01*
X203899278Y-138593803D01*
X204054824Y-138663056D01*
X204067712Y-138668794D01*
X204161113Y-138688647D01*
X204248056Y-138707128D01*
X204248061Y-138707128D01*
X204254513Y-138708500D01*
X204445487Y-138708500D01*
X204451939Y-138707128D01*
X204451944Y-138707128D01*
X204538887Y-138688647D01*
X204632288Y-138668794D01*
X204645176Y-138663056D01*
X204800722Y-138593803D01*
X204800724Y-138593802D01*
X204806752Y-138591118D01*
X204961253Y-138478866D01*
X205024267Y-138408882D01*
X205084621Y-138341852D01*
X205084622Y-138341851D01*
X205089040Y-138336944D01*
X205184527Y-138171556D01*
X205243542Y-137989928D01*
X205244772Y-137978230D01*
X205262814Y-137806565D01*
X205263504Y-137800000D01*
X205252856Y-137698691D01*
X205244232Y-137616635D01*
X205244232Y-137616633D01*
X205243542Y-137610072D01*
X205184527Y-137428444D01*
X205089040Y-137263056D01*
X204961253Y-137121134D01*
X204806752Y-137008882D01*
X204800724Y-137006198D01*
X204800722Y-137006197D01*
X204638319Y-136933891D01*
X204638318Y-136933891D01*
X204632288Y-136931206D01*
X204538888Y-136911353D01*
X204451944Y-136892872D01*
X204451939Y-136892872D01*
X204445487Y-136891500D01*
X204254513Y-136891500D01*
X204248061Y-136892872D01*
X204248056Y-136892872D01*
X204161112Y-136911353D01*
X204067712Y-136931206D01*
X204061682Y-136933891D01*
X204061681Y-136933891D01*
X203899278Y-137006197D01*
X203899276Y-137006198D01*
X203893248Y-137008882D01*
X203738747Y-137121134D01*
X203610960Y-137263056D01*
X203515473Y-137428444D01*
X203456458Y-137610072D01*
X203455768Y-137616633D01*
X203455768Y-137616635D01*
X203447144Y-137698691D01*
X203436496Y-137800000D01*
X197139237Y-137800000D01*
X197089040Y-137713056D01*
X197059528Y-137680279D01*
X196965675Y-137576045D01*
X196965674Y-137576044D01*
X196961253Y-137571134D01*
X196806752Y-137458882D01*
X196800724Y-137456198D01*
X196800722Y-137456197D01*
X196638319Y-137383891D01*
X196638318Y-137383891D01*
X196632288Y-137381206D01*
X196538888Y-137361353D01*
X196451944Y-137342872D01*
X196451939Y-137342872D01*
X196445487Y-137341500D01*
X196254513Y-137341500D01*
X196248061Y-137342872D01*
X196248056Y-137342872D01*
X196161112Y-137361353D01*
X196067712Y-137381206D01*
X196061682Y-137383891D01*
X196061681Y-137383891D01*
X195899278Y-137456197D01*
X195899276Y-137456198D01*
X195893248Y-137458882D01*
X195738747Y-137571134D01*
X195734326Y-137576044D01*
X195734325Y-137576045D01*
X195640473Y-137680279D01*
X195610960Y-137713056D01*
X195515473Y-137878444D01*
X195456458Y-138060072D01*
X195436496Y-138250000D01*
X137100000Y-138250000D01*
X137100000Y-138016572D01*
X137120002Y-137948451D01*
X137173658Y-137901958D01*
X137243932Y-137891854D01*
X137281729Y-137903566D01*
X137541800Y-138031820D01*
X137541808Y-138031823D01*
X137545504Y-138033646D01*
X137549419Y-138034975D01*
X137834358Y-138131699D01*
X137834361Y-138131700D01*
X137838265Y-138133025D01*
X138031976Y-138171556D01*
X138137450Y-138192536D01*
X138137453Y-138192536D01*
X138141493Y-138193340D01*
X138145604Y-138193609D01*
X138145608Y-138193610D01*
X138370737Y-138208366D01*
X138370746Y-138208366D01*
X138372786Y-138208500D01*
X138527214Y-138208500D01*
X138529254Y-138208366D01*
X138529263Y-138208366D01*
X138754392Y-138193610D01*
X138754396Y-138193609D01*
X138758507Y-138193340D01*
X138762547Y-138192536D01*
X138762550Y-138192536D01*
X138868024Y-138171556D01*
X139061735Y-138133025D01*
X139065639Y-138131700D01*
X139065642Y-138131699D01*
X139350581Y-138034975D01*
X139354496Y-138033646D01*
X139358192Y-138031823D01*
X139358200Y-138031820D01*
X139618271Y-137903566D01*
X139631780Y-137896904D01*
X139639338Y-137891854D01*
X139885414Y-137727432D01*
X139885419Y-137727428D01*
X139888845Y-137725139D01*
X139891939Y-137722425D01*
X139891945Y-137722421D01*
X140118201Y-137523999D01*
X140121290Y-137521290D01*
X140172617Y-137462763D01*
X140322421Y-137291945D01*
X140322425Y-137291939D01*
X140325139Y-137288845D01*
X140345651Y-137258148D01*
X140494610Y-137035214D01*
X140496904Y-137031781D01*
X140633646Y-136754496D01*
X140733025Y-136461735D01*
X140793340Y-136158507D01*
X140813561Y-135850000D01*
X140793340Y-135541493D01*
X140733025Y-135238265D01*
X140726416Y-135218794D01*
X140634975Y-134949419D01*
X140633646Y-134945504D01*
X140631822Y-134941806D01*
X140631820Y-134941800D01*
X140498730Y-134671923D01*
X140496904Y-134668220D01*
X140494610Y-134664787D01*
X140494609Y-134664785D01*
X140327432Y-134414586D01*
X140327428Y-134414581D01*
X140325139Y-134411155D01*
X140322425Y-134408061D01*
X140322421Y-134408055D01*
X140123999Y-134181799D01*
X140121290Y-134178710D01*
X140107521Y-134166635D01*
X139917511Y-134000000D01*
X144286496Y-134000000D01*
X144287186Y-134006565D01*
X144305604Y-134181799D01*
X144306458Y-134189928D01*
X144365473Y-134371556D01*
X144368776Y-134377278D01*
X144368777Y-134377279D01*
X144390316Y-134414586D01*
X144460960Y-134536944D01*
X144465378Y-134541851D01*
X144465379Y-134541852D01*
X144584325Y-134673955D01*
X144588747Y-134678866D01*
X144743248Y-134791118D01*
X144749276Y-134793802D01*
X144749278Y-134793803D01*
X144894591Y-134858500D01*
X144917712Y-134868794D01*
X145003101Y-134886944D01*
X145098056Y-134907128D01*
X145098061Y-134907128D01*
X145104513Y-134908500D01*
X145295487Y-134908500D01*
X145301939Y-134907128D01*
X145301944Y-134907128D01*
X145396899Y-134886944D01*
X145482288Y-134868794D01*
X145505409Y-134858500D01*
X145650722Y-134793803D01*
X145650724Y-134793802D01*
X145656752Y-134791118D01*
X145789325Y-134694798D01*
X145856191Y-134670940D01*
X145925343Y-134687020D01*
X145972504Y-134733734D01*
X146060960Y-134886944D01*
X146065378Y-134891851D01*
X146065379Y-134891852D01*
X146117213Y-134949419D01*
X146188747Y-135028866D01*
X146343248Y-135141118D01*
X146349276Y-135143802D01*
X146349278Y-135143803D01*
X146511681Y-135216109D01*
X146517712Y-135218794D01*
X146609315Y-135238265D01*
X146698056Y-135257128D01*
X146698061Y-135257128D01*
X146704513Y-135258500D01*
X146895487Y-135258500D01*
X146901939Y-135257128D01*
X146901944Y-135257128D01*
X146990685Y-135238265D01*
X147082288Y-135218794D01*
X147088319Y-135216109D01*
X147250722Y-135143803D01*
X147250724Y-135143802D01*
X147256752Y-135141118D01*
X147313346Y-135100000D01*
X158886496Y-135100000D01*
X158887186Y-135106565D01*
X158903011Y-135257128D01*
X158906458Y-135289928D01*
X158965473Y-135471556D01*
X159060960Y-135636944D01*
X159188747Y-135778866D01*
X159343248Y-135891118D01*
X159349276Y-135893802D01*
X159349278Y-135893803D01*
X159511681Y-135966109D01*
X159517712Y-135968794D01*
X159611113Y-135988647D01*
X159698056Y-136007128D01*
X159698061Y-136007128D01*
X159704513Y-136008500D01*
X159895487Y-136008500D01*
X159901939Y-136007128D01*
X159901944Y-136007128D01*
X159988887Y-135988647D01*
X160082288Y-135968794D01*
X160088319Y-135966109D01*
X160250722Y-135893803D01*
X160250724Y-135893802D01*
X160256752Y-135891118D01*
X160411253Y-135778866D01*
X160539040Y-135636944D01*
X160634527Y-135471556D01*
X160693542Y-135289928D01*
X160696990Y-135257128D01*
X160712814Y-135106565D01*
X160713504Y-135100000D01*
X160706028Y-135028866D01*
X160694232Y-134916635D01*
X160694232Y-134916633D01*
X160693542Y-134910072D01*
X160634527Y-134728444D01*
X160615102Y-134694798D01*
X160548168Y-134578866D01*
X160539040Y-134563056D01*
X160518216Y-134539928D01*
X160415675Y-134426045D01*
X160415674Y-134426044D01*
X160411253Y-134421134D01*
X160256752Y-134308882D01*
X160250724Y-134306198D01*
X160250722Y-134306197D01*
X160088319Y-134233891D01*
X160088318Y-134233891D01*
X160082288Y-134231206D01*
X159988888Y-134211353D01*
X159901944Y-134192872D01*
X159901939Y-134192872D01*
X159895487Y-134191500D01*
X159704513Y-134191500D01*
X159698061Y-134192872D01*
X159698056Y-134192872D01*
X159611112Y-134211353D01*
X159517712Y-134231206D01*
X159511682Y-134233891D01*
X159511681Y-134233891D01*
X159349278Y-134306197D01*
X159349276Y-134306198D01*
X159343248Y-134308882D01*
X159188747Y-134421134D01*
X159184326Y-134426044D01*
X159184325Y-134426045D01*
X159081785Y-134539928D01*
X159060960Y-134563056D01*
X159051832Y-134578866D01*
X158984899Y-134694798D01*
X158965473Y-134728444D01*
X158906458Y-134910072D01*
X158905768Y-134916633D01*
X158905768Y-134916635D01*
X158893972Y-135028866D01*
X158886496Y-135100000D01*
X147313346Y-135100000D01*
X147411253Y-135028866D01*
X147482787Y-134949419D01*
X147534621Y-134891852D01*
X147534622Y-134891851D01*
X147539040Y-134886944D01*
X147634527Y-134721556D01*
X147693542Y-134539928D01*
X147705512Y-134426045D01*
X147712814Y-134356565D01*
X147713504Y-134350000D01*
X147701301Y-134233891D01*
X147694232Y-134166635D01*
X147694232Y-134166633D01*
X147693542Y-134160072D01*
X147634527Y-133978444D01*
X147631135Y-133972568D01*
X147589237Y-133900000D01*
X155286496Y-133900000D01*
X155287186Y-133906565D01*
X155303132Y-134058279D01*
X155306458Y-134089928D01*
X155365473Y-134271556D01*
X155460960Y-134436944D01*
X155465378Y-134441851D01*
X155465379Y-134441852D01*
X155505980Y-134486944D01*
X155588747Y-134578866D01*
X155657566Y-134628866D01*
X155737608Y-134687020D01*
X155743248Y-134691118D01*
X155749276Y-134693802D01*
X155749278Y-134693803D01*
X155841200Y-134734729D01*
X155917712Y-134768794D01*
X156004479Y-134787237D01*
X156098056Y-134807128D01*
X156098061Y-134807128D01*
X156104513Y-134808500D01*
X156295487Y-134808500D01*
X156301939Y-134807128D01*
X156301944Y-134807128D01*
X156395521Y-134787237D01*
X156482288Y-134768794D01*
X156558800Y-134734729D01*
X156650722Y-134693803D01*
X156650724Y-134693802D01*
X156656752Y-134691118D01*
X156662393Y-134687020D01*
X156742434Y-134628866D01*
X156811253Y-134578866D01*
X156894020Y-134486944D01*
X156934621Y-134441852D01*
X156934622Y-134441851D01*
X156939040Y-134436944D01*
X157034527Y-134271556D01*
X157093542Y-134089928D01*
X157096869Y-134058279D01*
X157102994Y-134000000D01*
X166286496Y-134000000D01*
X166287186Y-134006565D01*
X166305604Y-134181799D01*
X166306458Y-134189928D01*
X166365473Y-134371556D01*
X166368776Y-134377278D01*
X166368777Y-134377279D01*
X166390316Y-134414586D01*
X166460960Y-134536944D01*
X166465378Y-134541851D01*
X166465379Y-134541852D01*
X166584325Y-134673955D01*
X166588747Y-134678866D01*
X166743248Y-134791118D01*
X166749276Y-134793802D01*
X166749278Y-134793803D01*
X166894591Y-134858500D01*
X166917712Y-134868794D01*
X167003101Y-134886944D01*
X167098056Y-134907128D01*
X167098061Y-134907128D01*
X167104513Y-134908500D01*
X167295487Y-134908500D01*
X167301939Y-134907128D01*
X167301944Y-134907128D01*
X167396899Y-134886944D01*
X167482288Y-134868794D01*
X167505409Y-134858500D01*
X167650722Y-134793803D01*
X167650724Y-134793802D01*
X167656752Y-134791118D01*
X167811253Y-134678866D01*
X167815675Y-134673955D01*
X167934621Y-134541852D01*
X167934622Y-134541851D01*
X167939040Y-134536944D01*
X168009684Y-134414586D01*
X168031223Y-134377279D01*
X168031224Y-134377278D01*
X168034527Y-134371556D01*
X168093542Y-134189928D01*
X168094397Y-134181799D01*
X168112814Y-134006565D01*
X168113504Y-134000000D01*
X168111238Y-133978444D01*
X168102994Y-133900000D01*
X177386496Y-133900000D01*
X177387186Y-133906565D01*
X177403132Y-134058279D01*
X177406458Y-134089928D01*
X177465473Y-134271556D01*
X177560960Y-134436944D01*
X177565378Y-134441851D01*
X177565379Y-134441852D01*
X177605980Y-134486944D01*
X177688747Y-134578866D01*
X177757566Y-134628866D01*
X177837608Y-134687020D01*
X177843248Y-134691118D01*
X177849276Y-134693802D01*
X177849278Y-134693803D01*
X177941200Y-134734729D01*
X178017712Y-134768794D01*
X178104479Y-134787237D01*
X178198056Y-134807128D01*
X178198061Y-134807128D01*
X178204513Y-134808500D01*
X178395487Y-134808500D01*
X178401939Y-134807128D01*
X178401944Y-134807128D01*
X178495521Y-134787237D01*
X178582288Y-134768794D01*
X178658800Y-134734729D01*
X178750722Y-134693803D01*
X178750724Y-134693802D01*
X178756752Y-134691118D01*
X178762393Y-134687020D01*
X178842434Y-134628866D01*
X178911253Y-134578866D01*
X178994020Y-134486944D01*
X179034621Y-134441852D01*
X179034622Y-134441851D01*
X179039040Y-134436944D01*
X179134527Y-134271556D01*
X179193542Y-134089928D01*
X179196869Y-134058279D01*
X179212814Y-133906565D01*
X179213504Y-133900000D01*
X188386496Y-133900000D01*
X188387186Y-133906565D01*
X188403132Y-134058279D01*
X188406458Y-134089928D01*
X188465473Y-134271556D01*
X188560960Y-134436944D01*
X188565378Y-134441851D01*
X188565379Y-134441852D01*
X188605980Y-134486944D01*
X188688747Y-134578866D01*
X188757566Y-134628866D01*
X188837608Y-134687020D01*
X188843248Y-134691118D01*
X188849276Y-134693802D01*
X188849278Y-134693803D01*
X188941200Y-134734729D01*
X189017712Y-134768794D01*
X189104479Y-134787237D01*
X189198056Y-134807128D01*
X189198061Y-134807128D01*
X189204513Y-134808500D01*
X189395487Y-134808500D01*
X189401939Y-134807128D01*
X189401944Y-134807128D01*
X189495521Y-134787237D01*
X189582288Y-134768794D01*
X189658800Y-134734729D01*
X189750722Y-134693803D01*
X189750724Y-134693802D01*
X189756752Y-134691118D01*
X189762393Y-134687020D01*
X189842434Y-134628866D01*
X189911253Y-134578866D01*
X189994020Y-134486944D01*
X190034621Y-134441852D01*
X190034622Y-134441851D01*
X190039040Y-134436944D01*
X190134527Y-134271556D01*
X190193542Y-134089928D01*
X190196869Y-134058279D01*
X190208249Y-133950000D01*
X199286496Y-133950000D01*
X199287186Y-133956565D01*
X199294747Y-134028500D01*
X199306458Y-134139928D01*
X199365473Y-134321556D01*
X199460960Y-134486944D01*
X199465378Y-134491851D01*
X199465379Y-134491852D01*
X199505980Y-134536944D01*
X199588747Y-134628866D01*
X199743248Y-134741118D01*
X199749276Y-134743802D01*
X199749278Y-134743803D01*
X199894591Y-134808500D01*
X199917712Y-134818794D01*
X200011113Y-134838647D01*
X200098056Y-134857128D01*
X200098061Y-134857128D01*
X200104513Y-134858500D01*
X200295487Y-134858500D01*
X200301939Y-134857128D01*
X200301944Y-134857128D01*
X200388887Y-134838647D01*
X200482288Y-134818794D01*
X200505409Y-134808500D01*
X200650722Y-134743803D01*
X200650724Y-134743802D01*
X200656752Y-134741118D01*
X200811253Y-134628866D01*
X200894020Y-134536944D01*
X200934621Y-134491852D01*
X200934622Y-134491851D01*
X200939040Y-134486944D01*
X201034527Y-134321556D01*
X201093542Y-134139928D01*
X201105254Y-134028500D01*
X201108249Y-134000000D01*
X209986496Y-134000000D01*
X209987186Y-134006565D01*
X210005604Y-134181799D01*
X210006458Y-134189928D01*
X210065473Y-134371556D01*
X210068776Y-134377278D01*
X210068777Y-134377279D01*
X210090316Y-134414586D01*
X210160960Y-134536944D01*
X210165378Y-134541851D01*
X210165379Y-134541852D01*
X210284325Y-134673955D01*
X210288747Y-134678866D01*
X210443248Y-134791118D01*
X210449276Y-134793802D01*
X210449278Y-134793803D01*
X210594591Y-134858500D01*
X210617712Y-134868794D01*
X210703101Y-134886944D01*
X210798056Y-134907128D01*
X210798061Y-134907128D01*
X210804513Y-134908500D01*
X210995487Y-134908500D01*
X211001939Y-134907128D01*
X211001944Y-134907128D01*
X211096899Y-134886944D01*
X211182288Y-134868794D01*
X211205409Y-134858500D01*
X211350722Y-134793803D01*
X211350724Y-134793802D01*
X211356752Y-134791118D01*
X211511253Y-134678866D01*
X211515675Y-134673955D01*
X211634621Y-134541852D01*
X211634622Y-134541851D01*
X211639040Y-134536944D01*
X211709684Y-134414586D01*
X211731223Y-134377279D01*
X211731224Y-134377278D01*
X211734527Y-134371556D01*
X211793542Y-134189928D01*
X211794397Y-134181799D01*
X211812814Y-134006565D01*
X211813504Y-134000000D01*
X211811238Y-133978444D01*
X211794232Y-133816635D01*
X211794232Y-133816633D01*
X211793542Y-133810072D01*
X211734527Y-133628444D01*
X211639040Y-133463056D01*
X211599169Y-133418774D01*
X211515675Y-133326045D01*
X211515674Y-133326044D01*
X211511253Y-133321134D01*
X211380375Y-133226045D01*
X211362094Y-133212763D01*
X211362093Y-133212762D01*
X211356752Y-133208882D01*
X211350724Y-133206198D01*
X211350722Y-133206197D01*
X211188319Y-133133891D01*
X211188318Y-133133891D01*
X211182288Y-133131206D01*
X211129568Y-133120000D01*
X217628996Y-133120000D01*
X217629686Y-133126565D01*
X217644881Y-133271134D01*
X217648958Y-133309928D01*
X217707973Y-133491556D01*
X217711276Y-133497278D01*
X217711277Y-133497279D01*
X217732899Y-133534729D01*
X217803460Y-133656944D01*
X217807878Y-133661851D01*
X217807879Y-133661852D01*
X217862493Y-133722507D01*
X217931247Y-133798866D01*
X217938030Y-133803794D01*
X218061410Y-133893435D01*
X218085748Y-133911118D01*
X218091776Y-133913802D01*
X218091778Y-133913803D01*
X218254181Y-133986109D01*
X218260212Y-133988794D01*
X218343818Y-134006565D01*
X218440556Y-134027128D01*
X218440561Y-134027128D01*
X218447013Y-134028500D01*
X218637987Y-134028500D01*
X218644439Y-134027128D01*
X218644444Y-134027128D01*
X218724741Y-134010060D01*
X218795532Y-134015462D01*
X218852165Y-134058279D01*
X218876658Y-134124917D01*
X218861237Y-134194218D01*
X218845670Y-134216385D01*
X218677579Y-134408055D01*
X218677575Y-134408061D01*
X218674861Y-134411155D01*
X218672572Y-134414581D01*
X218672568Y-134414586D01*
X218576643Y-134558148D01*
X218503096Y-134668219D01*
X218501272Y-134671918D01*
X218501269Y-134671923D01*
X218470297Y-134734729D01*
X218366354Y-134945504D01*
X218365029Y-134949409D01*
X218365028Y-134949410D01*
X218273585Y-135218794D01*
X218266975Y-135238265D01*
X218206660Y-135541493D01*
X218186439Y-135850000D01*
X218206660Y-136158507D01*
X218266975Y-136461735D01*
X218366354Y-136754496D01*
X218368177Y-136758192D01*
X218368180Y-136758200D01*
X218453498Y-136931206D01*
X218503096Y-137031780D01*
X218505390Y-137035213D01*
X218505391Y-137035215D01*
X218566082Y-137126045D01*
X218674861Y-137288845D01*
X218677575Y-137291939D01*
X218677579Y-137291945D01*
X218827383Y-137462763D01*
X218878710Y-137521290D01*
X218881799Y-137523999D01*
X219108055Y-137722421D01*
X219108061Y-137722425D01*
X219111155Y-137725139D01*
X219114581Y-137727428D01*
X219114586Y-137727432D01*
X219360662Y-137891854D01*
X219368220Y-137896904D01*
X219381729Y-137903566D01*
X219641800Y-138031820D01*
X219641808Y-138031823D01*
X219645504Y-138033646D01*
X219649419Y-138034975D01*
X219934358Y-138131699D01*
X219934361Y-138131700D01*
X219938265Y-138133025D01*
X220131976Y-138171556D01*
X220237450Y-138192536D01*
X220237453Y-138192536D01*
X220241493Y-138193340D01*
X220245604Y-138193609D01*
X220245608Y-138193610D01*
X220470737Y-138208366D01*
X220470746Y-138208366D01*
X220472786Y-138208500D01*
X220627214Y-138208500D01*
X220629254Y-138208366D01*
X220629263Y-138208366D01*
X220854392Y-138193610D01*
X220854396Y-138193609D01*
X220858507Y-138193340D01*
X220862547Y-138192536D01*
X220862550Y-138192536D01*
X220968024Y-138171556D01*
X221161735Y-138133025D01*
X221165639Y-138131700D01*
X221165642Y-138131699D01*
X221450581Y-138034975D01*
X221454496Y-138033646D01*
X221458192Y-138031823D01*
X221458200Y-138031820D01*
X221718271Y-137903566D01*
X221731780Y-137896904D01*
X221739338Y-137891854D01*
X221985414Y-137727432D01*
X221985419Y-137727428D01*
X221988845Y-137725139D01*
X221991939Y-137722425D01*
X221991945Y-137722421D01*
X222218201Y-137523999D01*
X222221290Y-137521290D01*
X222272617Y-137462763D01*
X222422421Y-137291945D01*
X222422425Y-137291939D01*
X222425139Y-137288845D01*
X222445651Y-137258148D01*
X222594610Y-137035214D01*
X222596904Y-137031781D01*
X222733646Y-136754496D01*
X222833025Y-136461735D01*
X222893340Y-136158507D01*
X222913561Y-135850000D01*
X222893340Y-135541493D01*
X222833025Y-135238265D01*
X222826416Y-135218794D01*
X222734975Y-134949419D01*
X222733646Y-134945504D01*
X222731822Y-134941806D01*
X222731820Y-134941800D01*
X222598730Y-134671923D01*
X222596904Y-134668220D01*
X222594610Y-134664787D01*
X222594609Y-134664785D01*
X222427432Y-134414586D01*
X222427428Y-134414581D01*
X222425139Y-134411155D01*
X222422425Y-134408061D01*
X222422421Y-134408055D01*
X222223999Y-134181799D01*
X222221290Y-134178710D01*
X222207521Y-134166635D01*
X221991945Y-133977579D01*
X221991939Y-133977575D01*
X221988845Y-133974861D01*
X221985419Y-133972572D01*
X221985414Y-133972568D01*
X221735215Y-133805391D01*
X221735213Y-133805390D01*
X221731780Y-133803096D01*
X221657845Y-133766635D01*
X221458200Y-133668180D01*
X221458192Y-133668177D01*
X221454496Y-133666354D01*
X221421643Y-133655202D01*
X221165642Y-133568301D01*
X221165639Y-133568300D01*
X221161735Y-133566975D01*
X220935039Y-133521883D01*
X220862550Y-133507464D01*
X220862547Y-133507464D01*
X220858507Y-133506660D01*
X220854396Y-133506391D01*
X220854392Y-133506390D01*
X220629263Y-133491634D01*
X220629254Y-133491634D01*
X220627214Y-133491500D01*
X220472786Y-133491500D01*
X220470746Y-133491634D01*
X220470737Y-133491634D01*
X220245608Y-133506390D01*
X220245604Y-133506391D01*
X220241493Y-133506660D01*
X220237453Y-133507464D01*
X220237450Y-133507464D01*
X220164961Y-133521883D01*
X219938265Y-133566975D01*
X219934361Y-133568300D01*
X219934358Y-133568301D01*
X219678357Y-133655202D01*
X219645504Y-133666354D01*
X219641808Y-133668177D01*
X219641800Y-133668180D01*
X219501600Y-133737320D01*
X219431657Y-133749510D01*
X219366228Y-133721951D01*
X219326084Y-133663393D01*
X219323972Y-133592428D01*
X219336752Y-133561314D01*
X219373723Y-133497279D01*
X219373724Y-133497278D01*
X219377027Y-133491556D01*
X219436042Y-133309928D01*
X219440120Y-133271134D01*
X219455314Y-133126565D01*
X219456004Y-133120000D01*
X219447898Y-133042872D01*
X219436732Y-132936635D01*
X219436732Y-132936633D01*
X219436042Y-132930072D01*
X219377027Y-132748444D01*
X219281540Y-132583056D01*
X219169073Y-132458148D01*
X219158175Y-132446045D01*
X219158174Y-132446044D01*
X219153753Y-132441134D01*
X218999252Y-132328882D01*
X218993224Y-132326198D01*
X218993222Y-132326197D01*
X218830819Y-132253891D01*
X218830818Y-132253891D01*
X218824788Y-132251206D01*
X218731387Y-132231353D01*
X218644444Y-132212872D01*
X218644439Y-132212872D01*
X218637987Y-132211500D01*
X218447013Y-132211500D01*
X218440561Y-132212872D01*
X218440556Y-132212872D01*
X218353613Y-132231353D01*
X218260212Y-132251206D01*
X218254182Y-132253891D01*
X218254181Y-132253891D01*
X218091778Y-132326197D01*
X218091776Y-132326198D01*
X218085748Y-132328882D01*
X217931247Y-132441134D01*
X217926826Y-132446044D01*
X217926825Y-132446045D01*
X217915928Y-132458148D01*
X217803460Y-132583056D01*
X217707973Y-132748444D01*
X217648958Y-132930072D01*
X217648268Y-132936633D01*
X217648268Y-132936635D01*
X217637102Y-133042872D01*
X217628996Y-133120000D01*
X211129568Y-133120000D01*
X211088888Y-133111353D01*
X211001944Y-133092872D01*
X211001939Y-133092872D01*
X210995487Y-133091500D01*
X210804513Y-133091500D01*
X210798061Y-133092872D01*
X210798056Y-133092872D01*
X210711112Y-133111353D01*
X210617712Y-133131206D01*
X210611682Y-133133891D01*
X210611681Y-133133891D01*
X210449278Y-133206197D01*
X210449276Y-133206198D01*
X210443248Y-133208882D01*
X210437907Y-133212762D01*
X210437906Y-133212763D01*
X210419625Y-133226045D01*
X210288747Y-133321134D01*
X210284326Y-133326044D01*
X210284325Y-133326045D01*
X210200832Y-133418774D01*
X210160960Y-133463056D01*
X210065473Y-133628444D01*
X210006458Y-133810072D01*
X210005768Y-133816633D01*
X210005768Y-133816635D01*
X209988762Y-133978444D01*
X209986496Y-134000000D01*
X201108249Y-134000000D01*
X201112814Y-133956565D01*
X201113504Y-133950000D01*
X201109142Y-133908500D01*
X201094232Y-133766635D01*
X201094232Y-133766633D01*
X201093542Y-133760072D01*
X201034527Y-133578444D01*
X201027906Y-133566975D01*
X200993082Y-133506660D01*
X200939040Y-133413056D01*
X200899169Y-133368774D01*
X200815675Y-133276045D01*
X200815674Y-133276044D01*
X200811253Y-133271134D01*
X200656752Y-133158882D01*
X200650724Y-133156198D01*
X200650722Y-133156197D01*
X200488319Y-133083891D01*
X200488318Y-133083891D01*
X200482288Y-133081206D01*
X200388887Y-133061353D01*
X200301944Y-133042872D01*
X200301939Y-133042872D01*
X200295487Y-133041500D01*
X200104513Y-133041500D01*
X200098061Y-133042872D01*
X200098056Y-133042872D01*
X200011113Y-133061353D01*
X199917712Y-133081206D01*
X199911682Y-133083891D01*
X199911681Y-133083891D01*
X199749278Y-133156197D01*
X199749276Y-133156198D01*
X199743248Y-133158882D01*
X199588747Y-133271134D01*
X199584326Y-133276044D01*
X199584325Y-133276045D01*
X199500832Y-133368774D01*
X199460960Y-133413056D01*
X199406918Y-133506660D01*
X199372095Y-133566975D01*
X199365473Y-133578444D01*
X199306458Y-133760072D01*
X199305768Y-133766633D01*
X199305768Y-133766635D01*
X199290858Y-133908500D01*
X199286496Y-133950000D01*
X190208249Y-133950000D01*
X190212814Y-133906565D01*
X190213504Y-133900000D01*
X190203560Y-133805391D01*
X190194232Y-133716635D01*
X190194232Y-133716633D01*
X190193542Y-133710072D01*
X190134527Y-133528444D01*
X190039040Y-133363056D01*
X189991204Y-133309928D01*
X189915675Y-133226045D01*
X189915674Y-133226044D01*
X189911253Y-133221134D01*
X189785590Y-133129834D01*
X189762094Y-133112763D01*
X189762093Y-133112762D01*
X189756752Y-133108882D01*
X189750724Y-133106198D01*
X189750722Y-133106197D01*
X189588319Y-133033891D01*
X189588318Y-133033891D01*
X189582288Y-133031206D01*
X189466362Y-133006565D01*
X189401944Y-132992872D01*
X189401939Y-132992872D01*
X189395487Y-132991500D01*
X189204513Y-132991500D01*
X189198061Y-132992872D01*
X189198056Y-132992872D01*
X189133638Y-133006565D01*
X189017712Y-133031206D01*
X189011682Y-133033891D01*
X189011681Y-133033891D01*
X188849278Y-133106197D01*
X188849276Y-133106198D01*
X188843248Y-133108882D01*
X188837907Y-133112762D01*
X188837906Y-133112763D01*
X188814410Y-133129834D01*
X188688747Y-133221134D01*
X188684326Y-133226044D01*
X188684325Y-133226045D01*
X188608797Y-133309928D01*
X188560960Y-133363056D01*
X188465473Y-133528444D01*
X188406458Y-133710072D01*
X188405768Y-133716633D01*
X188405768Y-133716635D01*
X188396440Y-133805391D01*
X188386496Y-133900000D01*
X179213504Y-133900000D01*
X179203560Y-133805391D01*
X179194232Y-133716635D01*
X179194232Y-133716633D01*
X179193542Y-133710072D01*
X179134527Y-133528444D01*
X179039040Y-133363056D01*
X178991204Y-133309928D01*
X178915675Y-133226045D01*
X178915674Y-133226044D01*
X178911253Y-133221134D01*
X178785590Y-133129834D01*
X178762094Y-133112763D01*
X178762093Y-133112762D01*
X178756752Y-133108882D01*
X178750724Y-133106198D01*
X178750722Y-133106197D01*
X178588319Y-133033891D01*
X178588318Y-133033891D01*
X178582288Y-133031206D01*
X178466362Y-133006565D01*
X178401944Y-132992872D01*
X178401939Y-132992872D01*
X178395487Y-132991500D01*
X178204513Y-132991500D01*
X178198061Y-132992872D01*
X178198056Y-132992872D01*
X178133638Y-133006565D01*
X178017712Y-133031206D01*
X178011682Y-133033891D01*
X178011681Y-133033891D01*
X177849278Y-133106197D01*
X177849276Y-133106198D01*
X177843248Y-133108882D01*
X177837907Y-133112762D01*
X177837906Y-133112763D01*
X177814410Y-133129834D01*
X177688747Y-133221134D01*
X177684326Y-133226044D01*
X177684325Y-133226045D01*
X177608797Y-133309928D01*
X177560960Y-133363056D01*
X177465473Y-133528444D01*
X177406458Y-133710072D01*
X177405768Y-133716633D01*
X177405768Y-133716635D01*
X177396440Y-133805391D01*
X177386496Y-133900000D01*
X168102994Y-133900000D01*
X168094232Y-133816635D01*
X168094232Y-133816633D01*
X168093542Y-133810072D01*
X168034527Y-133628444D01*
X167939040Y-133463056D01*
X167899169Y-133418774D01*
X167815675Y-133326045D01*
X167815674Y-133326044D01*
X167811253Y-133321134D01*
X167680375Y-133226045D01*
X167662094Y-133212763D01*
X167662093Y-133212762D01*
X167656752Y-133208882D01*
X167650724Y-133206198D01*
X167650722Y-133206197D01*
X167488319Y-133133891D01*
X167488318Y-133133891D01*
X167482288Y-133131206D01*
X167388888Y-133111353D01*
X167301944Y-133092872D01*
X167301939Y-133092872D01*
X167295487Y-133091500D01*
X167104513Y-133091500D01*
X167098061Y-133092872D01*
X167098056Y-133092872D01*
X167011112Y-133111353D01*
X166917712Y-133131206D01*
X166911682Y-133133891D01*
X166911681Y-133133891D01*
X166749278Y-133206197D01*
X166749276Y-133206198D01*
X166743248Y-133208882D01*
X166737907Y-133212762D01*
X166737906Y-133212763D01*
X166719625Y-133226045D01*
X166588747Y-133321134D01*
X166584326Y-133326044D01*
X166584325Y-133326045D01*
X166500832Y-133418774D01*
X166460960Y-133463056D01*
X166365473Y-133628444D01*
X166306458Y-133810072D01*
X166305768Y-133816633D01*
X166305768Y-133816635D01*
X166288762Y-133978444D01*
X166286496Y-134000000D01*
X157102994Y-134000000D01*
X157112814Y-133906565D01*
X157113504Y-133900000D01*
X157103560Y-133805391D01*
X157094232Y-133716635D01*
X157094232Y-133716633D01*
X157093542Y-133710072D01*
X157034527Y-133528444D01*
X156939040Y-133363056D01*
X156891204Y-133309928D01*
X156815675Y-133226045D01*
X156815674Y-133226044D01*
X156811253Y-133221134D01*
X156685590Y-133129834D01*
X156662094Y-133112763D01*
X156662093Y-133112762D01*
X156656752Y-133108882D01*
X156650724Y-133106198D01*
X156650722Y-133106197D01*
X156488319Y-133033891D01*
X156488318Y-133033891D01*
X156482288Y-133031206D01*
X156366362Y-133006565D01*
X156301944Y-132992872D01*
X156301939Y-132992872D01*
X156295487Y-132991500D01*
X156104513Y-132991500D01*
X156098061Y-132992872D01*
X156098056Y-132992872D01*
X156033638Y-133006565D01*
X155917712Y-133031206D01*
X155911682Y-133033891D01*
X155911681Y-133033891D01*
X155749278Y-133106197D01*
X155749276Y-133106198D01*
X155743248Y-133108882D01*
X155737907Y-133112762D01*
X155737906Y-133112763D01*
X155714410Y-133129834D01*
X155588747Y-133221134D01*
X155584326Y-133226044D01*
X155584325Y-133226045D01*
X155508797Y-133309928D01*
X155460960Y-133363056D01*
X155365473Y-133528444D01*
X155306458Y-133710072D01*
X155305768Y-133716633D01*
X155305768Y-133716635D01*
X155296440Y-133805391D01*
X155286496Y-133900000D01*
X147589237Y-133900000D01*
X147585447Y-133893435D01*
X147539040Y-133813056D01*
X147532139Y-133805391D01*
X147415675Y-133676045D01*
X147415674Y-133676044D01*
X147411253Y-133671134D01*
X147267891Y-133566975D01*
X147262094Y-133562763D01*
X147262093Y-133562762D01*
X147256752Y-133558882D01*
X147250724Y-133556198D01*
X147250722Y-133556197D01*
X147088319Y-133483891D01*
X147088318Y-133483891D01*
X147082288Y-133481206D01*
X146988887Y-133461353D01*
X146901944Y-133442872D01*
X146901939Y-133442872D01*
X146895487Y-133441500D01*
X146704513Y-133441500D01*
X146698061Y-133442872D01*
X146698056Y-133442872D01*
X146611113Y-133461353D01*
X146517712Y-133481206D01*
X146511682Y-133483891D01*
X146511681Y-133483891D01*
X146349278Y-133556197D01*
X146349276Y-133556198D01*
X146343248Y-133558882D01*
X146337907Y-133562762D01*
X146337906Y-133562763D01*
X146332109Y-133566975D01*
X146210675Y-133655202D01*
X146143809Y-133679060D01*
X146074657Y-133662980D01*
X146027496Y-133616266D01*
X145999038Y-133566975D01*
X145939040Y-133463056D01*
X145899169Y-133418774D01*
X145815675Y-133326045D01*
X145815674Y-133326044D01*
X145811253Y-133321134D01*
X145680375Y-133226045D01*
X145662094Y-133212763D01*
X145662093Y-133212762D01*
X145656752Y-133208882D01*
X145650724Y-133206198D01*
X145650722Y-133206197D01*
X145488319Y-133133891D01*
X145488318Y-133133891D01*
X145482288Y-133131206D01*
X145388888Y-133111353D01*
X145301944Y-133092872D01*
X145301939Y-133092872D01*
X145295487Y-133091500D01*
X145104513Y-133091500D01*
X145098061Y-133092872D01*
X145098056Y-133092872D01*
X145011112Y-133111353D01*
X144917712Y-133131206D01*
X144911682Y-133133891D01*
X144911681Y-133133891D01*
X144749278Y-133206197D01*
X144749276Y-133206198D01*
X144743248Y-133208882D01*
X144737907Y-133212762D01*
X144737906Y-133212763D01*
X144719625Y-133226045D01*
X144588747Y-133321134D01*
X144584326Y-133326044D01*
X144584325Y-133326045D01*
X144500832Y-133418774D01*
X144460960Y-133463056D01*
X144365473Y-133628444D01*
X144306458Y-133810072D01*
X144305768Y-133816633D01*
X144305768Y-133816635D01*
X144288762Y-133978444D01*
X144286496Y-134000000D01*
X139917511Y-134000000D01*
X139891945Y-133977579D01*
X139891939Y-133977575D01*
X139888845Y-133974861D01*
X139885419Y-133972572D01*
X139885414Y-133972568D01*
X139635215Y-133805391D01*
X139635213Y-133805390D01*
X139631780Y-133803096D01*
X139557845Y-133766635D01*
X139358200Y-133668180D01*
X139358192Y-133668177D01*
X139354496Y-133666354D01*
X139321643Y-133655202D01*
X139065642Y-133568301D01*
X139065639Y-133568300D01*
X139061735Y-133566975D01*
X138835039Y-133521883D01*
X138762550Y-133507464D01*
X138762547Y-133507464D01*
X138758507Y-133506660D01*
X138754396Y-133506391D01*
X138754392Y-133506390D01*
X138529263Y-133491634D01*
X138529254Y-133491634D01*
X138527214Y-133491500D01*
X138372786Y-133491500D01*
X138370746Y-133491634D01*
X138370737Y-133491634D01*
X138145608Y-133506390D01*
X138145604Y-133506391D01*
X138141493Y-133506660D01*
X138137453Y-133507464D01*
X138137450Y-133507464D01*
X138064961Y-133521883D01*
X137838265Y-133566975D01*
X137834361Y-133568300D01*
X137834358Y-133568301D01*
X137578357Y-133655202D01*
X137545504Y-133666354D01*
X137541808Y-133668177D01*
X137541800Y-133668180D01*
X137281729Y-133796434D01*
X137211786Y-133808624D01*
X137146357Y-133781065D01*
X137106213Y-133722507D01*
X137100000Y-133683428D01*
X137100000Y-133000000D01*
X141986496Y-133000000D01*
X142006458Y-133189928D01*
X142065473Y-133371556D01*
X142160960Y-133536944D01*
X142165378Y-133541851D01*
X142165379Y-133541852D01*
X142277481Y-133666354D01*
X142288747Y-133678866D01*
X142443248Y-133791118D01*
X142449276Y-133793802D01*
X142449278Y-133793803D01*
X142611681Y-133866109D01*
X142617712Y-133868794D01*
X142711112Y-133888647D01*
X142798056Y-133907128D01*
X142798061Y-133907128D01*
X142804513Y-133908500D01*
X142995487Y-133908500D01*
X143001939Y-133907128D01*
X143001944Y-133907128D01*
X143088888Y-133888647D01*
X143182288Y-133868794D01*
X143188319Y-133866109D01*
X143350722Y-133793803D01*
X143350724Y-133793802D01*
X143356752Y-133791118D01*
X143511253Y-133678866D01*
X143522519Y-133666354D01*
X143634621Y-133541852D01*
X143634622Y-133541851D01*
X143639040Y-133536944D01*
X143734527Y-133371556D01*
X143793542Y-133189928D01*
X143813504Y-133000000D01*
X143793542Y-132810072D01*
X143734527Y-132628444D01*
X143711624Y-132588774D01*
X143642341Y-132468774D01*
X143639040Y-132463056D01*
X143619302Y-132441134D01*
X143515675Y-132326045D01*
X143515674Y-132326044D01*
X143511253Y-132321134D01*
X143356752Y-132208882D01*
X143350724Y-132206198D01*
X143350722Y-132206197D01*
X143188319Y-132133891D01*
X143188318Y-132133891D01*
X143182288Y-132131206D01*
X143088887Y-132111353D01*
X143001944Y-132092872D01*
X143001939Y-132092872D01*
X142995487Y-132091500D01*
X142804513Y-132091500D01*
X142798061Y-132092872D01*
X142798056Y-132092872D01*
X142711113Y-132111353D01*
X142617712Y-132131206D01*
X142611682Y-132133891D01*
X142611681Y-132133891D01*
X142449278Y-132206197D01*
X142449276Y-132206198D01*
X142443248Y-132208882D01*
X142288747Y-132321134D01*
X142284326Y-132326044D01*
X142284325Y-132326045D01*
X142180699Y-132441134D01*
X142160960Y-132463056D01*
X142157659Y-132468774D01*
X142088377Y-132588774D01*
X142065473Y-132628444D01*
X142006458Y-132810072D01*
X141986496Y-133000000D01*
X137100000Y-133000000D01*
X137100000Y-130000000D01*
X141260996Y-130000000D01*
X141261686Y-130006565D01*
X141280093Y-130181695D01*
X141280958Y-130189928D01*
X141339973Y-130371556D01*
X141435460Y-130536944D01*
X141439878Y-130541851D01*
X141439879Y-130541852D01*
X141558825Y-130673955D01*
X141563247Y-130678866D01*
X141717748Y-130791118D01*
X141723776Y-130793802D01*
X141723778Y-130793803D01*
X141862701Y-130855655D01*
X141892212Y-130868794D01*
X141985612Y-130888647D01*
X142072556Y-130907128D01*
X142072561Y-130907128D01*
X142079013Y-130908500D01*
X142269987Y-130908500D01*
X142276439Y-130907128D01*
X142276444Y-130907128D01*
X142363388Y-130888647D01*
X142456788Y-130868794D01*
X142486299Y-130855655D01*
X142625222Y-130793803D01*
X142625224Y-130793802D01*
X142631252Y-130791118D01*
X142785753Y-130678866D01*
X142790175Y-130673955D01*
X142909121Y-130541852D01*
X142909122Y-130541851D01*
X142913540Y-130536944D01*
X143009027Y-130371556D01*
X143068042Y-130189928D01*
X143068908Y-130181695D01*
X143087314Y-130006565D01*
X143088004Y-130000000D01*
X143086479Y-129985489D01*
X195351007Y-129985489D01*
X195370969Y-130175417D01*
X195429984Y-130357045D01*
X195525471Y-130522433D01*
X195653258Y-130664355D01*
X195807759Y-130776607D01*
X195813787Y-130779291D01*
X195813789Y-130779292D01*
X195976192Y-130851598D01*
X195982223Y-130854283D01*
X196075624Y-130874136D01*
X196162567Y-130892617D01*
X196162572Y-130892617D01*
X196169024Y-130893989D01*
X196359998Y-130893989D01*
X196366450Y-130892617D01*
X196366455Y-130892617D01*
X196453398Y-130874136D01*
X196546799Y-130854283D01*
X196552830Y-130851598D01*
X196715233Y-130779292D01*
X196715235Y-130779291D01*
X196721263Y-130776607D01*
X196875764Y-130664355D01*
X197003551Y-130522433D01*
X197099038Y-130357045D01*
X197158053Y-130175417D01*
X197178015Y-129985489D01*
X197159578Y-129810072D01*
X197158743Y-129802124D01*
X197158743Y-129802122D01*
X197158053Y-129795561D01*
X197099038Y-129613933D01*
X197003551Y-129448545D01*
X196885334Y-129317251D01*
X196880186Y-129311534D01*
X196880185Y-129311533D01*
X196875764Y-129306623D01*
X196721263Y-129194371D01*
X196715235Y-129191687D01*
X196715233Y-129191686D01*
X196552830Y-129119380D01*
X196552829Y-129119380D01*
X196546799Y-129116695D01*
X196453398Y-129096842D01*
X196366455Y-129078361D01*
X196366450Y-129078361D01*
X196359998Y-129076989D01*
X196169024Y-129076989D01*
X196162572Y-129078361D01*
X196162567Y-129078361D01*
X196075624Y-129096842D01*
X195982223Y-129116695D01*
X195976193Y-129119380D01*
X195976192Y-129119380D01*
X195813789Y-129191686D01*
X195813787Y-129191687D01*
X195807759Y-129194371D01*
X195653258Y-129306623D01*
X195648837Y-129311533D01*
X195648836Y-129311534D01*
X195643689Y-129317251D01*
X195525471Y-129448545D01*
X195429984Y-129613933D01*
X195370969Y-129795561D01*
X195370279Y-129802122D01*
X195370279Y-129802124D01*
X195369444Y-129810072D01*
X195351007Y-129985489D01*
X143086479Y-129985489D01*
X143068042Y-129810072D01*
X143009027Y-129628444D01*
X142913540Y-129463056D01*
X142785753Y-129321134D01*
X142631252Y-129208882D01*
X142625224Y-129206198D01*
X142625222Y-129206197D01*
X142462819Y-129133891D01*
X142462818Y-129133891D01*
X142456788Y-129131206D01*
X142363388Y-129111353D01*
X142276444Y-129092872D01*
X142276439Y-129092872D01*
X142269987Y-129091500D01*
X142079013Y-129091500D01*
X142072561Y-129092872D01*
X142072556Y-129092872D01*
X141985612Y-129111353D01*
X141892212Y-129131206D01*
X141886182Y-129133891D01*
X141886181Y-129133891D01*
X141723778Y-129206197D01*
X141723776Y-129206198D01*
X141717748Y-129208882D01*
X141563247Y-129321134D01*
X141435460Y-129463056D01*
X141339973Y-129628444D01*
X141280958Y-129810072D01*
X141260996Y-130000000D01*
X137100000Y-130000000D01*
X137100000Y-128700000D01*
X150636496Y-128700000D01*
X150656458Y-128889928D01*
X150715473Y-129071556D01*
X150810960Y-129236944D01*
X150938747Y-129378866D01*
X151093248Y-129491118D01*
X151099276Y-129493802D01*
X151099278Y-129493803D01*
X151261681Y-129566109D01*
X151267712Y-129568794D01*
X151361112Y-129588647D01*
X151448056Y-129607128D01*
X151448061Y-129607128D01*
X151454513Y-129608500D01*
X151645487Y-129608500D01*
X151651939Y-129607128D01*
X151651944Y-129607128D01*
X151738888Y-129588647D01*
X151832288Y-129568794D01*
X151838319Y-129566109D01*
X152000722Y-129493803D01*
X152000724Y-129493802D01*
X152006752Y-129491118D01*
X152161253Y-129378866D01*
X152289040Y-129236944D01*
X152384527Y-129071556D01*
X152443542Y-128889928D01*
X152463504Y-128700000D01*
X152443542Y-128510072D01*
X152384527Y-128328444D01*
X152289040Y-128163056D01*
X152161253Y-128021134D01*
X152006752Y-127908882D01*
X152000724Y-127906198D01*
X152000722Y-127906197D01*
X151838319Y-127833891D01*
X151838318Y-127833891D01*
X151832288Y-127831206D01*
X151736098Y-127810760D01*
X151651944Y-127792872D01*
X151651939Y-127792872D01*
X151645487Y-127791500D01*
X151454513Y-127791500D01*
X151448061Y-127792872D01*
X151448056Y-127792872D01*
X151363902Y-127810760D01*
X151267712Y-127831206D01*
X151261682Y-127833891D01*
X151261681Y-127833891D01*
X151099278Y-127906197D01*
X151099276Y-127906198D01*
X151093248Y-127908882D01*
X150938747Y-128021134D01*
X150810960Y-128163056D01*
X150715473Y-128328444D01*
X150656458Y-128510072D01*
X150636496Y-128700000D01*
X137100000Y-128700000D01*
X137100000Y-126800000D01*
X142160018Y-126800000D01*
X142160708Y-126806565D01*
X142177027Y-126961828D01*
X142179980Y-126989928D01*
X142238995Y-127171556D01*
X142242298Y-127177278D01*
X142242299Y-127177279D01*
X142247879Y-127186944D01*
X142334482Y-127336944D01*
X142338900Y-127341851D01*
X142338901Y-127341852D01*
X142429240Y-127442184D01*
X142462269Y-127478866D01*
X142616770Y-127591118D01*
X142622798Y-127593802D01*
X142622800Y-127593803D01*
X142730368Y-127641695D01*
X142791234Y-127668794D01*
X142884634Y-127688647D01*
X142971578Y-127707128D01*
X142971583Y-127707128D01*
X142978035Y-127708500D01*
X143169009Y-127708500D01*
X143175461Y-127707128D01*
X143175466Y-127707128D01*
X143262410Y-127688647D01*
X143355810Y-127668794D01*
X143416676Y-127641695D01*
X143524244Y-127593803D01*
X143524246Y-127593802D01*
X143530274Y-127591118D01*
X143684775Y-127478866D01*
X143717804Y-127442184D01*
X143808143Y-127341852D01*
X143808144Y-127341851D01*
X143812562Y-127336944D01*
X143899165Y-127186944D01*
X143904745Y-127177279D01*
X143904746Y-127177278D01*
X143908049Y-127171556D01*
X143967064Y-126989928D01*
X143970018Y-126961828D01*
X143986336Y-126806565D01*
X143987026Y-126800000D01*
X143975451Y-126689869D01*
X143971261Y-126650000D01*
X153036496Y-126650000D01*
X153037186Y-126656565D01*
X153049287Y-126771695D01*
X153056458Y-126839928D01*
X153115473Y-127021556D01*
X153210960Y-127186944D01*
X153215378Y-127191851D01*
X153215379Y-127191852D01*
X153257249Y-127238353D01*
X153338747Y-127328866D01*
X153493248Y-127441118D01*
X153499276Y-127443802D01*
X153499278Y-127443803D01*
X153597691Y-127487619D01*
X153667712Y-127518794D01*
X153761112Y-127538647D01*
X153848056Y-127557128D01*
X153848061Y-127557128D01*
X153854513Y-127558500D01*
X154045487Y-127558500D01*
X154051939Y-127557128D01*
X154051944Y-127557128D01*
X154138888Y-127538647D01*
X154232288Y-127518794D01*
X154302309Y-127487619D01*
X154400722Y-127443803D01*
X154400724Y-127443802D01*
X154406752Y-127441118D01*
X154561253Y-127328866D01*
X154642751Y-127238353D01*
X154684621Y-127191852D01*
X154684622Y-127191851D01*
X154689040Y-127186944D01*
X154784527Y-127021556D01*
X154843542Y-126839928D01*
X154850714Y-126771695D01*
X154862814Y-126656565D01*
X154863504Y-126650000D01*
X164036496Y-126650000D01*
X164037186Y-126656565D01*
X164049287Y-126771695D01*
X164056458Y-126839928D01*
X164115473Y-127021556D01*
X164210960Y-127186944D01*
X164215378Y-127191851D01*
X164215379Y-127191852D01*
X164257249Y-127238353D01*
X164338747Y-127328866D01*
X164493248Y-127441118D01*
X164499276Y-127443802D01*
X164499278Y-127443803D01*
X164597691Y-127487619D01*
X164667712Y-127518794D01*
X164761112Y-127538647D01*
X164848056Y-127557128D01*
X164848061Y-127557128D01*
X164854513Y-127558500D01*
X165045487Y-127558500D01*
X165051939Y-127557128D01*
X165051944Y-127557128D01*
X165138888Y-127538647D01*
X165232288Y-127518794D01*
X165302309Y-127487619D01*
X165400722Y-127443803D01*
X165400724Y-127443802D01*
X165406752Y-127441118D01*
X165561253Y-127328866D01*
X165642751Y-127238353D01*
X165684621Y-127191852D01*
X165684622Y-127191851D01*
X165689040Y-127186944D01*
X165784527Y-127021556D01*
X165843542Y-126839928D01*
X165850714Y-126771695D01*
X165860640Y-126677248D01*
X172561996Y-126677248D01*
X172562686Y-126683813D01*
X172575588Y-126806565D01*
X172581958Y-126867176D01*
X172640973Y-127048804D01*
X172736460Y-127214192D01*
X172740878Y-127219099D01*
X172740879Y-127219100D01*
X172768056Y-127249283D01*
X172864247Y-127356114D01*
X172896091Y-127379250D01*
X172996297Y-127452054D01*
X173018748Y-127468366D01*
X173024776Y-127471050D01*
X173024778Y-127471051D01*
X173135093Y-127520166D01*
X173193212Y-127546042D01*
X173271158Y-127562610D01*
X173373556Y-127584376D01*
X173373561Y-127584376D01*
X173380013Y-127585748D01*
X173570987Y-127585748D01*
X173577439Y-127584376D01*
X173577444Y-127584376D01*
X173679842Y-127562610D01*
X173757788Y-127546042D01*
X173815907Y-127520166D01*
X173926222Y-127471051D01*
X173926224Y-127471050D01*
X173932252Y-127468366D01*
X173954704Y-127452054D01*
X174054909Y-127379250D01*
X174086753Y-127356114D01*
X174182944Y-127249283D01*
X174210121Y-127219100D01*
X174210122Y-127219099D01*
X174214540Y-127214192D01*
X174310027Y-127048804D01*
X174369042Y-126867176D01*
X174375413Y-126806565D01*
X174388314Y-126683813D01*
X174389004Y-126677248D01*
X174382633Y-126616635D01*
X174369732Y-126493883D01*
X174369732Y-126493881D01*
X174369042Y-126487320D01*
X174317837Y-126329728D01*
X174315809Y-126258761D01*
X174352472Y-126197963D01*
X174416184Y-126166637D01*
X174467392Y-126170298D01*
X174467712Y-126168794D01*
X174648056Y-126207128D01*
X174648061Y-126207128D01*
X174654513Y-126208500D01*
X174845487Y-126208500D01*
X174851939Y-126207128D01*
X174851944Y-126207128D01*
X174955375Y-126185142D01*
X175025908Y-126170150D01*
X175096698Y-126175552D01*
X175153330Y-126218369D01*
X175177824Y-126285006D01*
X175171937Y-126332333D01*
X175130958Y-126458453D01*
X175130268Y-126465014D01*
X175130268Y-126465016D01*
X175115682Y-126603794D01*
X175110996Y-126648381D01*
X175111686Y-126654946D01*
X175128625Y-126816107D01*
X175130958Y-126838309D01*
X175189973Y-127019937D01*
X175193276Y-127025659D01*
X175193277Y-127025660D01*
X175214126Y-127061772D01*
X175285460Y-127185325D01*
X175289878Y-127190232D01*
X175289879Y-127190233D01*
X175343048Y-127249283D01*
X175413247Y-127327247D01*
X175567748Y-127439499D01*
X175573776Y-127442183D01*
X175573778Y-127442184D01*
X175681858Y-127490304D01*
X175742212Y-127517175D01*
X175835612Y-127537028D01*
X175922556Y-127555509D01*
X175922561Y-127555509D01*
X175929013Y-127556881D01*
X176119987Y-127556881D01*
X176126439Y-127555509D01*
X176126444Y-127555509D01*
X176213388Y-127537028D01*
X176306788Y-127517175D01*
X176367142Y-127490304D01*
X176475222Y-127442184D01*
X176475224Y-127442183D01*
X176481252Y-127439499D01*
X176535617Y-127400000D01*
X184586496Y-127400000D01*
X184587186Y-127406565D01*
X184603011Y-127557128D01*
X184606458Y-127589928D01*
X184665473Y-127771556D01*
X184760960Y-127936944D01*
X184765378Y-127941851D01*
X184765379Y-127941852D01*
X184833269Y-128017251D01*
X184888747Y-128078866D01*
X185043248Y-128191118D01*
X185049276Y-128193802D01*
X185049278Y-128193803D01*
X185145418Y-128236607D01*
X185217712Y-128268794D01*
X185311112Y-128288647D01*
X185398056Y-128307128D01*
X185398061Y-128307128D01*
X185404513Y-128308500D01*
X185595487Y-128308500D01*
X185601939Y-128307128D01*
X185601944Y-128307128D01*
X185688888Y-128288647D01*
X185782288Y-128268794D01*
X185854582Y-128236607D01*
X185950722Y-128193803D01*
X185950724Y-128193802D01*
X185956752Y-128191118D01*
X186111253Y-128078866D01*
X186166731Y-128017251D01*
X186234621Y-127941852D01*
X186234622Y-127941851D01*
X186239040Y-127936944D01*
X186334527Y-127771556D01*
X186393542Y-127589928D01*
X186406523Y-127466417D01*
X186433536Y-127400761D01*
X186491757Y-127360131D01*
X186562703Y-127357428D01*
X186605894Y-127377652D01*
X186646334Y-127407033D01*
X186693248Y-127441118D01*
X186699276Y-127443802D01*
X186699278Y-127443803D01*
X186797691Y-127487619D01*
X186867712Y-127518794D01*
X186961112Y-127538647D01*
X187048056Y-127557128D01*
X187048061Y-127557128D01*
X187054513Y-127558500D01*
X187245487Y-127558500D01*
X187251939Y-127557128D01*
X187251944Y-127557128D01*
X187338888Y-127538647D01*
X187432288Y-127518794D01*
X187502309Y-127487619D01*
X187600722Y-127443803D01*
X187600724Y-127443802D01*
X187606752Y-127441118D01*
X187761253Y-127328866D01*
X187842751Y-127238353D01*
X187884621Y-127191852D01*
X187884622Y-127191851D01*
X187889040Y-127186944D01*
X187984527Y-127021556D01*
X188043542Y-126839928D01*
X188050714Y-126771695D01*
X188062814Y-126656565D01*
X188063504Y-126650000D01*
X194535998Y-126650000D01*
X194536688Y-126656565D01*
X194548789Y-126771695D01*
X194555960Y-126839928D01*
X194614975Y-127021556D01*
X194710462Y-127186944D01*
X194714880Y-127191851D01*
X194714881Y-127191852D01*
X194756751Y-127238353D01*
X194838249Y-127328866D01*
X194992750Y-127441118D01*
X194998778Y-127443802D01*
X194998780Y-127443803D01*
X195097193Y-127487619D01*
X195167214Y-127518794D01*
X195260614Y-127538647D01*
X195347558Y-127557128D01*
X195347563Y-127557128D01*
X195354015Y-127558500D01*
X195544989Y-127558500D01*
X195551441Y-127557128D01*
X195551446Y-127557128D01*
X195638390Y-127538647D01*
X195731790Y-127518794D01*
X195801811Y-127487619D01*
X195900224Y-127443803D01*
X195900226Y-127443802D01*
X195906254Y-127441118D01*
X196060755Y-127328866D01*
X196142253Y-127238353D01*
X196184123Y-127191852D01*
X196184124Y-127191851D01*
X196188542Y-127186944D01*
X196284029Y-127021556D01*
X196343044Y-126839928D01*
X196350216Y-126771695D01*
X196362316Y-126656565D01*
X196363006Y-126650000D01*
X196636496Y-126650000D01*
X196637186Y-126656565D01*
X196649287Y-126771695D01*
X196656458Y-126839928D01*
X196715473Y-127021556D01*
X196810960Y-127186944D01*
X196815378Y-127191851D01*
X196815379Y-127191852D01*
X196857249Y-127238353D01*
X196938747Y-127328866D01*
X197093248Y-127441118D01*
X197099276Y-127443802D01*
X197099278Y-127443803D01*
X197197691Y-127487619D01*
X197267712Y-127518794D01*
X197361112Y-127538647D01*
X197448056Y-127557128D01*
X197448061Y-127557128D01*
X197454513Y-127558500D01*
X197645487Y-127558500D01*
X197651939Y-127557128D01*
X197651944Y-127557128D01*
X197738888Y-127538647D01*
X197832288Y-127518794D01*
X197902309Y-127487619D01*
X197996935Y-127445489D01*
X206041007Y-127445489D01*
X206041697Y-127452054D01*
X206055749Y-127585748D01*
X206060969Y-127635417D01*
X206119984Y-127817045D01*
X206215471Y-127982433D01*
X206219889Y-127987340D01*
X206219890Y-127987341D01*
X206305796Y-128082749D01*
X206343258Y-128124355D01*
X206497759Y-128236607D01*
X206503787Y-128239291D01*
X206503789Y-128239292D01*
X206659234Y-128308500D01*
X206672223Y-128314283D01*
X206765624Y-128334136D01*
X206852567Y-128352617D01*
X206852572Y-128352617D01*
X206859024Y-128353989D01*
X207049998Y-128353989D01*
X207056450Y-128352617D01*
X207056455Y-128352617D01*
X207143398Y-128334136D01*
X207236799Y-128314283D01*
X207249788Y-128308500D01*
X207405233Y-128239292D01*
X207405235Y-128239291D01*
X207411263Y-128236607D01*
X207565764Y-128124355D01*
X207603226Y-128082749D01*
X207689132Y-127987341D01*
X207689133Y-127987340D01*
X207693551Y-127982433D01*
X207789038Y-127817045D01*
X207848053Y-127635417D01*
X207865156Y-127472690D01*
X207892169Y-127407033D01*
X207950391Y-127366403D01*
X208021336Y-127363700D01*
X208064527Y-127383924D01*
X208095690Y-127406565D01*
X208143248Y-127441118D01*
X208149276Y-127443802D01*
X208149278Y-127443803D01*
X208247691Y-127487619D01*
X208317712Y-127518794D01*
X208411112Y-127538647D01*
X208498056Y-127557128D01*
X208498061Y-127557128D01*
X208504513Y-127558500D01*
X208695487Y-127558500D01*
X208701939Y-127557128D01*
X208701944Y-127557128D01*
X208788888Y-127538647D01*
X208882288Y-127518794D01*
X208952309Y-127487619D01*
X209050722Y-127443803D01*
X209050724Y-127443802D01*
X209056752Y-127441118D01*
X209211253Y-127328866D01*
X209292751Y-127238353D01*
X209334621Y-127191852D01*
X209334622Y-127191851D01*
X209339040Y-127186944D01*
X209434527Y-127021556D01*
X209493542Y-126839928D01*
X209500714Y-126771695D01*
X209508617Y-126696501D01*
X218061996Y-126696501D01*
X218062686Y-126703066D01*
X218079245Y-126860613D01*
X218081958Y-126886429D01*
X218140973Y-127068057D01*
X218144276Y-127073779D01*
X218144277Y-127073780D01*
X218147994Y-127080218D01*
X218236460Y-127233445D01*
X218240878Y-127238352D01*
X218240879Y-127238353D01*
X218348095Y-127357428D01*
X218364247Y-127375367D01*
X218447175Y-127435618D01*
X218506701Y-127478866D01*
X218518748Y-127487619D01*
X218524776Y-127490303D01*
X218524778Y-127490304D01*
X218677950Y-127558500D01*
X218693212Y-127565295D01*
X218778224Y-127583365D01*
X218873556Y-127603629D01*
X218873561Y-127603629D01*
X218880013Y-127605001D01*
X219070987Y-127605001D01*
X219077439Y-127603629D01*
X219077444Y-127603629D01*
X219172776Y-127583365D01*
X219257788Y-127565295D01*
X219273050Y-127558500D01*
X219426222Y-127490304D01*
X219426224Y-127490303D01*
X219432252Y-127487619D01*
X219444300Y-127478866D01*
X219503825Y-127435618D01*
X219586753Y-127375367D01*
X219602905Y-127357428D01*
X219710121Y-127238353D01*
X219710122Y-127238352D01*
X219714540Y-127233445D01*
X219803006Y-127080218D01*
X219806723Y-127073780D01*
X219806724Y-127073779D01*
X219810027Y-127068057D01*
X219869042Y-126886429D01*
X219869732Y-126879865D01*
X219871106Y-126873401D01*
X219872823Y-126873766D01*
X219896551Y-126816107D01*
X219954775Y-126775481D01*
X219968644Y-126771695D01*
X219975824Y-126770169D01*
X219975833Y-126770166D01*
X219982288Y-126768794D01*
X220065403Y-126731789D01*
X220150722Y-126693803D01*
X220150724Y-126693802D01*
X220156752Y-126691118D01*
X220166807Y-126683813D01*
X220224610Y-126641816D01*
X220311253Y-126578866D01*
X220355402Y-126529834D01*
X220434621Y-126441852D01*
X220434622Y-126441851D01*
X220439040Y-126436944D01*
X220534527Y-126271556D01*
X220577191Y-126140251D01*
X220617265Y-126081645D01*
X220682661Y-126054008D01*
X220697024Y-126053187D01*
X220800092Y-126053187D01*
X220806544Y-126051815D01*
X220806549Y-126051815D01*
X220893492Y-126033334D01*
X220986893Y-126013481D01*
X220997223Y-126008882D01*
X221155327Y-125938490D01*
X221155329Y-125938489D01*
X221161357Y-125935805D01*
X221169576Y-125929834D01*
X221261890Y-125862763D01*
X221315858Y-125823553D01*
X221330689Y-125807082D01*
X221439226Y-125686539D01*
X221439227Y-125686538D01*
X221443645Y-125681631D01*
X221539132Y-125516243D01*
X221598147Y-125334615D01*
X221601772Y-125300130D01*
X221617419Y-125151252D01*
X221618109Y-125144687D01*
X221611439Y-125081226D01*
X221598837Y-124961322D01*
X221598837Y-124961320D01*
X221598147Y-124954759D01*
X221539132Y-124773131D01*
X221443645Y-124607743D01*
X221420525Y-124582065D01*
X221320280Y-124470732D01*
X221320279Y-124470731D01*
X221315858Y-124465821D01*
X221161357Y-124353569D01*
X221155329Y-124350885D01*
X221155327Y-124350884D01*
X220992924Y-124278578D01*
X220992923Y-124278578D01*
X220986893Y-124275893D01*
X220893492Y-124256040D01*
X220806549Y-124237559D01*
X220806544Y-124237559D01*
X220800092Y-124236187D01*
X220609118Y-124236187D01*
X220602666Y-124237559D01*
X220602661Y-124237559D01*
X220515718Y-124256040D01*
X220422317Y-124275893D01*
X220416290Y-124278576D01*
X220416282Y-124278579D01*
X220388891Y-124290775D01*
X220318524Y-124300210D01*
X220254227Y-124270104D01*
X220216413Y-124210016D01*
X220212331Y-124188839D01*
X220194232Y-124016635D01*
X220194232Y-124016633D01*
X220193542Y-124010072D01*
X220140318Y-123846266D01*
X220138290Y-123775301D01*
X220166515Y-123723022D01*
X220284621Y-123591852D01*
X220284622Y-123591851D01*
X220289040Y-123586944D01*
X220368305Y-123449654D01*
X220381223Y-123427279D01*
X220381224Y-123427278D01*
X220384527Y-123421556D01*
X220443542Y-123239928D01*
X220463504Y-123050000D01*
X220445188Y-122875734D01*
X220444232Y-122866635D01*
X220444232Y-122866633D01*
X220443542Y-122860072D01*
X220384527Y-122678444D01*
X220289040Y-122513056D01*
X220265793Y-122487237D01*
X220262660Y-122483758D01*
X220231942Y-122419751D01*
X220240707Y-122349297D01*
X220262660Y-122315137D01*
X220274631Y-122301842D01*
X220274632Y-122301841D01*
X220279051Y-122296933D01*
X220283343Y-122289500D01*
X220371234Y-122137268D01*
X220371235Y-122137267D01*
X220374538Y-122131545D01*
X220433553Y-121949917D01*
X220449604Y-121797205D01*
X220452825Y-121766554D01*
X220453515Y-121759989D01*
X220433553Y-121570061D01*
X220374538Y-121388433D01*
X220368925Y-121378710D01*
X220287998Y-121238542D01*
X220279051Y-121223045D01*
X220262839Y-121205039D01*
X220232121Y-121141033D01*
X220240884Y-121070579D01*
X220282412Y-121018794D01*
X220316896Y-120993740D01*
X220316901Y-120993735D01*
X220322242Y-120989855D01*
X220326991Y-120984581D01*
X220445610Y-120852841D01*
X220445611Y-120852840D01*
X220450029Y-120847933D01*
X220545516Y-120682545D01*
X220604531Y-120500917D01*
X220605642Y-120490353D01*
X220623803Y-120317554D01*
X220624493Y-120310989D01*
X220612243Y-120194434D01*
X220605221Y-120127624D01*
X220605221Y-120127622D01*
X220604531Y-120121061D01*
X220545516Y-119939433D01*
X220450029Y-119774045D01*
X220389888Y-119707251D01*
X220326664Y-119637034D01*
X220326663Y-119637033D01*
X220322242Y-119632123D01*
X220208940Y-119549804D01*
X220173083Y-119523752D01*
X220173082Y-119523751D01*
X220167741Y-119519871D01*
X220161713Y-119517187D01*
X220161711Y-119517186D01*
X219999308Y-119444880D01*
X219999307Y-119444880D01*
X219993277Y-119442195D01*
X219899877Y-119422342D01*
X219812933Y-119403861D01*
X219812928Y-119403861D01*
X219806476Y-119402489D01*
X219615502Y-119402489D01*
X219609050Y-119403861D01*
X219609045Y-119403861D01*
X219522101Y-119422342D01*
X219428701Y-119442195D01*
X219422671Y-119444880D01*
X219422670Y-119444880D01*
X219260267Y-119517186D01*
X219260265Y-119517187D01*
X219254237Y-119519871D01*
X219248896Y-119523751D01*
X219248895Y-119523752D01*
X219213038Y-119549804D01*
X219099736Y-119632123D01*
X219095315Y-119637033D01*
X219095314Y-119637034D01*
X219032091Y-119707251D01*
X218971949Y-119774045D01*
X218876462Y-119939433D01*
X218817447Y-120121061D01*
X218816757Y-120127622D01*
X218816757Y-120127624D01*
X218809735Y-120194434D01*
X218797485Y-120310989D01*
X218798175Y-120317554D01*
X218816337Y-120490353D01*
X218817447Y-120500917D01*
X218876462Y-120682545D01*
X218971949Y-120847933D01*
X218976367Y-120852840D01*
X218976368Y-120852841D01*
X218988161Y-120865938D01*
X219018879Y-120929945D01*
X219010116Y-121000399D01*
X218968588Y-121052184D01*
X218934104Y-121077238D01*
X218934099Y-121077243D01*
X218928758Y-121081123D01*
X218924337Y-121086033D01*
X218924336Y-121086034D01*
X218866446Y-121150328D01*
X218800971Y-121223045D01*
X218792024Y-121238542D01*
X218711098Y-121378710D01*
X218705484Y-121388433D01*
X218646469Y-121570061D01*
X218626507Y-121759989D01*
X218627197Y-121766554D01*
X218630419Y-121797205D01*
X218646469Y-121949917D01*
X218705484Y-122131545D01*
X218708787Y-122137267D01*
X218708788Y-122137268D01*
X218714431Y-122147042D01*
X218800971Y-122296933D01*
X218805389Y-122301840D01*
X218805390Y-122301841D01*
X218827351Y-122326231D01*
X218858069Y-122390238D01*
X218849304Y-122460692D01*
X218827352Y-122494851D01*
X218810960Y-122513056D01*
X218807659Y-122518774D01*
X218807656Y-122518778D01*
X218756647Y-122607128D01*
X218715473Y-122678444D01*
X218656458Y-122860072D01*
X218655768Y-122866633D01*
X218655768Y-122866635D01*
X218654812Y-122875734D01*
X218636496Y-123050000D01*
X218656458Y-123239928D01*
X218709682Y-123403734D01*
X218711710Y-123474699D01*
X218683485Y-123526978D01*
X218616880Y-123600951D01*
X218560960Y-123663056D01*
X218532262Y-123712763D01*
X218471934Y-123817254D01*
X218465473Y-123828444D01*
X218406458Y-124010072D01*
X218405768Y-124016633D01*
X218405768Y-124016635D01*
X218396970Y-124100346D01*
X218386496Y-124200000D01*
X218387186Y-124206565D01*
X218402637Y-124353569D01*
X218406458Y-124389928D01*
X218465473Y-124571556D01*
X218560960Y-124736944D01*
X218565378Y-124741851D01*
X218565379Y-124741852D01*
X218580052Y-124758148D01*
X218688747Y-124878866D01*
X218843248Y-124991118D01*
X218849274Y-124993801D01*
X218849281Y-124993805D01*
X219007903Y-125064427D01*
X219061999Y-125110407D01*
X219082649Y-125178334D01*
X219063297Y-125246642D01*
X219050297Y-125263837D01*
X218960960Y-125363056D01*
X218865473Y-125528444D01*
X218863431Y-125534729D01*
X218826783Y-125647520D01*
X218806458Y-125710072D01*
X218805768Y-125716636D01*
X218804394Y-125723100D01*
X218802677Y-125722735D01*
X218778949Y-125780394D01*
X218720725Y-125821020D01*
X218706856Y-125824806D01*
X218699676Y-125826332D01*
X218699667Y-125826335D01*
X218693212Y-125827707D01*
X218687182Y-125830392D01*
X218687181Y-125830392D01*
X218524778Y-125902698D01*
X218524776Y-125902699D01*
X218518748Y-125905383D01*
X218513407Y-125909263D01*
X218513406Y-125909264D01*
X218479510Y-125933891D01*
X218364247Y-126017635D01*
X218359826Y-126022545D01*
X218359825Y-126022546D01*
X218258215Y-126135396D01*
X218236460Y-126159557D01*
X218140973Y-126324945D01*
X218081958Y-126506573D01*
X218081268Y-126513134D01*
X218081268Y-126513136D01*
X218067573Y-126643435D01*
X218061996Y-126696501D01*
X209508617Y-126696501D01*
X209512814Y-126656565D01*
X209513504Y-126650000D01*
X209506028Y-126578866D01*
X209494232Y-126466635D01*
X209494232Y-126466633D01*
X209493542Y-126460072D01*
X209434527Y-126278444D01*
X209339040Y-126113056D01*
X209318216Y-126089928D01*
X209215675Y-125976045D01*
X209215674Y-125976044D01*
X209211253Y-125971134D01*
X209056752Y-125858882D01*
X209050724Y-125856198D01*
X209050722Y-125856197D01*
X208888319Y-125783891D01*
X208888318Y-125783891D01*
X208882288Y-125781206D01*
X208788888Y-125761353D01*
X208701944Y-125742872D01*
X208701939Y-125742872D01*
X208695487Y-125741500D01*
X208504513Y-125741500D01*
X208498061Y-125742872D01*
X208498056Y-125742872D01*
X208411112Y-125761353D01*
X208317712Y-125781206D01*
X208311682Y-125783891D01*
X208311681Y-125783891D01*
X208149278Y-125856197D01*
X208149276Y-125856198D01*
X208143248Y-125858882D01*
X207988747Y-125971134D01*
X207984326Y-125976044D01*
X207984325Y-125976045D01*
X207881785Y-126089928D01*
X207860960Y-126113056D01*
X207765473Y-126278444D01*
X207706458Y-126460072D01*
X207705768Y-126466633D01*
X207705768Y-126466635D01*
X207689355Y-126622799D01*
X207662342Y-126688456D01*
X207604120Y-126729086D01*
X207533175Y-126731789D01*
X207489984Y-126711565D01*
X207416605Y-126658252D01*
X207416604Y-126658251D01*
X207411263Y-126654371D01*
X207405235Y-126651687D01*
X207405233Y-126651686D01*
X207242830Y-126579380D01*
X207242829Y-126579380D01*
X207236799Y-126576695D01*
X207143399Y-126556842D01*
X207056455Y-126538361D01*
X207056450Y-126538361D01*
X207049998Y-126536989D01*
X206859024Y-126536989D01*
X206852572Y-126538361D01*
X206852567Y-126538361D01*
X206765623Y-126556842D01*
X206672223Y-126576695D01*
X206666193Y-126579380D01*
X206666192Y-126579380D01*
X206503789Y-126651686D01*
X206503787Y-126651687D01*
X206497759Y-126654371D01*
X206492418Y-126658251D01*
X206492417Y-126658252D01*
X206473016Y-126672348D01*
X206343258Y-126766623D01*
X206338837Y-126771533D01*
X206338836Y-126771534D01*
X206229732Y-126892707D01*
X206215471Y-126908545D01*
X206212170Y-126914263D01*
X206123377Y-127068057D01*
X206119984Y-127073933D01*
X206060969Y-127255561D01*
X206060279Y-127262122D01*
X206060279Y-127262124D01*
X206050262Y-127357428D01*
X206041007Y-127445489D01*
X197996935Y-127445489D01*
X198000722Y-127443803D01*
X198000724Y-127443802D01*
X198006752Y-127441118D01*
X198161253Y-127328866D01*
X198242751Y-127238353D01*
X198284621Y-127191852D01*
X198284622Y-127191851D01*
X198289040Y-127186944D01*
X198384527Y-127021556D01*
X198443542Y-126839928D01*
X198450714Y-126771695D01*
X198462814Y-126656565D01*
X198463504Y-126650000D01*
X198456028Y-126578866D01*
X198444232Y-126466635D01*
X198444232Y-126466633D01*
X198443542Y-126460072D01*
X198384527Y-126278444D01*
X198289040Y-126113056D01*
X198268216Y-126089928D01*
X198165675Y-125976045D01*
X198165674Y-125976044D01*
X198161253Y-125971134D01*
X198006752Y-125858882D01*
X198000724Y-125856198D01*
X198000722Y-125856197D01*
X197838319Y-125783891D01*
X197838318Y-125783891D01*
X197832288Y-125781206D01*
X197738888Y-125761353D01*
X197651944Y-125742872D01*
X197651939Y-125742872D01*
X197645487Y-125741500D01*
X197454513Y-125741500D01*
X197448061Y-125742872D01*
X197448056Y-125742872D01*
X197361112Y-125761353D01*
X197267712Y-125781206D01*
X197261682Y-125783891D01*
X197261681Y-125783891D01*
X197099278Y-125856197D01*
X197099276Y-125856198D01*
X197093248Y-125858882D01*
X196938747Y-125971134D01*
X196934326Y-125976044D01*
X196934325Y-125976045D01*
X196831785Y-126089928D01*
X196810960Y-126113056D01*
X196715473Y-126278444D01*
X196656458Y-126460072D01*
X196655768Y-126466633D01*
X196655768Y-126466635D01*
X196643972Y-126578866D01*
X196636496Y-126650000D01*
X196363006Y-126650000D01*
X196355530Y-126578866D01*
X196343734Y-126466635D01*
X196343734Y-126466633D01*
X196343044Y-126460072D01*
X196284029Y-126278444D01*
X196188542Y-126113056D01*
X196167718Y-126089928D01*
X196065177Y-125976045D01*
X196065176Y-125976044D01*
X196060755Y-125971134D01*
X195906254Y-125858882D01*
X195900226Y-125856198D01*
X195900224Y-125856197D01*
X195737821Y-125783891D01*
X195737820Y-125783891D01*
X195731790Y-125781206D01*
X195638390Y-125761353D01*
X195551446Y-125742872D01*
X195551441Y-125742872D01*
X195544989Y-125741500D01*
X195354015Y-125741500D01*
X195347563Y-125742872D01*
X195347558Y-125742872D01*
X195260614Y-125761353D01*
X195167214Y-125781206D01*
X195161184Y-125783891D01*
X195161183Y-125783891D01*
X194998780Y-125856197D01*
X194998778Y-125856198D01*
X194992750Y-125858882D01*
X194838249Y-125971134D01*
X194833828Y-125976044D01*
X194833827Y-125976045D01*
X194731287Y-126089928D01*
X194710462Y-126113056D01*
X194614975Y-126278444D01*
X194555960Y-126460072D01*
X194555270Y-126466633D01*
X194555270Y-126466635D01*
X194543474Y-126578866D01*
X194535998Y-126650000D01*
X188063504Y-126650000D01*
X188056028Y-126578866D01*
X188044232Y-126466635D01*
X188044232Y-126466633D01*
X188043542Y-126460072D01*
X187984527Y-126278444D01*
X187889040Y-126113056D01*
X187868216Y-126089928D01*
X187765675Y-125976045D01*
X187765674Y-125976044D01*
X187761253Y-125971134D01*
X187606752Y-125858882D01*
X187600724Y-125856198D01*
X187600722Y-125856197D01*
X187438319Y-125783891D01*
X187438318Y-125783891D01*
X187432288Y-125781206D01*
X187338888Y-125761353D01*
X187251944Y-125742872D01*
X187251939Y-125742872D01*
X187245487Y-125741500D01*
X187054513Y-125741500D01*
X187048061Y-125742872D01*
X187048056Y-125742872D01*
X186961112Y-125761353D01*
X186867712Y-125781206D01*
X186861682Y-125783891D01*
X186861681Y-125783891D01*
X186699278Y-125856197D01*
X186699276Y-125856198D01*
X186693248Y-125858882D01*
X186538747Y-125971134D01*
X186534326Y-125976044D01*
X186534325Y-125976045D01*
X186431785Y-126089928D01*
X186410960Y-126113056D01*
X186315473Y-126278444D01*
X186256458Y-126460072D01*
X186243565Y-126582749D01*
X186243477Y-126583582D01*
X186216464Y-126649239D01*
X186158243Y-126689869D01*
X186087297Y-126692572D01*
X186044106Y-126672348D01*
X185962094Y-126612763D01*
X185962093Y-126612762D01*
X185956752Y-126608882D01*
X185950724Y-126606198D01*
X185950722Y-126606197D01*
X185788319Y-126533891D01*
X185788318Y-126533891D01*
X185782288Y-126531206D01*
X185688888Y-126511353D01*
X185601944Y-126492872D01*
X185601939Y-126492872D01*
X185595487Y-126491500D01*
X185404513Y-126491500D01*
X185398061Y-126492872D01*
X185398056Y-126492872D01*
X185311112Y-126511353D01*
X185217712Y-126531206D01*
X185211682Y-126533891D01*
X185211681Y-126533891D01*
X185049278Y-126606197D01*
X185049276Y-126606198D01*
X185043248Y-126608882D01*
X184888747Y-126721134D01*
X184884326Y-126726044D01*
X184884325Y-126726045D01*
X184777590Y-126844587D01*
X184760960Y-126863056D01*
X184737531Y-126903637D01*
X184670385Y-127019937D01*
X184665473Y-127028444D01*
X184606458Y-127210072D01*
X184605768Y-127216633D01*
X184605768Y-127216635D01*
X184591625Y-127351203D01*
X184586496Y-127400000D01*
X176535617Y-127400000D01*
X176635753Y-127327247D01*
X176705952Y-127249283D01*
X176759121Y-127190233D01*
X176759122Y-127190232D01*
X176763540Y-127185325D01*
X176834874Y-127061772D01*
X176855723Y-127025660D01*
X176855724Y-127025659D01*
X176859027Y-127019937D01*
X176918042Y-126838309D01*
X176920376Y-126816107D01*
X176937314Y-126654946D01*
X176938004Y-126648381D01*
X176933318Y-126603794D01*
X176918732Y-126465016D01*
X176918732Y-126465014D01*
X176918042Y-126458453D01*
X176859027Y-126276825D01*
X176851078Y-126263056D01*
X176791322Y-126159557D01*
X176763540Y-126111437D01*
X176679081Y-126017635D01*
X176640175Y-125974426D01*
X176640174Y-125974425D01*
X176635753Y-125969515D01*
X176481252Y-125857263D01*
X176475224Y-125854579D01*
X176475222Y-125854578D01*
X176312819Y-125782272D01*
X176312818Y-125782272D01*
X176306788Y-125779587D01*
X176213387Y-125759734D01*
X176126444Y-125741253D01*
X176126439Y-125741253D01*
X176119987Y-125739881D01*
X175929013Y-125739881D01*
X175922561Y-125741253D01*
X175922556Y-125741253D01*
X175819125Y-125763239D01*
X175748592Y-125778231D01*
X175677802Y-125772829D01*
X175621170Y-125730012D01*
X175596676Y-125663375D01*
X175602563Y-125616048D01*
X175641502Y-125496206D01*
X175643542Y-125489928D01*
X175645414Y-125472116D01*
X175672427Y-125406459D01*
X175730648Y-125365829D01*
X175801593Y-125363126D01*
X175809658Y-125365452D01*
X175811684Y-125366110D01*
X175817712Y-125368794D01*
X175886738Y-125383466D01*
X175998056Y-125407128D01*
X175998061Y-125407128D01*
X176004513Y-125408500D01*
X176195487Y-125408500D01*
X176201939Y-125407128D01*
X176201944Y-125407128D01*
X176288887Y-125388647D01*
X176382288Y-125368794D01*
X176388948Y-125365829D01*
X176550722Y-125293803D01*
X176550724Y-125293802D01*
X176556752Y-125291118D01*
X176711253Y-125178866D01*
X176747939Y-125138122D01*
X176834621Y-125041852D01*
X176834622Y-125041851D01*
X176839040Y-125036944D01*
X176928065Y-124882749D01*
X176931223Y-124877279D01*
X176931224Y-124877278D01*
X176934527Y-124871556D01*
X176993542Y-124689928D01*
X177000773Y-124621134D01*
X177012814Y-124506565D01*
X177013504Y-124500000D01*
X177001245Y-124383365D01*
X176994232Y-124316635D01*
X176994232Y-124316633D01*
X176993542Y-124310072D01*
X176934527Y-124128444D01*
X176926925Y-124115276D01*
X176878936Y-124032158D01*
X176839040Y-123963056D01*
X176833703Y-123957128D01*
X176715675Y-123826045D01*
X176715674Y-123826044D01*
X176711253Y-123821134D01*
X176556752Y-123708882D01*
X176550724Y-123706198D01*
X176550722Y-123706197D01*
X176388319Y-123633891D01*
X176388318Y-123633891D01*
X176382288Y-123631206D01*
X176222181Y-123597174D01*
X176159708Y-123563445D01*
X176125386Y-123501296D01*
X176130114Y-123430457D01*
X176131832Y-123426224D01*
X176134527Y-123421556D01*
X176193542Y-123239928D01*
X176213504Y-123050000D01*
X185286496Y-123050000D01*
X185306458Y-123239928D01*
X185365473Y-123421556D01*
X185368776Y-123427278D01*
X185368777Y-123427279D01*
X185381695Y-123449654D01*
X185460960Y-123586944D01*
X185465378Y-123591851D01*
X185465379Y-123591852D01*
X185579649Y-123718762D01*
X185588747Y-123728866D01*
X185635402Y-123762763D01*
X185733651Y-123834145D01*
X185743248Y-123841118D01*
X185749276Y-123843802D01*
X185749278Y-123843803D01*
X185878970Y-123901545D01*
X185917712Y-123918794D01*
X185924173Y-123920167D01*
X185924178Y-123920169D01*
X185987499Y-123933629D01*
X186049973Y-123967357D01*
X186084294Y-124029507D01*
X186079566Y-124100346D01*
X186070420Y-124119875D01*
X186065473Y-124128444D01*
X186006458Y-124310072D01*
X186005768Y-124316633D01*
X186005768Y-124316635D01*
X185998755Y-124383365D01*
X185986496Y-124500000D01*
X185987186Y-124506565D01*
X185999228Y-124621134D01*
X186006458Y-124689928D01*
X186065473Y-124871556D01*
X186068776Y-124877278D01*
X186068777Y-124877279D01*
X186071935Y-124882749D01*
X186160960Y-125036944D01*
X186165378Y-125041851D01*
X186165379Y-125041852D01*
X186252061Y-125138122D01*
X186288747Y-125178866D01*
X186443248Y-125291118D01*
X186449276Y-125293802D01*
X186449278Y-125293803D01*
X186611052Y-125365829D01*
X186617712Y-125368794D01*
X186711113Y-125388647D01*
X186798056Y-125407128D01*
X186798061Y-125407128D01*
X186804513Y-125408500D01*
X186995487Y-125408500D01*
X187001939Y-125407128D01*
X187001944Y-125407128D01*
X187088887Y-125388647D01*
X187182288Y-125368794D01*
X187188948Y-125365829D01*
X187350722Y-125293803D01*
X187350724Y-125293802D01*
X187356752Y-125291118D01*
X187511253Y-125178866D01*
X187547939Y-125138122D01*
X187634621Y-125041852D01*
X187634622Y-125041851D01*
X187639040Y-125036944D01*
X187728065Y-124882749D01*
X187731223Y-124877279D01*
X187731224Y-124877278D01*
X187734527Y-124871556D01*
X187793542Y-124689928D01*
X187800773Y-124621134D01*
X187812814Y-124506565D01*
X187813504Y-124500000D01*
X196736496Y-124500000D01*
X196737186Y-124506565D01*
X196749228Y-124621134D01*
X196756458Y-124689928D01*
X196815473Y-124871556D01*
X196818776Y-124877278D01*
X196818777Y-124877279D01*
X196821935Y-124882749D01*
X196910960Y-125036944D01*
X196915378Y-125041851D01*
X196915379Y-125041852D01*
X197002061Y-125138122D01*
X197038747Y-125178866D01*
X197193248Y-125291118D01*
X197199276Y-125293802D01*
X197199278Y-125293803D01*
X197361052Y-125365829D01*
X197367712Y-125368794D01*
X197461113Y-125388647D01*
X197548056Y-125407128D01*
X197548061Y-125407128D01*
X197554513Y-125408500D01*
X197745487Y-125408500D01*
X197751939Y-125407128D01*
X197751944Y-125407128D01*
X197838887Y-125388647D01*
X197932288Y-125368794D01*
X197938948Y-125365829D01*
X198100722Y-125293803D01*
X198100724Y-125293802D01*
X198106752Y-125291118D01*
X198261253Y-125178866D01*
X198297939Y-125138122D01*
X198384621Y-125041852D01*
X198384622Y-125041851D01*
X198389040Y-125036944D01*
X198478065Y-124882749D01*
X198481223Y-124877279D01*
X198481224Y-124877278D01*
X198484527Y-124871556D01*
X198543542Y-124689928D01*
X198550773Y-124621134D01*
X198562814Y-124506565D01*
X198563504Y-124500000D01*
X207436496Y-124500000D01*
X207437186Y-124506565D01*
X207449228Y-124621134D01*
X207456458Y-124689928D01*
X207515473Y-124871556D01*
X207518776Y-124877278D01*
X207518777Y-124877279D01*
X207521935Y-124882749D01*
X207610960Y-125036944D01*
X207615378Y-125041851D01*
X207615379Y-125041852D01*
X207702061Y-125138122D01*
X207738747Y-125178866D01*
X207893248Y-125291118D01*
X207899276Y-125293802D01*
X207899278Y-125293803D01*
X208061052Y-125365829D01*
X208067712Y-125368794D01*
X208161113Y-125388647D01*
X208248056Y-125407128D01*
X208248061Y-125407128D01*
X208254513Y-125408500D01*
X208445487Y-125408500D01*
X208451939Y-125407128D01*
X208451944Y-125407128D01*
X208538887Y-125388647D01*
X208632288Y-125368794D01*
X208638948Y-125365829D01*
X208800722Y-125293803D01*
X208800724Y-125293802D01*
X208806752Y-125291118D01*
X208961253Y-125178866D01*
X208997939Y-125138122D01*
X209084621Y-125041852D01*
X209084622Y-125041851D01*
X209089040Y-125036944D01*
X209178065Y-124882749D01*
X209181223Y-124877279D01*
X209181224Y-124877278D01*
X209184527Y-124871556D01*
X209243542Y-124689928D01*
X209250773Y-124621134D01*
X209262814Y-124506565D01*
X209263504Y-124500000D01*
X209251245Y-124383365D01*
X209244232Y-124316635D01*
X209244232Y-124316633D01*
X209243542Y-124310072D01*
X209184527Y-124128444D01*
X209176925Y-124115276D01*
X209128936Y-124032158D01*
X209089040Y-123963056D01*
X209084621Y-123958148D01*
X209063986Y-123935230D01*
X209033269Y-123871222D01*
X209042034Y-123800769D01*
X209083560Y-123748986D01*
X209111253Y-123728866D01*
X209120351Y-123718762D01*
X209234621Y-123591852D01*
X209234622Y-123591851D01*
X209239040Y-123586944D01*
X209318305Y-123449654D01*
X209331223Y-123427279D01*
X209331224Y-123427278D01*
X209334527Y-123421556D01*
X209393542Y-123239928D01*
X209413504Y-123050000D01*
X209395188Y-122875734D01*
X209394232Y-122866635D01*
X209394232Y-122866633D01*
X209393542Y-122860072D01*
X209334527Y-122678444D01*
X209260186Y-122549681D01*
X209242343Y-122518777D01*
X209242341Y-122518774D01*
X209239040Y-122513056D01*
X209234620Y-122508147D01*
X209230739Y-122502805D01*
X209232973Y-122501182D01*
X209207536Y-122448164D01*
X209216306Y-122377711D01*
X209257830Y-122325937D01*
X209297750Y-122296933D01*
X209321242Y-122279865D01*
X209342555Y-122256195D01*
X209444610Y-122142851D01*
X209444611Y-122142850D01*
X209449029Y-122137943D01*
X209535906Y-121987468D01*
X209541212Y-121978278D01*
X209541213Y-121978277D01*
X209544516Y-121972555D01*
X209603531Y-121790927D01*
X209614337Y-121688119D01*
X209622803Y-121607564D01*
X209623493Y-121600999D01*
X209619821Y-121566061D01*
X209604221Y-121417634D01*
X209604221Y-121417632D01*
X209603531Y-121411071D01*
X209544516Y-121229443D01*
X209538513Y-121219045D01*
X209455599Y-121075434D01*
X209438861Y-121006439D01*
X209462081Y-120939347D01*
X209490655Y-120910500D01*
X209568265Y-120854113D01*
X209594920Y-120834747D01*
X209594922Y-120834745D01*
X209600264Y-120830864D01*
X209610090Y-120819951D01*
X209723632Y-120693850D01*
X209723633Y-120693849D01*
X209728051Y-120688942D01*
X209823538Y-120523554D01*
X209882553Y-120341926D01*
X209893359Y-120239118D01*
X209901825Y-120158563D01*
X209902515Y-120151998D01*
X209888393Y-120017634D01*
X209883243Y-119968633D01*
X209883243Y-119968631D01*
X209882553Y-119962070D01*
X209823538Y-119780442D01*
X209728051Y-119615054D01*
X209656493Y-119535580D01*
X209604686Y-119478043D01*
X209604685Y-119478042D01*
X209600264Y-119473132D01*
X209445763Y-119360880D01*
X209439735Y-119358196D01*
X209439733Y-119358195D01*
X209277330Y-119285889D01*
X209277329Y-119285889D01*
X209271299Y-119283204D01*
X209177899Y-119263351D01*
X209090955Y-119244870D01*
X209090950Y-119244870D01*
X209084498Y-119243498D01*
X208893524Y-119243498D01*
X208887072Y-119244870D01*
X208887067Y-119244870D01*
X208800123Y-119263351D01*
X208706723Y-119283204D01*
X208700693Y-119285889D01*
X208700692Y-119285889D01*
X208538289Y-119358195D01*
X208538287Y-119358196D01*
X208532259Y-119360880D01*
X208377758Y-119473132D01*
X208373337Y-119478042D01*
X208373336Y-119478043D01*
X208321530Y-119535580D01*
X208249971Y-119615054D01*
X208154484Y-119780442D01*
X208095469Y-119962070D01*
X208094779Y-119968631D01*
X208094779Y-119968633D01*
X208089629Y-120017634D01*
X208075507Y-120151998D01*
X208076197Y-120158563D01*
X208084664Y-120239118D01*
X208095469Y-120341926D01*
X208154484Y-120523554D01*
X208157787Y-120529276D01*
X208157788Y-120529277D01*
X208243401Y-120677563D01*
X208260139Y-120746558D01*
X208236919Y-120813650D01*
X208208345Y-120842497D01*
X208168397Y-120871521D01*
X208114412Y-120910744D01*
X208098736Y-120922133D01*
X208094315Y-120927043D01*
X208094314Y-120927044D01*
X207999213Y-121032665D01*
X207970949Y-121064055D01*
X207921505Y-121149695D01*
X207881990Y-121218137D01*
X207875462Y-121229443D01*
X207816447Y-121411071D01*
X207815757Y-121417632D01*
X207815757Y-121417634D01*
X207800157Y-121566061D01*
X207796485Y-121600999D01*
X207797175Y-121607564D01*
X207805642Y-121688119D01*
X207816447Y-121790927D01*
X207875462Y-121972555D01*
X207878765Y-121978277D01*
X207878766Y-121978278D01*
X207925275Y-122058833D01*
X207970949Y-122137943D01*
X207975368Y-122142851D01*
X207979250Y-122148194D01*
X207977016Y-122149817D01*
X208002453Y-122202835D01*
X207993683Y-122273288D01*
X207952159Y-122325062D01*
X207888747Y-122371134D01*
X207884326Y-122376044D01*
X207884325Y-122376045D01*
X207784208Y-122487237D01*
X207760960Y-122513056D01*
X207665473Y-122678444D01*
X207606458Y-122860072D01*
X207605768Y-122866633D01*
X207605768Y-122866635D01*
X207604812Y-122875734D01*
X207586496Y-123050000D01*
X207606458Y-123239928D01*
X207665473Y-123421556D01*
X207668776Y-123427278D01*
X207668777Y-123427279D01*
X207681695Y-123449654D01*
X207760960Y-123586944D01*
X207765378Y-123591851D01*
X207765379Y-123591852D01*
X207786014Y-123614770D01*
X207816731Y-123678778D01*
X207807966Y-123749231D01*
X207766440Y-123801014D01*
X207738747Y-123821134D01*
X207734326Y-123826044D01*
X207734325Y-123826045D01*
X207616298Y-123957128D01*
X207610960Y-123963056D01*
X207571064Y-124032158D01*
X207523076Y-124115276D01*
X207515473Y-124128444D01*
X207456458Y-124310072D01*
X207455768Y-124316633D01*
X207455768Y-124316635D01*
X207448755Y-124383365D01*
X207436496Y-124500000D01*
X198563504Y-124500000D01*
X198551245Y-124383365D01*
X198544232Y-124316635D01*
X198544232Y-124316633D01*
X198543542Y-124310072D01*
X198484527Y-124128444D01*
X198476925Y-124115276D01*
X198428936Y-124032158D01*
X198389040Y-123963056D01*
X198384621Y-123958148D01*
X198295627Y-123859310D01*
X198264909Y-123795303D01*
X198273674Y-123724849D01*
X198295627Y-123690690D01*
X198384621Y-123591852D01*
X198384622Y-123591851D01*
X198389040Y-123586944D01*
X198468305Y-123449654D01*
X198481223Y-123427279D01*
X198481224Y-123427278D01*
X198484527Y-123421556D01*
X198543542Y-123239928D01*
X198563504Y-123050000D01*
X198545188Y-122875734D01*
X198544232Y-122866635D01*
X198544232Y-122866633D01*
X198543542Y-122860072D01*
X198484527Y-122678444D01*
X198398857Y-122530059D01*
X198382119Y-122461065D01*
X198405339Y-122393973D01*
X198433914Y-122365125D01*
X198493168Y-122322074D01*
X198545920Y-122283748D01*
X198545922Y-122283746D01*
X198551264Y-122279865D01*
X198572577Y-122256195D01*
X198674632Y-122142851D01*
X198674633Y-122142850D01*
X198679051Y-122137943D01*
X198765928Y-121987468D01*
X198771234Y-121978278D01*
X198771235Y-121978277D01*
X198774538Y-121972555D01*
X198833553Y-121790927D01*
X198844359Y-121688119D01*
X198852825Y-121607564D01*
X198853515Y-121600999D01*
X198849843Y-121566061D01*
X198834243Y-121417634D01*
X198834243Y-121417632D01*
X198833553Y-121411071D01*
X198774538Y-121229443D01*
X198768011Y-121218137D01*
X198728495Y-121149695D01*
X198679051Y-121064055D01*
X198654724Y-121037037D01*
X198624008Y-120973031D01*
X198632773Y-120902578D01*
X198674299Y-120850794D01*
X198680044Y-120846620D01*
X198701730Y-120830864D01*
X198711556Y-120819951D01*
X198825098Y-120693850D01*
X198825099Y-120693849D01*
X198829517Y-120688942D01*
X198925004Y-120523554D01*
X198984019Y-120341926D01*
X198994825Y-120239118D01*
X199003291Y-120158563D01*
X199003981Y-120151998D01*
X198989859Y-120017634D01*
X198984709Y-119968633D01*
X198984709Y-119968631D01*
X198984019Y-119962070D01*
X198925004Y-119780442D01*
X198829517Y-119615054D01*
X198757959Y-119535580D01*
X198706152Y-119478043D01*
X198706151Y-119478042D01*
X198701730Y-119473132D01*
X198547229Y-119360880D01*
X198541201Y-119358196D01*
X198541199Y-119358195D01*
X198378796Y-119285889D01*
X198378795Y-119285889D01*
X198372765Y-119283204D01*
X198279365Y-119263351D01*
X198192421Y-119244870D01*
X198192416Y-119244870D01*
X198185964Y-119243498D01*
X197994990Y-119243498D01*
X197988538Y-119244870D01*
X197988533Y-119244870D01*
X197901589Y-119263351D01*
X197808189Y-119283204D01*
X197802159Y-119285889D01*
X197802158Y-119285889D01*
X197639755Y-119358195D01*
X197639753Y-119358196D01*
X197633725Y-119360880D01*
X197479224Y-119473132D01*
X197474803Y-119478042D01*
X197474802Y-119478043D01*
X197422996Y-119535580D01*
X197351437Y-119615054D01*
X197255950Y-119780442D01*
X197196935Y-119962070D01*
X197196245Y-119968631D01*
X197196245Y-119968633D01*
X197191095Y-120017634D01*
X197176973Y-120151998D01*
X197177663Y-120158563D01*
X197186130Y-120239118D01*
X197196935Y-120341926D01*
X197255950Y-120523554D01*
X197351437Y-120688942D01*
X197375764Y-120715960D01*
X197406480Y-120779966D01*
X197397715Y-120850419D01*
X197356189Y-120902203D01*
X197328758Y-120922133D01*
X197324337Y-120927043D01*
X197324336Y-120927044D01*
X197229235Y-121032665D01*
X197200971Y-121064055D01*
X197151527Y-121149695D01*
X197112012Y-121218137D01*
X197105484Y-121229443D01*
X197046469Y-121411071D01*
X197045779Y-121417632D01*
X197045779Y-121417634D01*
X197030179Y-121566061D01*
X197026507Y-121600999D01*
X197027197Y-121607564D01*
X197035664Y-121688119D01*
X197046469Y-121790927D01*
X197105484Y-121972555D01*
X197108787Y-121978277D01*
X197108788Y-121978278D01*
X197114094Y-121987468D01*
X197177500Y-122097289D01*
X197191154Y-122120939D01*
X197207892Y-122189934D01*
X197184672Y-122257026D01*
X197156097Y-122285874D01*
X197038747Y-122371134D01*
X197034326Y-122376044D01*
X197034325Y-122376045D01*
X196934208Y-122487237D01*
X196910960Y-122513056D01*
X196815473Y-122678444D01*
X196756458Y-122860072D01*
X196755768Y-122866633D01*
X196755768Y-122866635D01*
X196754812Y-122875734D01*
X196736496Y-123050000D01*
X196756458Y-123239928D01*
X196815473Y-123421556D01*
X196818776Y-123427278D01*
X196818777Y-123427279D01*
X196831695Y-123449654D01*
X196910960Y-123586944D01*
X196915378Y-123591851D01*
X196915379Y-123591852D01*
X197004373Y-123690690D01*
X197035091Y-123754697D01*
X197026326Y-123825151D01*
X197004373Y-123859310D01*
X196915379Y-123958148D01*
X196910960Y-123963056D01*
X196871064Y-124032158D01*
X196823076Y-124115276D01*
X196815473Y-124128444D01*
X196756458Y-124310072D01*
X196755768Y-124316633D01*
X196755768Y-124316635D01*
X196748755Y-124383365D01*
X196736496Y-124500000D01*
X187813504Y-124500000D01*
X187801245Y-124383365D01*
X187794232Y-124316635D01*
X187794232Y-124316633D01*
X187793542Y-124310072D01*
X187734527Y-124128444D01*
X187726925Y-124115276D01*
X187678936Y-124032158D01*
X187639040Y-123963056D01*
X187633703Y-123957128D01*
X187515675Y-123826045D01*
X187515674Y-123826044D01*
X187511253Y-123821134D01*
X187356752Y-123708882D01*
X187350724Y-123706198D01*
X187350722Y-123706197D01*
X187188319Y-123633891D01*
X187188318Y-123633891D01*
X187182288Y-123631206D01*
X187175827Y-123629833D01*
X187175822Y-123629831D01*
X187112501Y-123616371D01*
X187050027Y-123582643D01*
X187015706Y-123520493D01*
X187020434Y-123449654D01*
X187029580Y-123430125D01*
X187034527Y-123421556D01*
X187093542Y-123239928D01*
X187113504Y-123050000D01*
X187095188Y-122875734D01*
X187094232Y-122866635D01*
X187094232Y-122866633D01*
X187093542Y-122860072D01*
X187043231Y-122705232D01*
X187041203Y-122634265D01*
X187077866Y-122573467D01*
X187115038Y-122551771D01*
X187114404Y-122550348D01*
X187282838Y-122475357D01*
X187282840Y-122475356D01*
X187288868Y-122472672D01*
X187320550Y-122449654D01*
X187361707Y-122419751D01*
X187443369Y-122360420D01*
X187460598Y-122341285D01*
X187566737Y-122223406D01*
X187566738Y-122223405D01*
X187571156Y-122218498D01*
X187666643Y-122053110D01*
X187725658Y-121871482D01*
X187727418Y-121854742D01*
X187744930Y-121688119D01*
X187745620Y-121681554D01*
X187738110Y-121610098D01*
X187726348Y-121498189D01*
X187726348Y-121498187D01*
X187725658Y-121491626D01*
X187666643Y-121309998D01*
X187571156Y-121144610D01*
X187566736Y-121139701D01*
X187562857Y-121134362D01*
X187564665Y-121133049D01*
X187538426Y-121078349D01*
X187547202Y-121007897D01*
X187588722Y-120956132D01*
X187644920Y-120915302D01*
X187644922Y-120915300D01*
X187650264Y-120911419D01*
X187655556Y-120905542D01*
X187773632Y-120774405D01*
X187773633Y-120774404D01*
X187778051Y-120769497D01*
X187873538Y-120604109D01*
X187932553Y-120422481D01*
X187934313Y-120405741D01*
X187951825Y-120239118D01*
X187952515Y-120232553D01*
X187945296Y-120163871D01*
X187933243Y-120049188D01*
X187933243Y-120049186D01*
X187932553Y-120042625D01*
X187873538Y-119860997D01*
X187778051Y-119695609D01*
X187752907Y-119667683D01*
X187654686Y-119558598D01*
X187654685Y-119558597D01*
X187650264Y-119553687D01*
X187550908Y-119481500D01*
X187501105Y-119445316D01*
X187501104Y-119445315D01*
X187495763Y-119441435D01*
X187489735Y-119438751D01*
X187489733Y-119438750D01*
X187327330Y-119366444D01*
X187327329Y-119366444D01*
X187321299Y-119363759D01*
X187225640Y-119343426D01*
X187140955Y-119325425D01*
X187140950Y-119325425D01*
X187134498Y-119324053D01*
X186943524Y-119324053D01*
X186937072Y-119325425D01*
X186937067Y-119325425D01*
X186852382Y-119343426D01*
X186756723Y-119363759D01*
X186750693Y-119366444D01*
X186750692Y-119366444D01*
X186588289Y-119438750D01*
X186588287Y-119438751D01*
X186582259Y-119441435D01*
X186576918Y-119445315D01*
X186576917Y-119445316D01*
X186527114Y-119481500D01*
X186427758Y-119553687D01*
X186423337Y-119558597D01*
X186423336Y-119558598D01*
X186325116Y-119667683D01*
X186299971Y-119695609D01*
X186204484Y-119860997D01*
X186145469Y-120042625D01*
X186144779Y-120049186D01*
X186144779Y-120049188D01*
X186132726Y-120163871D01*
X186125507Y-120232553D01*
X186126197Y-120239118D01*
X186143710Y-120405741D01*
X186145469Y-120422481D01*
X186204484Y-120604109D01*
X186299971Y-120769497D01*
X186304390Y-120774405D01*
X186308270Y-120779745D01*
X186306462Y-120781058D01*
X186332701Y-120835758D01*
X186323925Y-120906210D01*
X186282405Y-120957975D01*
X186233179Y-120993740D01*
X186220863Y-121002688D01*
X186216442Y-121007598D01*
X186216441Y-121007599D01*
X186103486Y-121133049D01*
X186093076Y-121144610D01*
X185997589Y-121309998D01*
X185938574Y-121491626D01*
X185937884Y-121498187D01*
X185937884Y-121498189D01*
X185926122Y-121610098D01*
X185918612Y-121681554D01*
X185919302Y-121688119D01*
X185936815Y-121854742D01*
X185938574Y-121871482D01*
X185966099Y-121956195D01*
X185988885Y-122026322D01*
X185990913Y-122097289D01*
X185954250Y-122158087D01*
X185917078Y-122179783D01*
X185917712Y-122181206D01*
X185749278Y-122256197D01*
X185749276Y-122256198D01*
X185743248Y-122258882D01*
X185737907Y-122262762D01*
X185737906Y-122262763D01*
X185689626Y-122297841D01*
X185588747Y-122371134D01*
X185584326Y-122376044D01*
X185584325Y-122376045D01*
X185484208Y-122487237D01*
X185460960Y-122513056D01*
X185365473Y-122678444D01*
X185306458Y-122860072D01*
X185305768Y-122866633D01*
X185305768Y-122866635D01*
X185304812Y-122875734D01*
X185286496Y-123050000D01*
X176213504Y-123050000D01*
X176195188Y-122875734D01*
X176194232Y-122866635D01*
X176194232Y-122866633D01*
X176193542Y-122860072D01*
X176134527Y-122678444D01*
X176133834Y-122677244D01*
X176124660Y-122608793D01*
X176154769Y-122544497D01*
X176197952Y-122512810D01*
X176333770Y-122452341D01*
X176333777Y-122452337D01*
X176339803Y-122449654D01*
X176366932Y-122429944D01*
X176416441Y-122393973D01*
X176494304Y-122337402D01*
X176499805Y-122331293D01*
X176617672Y-122200388D01*
X176617673Y-122200387D01*
X176622091Y-122195480D01*
X176717578Y-122030092D01*
X176776593Y-121848464D01*
X176781981Y-121797205D01*
X176795865Y-121665101D01*
X176796555Y-121658536D01*
X176779012Y-121491626D01*
X176777283Y-121475171D01*
X176777283Y-121475169D01*
X176776593Y-121468608D01*
X176717578Y-121286980D01*
X176675526Y-121214143D01*
X176625394Y-121127313D01*
X176625392Y-121127310D01*
X176622091Y-121121592D01*
X176599939Y-121096990D01*
X176569222Y-121032983D01*
X176577985Y-120962529D01*
X176619512Y-120910744D01*
X176625752Y-120906210D01*
X176650264Y-120888401D01*
X176682282Y-120852841D01*
X176773632Y-120751387D01*
X176773633Y-120751386D01*
X176778051Y-120746479D01*
X176873538Y-120581091D01*
X176932553Y-120399463D01*
X176937353Y-120353799D01*
X176951825Y-120216100D01*
X176952515Y-120209535D01*
X176934972Y-120042625D01*
X176933243Y-120026170D01*
X176933243Y-120026168D01*
X176932553Y-120019607D01*
X176873538Y-119837979D01*
X176850803Y-119798600D01*
X176781352Y-119678309D01*
X176778051Y-119672591D01*
X176746036Y-119637034D01*
X176654686Y-119535580D01*
X176654685Y-119535579D01*
X176650264Y-119530669D01*
X176532186Y-119444880D01*
X176501105Y-119422298D01*
X176501104Y-119422297D01*
X176495763Y-119418417D01*
X176489735Y-119415733D01*
X176489733Y-119415732D01*
X176327330Y-119343426D01*
X176327329Y-119343426D01*
X176321299Y-119340741D01*
X176227899Y-119320888D01*
X176140955Y-119302407D01*
X176140950Y-119302407D01*
X176134498Y-119301035D01*
X175943524Y-119301035D01*
X175937072Y-119302407D01*
X175937067Y-119302407D01*
X175850123Y-119320888D01*
X175756723Y-119340741D01*
X175750693Y-119343426D01*
X175750692Y-119343426D01*
X175588289Y-119415732D01*
X175588287Y-119415733D01*
X175582259Y-119418417D01*
X175576918Y-119422297D01*
X175576917Y-119422298D01*
X175545836Y-119444880D01*
X175427758Y-119530669D01*
X175423337Y-119535579D01*
X175423336Y-119535580D01*
X175331987Y-119637034D01*
X175299971Y-119672591D01*
X175296670Y-119678309D01*
X175227220Y-119798600D01*
X175204484Y-119837979D01*
X175145469Y-120019607D01*
X175144779Y-120026168D01*
X175144779Y-120026170D01*
X175143050Y-120042625D01*
X175125507Y-120209535D01*
X175126197Y-120216100D01*
X175140670Y-120353799D01*
X175145469Y-120399463D01*
X175204484Y-120581091D01*
X175207787Y-120586813D01*
X175207788Y-120586814D01*
X175273607Y-120700815D01*
X175299971Y-120746479D01*
X175304389Y-120751386D01*
X175304390Y-120751387D01*
X175322123Y-120771081D01*
X175352840Y-120835088D01*
X175344077Y-120905542D01*
X175302550Y-120957327D01*
X175271798Y-120979670D01*
X175267377Y-120984580D01*
X175267376Y-120984581D01*
X175162512Y-121101045D01*
X175144011Y-121121592D01*
X175048524Y-121286980D01*
X174989509Y-121468608D01*
X174988819Y-121475169D01*
X174988819Y-121475171D01*
X174987090Y-121491626D01*
X174969547Y-121658536D01*
X174970237Y-121665101D01*
X174984122Y-121797205D01*
X174989509Y-121848464D01*
X175048524Y-122030092D01*
X175049217Y-122031292D01*
X175058391Y-122099743D01*
X175028282Y-122164039D01*
X174985099Y-122195726D01*
X174849281Y-122256195D01*
X174849274Y-122256199D01*
X174843248Y-122258882D01*
X174837907Y-122262762D01*
X174837906Y-122262763D01*
X174789626Y-122297841D01*
X174688747Y-122371134D01*
X174684326Y-122376044D01*
X174684325Y-122376045D01*
X174584208Y-122487237D01*
X174560960Y-122513056D01*
X174465473Y-122678444D01*
X174406458Y-122860072D01*
X174405768Y-122866633D01*
X174405768Y-122866635D01*
X174404812Y-122875734D01*
X174386496Y-123050000D01*
X174406458Y-123239928D01*
X174465473Y-123421556D01*
X174468776Y-123427278D01*
X174468777Y-123427279D01*
X174481695Y-123449654D01*
X174560960Y-123586944D01*
X174565378Y-123591851D01*
X174565379Y-123591852D01*
X174679649Y-123718762D01*
X174688747Y-123728866D01*
X174735402Y-123762763D01*
X174833651Y-123834145D01*
X174843248Y-123841118D01*
X174849276Y-123843802D01*
X174849278Y-123843803D01*
X174978970Y-123901545D01*
X175017712Y-123918794D01*
X175157745Y-123948559D01*
X175177819Y-123952826D01*
X175240292Y-123986555D01*
X175274614Y-124048704D01*
X175269886Y-124119543D01*
X175268168Y-124123776D01*
X175265473Y-124128444D01*
X175206458Y-124310072D01*
X175205768Y-124316633D01*
X175205768Y-124316635D01*
X175204586Y-124327884D01*
X175177573Y-124393541D01*
X175119352Y-124434171D01*
X175048407Y-124436874D01*
X175040342Y-124434548D01*
X175038316Y-124433890D01*
X175032288Y-124431206D01*
X174963262Y-124416534D01*
X174851944Y-124392872D01*
X174851939Y-124392872D01*
X174845487Y-124391500D01*
X174654513Y-124391500D01*
X174648061Y-124392872D01*
X174648056Y-124392872D01*
X174561112Y-124411353D01*
X174467712Y-124431206D01*
X174461682Y-124433891D01*
X174461681Y-124433891D01*
X174299278Y-124506197D01*
X174299276Y-124506198D01*
X174293248Y-124508882D01*
X174138747Y-124621134D01*
X174134326Y-124626044D01*
X174134325Y-124626045D01*
X174031785Y-124739928D01*
X174010960Y-124763056D01*
X173915473Y-124928444D01*
X173856458Y-125110072D01*
X173855768Y-125116633D01*
X173855768Y-125116635D01*
X173843972Y-125228866D01*
X173836496Y-125300000D01*
X173837186Y-125306565D01*
X173853011Y-125457128D01*
X173856458Y-125489928D01*
X173858498Y-125496206D01*
X173907663Y-125647520D01*
X173909691Y-125718487D01*
X173873028Y-125779285D01*
X173809316Y-125810611D01*
X173758108Y-125806950D01*
X173757788Y-125808454D01*
X173577444Y-125770120D01*
X173577439Y-125770120D01*
X173570987Y-125768748D01*
X173380013Y-125768748D01*
X173373561Y-125770120D01*
X173373556Y-125770120D01*
X173308771Y-125783891D01*
X173193212Y-125808454D01*
X173187182Y-125811139D01*
X173187181Y-125811139D01*
X173024778Y-125883445D01*
X173024776Y-125883446D01*
X173018748Y-125886130D01*
X173013407Y-125890010D01*
X173013406Y-125890011D01*
X172986907Y-125909264D01*
X172864247Y-125998382D01*
X172859826Y-126003292D01*
X172859825Y-126003293D01*
X172846912Y-126017635D01*
X172736460Y-126140304D01*
X172697879Y-126207128D01*
X172660944Y-126271102D01*
X172640973Y-126305692D01*
X172581958Y-126487320D01*
X172581268Y-126493881D01*
X172581268Y-126493883D01*
X172568367Y-126616635D01*
X172561996Y-126677248D01*
X165860640Y-126677248D01*
X165862814Y-126656565D01*
X165863504Y-126650000D01*
X165856028Y-126578866D01*
X165844232Y-126466635D01*
X165844232Y-126466633D01*
X165843542Y-126460072D01*
X165784527Y-126278444D01*
X165689040Y-126113056D01*
X165668216Y-126089928D01*
X165565675Y-125976045D01*
X165565674Y-125976044D01*
X165561253Y-125971134D01*
X165406752Y-125858882D01*
X165400724Y-125856198D01*
X165400722Y-125856197D01*
X165238319Y-125783891D01*
X165238318Y-125783891D01*
X165232288Y-125781206D01*
X165138888Y-125761353D01*
X165051944Y-125742872D01*
X165051939Y-125742872D01*
X165045487Y-125741500D01*
X164854513Y-125741500D01*
X164848061Y-125742872D01*
X164848056Y-125742872D01*
X164761112Y-125761353D01*
X164667712Y-125781206D01*
X164661682Y-125783891D01*
X164661681Y-125783891D01*
X164499278Y-125856197D01*
X164499276Y-125856198D01*
X164493248Y-125858882D01*
X164338747Y-125971134D01*
X164334326Y-125976044D01*
X164334325Y-125976045D01*
X164231785Y-126089928D01*
X164210960Y-126113056D01*
X164115473Y-126278444D01*
X164056458Y-126460072D01*
X164055768Y-126466633D01*
X164055768Y-126466635D01*
X164043972Y-126578866D01*
X164036496Y-126650000D01*
X154863504Y-126650000D01*
X154856028Y-126578866D01*
X154844232Y-126466635D01*
X154844232Y-126466633D01*
X154843542Y-126460072D01*
X154784527Y-126278444D01*
X154689040Y-126113056D01*
X154668216Y-126089928D01*
X154565675Y-125976045D01*
X154565674Y-125976044D01*
X154561253Y-125971134D01*
X154406752Y-125858882D01*
X154400724Y-125856198D01*
X154400722Y-125856197D01*
X154238319Y-125783891D01*
X154238318Y-125783891D01*
X154232288Y-125781206D01*
X154138888Y-125761353D01*
X154051944Y-125742872D01*
X154051939Y-125742872D01*
X154045487Y-125741500D01*
X153854513Y-125741500D01*
X153848061Y-125742872D01*
X153848056Y-125742872D01*
X153761112Y-125761353D01*
X153667712Y-125781206D01*
X153661682Y-125783891D01*
X153661681Y-125783891D01*
X153499278Y-125856197D01*
X153499276Y-125856198D01*
X153493248Y-125858882D01*
X153338747Y-125971134D01*
X153334326Y-125976044D01*
X153334325Y-125976045D01*
X153231785Y-126089928D01*
X153210960Y-126113056D01*
X153115473Y-126278444D01*
X153056458Y-126460072D01*
X153055768Y-126466633D01*
X153055768Y-126466635D01*
X153043972Y-126578866D01*
X153036496Y-126650000D01*
X143971261Y-126650000D01*
X143967754Y-126616635D01*
X143967754Y-126616633D01*
X143967064Y-126610072D01*
X143908049Y-126428444D01*
X143812562Y-126263056D01*
X143729043Y-126170298D01*
X143689197Y-126126045D01*
X143689196Y-126126044D01*
X143684775Y-126121134D01*
X143549081Y-126022546D01*
X143535616Y-126012763D01*
X143535615Y-126012762D01*
X143530274Y-126008882D01*
X143524246Y-126006198D01*
X143524244Y-126006197D01*
X143361841Y-125933891D01*
X143361840Y-125933891D01*
X143355810Y-125931206D01*
X143252582Y-125909264D01*
X143175466Y-125892872D01*
X143175461Y-125892872D01*
X143169009Y-125891500D01*
X142978035Y-125891500D01*
X142971583Y-125892872D01*
X142971578Y-125892872D01*
X142894462Y-125909264D01*
X142791234Y-125931206D01*
X142785204Y-125933891D01*
X142785203Y-125933891D01*
X142622800Y-126006197D01*
X142622798Y-126006198D01*
X142616770Y-126008882D01*
X142611429Y-126012762D01*
X142611428Y-126012763D01*
X142597963Y-126022546D01*
X142462269Y-126121134D01*
X142457848Y-126126044D01*
X142457847Y-126126045D01*
X142418002Y-126170298D01*
X142334482Y-126263056D01*
X142238995Y-126428444D01*
X142179980Y-126610072D01*
X142179290Y-126616633D01*
X142179290Y-126616635D01*
X142171593Y-126689869D01*
X142160018Y-126800000D01*
X137100000Y-126800000D01*
X137100000Y-123059099D01*
X141910996Y-123059099D01*
X141911686Y-123065664D01*
X141930002Y-123239928D01*
X141930958Y-123249027D01*
X141989973Y-123430655D01*
X142085460Y-123596043D01*
X142089878Y-123600950D01*
X142089879Y-123600951D01*
X142199792Y-123723022D01*
X142213247Y-123737965D01*
X142218589Y-123741846D01*
X142218591Y-123741848D01*
X142238341Y-123756197D01*
X142302109Y-123802527D01*
X142345462Y-123858748D01*
X142351537Y-123929484D01*
X142333476Y-123970575D01*
X142334482Y-123971156D01*
X142243672Y-124128444D01*
X142238995Y-124136544D01*
X142179980Y-124318172D01*
X142179290Y-124324733D01*
X142179290Y-124324735D01*
X142167504Y-124436874D01*
X142160018Y-124508100D01*
X142160708Y-124514665D01*
X142179129Y-124689928D01*
X142179980Y-124698028D01*
X142238995Y-124879656D01*
X142334482Y-125045044D01*
X142338900Y-125049951D01*
X142338901Y-125049952D01*
X142367060Y-125081226D01*
X142462269Y-125186966D01*
X142509297Y-125221134D01*
X142600280Y-125287237D01*
X142616770Y-125299218D01*
X142622798Y-125301902D01*
X142622800Y-125301903D01*
X142785203Y-125374209D01*
X142791234Y-125376894D01*
X142884635Y-125396747D01*
X142971578Y-125415228D01*
X142971583Y-125415228D01*
X142978035Y-125416600D01*
X143169009Y-125416600D01*
X143175461Y-125415228D01*
X143175466Y-125415228D01*
X143262409Y-125396747D01*
X143355810Y-125376894D01*
X143361841Y-125374209D01*
X143524244Y-125301903D01*
X143524246Y-125301902D01*
X143530274Y-125299218D01*
X143546765Y-125287237D01*
X143637747Y-125221134D01*
X143684775Y-125186966D01*
X143779984Y-125081226D01*
X143808143Y-125049952D01*
X143808144Y-125049951D01*
X143812562Y-125045044D01*
X143908049Y-124879656D01*
X143967064Y-124698028D01*
X143967916Y-124689928D01*
X143986336Y-124514665D01*
X143987026Y-124508100D01*
X143979540Y-124436874D01*
X143967754Y-124324735D01*
X143967754Y-124324733D01*
X143967064Y-124318172D01*
X143908049Y-124136544D01*
X143903373Y-124128444D01*
X143848642Y-124033648D01*
X143812562Y-123971156D01*
X143801167Y-123958500D01*
X143689197Y-123834145D01*
X143689196Y-123834144D01*
X143684775Y-123829234D01*
X143679156Y-123825151D01*
X143628383Y-123788263D01*
X143595913Y-123764672D01*
X143552560Y-123708451D01*
X143546485Y-123637715D01*
X143564546Y-123596624D01*
X143563540Y-123596043D01*
X143655723Y-123436378D01*
X143655724Y-123436377D01*
X143659027Y-123430655D01*
X143718042Y-123249027D01*
X143718999Y-123239928D01*
X143737314Y-123065664D01*
X143738004Y-123059099D01*
X143737048Y-123050000D01*
X152236496Y-123050000D01*
X152256458Y-123239928D01*
X152315473Y-123421556D01*
X152318776Y-123427278D01*
X152318777Y-123427279D01*
X152331695Y-123449654D01*
X152410960Y-123586944D01*
X152415378Y-123591851D01*
X152415379Y-123591852D01*
X152529649Y-123718762D01*
X152538747Y-123728866D01*
X152585402Y-123762763D01*
X152683651Y-123834145D01*
X152693248Y-123841118D01*
X152699276Y-123843802D01*
X152699278Y-123843803D01*
X152828970Y-123901545D01*
X152867712Y-123918794D01*
X153007745Y-123948559D01*
X153070218Y-123982288D01*
X153104540Y-124044437D01*
X153099812Y-124115276D01*
X153090668Y-124134805D01*
X153065473Y-124178444D01*
X153006458Y-124360072D01*
X153005768Y-124366633D01*
X153005768Y-124366635D01*
X152995343Y-124465821D01*
X152986496Y-124550000D01*
X152987186Y-124556565D01*
X152994489Y-124626045D01*
X153006458Y-124739928D01*
X153065473Y-124921556D01*
X153160960Y-125086944D01*
X153165378Y-125091851D01*
X153165379Y-125091852D01*
X153182086Y-125110407D01*
X153288747Y-125228866D01*
X153443248Y-125341118D01*
X153449276Y-125343802D01*
X153449278Y-125343803D01*
X153611681Y-125416109D01*
X153617712Y-125418794D01*
X153711112Y-125438647D01*
X153798056Y-125457128D01*
X153798061Y-125457128D01*
X153804513Y-125458500D01*
X153995487Y-125458500D01*
X154001939Y-125457128D01*
X154001944Y-125457128D01*
X154088888Y-125438647D01*
X154182288Y-125418794D01*
X154188319Y-125416109D01*
X154350722Y-125343803D01*
X154350724Y-125343802D01*
X154356752Y-125341118D01*
X154511253Y-125228866D01*
X154617914Y-125110407D01*
X154634621Y-125091852D01*
X154634622Y-125091851D01*
X154639040Y-125086944D01*
X154734527Y-124921556D01*
X154793542Y-124739928D01*
X154805512Y-124626045D01*
X154812814Y-124556565D01*
X154813504Y-124550000D01*
X154804657Y-124465821D01*
X154794232Y-124366635D01*
X154794232Y-124366633D01*
X154793542Y-124360072D01*
X154734527Y-124178444D01*
X154716662Y-124147500D01*
X154650929Y-124033648D01*
X154639040Y-124013056D01*
X154630701Y-124003794D01*
X154515675Y-123876045D01*
X154515674Y-123876044D01*
X154511253Y-123871134D01*
X154379351Y-123775301D01*
X154362094Y-123762763D01*
X154362093Y-123762762D01*
X154356752Y-123758882D01*
X154350724Y-123756198D01*
X154350722Y-123756197D01*
X154188319Y-123683891D01*
X154188318Y-123683891D01*
X154182288Y-123681206D01*
X154042255Y-123651441D01*
X153979782Y-123617712D01*
X153945460Y-123555563D01*
X153950188Y-123484724D01*
X153959332Y-123465195D01*
X153960800Y-123462653D01*
X153984527Y-123421556D01*
X154043542Y-123239928D01*
X154063504Y-123050000D01*
X163086496Y-123050000D01*
X163106458Y-123239928D01*
X163165473Y-123421556D01*
X163168776Y-123427278D01*
X163168777Y-123427279D01*
X163181695Y-123449654D01*
X163260960Y-123586944D01*
X163265378Y-123591851D01*
X163265379Y-123591852D01*
X163379649Y-123718762D01*
X163388747Y-123728866D01*
X163435402Y-123762763D01*
X163533651Y-123834145D01*
X163543248Y-123841118D01*
X163549276Y-123843802D01*
X163549278Y-123843803D01*
X163678970Y-123901545D01*
X163717712Y-123918794D01*
X163787505Y-123933629D01*
X163898056Y-123957128D01*
X163898061Y-123957128D01*
X163904513Y-123958500D01*
X163938942Y-123958500D01*
X164007063Y-123978502D01*
X164053556Y-124032158D01*
X164063660Y-124102432D01*
X164048061Y-124147500D01*
X164015473Y-124203944D01*
X163956458Y-124385572D01*
X163955768Y-124392133D01*
X163955768Y-124392135D01*
X163947507Y-124470732D01*
X163936496Y-124575500D01*
X163937186Y-124582065D01*
X163949183Y-124696206D01*
X163956458Y-124765428D01*
X164015473Y-124947056D01*
X164018776Y-124952778D01*
X164018777Y-124952779D01*
X164040912Y-124991118D01*
X164110960Y-125112444D01*
X164115378Y-125117351D01*
X164115379Y-125117352D01*
X164173638Y-125182055D01*
X164238747Y-125254366D01*
X164393248Y-125366618D01*
X164399276Y-125369302D01*
X164399278Y-125369303D01*
X164513519Y-125420166D01*
X164567712Y-125444294D01*
X164634546Y-125458500D01*
X164748056Y-125482628D01*
X164748061Y-125482628D01*
X164754513Y-125484000D01*
X164945487Y-125484000D01*
X164951939Y-125482628D01*
X164951944Y-125482628D01*
X165065454Y-125458500D01*
X165132288Y-125444294D01*
X165186481Y-125420166D01*
X165300722Y-125369303D01*
X165300724Y-125369302D01*
X165306752Y-125366618D01*
X165461253Y-125254366D01*
X165526362Y-125182055D01*
X165584621Y-125117352D01*
X165584622Y-125117351D01*
X165589040Y-125112444D01*
X165659088Y-124991118D01*
X165681223Y-124952779D01*
X165681224Y-124952778D01*
X165684527Y-124947056D01*
X165743542Y-124765428D01*
X165750818Y-124696206D01*
X165762814Y-124582065D01*
X165763504Y-124575500D01*
X165752493Y-124470732D01*
X165744232Y-124392135D01*
X165744232Y-124392133D01*
X165743542Y-124385572D01*
X165684527Y-124203944D01*
X165589040Y-124038556D01*
X165516641Y-123958148D01*
X165465675Y-123901545D01*
X165465674Y-123901544D01*
X165461253Y-123896634D01*
X165329307Y-123800769D01*
X165312094Y-123788263D01*
X165312093Y-123788262D01*
X165306752Y-123784382D01*
X165300724Y-123781698D01*
X165300722Y-123781697D01*
X165138319Y-123709391D01*
X165138318Y-123709391D01*
X165132288Y-123706706D01*
X165038888Y-123686853D01*
X164951944Y-123668372D01*
X164951939Y-123668372D01*
X164945487Y-123667000D01*
X164911058Y-123667000D01*
X164842937Y-123646998D01*
X164796444Y-123593342D01*
X164786340Y-123523068D01*
X164801939Y-123478000D01*
X164831223Y-123427279D01*
X164831224Y-123427278D01*
X164834527Y-123421556D01*
X164893542Y-123239928D01*
X164913504Y-123050000D01*
X164895188Y-122875734D01*
X164894232Y-122866635D01*
X164894232Y-122866633D01*
X164893542Y-122860072D01*
X164891504Y-122853798D01*
X164891502Y-122853791D01*
X164880042Y-122818521D01*
X164878015Y-122747553D01*
X164914678Y-122686756D01*
X164973678Y-122656339D01*
X165122137Y-122624783D01*
X165128168Y-122622098D01*
X165290571Y-122549792D01*
X165290573Y-122549791D01*
X165296601Y-122547107D01*
X165451102Y-122434855D01*
X165470009Y-122413857D01*
X165574470Y-122297841D01*
X165574471Y-122297840D01*
X165578889Y-122292933D01*
X165662454Y-122148194D01*
X165671072Y-122133268D01*
X165671073Y-122133267D01*
X165674376Y-122127545D01*
X165733391Y-121945917D01*
X165739966Y-121883365D01*
X165752663Y-121762554D01*
X165753353Y-121755989D01*
X165744840Y-121674989D01*
X165734081Y-121572624D01*
X165734081Y-121572622D01*
X165733391Y-121566061D01*
X165674376Y-121384433D01*
X165578889Y-121219045D01*
X165474287Y-121102872D01*
X165443571Y-121038867D01*
X165452335Y-120968413D01*
X165493863Y-120916628D01*
X165539119Y-120883748D01*
X165539121Y-120883746D01*
X165544463Y-120879865D01*
X165567650Y-120854113D01*
X165667831Y-120742851D01*
X165667835Y-120742846D01*
X165672250Y-120737943D01*
X165767737Y-120572555D01*
X165826752Y-120390927D01*
X165827540Y-120383435D01*
X165846024Y-120207564D01*
X165846714Y-120200999D01*
X165837892Y-120117060D01*
X165827442Y-120017634D01*
X165827442Y-120017632D01*
X165826752Y-120011071D01*
X165767737Y-119829443D01*
X165672250Y-119664055D01*
X165643969Y-119632645D01*
X165548885Y-119527044D01*
X165548884Y-119527043D01*
X165544463Y-119522133D01*
X165409361Y-119423975D01*
X165395304Y-119413762D01*
X165395303Y-119413761D01*
X165389962Y-119409881D01*
X165383934Y-119407197D01*
X165383932Y-119407196D01*
X165221529Y-119334890D01*
X165221528Y-119334890D01*
X165215498Y-119332205D01*
X165122098Y-119312352D01*
X165035154Y-119293871D01*
X165035149Y-119293871D01*
X165028697Y-119292499D01*
X164837723Y-119292499D01*
X164831271Y-119293871D01*
X164831266Y-119293871D01*
X164744322Y-119312352D01*
X164650922Y-119332205D01*
X164644892Y-119334890D01*
X164644891Y-119334890D01*
X164482488Y-119407196D01*
X164482486Y-119407197D01*
X164476458Y-119409881D01*
X164471117Y-119413761D01*
X164471116Y-119413762D01*
X164457059Y-119423975D01*
X164321957Y-119522133D01*
X164317536Y-119527043D01*
X164317535Y-119527044D01*
X164222452Y-119632645D01*
X164194170Y-119664055D01*
X164098683Y-119829443D01*
X164039668Y-120011071D01*
X164038978Y-120017632D01*
X164038978Y-120017634D01*
X164028528Y-120117060D01*
X164019706Y-120200999D01*
X164020396Y-120207564D01*
X164038881Y-120383435D01*
X164039668Y-120390927D01*
X164098683Y-120572555D01*
X164194170Y-120737943D01*
X164298772Y-120854116D01*
X164329488Y-120918121D01*
X164320724Y-120988575D01*
X164279196Y-121040360D01*
X164234059Y-121073154D01*
X164228596Y-121077123D01*
X164224175Y-121082033D01*
X164224174Y-121082034D01*
X164167831Y-121144610D01*
X164100809Y-121219045D01*
X164005322Y-121384433D01*
X163946307Y-121566061D01*
X163945617Y-121572622D01*
X163945617Y-121572624D01*
X163934858Y-121674989D01*
X163926345Y-121755989D01*
X163927035Y-121762554D01*
X163939733Y-121883365D01*
X163946307Y-121945917D01*
X163948345Y-121952191D01*
X163948347Y-121952198D01*
X163959807Y-121987468D01*
X163961834Y-122058436D01*
X163925171Y-122119233D01*
X163866171Y-122149650D01*
X163717712Y-122181206D01*
X163711682Y-122183891D01*
X163711681Y-122183891D01*
X163549278Y-122256197D01*
X163549276Y-122256198D01*
X163543248Y-122258882D01*
X163537907Y-122262762D01*
X163537906Y-122262763D01*
X163489626Y-122297841D01*
X163388747Y-122371134D01*
X163384326Y-122376044D01*
X163384325Y-122376045D01*
X163284208Y-122487237D01*
X163260960Y-122513056D01*
X163165473Y-122678444D01*
X163106458Y-122860072D01*
X163105768Y-122866633D01*
X163105768Y-122866635D01*
X163104812Y-122875734D01*
X163086496Y-123050000D01*
X154063504Y-123050000D01*
X154045188Y-122875734D01*
X154044232Y-122866635D01*
X154044232Y-122866633D01*
X154043542Y-122860072D01*
X154041504Y-122853798D01*
X154041502Y-122853791D01*
X154030042Y-122818521D01*
X154028015Y-122747553D01*
X154064678Y-122686756D01*
X154123678Y-122656339D01*
X154272137Y-122624783D01*
X154278168Y-122622098D01*
X154440571Y-122549792D01*
X154440573Y-122549791D01*
X154446601Y-122547107D01*
X154601102Y-122434855D01*
X154620009Y-122413857D01*
X154724470Y-122297841D01*
X154724471Y-122297840D01*
X154728889Y-122292933D01*
X154812454Y-122148194D01*
X154821072Y-122133268D01*
X154821073Y-122133267D01*
X154824376Y-122127545D01*
X154883391Y-121945917D01*
X154889966Y-121883365D01*
X154902663Y-121762554D01*
X154903353Y-121755989D01*
X154894840Y-121674989D01*
X154884081Y-121572624D01*
X154884081Y-121572622D01*
X154883391Y-121566061D01*
X154824376Y-121384433D01*
X154728889Y-121219045D01*
X154704046Y-121191454D01*
X154673330Y-121127448D01*
X154682095Y-121056995D01*
X154723623Y-121005210D01*
X154730245Y-121000399D01*
X154750264Y-120985854D01*
X154780172Y-120952638D01*
X154873632Y-120848840D01*
X154873633Y-120848839D01*
X154878051Y-120843932D01*
X154973538Y-120678544D01*
X155032553Y-120496916D01*
X155052515Y-120306988D01*
X155044002Y-120225988D01*
X155033243Y-120123623D01*
X155033243Y-120123621D01*
X155032553Y-120117060D01*
X154973538Y-119935432D01*
X154878051Y-119770044D01*
X154811030Y-119695609D01*
X154754686Y-119633033D01*
X154754685Y-119633032D01*
X154750264Y-119628122D01*
X154642469Y-119549804D01*
X154601105Y-119519751D01*
X154601104Y-119519750D01*
X154595763Y-119515870D01*
X154589735Y-119513186D01*
X154589733Y-119513185D01*
X154427330Y-119440879D01*
X154427329Y-119440879D01*
X154421299Y-119438194D01*
X154327899Y-119418341D01*
X154240955Y-119399860D01*
X154240950Y-119399860D01*
X154234498Y-119398488D01*
X154043524Y-119398488D01*
X154037072Y-119399860D01*
X154037067Y-119399860D01*
X153950123Y-119418341D01*
X153856723Y-119438194D01*
X153850693Y-119440879D01*
X153850692Y-119440879D01*
X153688289Y-119513185D01*
X153688287Y-119513186D01*
X153682259Y-119515870D01*
X153676918Y-119519750D01*
X153676917Y-119519751D01*
X153635553Y-119549804D01*
X153527758Y-119628122D01*
X153523337Y-119633032D01*
X153523336Y-119633033D01*
X153466993Y-119695609D01*
X153399971Y-119770044D01*
X153304484Y-119935432D01*
X153245469Y-120117060D01*
X153244779Y-120123621D01*
X153244779Y-120123623D01*
X153234020Y-120225988D01*
X153225507Y-120306988D01*
X153245469Y-120496916D01*
X153304484Y-120678544D01*
X153399971Y-120843932D01*
X153424814Y-120871523D01*
X153455530Y-120935529D01*
X153446765Y-121005982D01*
X153405237Y-121057767D01*
X153378596Y-121077123D01*
X153374175Y-121082033D01*
X153374174Y-121082034D01*
X153317831Y-121144610D01*
X153250809Y-121219045D01*
X153155322Y-121384433D01*
X153096307Y-121566061D01*
X153095617Y-121572622D01*
X153095617Y-121572624D01*
X153084858Y-121674989D01*
X153076345Y-121755989D01*
X153077035Y-121762554D01*
X153089733Y-121883365D01*
X153096307Y-121945917D01*
X153098345Y-121952191D01*
X153098347Y-121952198D01*
X153109807Y-121987468D01*
X153111834Y-122058436D01*
X153075171Y-122119233D01*
X153016171Y-122149650D01*
X152867712Y-122181206D01*
X152861682Y-122183891D01*
X152861681Y-122183891D01*
X152699278Y-122256197D01*
X152699276Y-122256198D01*
X152693248Y-122258882D01*
X152687907Y-122262762D01*
X152687906Y-122262763D01*
X152639626Y-122297841D01*
X152538747Y-122371134D01*
X152534326Y-122376044D01*
X152534325Y-122376045D01*
X152434208Y-122487237D01*
X152410960Y-122513056D01*
X152315473Y-122678444D01*
X152256458Y-122860072D01*
X152255768Y-122866633D01*
X152255768Y-122866635D01*
X152254812Y-122875734D01*
X152236496Y-123050000D01*
X143737048Y-123050000D01*
X143718042Y-122869171D01*
X143659027Y-122687543D01*
X143650470Y-122672721D01*
X143566841Y-122527873D01*
X143563540Y-122522155D01*
X143518986Y-122472672D01*
X143475126Y-122423961D01*
X143444408Y-122359954D01*
X143453173Y-122289500D01*
X143475123Y-122255344D01*
X143572639Y-122147042D01*
X143668126Y-121981654D01*
X143727141Y-121800026D01*
X143728098Y-121790927D01*
X143746413Y-121616663D01*
X143747103Y-121610098D01*
X143734651Y-121491626D01*
X143727831Y-121426733D01*
X143727831Y-121426731D01*
X143727141Y-121420170D01*
X143668126Y-121238542D01*
X143616828Y-121149692D01*
X143600091Y-121080699D01*
X143623311Y-121013607D01*
X143674700Y-120971587D01*
X143705946Y-120957676D01*
X143705953Y-120957672D01*
X143711979Y-120954989D01*
X143750580Y-120926944D01*
X143810033Y-120883748D01*
X143866480Y-120842737D01*
X143873368Y-120835088D01*
X143989848Y-120705723D01*
X143989849Y-120705722D01*
X143994267Y-120700815D01*
X144065014Y-120578278D01*
X144086450Y-120541150D01*
X144086451Y-120541149D01*
X144089754Y-120535427D01*
X144148769Y-120353799D01*
X144152579Y-120317554D01*
X144168041Y-120170436D01*
X144168731Y-120163871D01*
X144163151Y-120110782D01*
X144149459Y-119980506D01*
X144149459Y-119980504D01*
X144148769Y-119973943D01*
X144089754Y-119792315D01*
X144057786Y-119736944D01*
X144019004Y-119669773D01*
X143994267Y-119626927D01*
X143979158Y-119610146D01*
X143870902Y-119489916D01*
X143870901Y-119489915D01*
X143866480Y-119485005D01*
X143861139Y-119481125D01*
X143861134Y-119481120D01*
X143848287Y-119471787D01*
X143804932Y-119415566D01*
X143797036Y-119356681D01*
X143813504Y-119200000D01*
X143793542Y-119010072D01*
X143734527Y-118828444D01*
X143639040Y-118663056D01*
X143511253Y-118521134D01*
X143356752Y-118408882D01*
X143350724Y-118406198D01*
X143350722Y-118406197D01*
X143188319Y-118333891D01*
X143188318Y-118333891D01*
X143182288Y-118331206D01*
X143088888Y-118311353D01*
X143001944Y-118292872D01*
X143001939Y-118292872D01*
X142995487Y-118291500D01*
X142804513Y-118291500D01*
X142798061Y-118292872D01*
X142798056Y-118292872D01*
X142711112Y-118311353D01*
X142617712Y-118331206D01*
X142611682Y-118333891D01*
X142611681Y-118333891D01*
X142449278Y-118406197D01*
X142449276Y-118406198D01*
X142443248Y-118408882D01*
X142288747Y-118521134D01*
X142160960Y-118663056D01*
X142065473Y-118828444D01*
X142006458Y-119010072D01*
X141986496Y-119200000D01*
X141987186Y-119206564D01*
X141987186Y-119206565D01*
X142003708Y-119363759D01*
X142006458Y-119389928D01*
X142065473Y-119571556D01*
X142068776Y-119577278D01*
X142068777Y-119577279D01*
X142098131Y-119628122D01*
X142160960Y-119736944D01*
X142165378Y-119741851D01*
X142165379Y-119741852D01*
X142267505Y-119855274D01*
X142288747Y-119878866D01*
X142294088Y-119882746D01*
X142294093Y-119882751D01*
X142306940Y-119892084D01*
X142350295Y-119948305D01*
X142358191Y-120007190D01*
X142341723Y-120163871D01*
X142342413Y-120170436D01*
X142357876Y-120317554D01*
X142361685Y-120353799D01*
X142420700Y-120535427D01*
X142471998Y-120624277D01*
X142488735Y-120693270D01*
X142465515Y-120760362D01*
X142414126Y-120802382D01*
X142382880Y-120816293D01*
X142382873Y-120816297D01*
X142376847Y-120818980D01*
X142371506Y-120822860D01*
X142371505Y-120822861D01*
X142328491Y-120854113D01*
X142222346Y-120931232D01*
X142217925Y-120936142D01*
X142217924Y-120936143D01*
X142107166Y-121059153D01*
X142094559Y-121073154D01*
X142045488Y-121158148D01*
X142007630Y-121223720D01*
X141999072Y-121238542D01*
X141940057Y-121420170D01*
X141939367Y-121426731D01*
X141939367Y-121426733D01*
X141932547Y-121491626D01*
X141920095Y-121610098D01*
X141920785Y-121616663D01*
X141939101Y-121790927D01*
X141940057Y-121800026D01*
X141999072Y-121981654D01*
X142094559Y-122147042D01*
X142098974Y-122151945D01*
X142098978Y-122151950D01*
X142182973Y-122245236D01*
X142213691Y-122309243D01*
X142204926Y-122379697D01*
X142182976Y-122413853D01*
X142085460Y-122522155D01*
X142082159Y-122527873D01*
X141998531Y-122672721D01*
X141989973Y-122687543D01*
X141930958Y-122869171D01*
X141910996Y-123059099D01*
X137100000Y-123059099D01*
X137100000Y-121700000D01*
X139661996Y-121700000D01*
X139662686Y-121706565D01*
X139672213Y-121797205D01*
X139681958Y-121889928D01*
X139740973Y-122071556D01*
X139836460Y-122236944D01*
X139840878Y-122241851D01*
X139840879Y-122241852D01*
X139947638Y-122360420D01*
X139964247Y-122378866D01*
X140118748Y-122491118D01*
X140124776Y-122493802D01*
X140124778Y-122493803D01*
X140287181Y-122566109D01*
X140293212Y-122568794D01*
X140386613Y-122588647D01*
X140473556Y-122607128D01*
X140473561Y-122607128D01*
X140480013Y-122608500D01*
X140670987Y-122608500D01*
X140677439Y-122607128D01*
X140677444Y-122607128D01*
X140764387Y-122588647D01*
X140857788Y-122568794D01*
X140863819Y-122566109D01*
X141026222Y-122493803D01*
X141026224Y-122493802D01*
X141032252Y-122491118D01*
X141186753Y-122378866D01*
X141203362Y-122360420D01*
X141310121Y-122241852D01*
X141310122Y-122241851D01*
X141314540Y-122236944D01*
X141410027Y-122071556D01*
X141469042Y-121889928D01*
X141478788Y-121797205D01*
X141488314Y-121706565D01*
X141489004Y-121700000D01*
X141476037Y-121576624D01*
X141469732Y-121516635D01*
X141469732Y-121516633D01*
X141469042Y-121510072D01*
X141410027Y-121328444D01*
X141314540Y-121163056D01*
X141291405Y-121137362D01*
X141260688Y-121073355D01*
X141269452Y-121002901D01*
X141291405Y-120968742D01*
X141324621Y-120931852D01*
X141324622Y-120931851D01*
X141329040Y-120926944D01*
X141394450Y-120813650D01*
X141421223Y-120767279D01*
X141421224Y-120767278D01*
X141424527Y-120761556D01*
X141483542Y-120579928D01*
X141484978Y-120566270D01*
X141502814Y-120396565D01*
X141503504Y-120390000D01*
X141498451Y-120341926D01*
X141484232Y-120206635D01*
X141484232Y-120206633D01*
X141483542Y-120200072D01*
X141424527Y-120018444D01*
X141402624Y-119980506D01*
X141337253Y-119867282D01*
X141329040Y-119853056D01*
X141224493Y-119736944D01*
X141205675Y-119716045D01*
X141205674Y-119716044D01*
X141201253Y-119711134D01*
X141086997Y-119628122D01*
X141052094Y-119602763D01*
X141052093Y-119602762D01*
X141046752Y-119598882D01*
X141040724Y-119596198D01*
X141040722Y-119596197D01*
X140878319Y-119523891D01*
X140878318Y-119523891D01*
X140872288Y-119521206D01*
X140778888Y-119501353D01*
X140691944Y-119482872D01*
X140691939Y-119482872D01*
X140685487Y-119481500D01*
X140494513Y-119481500D01*
X140488061Y-119482872D01*
X140488056Y-119482872D01*
X140401112Y-119501353D01*
X140307712Y-119521206D01*
X140301682Y-119523891D01*
X140301681Y-119523891D01*
X140139278Y-119596197D01*
X140139276Y-119596198D01*
X140133248Y-119598882D01*
X140127907Y-119602762D01*
X140127906Y-119602763D01*
X140093003Y-119628122D01*
X139978747Y-119711134D01*
X139974326Y-119716044D01*
X139974325Y-119716045D01*
X139955508Y-119736944D01*
X139850960Y-119853056D01*
X139842747Y-119867282D01*
X139777377Y-119980506D01*
X139755473Y-120018444D01*
X139696458Y-120200072D01*
X139695768Y-120206633D01*
X139695768Y-120206635D01*
X139681549Y-120341926D01*
X139676496Y-120390000D01*
X139677186Y-120396565D01*
X139695023Y-120566270D01*
X139696458Y-120579928D01*
X139755473Y-120761556D01*
X139758776Y-120767278D01*
X139758777Y-120767279D01*
X139785550Y-120813650D01*
X139850960Y-120926944D01*
X139855378Y-120931851D01*
X139855379Y-120931852D01*
X139874095Y-120952638D01*
X139904812Y-121016645D01*
X139896048Y-121087099D01*
X139874095Y-121121258D01*
X139856290Y-121141033D01*
X139836460Y-121163056D01*
X139740973Y-121328444D01*
X139681958Y-121510072D01*
X139681268Y-121516633D01*
X139681268Y-121516635D01*
X139674963Y-121576624D01*
X139661996Y-121700000D01*
X137100000Y-121700000D01*
X137100000Y-117384000D01*
X137120002Y-117315879D01*
X137173658Y-117269386D01*
X137226000Y-117258000D01*
X223316000Y-117258000D01*
X223384121Y-117278002D01*
G37*
%TD.AperFunction*%
%TD*%
M02*
