%TF.GenerationSoftware,KiCad,Pcbnew,6.0.0+dfsg1-2*%
%TF.CreationDate,2022-02-11T22:47:22+03:00*%
%TF.ProjectId,simm3016_n,73696d6d-3330-4313-965f-6e2e6b696361,rev?*%
%TF.SameCoordinates,Original*%
%TF.FileFunction,Paste,Top*%
%TF.FilePolarity,Positive*%
%FSLAX46Y46*%
G04 Gerber Fmt 4.6, Leading zero omitted, Abs format (unit mm)*
G04 Created by KiCad (PCBNEW 6.0.0+dfsg1-2) date 2022-02-11 22:47:22*
%MOMM*%
%LPD*%
G01*
G04 APERTURE LIST*
G04 Aperture macros list*
%AMRoundRect*
0 Rectangle with rounded corners*
0 $1 Rounding radius*
0 $2 $3 $4 $5 $6 $7 $8 $9 X,Y pos of 4 corners*
0 Add a 4 corners polygon primitive as box body*
4,1,4,$2,$3,$4,$5,$6,$7,$8,$9,$2,$3,0*
0 Add four circle primitives for the rounded corners*
1,1,$1+$1,$2,$3*
1,1,$1+$1,$4,$5*
1,1,$1+$1,$6,$7*
1,1,$1+$1,$8,$9*
0 Add four rect primitives between the rounded corners*
20,1,$1+$1,$2,$3,$4,$5,0*
20,1,$1+$1,$4,$5,$6,$7,0*
20,1,$1+$1,$6,$7,$8,$9,0*
20,1,$1+$1,$8,$9,$2,$3,0*%
G04 Aperture macros list end*
%ADD10R,3.000000X0.600000*%
%ADD11RoundRect,0.250000X-0.475000X0.337500X-0.475000X-0.337500X0.475000X-0.337500X0.475000X0.337500X0*%
G04 APERTURE END LIST*
D10*
%TO.C,D8*%
X221830000Y-133120000D03*
X221830000Y-131850000D03*
X221830000Y-130580000D03*
X221830000Y-129310000D03*
X221830000Y-128040000D03*
X221830000Y-126770000D03*
X221800000Y-124200000D03*
X221800000Y-122930000D03*
X221800000Y-121660000D03*
X221800000Y-120390000D03*
X221800000Y-119120000D03*
X221800000Y-117850000D03*
X215000000Y-117900000D03*
X214970000Y-119120000D03*
X214970000Y-120390000D03*
X214970000Y-121660000D03*
X214970000Y-122930000D03*
X214970000Y-124200000D03*
X215000000Y-126800000D03*
X215000000Y-128070000D03*
X215000000Y-129340000D03*
X215000000Y-130610000D03*
X215000000Y-131880000D03*
X215000000Y-133150000D03*
%TD*%
%TO.C,D4*%
X178180000Y-133120000D03*
X178180000Y-131850000D03*
X178180000Y-130580000D03*
X178180000Y-129310000D03*
X178180000Y-128040000D03*
X178180000Y-126770000D03*
X178150000Y-124200000D03*
X178150000Y-122930000D03*
X178150000Y-121660000D03*
X178150000Y-120390000D03*
X178150000Y-119120000D03*
X178150000Y-117850000D03*
X171350000Y-117900000D03*
X171320000Y-119120000D03*
X171320000Y-120390000D03*
X171320000Y-121660000D03*
X171320000Y-122930000D03*
X171320000Y-124200000D03*
X171350000Y-126800000D03*
X171350000Y-128070000D03*
X171350000Y-129340000D03*
X171350000Y-130610000D03*
X171350000Y-131880000D03*
X171350000Y-133150000D03*
%TD*%
%TO.C,D5*%
X189180000Y-133120000D03*
X189180000Y-131850000D03*
X189180000Y-130580000D03*
X189180000Y-129310000D03*
X189180000Y-128040000D03*
X189180000Y-126770000D03*
X189150000Y-124200000D03*
X189150000Y-122930000D03*
X189150000Y-121660000D03*
X189150000Y-120390000D03*
X189150000Y-119120000D03*
X189150000Y-117850000D03*
X182350000Y-117900000D03*
X182320000Y-119120000D03*
X182320000Y-120390000D03*
X182320000Y-121660000D03*
X182320000Y-122930000D03*
X182320000Y-124200000D03*
X182350000Y-126800000D03*
X182350000Y-128070000D03*
X182350000Y-129340000D03*
X182350000Y-130610000D03*
X182350000Y-131880000D03*
X182350000Y-133150000D03*
%TD*%
%TO.C,D1*%
X145180000Y-133120000D03*
X145180000Y-131850000D03*
X145180000Y-130580000D03*
X145180000Y-129310000D03*
X145180000Y-128040000D03*
X145180000Y-126770000D03*
X145150000Y-124200000D03*
X145150000Y-122930000D03*
X145150000Y-121660000D03*
X145150000Y-120390000D03*
X145150000Y-119120000D03*
X145150000Y-117850000D03*
X138350000Y-117900000D03*
X138320000Y-119120000D03*
X138320000Y-120390000D03*
X138320000Y-121660000D03*
X138320000Y-122930000D03*
X138320000Y-124200000D03*
X138350000Y-126800000D03*
X138350000Y-128070000D03*
X138350000Y-129340000D03*
X138350000Y-130610000D03*
X138350000Y-131880000D03*
X138350000Y-133150000D03*
%TD*%
%TO.C,D6*%
X200180000Y-133120000D03*
X200180000Y-131850000D03*
X200180000Y-130580000D03*
X200180000Y-129310000D03*
X200180000Y-128040000D03*
X200180000Y-126770000D03*
X200150000Y-124200000D03*
X200150000Y-122930000D03*
X200150000Y-121660000D03*
X200150000Y-120390000D03*
X200150000Y-119120000D03*
X200150000Y-117850000D03*
X193350000Y-117900000D03*
X193320000Y-119120000D03*
X193320000Y-120390000D03*
X193320000Y-121660000D03*
X193320000Y-122930000D03*
X193320000Y-124200000D03*
X193350000Y-126800000D03*
X193350000Y-128070000D03*
X193350000Y-129340000D03*
X193350000Y-130610000D03*
X193350000Y-131880000D03*
X193350000Y-133150000D03*
%TD*%
%TO.C,D2*%
X156180000Y-133120000D03*
X156180000Y-131850000D03*
X156180000Y-130580000D03*
X156180000Y-129310000D03*
X156180000Y-128040000D03*
X156180000Y-126770000D03*
X156150000Y-124200000D03*
X156150000Y-122930000D03*
X156150000Y-121660000D03*
X156150000Y-120390000D03*
X156150000Y-119120000D03*
X156150000Y-117850000D03*
X149350000Y-117900000D03*
X149320000Y-119120000D03*
X149320000Y-120390000D03*
X149320000Y-121660000D03*
X149320000Y-122930000D03*
X149320000Y-124200000D03*
X149350000Y-126800000D03*
X149350000Y-128070000D03*
X149350000Y-129340000D03*
X149350000Y-130610000D03*
X149350000Y-131880000D03*
X149350000Y-133150000D03*
%TD*%
%TO.C,D3*%
X167180000Y-133120000D03*
X167180000Y-131850000D03*
X167180000Y-130580000D03*
X167180000Y-129310000D03*
X167180000Y-128040000D03*
X167180000Y-126770000D03*
X167150000Y-124200000D03*
X167150000Y-122930000D03*
X167150000Y-121660000D03*
X167150000Y-120390000D03*
X167150000Y-119120000D03*
X167150000Y-117850000D03*
X160350000Y-117900000D03*
X160320000Y-119120000D03*
X160320000Y-120390000D03*
X160320000Y-121660000D03*
X160320000Y-122930000D03*
X160320000Y-124200000D03*
X160350000Y-126800000D03*
X160350000Y-128070000D03*
X160350000Y-129340000D03*
X160350000Y-130610000D03*
X160350000Y-131880000D03*
X160350000Y-133150000D03*
%TD*%
%TO.C,D7*%
X210930000Y-133120000D03*
X210930000Y-131850000D03*
X210930000Y-130580000D03*
X210930000Y-129310000D03*
X210930000Y-128040000D03*
X210930000Y-126770000D03*
X210900000Y-124200000D03*
X210900000Y-122930000D03*
X210900000Y-121660000D03*
X210900000Y-120390000D03*
X210900000Y-119120000D03*
X210900000Y-117850000D03*
X204100000Y-117900000D03*
X204070000Y-119120000D03*
X204070000Y-120390000D03*
X204070000Y-121660000D03*
X204070000Y-122930000D03*
X204070000Y-124200000D03*
X204100000Y-126800000D03*
X204100000Y-128070000D03*
X204100000Y-129340000D03*
X204100000Y-130610000D03*
X204100000Y-131880000D03*
X204100000Y-133150000D03*
%TD*%
D11*
%TO.C,C6*%
X200200000Y-135062500D03*
X200200000Y-137137500D03*
%TD*%
%TO.C,C2*%
X156300000Y-135062500D03*
X156300000Y-137137500D03*
%TD*%
%TO.C,C1*%
X145200000Y-135062500D03*
X145200000Y-137137500D03*
%TD*%
%TO.C,C7*%
X210900000Y-135062500D03*
X210900000Y-137137500D03*
%TD*%
%TO.C,C3*%
X167200000Y-135062500D03*
X167200000Y-137137500D03*
%TD*%
%TO.C,C5*%
X189300000Y-134925000D03*
X189300000Y-137000000D03*
%TD*%
%TO.C,C8*%
X216600000Y-135062500D03*
X216600000Y-137137500D03*
%TD*%
%TO.C,C4*%
X178300000Y-135062500D03*
X178300000Y-137137500D03*
%TD*%
M02*
