%TF.GenerationSoftware,KiCad,Pcbnew,6.0.0+dfsg1-2*%
%TF.CreationDate,2022-02-11T22:47:22+03:00*%
%TF.ProjectId,simm3016_n,73696d6d-3330-4313-965f-6e2e6b696361,rev?*%
%TF.SameCoordinates,Original*%
%TF.FileFunction,Copper,L4,Bot*%
%TF.FilePolarity,Positive*%
%FSLAX46Y46*%
G04 Gerber Fmt 4.6, Leading zero omitted, Abs format (unit mm)*
G04 Created by KiCad (PCBNEW 6.0.0+dfsg1-2) date 2022-02-11 22:47:22*
%MOMM*%
%LPD*%
G01*
G04 APERTURE LIST*
%TA.AperFunction,ComponentPad*%
%ADD10R,1.900000X2.000000*%
%TD*%
%TA.AperFunction,ViaPad*%
%ADD11C,0.800000*%
%TD*%
%TA.AperFunction,Conductor*%
%ADD12C,0.250000*%
%TD*%
G04 APERTURE END LIST*
D10*
%TO.P,J1,1,Pin_1*%
%TO.N,+5V*%
X142350000Y-144750000D03*
%TO.P,J1,2,Pin_2*%
%TO.N,/~{CAS}*%
X144890000Y-144750000D03*
%TO.P,J1,3,Pin_3*%
%TO.N,/DQ0*%
X147430000Y-144750000D03*
%TO.P,J1,4,Pin_4*%
%TO.N,/A0*%
X149970000Y-144750000D03*
%TO.P,J1,5,Pin_5*%
%TO.N,/A1*%
X152510000Y-144750000D03*
%TO.P,J1,6,Pin_6*%
%TO.N,/DQ1*%
X155050000Y-144750000D03*
%TO.P,J1,7,Pin_7*%
%TO.N,/A2*%
X157590000Y-144750000D03*
%TO.P,J1,8,Pin_8*%
%TO.N,/A3*%
X160130000Y-144750000D03*
%TO.P,J1,9,Pin_9*%
%TO.N,GNDD*%
X162670000Y-144750000D03*
%TO.P,J1,10,Pin_10*%
%TO.N,/DQ2*%
X165210000Y-144750000D03*
%TO.P,J1,11,Pin_11*%
%TO.N,/A4*%
X167750000Y-144750000D03*
%TO.P,J1,12,Pin_12*%
%TO.N,/A5*%
X170290000Y-144750000D03*
%TO.P,J1,13,Pin_13*%
%TO.N,/DQ3*%
X172830000Y-144750000D03*
%TO.P,J1,14,Pin_14*%
%TO.N,/A6*%
X175370000Y-144750000D03*
%TO.P,J1,15,Pin_15*%
%TO.N,/A7*%
X177910000Y-144750000D03*
%TO.P,J1,16,Pin_16*%
%TO.N,/DQ4*%
X180450000Y-144750000D03*
%TO.P,J1,17,Pin_17*%
%TO.N,/A8*%
X182990000Y-144750000D03*
%TO.P,J1,18,Pin_18*%
%TO.N,/A9*%
X185530000Y-144750000D03*
%TO.P,J1,19,Pin_19*%
%TO.N,/A10*%
X188070000Y-144750000D03*
%TO.P,J1,20,Pin_20*%
%TO.N,/DQ5*%
X190610000Y-144750000D03*
%TO.P,J1,21,Pin_21*%
%TO.N,/~{WE}*%
X193150000Y-144750000D03*
%TO.P,J1,22,Pin_22*%
%TO.N,GNDD*%
X195690000Y-144750000D03*
%TO.P,J1,23,Pin_23*%
%TO.N,/DQ6*%
X198230000Y-144750000D03*
%TO.P,J1,24,Pin_24*%
%TO.N,/A11*%
X200770000Y-144750000D03*
%TO.P,J1,25,Pin_25*%
%TO.N,/DQ7*%
X203310000Y-144750000D03*
%TO.P,J1,26,Pin_26*%
%TO.N,GNDD*%
X205850000Y-144750000D03*
%TO.P,J1,27,Pin_27*%
%TO.N,/~{RAS}*%
X208390000Y-144750000D03*
%TO.P,J1,28,Pin_28*%
%TO.N,unconnected-(J1-Pad28)*%
X210930000Y-144750000D03*
%TO.P,J1,29,Pin_29*%
%TO.N,unconnected-(J1-Pad29)*%
X213470000Y-144750000D03*
%TO.P,J1,30,Pin_30*%
%TO.N,+5V*%
X216010000Y-144750000D03*
%TD*%
D11*
%TO.N,+5V*%
X200200000Y-133950000D03*
X178300000Y-133900000D03*
X210900000Y-134000000D03*
X156200000Y-133900000D03*
X167200000Y-134000000D03*
X189300000Y-133900000D03*
X145200000Y-134000000D03*
X218542500Y-133120000D03*
%TO.N,GNDD*%
X140300000Y-117900000D03*
X173450000Y-117950000D03*
X178300000Y-138200000D03*
X206150000Y-117899989D03*
X195400000Y-117899989D03*
X184350000Y-117899989D03*
X145431053Y-137968947D03*
X167200000Y-138200000D03*
X200200000Y-138200000D03*
X156300000Y-138300000D03*
X189300000Y-138000000D03*
X151350000Y-117900000D03*
X210900000Y-138100000D03*
X162450000Y-117900000D03*
X216600000Y-138100000D03*
X216950000Y-117950000D03*
%TO.N,/~{WE}*%
X196264511Y-129985489D03*
%TO.N,/~{RAS}*%
X206954511Y-127445489D03*
%TO.N,/A11*%
X195449502Y-126650000D03*
X164950000Y-126650000D03*
X153950000Y-126650000D03*
X208600000Y-126650000D03*
X143073522Y-126800000D03*
X173475500Y-126677248D03*
X218975500Y-126696501D03*
X187150000Y-126650000D03*
X197550000Y-126650000D03*
X176024500Y-126648381D03*
%TO.N,/A10*%
X208350000Y-124500000D03*
X176100000Y-124500000D03*
X143073522Y-124508100D03*
X164850000Y-124575500D03*
X219300000Y-124200000D03*
X153900000Y-124550000D03*
X197650000Y-124500000D03*
X186900000Y-124500000D03*
%TO.N,/A0*%
X197650000Y-123050000D03*
X219550000Y-123050000D03*
X208500000Y-123050000D03*
X175300000Y-123050000D03*
X142900000Y-133000000D03*
X142824500Y-123059099D03*
X186200000Y-123050000D03*
X164000000Y-123050000D03*
X153150000Y-123050000D03*
%TO.N,/A1*%
X208709989Y-121600999D03*
X140575500Y-121700000D03*
X219540011Y-121759989D03*
X146800000Y-134350000D03*
X175883051Y-121658536D03*
X197940011Y-121600999D03*
X153989849Y-121755989D03*
X142833599Y-121610098D03*
X164839849Y-121755989D03*
X186832116Y-121681554D03*
%TO.N,/A2*%
X208989011Y-120151998D03*
X143255227Y-120163871D03*
X142174500Y-130000000D03*
X154139011Y-120306988D03*
X187039011Y-120232553D03*
X219710989Y-120310989D03*
X176039011Y-120209535D03*
X164933210Y-120200999D03*
X198090477Y-120151998D03*
%TO.N,/A3*%
X142900000Y-119200000D03*
X159800000Y-135100000D03*
%TO.N,/A4*%
X147900000Y-141250000D03*
%TO.N,/A5*%
X148550000Y-142350000D03*
X140590000Y-120390000D03*
X167500000Y-142350000D03*
X146350000Y-142000000D03*
%TO.N,/A6*%
X211650000Y-141800000D03*
X220704605Y-125144687D03*
X204350000Y-137800000D03*
X191350000Y-141350000D03*
X194950000Y-142000000D03*
X183650000Y-142100000D03*
X206400000Y-141300000D03*
%TO.N,/A7*%
X219700000Y-125900000D03*
X202300000Y-141950000D03*
X182100000Y-142300000D03*
X196350000Y-138250000D03*
X211150000Y-139200000D03*
%TO.N,/A8*%
X174750000Y-125300000D03*
%TO.N,/A9*%
X185500000Y-127400000D03*
%TO.N,/~{CAS}*%
X151550000Y-128700000D03*
%TD*%
D12*
%TO.N,/A6*%
X220704605Y-125144687D02*
X220704605Y-132145395D01*
X211600000Y-141800000D02*
X211650000Y-141800000D01*
X220704605Y-132145395D02*
X220664605Y-132145395D01*
X220664605Y-132145395D02*
X217775000Y-135035000D01*
X217775000Y-135035000D02*
X217775000Y-135625000D01*
X217775000Y-135625000D02*
X211600000Y-141800000D01*
%TO.N,/~{WE}*%
X195625499Y-130624501D02*
X195625499Y-138550099D01*
X196050489Y-138975089D02*
X196050489Y-141924125D01*
X195625499Y-138550099D02*
X196050489Y-138975089D01*
X196050489Y-141924125D02*
X193924614Y-144050000D01*
X196264511Y-129985489D02*
X195625499Y-130624501D01*
%TO.N,/~{RAS}*%
X206954511Y-127445489D02*
X206954511Y-137254511D01*
X206954511Y-137254511D02*
X208390000Y-138690000D01*
X208390000Y-138690000D02*
X208390000Y-144050000D01*
%TO.N,/A11*%
X203050000Y-142300000D02*
X202000000Y-143350000D01*
X203050000Y-126650000D02*
X203050000Y-142300000D01*
X187150000Y-126650000D02*
X176026119Y-126650000D01*
X153950000Y-126650000D02*
X143223522Y-126650000D01*
X164950000Y-126650000D02*
X153950000Y-126650000D01*
X203050000Y-126650000D02*
X197550000Y-126650000D01*
X208800000Y-126450000D02*
X218728999Y-126450000D01*
X208600000Y-126650000D02*
X208800000Y-126450000D01*
X208600000Y-126650000D02*
X203050000Y-126650000D01*
X173448252Y-126650000D02*
X173475500Y-126677248D01*
X176026119Y-126650000D02*
X176024500Y-126648381D01*
X195350000Y-126650000D02*
X187150000Y-126650000D01*
X164950000Y-126650000D02*
X173448252Y-126650000D01*
X218728999Y-126450000D02*
X218975500Y-126696501D01*
X202000000Y-143350000D02*
X201470000Y-143350000D01*
X201470000Y-143350000D02*
X200770000Y-144050000D01*
X195350000Y-126650000D02*
X195449502Y-126650000D01*
X143223522Y-126650000D02*
X143073522Y-126800000D01*
%TO.N,/A10*%
X153900000Y-124550000D02*
X143115422Y-124550000D01*
X186900000Y-124500000D02*
X176100000Y-124500000D01*
X143115422Y-124550000D02*
X143073522Y-124508100D01*
X208650000Y-124200000D02*
X208350000Y-124500000D01*
X196300000Y-124500000D02*
X196300000Y-128400000D01*
X165100000Y-124500000D02*
X164900000Y-124700000D01*
X219300000Y-124200000D02*
X208650000Y-124200000D01*
X164900000Y-124625500D02*
X164850000Y-124575500D01*
X190340000Y-134210000D02*
X190340000Y-138260000D01*
X188070000Y-144050000D02*
X188070000Y-140530000D01*
X153925500Y-124575500D02*
X153900000Y-124550000D01*
X197650000Y-124500000D02*
X196300000Y-124500000D01*
X196300000Y-128400000D02*
X196150000Y-128400000D01*
X208350000Y-124500000D02*
X197650000Y-124500000D01*
X188070000Y-140530000D02*
X190340000Y-138260000D01*
X196150000Y-128400000D02*
X190340000Y-134210000D01*
X164850000Y-124575500D02*
X153925500Y-124575500D01*
X164900000Y-124700000D02*
X164900000Y-124625500D01*
X196300000Y-124500000D02*
X186900000Y-124500000D01*
X176100000Y-124500000D02*
X165100000Y-124500000D01*
%TO.N,/A0*%
X142900000Y-133000000D02*
X142900000Y-128500000D01*
X197650000Y-123050000D02*
X208500000Y-123050000D01*
X186200000Y-123050000D02*
X197650000Y-123050000D01*
X164000000Y-123050000D02*
X175300000Y-123050000D01*
X142349022Y-123534577D02*
X142824500Y-123059099D01*
X142833599Y-123050000D02*
X142824500Y-123059099D01*
X142900000Y-128500000D02*
X142349022Y-127949022D01*
X219300000Y-123050000D02*
X219550000Y-123050000D01*
X142349022Y-127949022D02*
X142349022Y-123534577D01*
X175300000Y-123050000D02*
X186200000Y-123050000D01*
X153150000Y-123050000D02*
X142833599Y-123050000D01*
X153150000Y-123050000D02*
X164000000Y-123050000D01*
X208500000Y-123050000D02*
X219300000Y-123050000D01*
%TO.N,/A1*%
X198099001Y-121759989D02*
X197940011Y-121600999D01*
X146800000Y-134350000D02*
X146200000Y-134950000D01*
X175984504Y-121759989D02*
X175883051Y-121658536D01*
X146200000Y-134950000D02*
X143000000Y-134950000D01*
X164843849Y-121759989D02*
X175781598Y-121759989D01*
X140700000Y-121824500D02*
X140575500Y-121700000D01*
X140700000Y-132650000D02*
X140700000Y-121824500D01*
X143000000Y-134950000D02*
X140700000Y-132650000D01*
X153989849Y-121755989D02*
X153985849Y-121759989D01*
X153985849Y-121759989D02*
X142983490Y-121759989D01*
X186753681Y-121759989D02*
X175984504Y-121759989D01*
X208709989Y-121600999D02*
X208550999Y-121759989D01*
X208868979Y-121759989D02*
X208709989Y-121600999D01*
X153993849Y-121759989D02*
X153989849Y-121755989D01*
X142983490Y-121759989D02*
X142833599Y-121610098D01*
X197940011Y-121600999D02*
X197781021Y-121759989D01*
X208550999Y-121759989D02*
X198099001Y-121759989D01*
X219540011Y-121759989D02*
X208868979Y-121759989D01*
X175781598Y-121759989D02*
X175883051Y-121658536D01*
X186910551Y-121759989D02*
X186832116Y-121681554D01*
X197781021Y-121759989D02*
X186910551Y-121759989D01*
X186832116Y-121681554D02*
X186753681Y-121759989D01*
X164835849Y-121759989D02*
X153993849Y-121759989D01*
X164839849Y-121755989D02*
X164843849Y-121759989D01*
X164839849Y-121755989D02*
X164835849Y-121759989D01*
%TO.N,/A2*%
X141899511Y-129725011D02*
X142174500Y-130000000D01*
X219710989Y-120310989D02*
X143402345Y-120310989D01*
X141899511Y-121519587D02*
X141899511Y-129725011D01*
X143402345Y-120310989D02*
X143255227Y-120163871D01*
X143255227Y-120163871D02*
X141899511Y-121519587D01*
%TO.N,/A3*%
X142804600Y-119200000D02*
X142900000Y-119200000D01*
X159800000Y-135100000D02*
X152550000Y-127850000D01*
X150150000Y-127850000D02*
X144000000Y-134000000D01*
X142800000Y-134000000D02*
X141300000Y-132500000D01*
X141300000Y-132500000D02*
X141300000Y-120704600D01*
X152550000Y-127850000D02*
X150150000Y-127850000D01*
X141300000Y-120704600D02*
X142804600Y-119200000D01*
X144000000Y-134000000D02*
X142800000Y-134000000D01*
%TO.N,/A4*%
X147900000Y-141250000D02*
X167845000Y-141250000D01*
X168472500Y-143327500D02*
X168472500Y-141877500D01*
X167750000Y-144050000D02*
X168472500Y-143327500D01*
X167845000Y-141250000D02*
X168472500Y-141877500D01*
%TO.N,/A5*%
X139180000Y-132780000D02*
X146350000Y-139950000D01*
X140590000Y-120390000D02*
X139180000Y-121800000D01*
X148550000Y-142350000D02*
X167500000Y-142350000D01*
X146350000Y-139950000D02*
X146350000Y-142000000D01*
X139180000Y-121800000D02*
X139180000Y-132780000D01*
%TO.N,/A6*%
X194300000Y-141350000D02*
X191350000Y-141350000D01*
X204350000Y-139250000D02*
X204350000Y-137800000D01*
X175370000Y-144050000D02*
X177844501Y-141575499D01*
X177844501Y-141575499D02*
X183125499Y-141575499D01*
X206400000Y-141300000D02*
X204350000Y-139250000D01*
X194950000Y-142000000D02*
X194300000Y-141350000D01*
X183650000Y-142100000D02*
X183125499Y-141575499D01*
%TO.N,/A7*%
X219700000Y-130850000D02*
X211300000Y-139250000D01*
X177910000Y-144050000D02*
X178535000Y-143425000D01*
X202300000Y-141950000D02*
X198600000Y-138250000D01*
X211200000Y-139250000D02*
X211150000Y-139200000D01*
X219700000Y-125900000D02*
X219700000Y-130850000D01*
X211300000Y-139250000D02*
X211200000Y-139250000D01*
X198600000Y-138250000D02*
X196350000Y-138250000D01*
X178535000Y-143425000D02*
X180975000Y-143425000D01*
X180975000Y-143425000D02*
X182100000Y-142300000D01*
%TO.N,/A8*%
X184374511Y-142665489D02*
X184374511Y-141799911D01*
X174750000Y-132175400D02*
X174750000Y-125300000D01*
X182990000Y-144050000D02*
X184374511Y-142665489D01*
X184374511Y-141799911D02*
X174750000Y-132175400D01*
%TO.N,/A9*%
X185530000Y-127430000D02*
X185500000Y-127400000D01*
X185530000Y-144050000D02*
X185530000Y-127430000D01*
%TO.N,/~{CAS}*%
X151550000Y-134750000D02*
X147160000Y-139140000D01*
X147160000Y-142290000D02*
X145400000Y-144050000D01*
X147160000Y-139140000D02*
X147160000Y-142290000D01*
X151550000Y-128700000D02*
X151550000Y-134750000D01*
%TD*%
M02*
