%TF.GenerationSoftware,KiCad,Pcbnew,6.0.0+dfsg1-2*%
%TF.CreationDate,2022-02-11T22:47:22+03:00*%
%TF.ProjectId,simm3016_n,73696d6d-3330-4313-965f-6e2e6b696361,rev?*%
%TF.SameCoordinates,Original*%
%TF.FileFunction,Legend,Top*%
%TF.FilePolarity,Positive*%
%FSLAX46Y46*%
G04 Gerber Fmt 4.6, Leading zero omitted, Abs format (unit mm)*
G04 Created by KiCad (PCBNEW 6.0.0+dfsg1-2) date 2022-02-11 22:47:22*
%MOMM*%
%LPD*%
G01*
G04 APERTURE LIST*
%ADD10C,0.150000*%
%ADD11C,0.120000*%
G04 APERTURE END LIST*
D10*
X218890476Y-139702380D02*
X219223809Y-140702380D01*
X219557142Y-139702380D01*
X220414285Y-140702380D02*
X219842857Y-140702380D01*
X220128571Y-140702380D02*
X220128571Y-139702380D01*
X220033333Y-139845238D01*
X219938095Y-139940476D01*
X219842857Y-139988095D01*
X140685714Y-144452380D02*
X140114285Y-144452380D01*
X140400000Y-144452380D02*
X140400000Y-143452380D01*
X140304761Y-143595238D01*
X140209523Y-143690476D01*
X140114285Y-143738095D01*
X217340476Y-142902380D02*
X217959523Y-142902380D01*
X217626190Y-143283333D01*
X217769047Y-143283333D01*
X217864285Y-143330952D01*
X217911904Y-143378571D01*
X217959523Y-143473809D01*
X217959523Y-143711904D01*
X217911904Y-143807142D01*
X217864285Y-143854761D01*
X217769047Y-143902380D01*
X217483333Y-143902380D01*
X217388095Y-143854761D01*
X217340476Y-143807142D01*
X218578571Y-142902380D02*
X218673809Y-142902380D01*
X218769047Y-142950000D01*
X218816666Y-142997619D01*
X218864285Y-143092857D01*
X218911904Y-143283333D01*
X218911904Y-143521428D01*
X218864285Y-143711904D01*
X218816666Y-143807142D01*
X218769047Y-143854761D01*
X218673809Y-143902380D01*
X218578571Y-143902380D01*
X218483333Y-143854761D01*
X218435714Y-143807142D01*
X218388095Y-143711904D01*
X218340476Y-143521428D01*
X218340476Y-143283333D01*
X218388095Y-143092857D01*
X218435714Y-142997619D01*
X218483333Y-142950000D01*
X218578571Y-142902380D01*
%TO.C,D8*%
X222321904Y-135082380D02*
X222321904Y-134082380D01*
X222560000Y-134082380D01*
X222702857Y-134130000D01*
X222798095Y-134225238D01*
X222845714Y-134320476D01*
X222893333Y-134510952D01*
X222893333Y-134653809D01*
X222845714Y-134844285D01*
X222798095Y-134939523D01*
X222702857Y-135034761D01*
X222560000Y-135082380D01*
X222321904Y-135082380D01*
X223464761Y-134510952D02*
X223369523Y-134463333D01*
X223321904Y-134415714D01*
X223274285Y-134320476D01*
X223274285Y-134272857D01*
X223321904Y-134177619D01*
X223369523Y-134130000D01*
X223464761Y-134082380D01*
X223655238Y-134082380D01*
X223750476Y-134130000D01*
X223798095Y-134177619D01*
X223845714Y-134272857D01*
X223845714Y-134320476D01*
X223798095Y-134415714D01*
X223750476Y-134463333D01*
X223655238Y-134510952D01*
X223464761Y-134510952D01*
X223369523Y-134558571D01*
X223321904Y-134606190D01*
X223274285Y-134701428D01*
X223274285Y-134891904D01*
X223321904Y-134987142D01*
X223369523Y-135034761D01*
X223464761Y-135082380D01*
X223655238Y-135082380D01*
X223750476Y-135034761D01*
X223798095Y-134987142D01*
X223845714Y-134891904D01*
X223845714Y-134701428D01*
X223798095Y-134606190D01*
X223750476Y-134558571D01*
X223655238Y-134510952D01*
%TO.C,D4*%
X173861904Y-135252380D02*
X173861904Y-134252380D01*
X174100000Y-134252380D01*
X174242857Y-134300000D01*
X174338095Y-134395238D01*
X174385714Y-134490476D01*
X174433333Y-134680952D01*
X174433333Y-134823809D01*
X174385714Y-135014285D01*
X174338095Y-135109523D01*
X174242857Y-135204761D01*
X174100000Y-135252380D01*
X173861904Y-135252380D01*
X175290476Y-134585714D02*
X175290476Y-135252380D01*
X175052380Y-134204761D02*
X174814285Y-134919047D01*
X175433333Y-134919047D01*
%TO.C,D5*%
X185061904Y-135252380D02*
X185061904Y-134252380D01*
X185300000Y-134252380D01*
X185442857Y-134300000D01*
X185538095Y-134395238D01*
X185585714Y-134490476D01*
X185633333Y-134680952D01*
X185633333Y-134823809D01*
X185585714Y-135014285D01*
X185538095Y-135109523D01*
X185442857Y-135204761D01*
X185300000Y-135252380D01*
X185061904Y-135252380D01*
X186538095Y-134252380D02*
X186061904Y-134252380D01*
X186014285Y-134728571D01*
X186061904Y-134680952D01*
X186157142Y-134633333D01*
X186395238Y-134633333D01*
X186490476Y-134680952D01*
X186538095Y-134728571D01*
X186585714Y-134823809D01*
X186585714Y-135061904D01*
X186538095Y-135157142D01*
X186490476Y-135204761D01*
X186395238Y-135252380D01*
X186157142Y-135252380D01*
X186061904Y-135204761D01*
X186014285Y-135157142D01*
%TO.C,D1*%
X140961904Y-135252380D02*
X140961904Y-134252380D01*
X141200000Y-134252380D01*
X141342857Y-134300000D01*
X141438095Y-134395238D01*
X141485714Y-134490476D01*
X141533333Y-134680952D01*
X141533333Y-134823809D01*
X141485714Y-135014285D01*
X141438095Y-135109523D01*
X141342857Y-135204761D01*
X141200000Y-135252380D01*
X140961904Y-135252380D01*
X142485714Y-135252380D02*
X141914285Y-135252380D01*
X142200000Y-135252380D02*
X142200000Y-134252380D01*
X142104761Y-134395238D01*
X142009523Y-134490476D01*
X141914285Y-134538095D01*
%TO.C,D6*%
X196361904Y-135252380D02*
X196361904Y-134252380D01*
X196600000Y-134252380D01*
X196742857Y-134300000D01*
X196838095Y-134395238D01*
X196885714Y-134490476D01*
X196933333Y-134680952D01*
X196933333Y-134823809D01*
X196885714Y-135014285D01*
X196838095Y-135109523D01*
X196742857Y-135204761D01*
X196600000Y-135252380D01*
X196361904Y-135252380D01*
X197790476Y-134252380D02*
X197600000Y-134252380D01*
X197504761Y-134300000D01*
X197457142Y-134347619D01*
X197361904Y-134490476D01*
X197314285Y-134680952D01*
X197314285Y-135061904D01*
X197361904Y-135157142D01*
X197409523Y-135204761D01*
X197504761Y-135252380D01*
X197695238Y-135252380D01*
X197790476Y-135204761D01*
X197838095Y-135157142D01*
X197885714Y-135061904D01*
X197885714Y-134823809D01*
X197838095Y-134728571D01*
X197790476Y-134680952D01*
X197695238Y-134633333D01*
X197504761Y-134633333D01*
X197409523Y-134680952D01*
X197361904Y-134728571D01*
X197314285Y-134823809D01*
%TO.C,D2*%
X152161904Y-135252380D02*
X152161904Y-134252380D01*
X152400000Y-134252380D01*
X152542857Y-134300000D01*
X152638095Y-134395238D01*
X152685714Y-134490476D01*
X152733333Y-134680952D01*
X152733333Y-134823809D01*
X152685714Y-135014285D01*
X152638095Y-135109523D01*
X152542857Y-135204761D01*
X152400000Y-135252380D01*
X152161904Y-135252380D01*
X153114285Y-134347619D02*
X153161904Y-134300000D01*
X153257142Y-134252380D01*
X153495238Y-134252380D01*
X153590476Y-134300000D01*
X153638095Y-134347619D01*
X153685714Y-134442857D01*
X153685714Y-134538095D01*
X153638095Y-134680952D01*
X153066666Y-135252380D01*
X153685714Y-135252380D01*
%TO.C,D3*%
X162261904Y-135252380D02*
X162261904Y-134252380D01*
X162500000Y-134252380D01*
X162642857Y-134300000D01*
X162738095Y-134395238D01*
X162785714Y-134490476D01*
X162833333Y-134680952D01*
X162833333Y-134823809D01*
X162785714Y-135014285D01*
X162738095Y-135109523D01*
X162642857Y-135204761D01*
X162500000Y-135252380D01*
X162261904Y-135252380D01*
X163166666Y-134252380D02*
X163785714Y-134252380D01*
X163452380Y-134633333D01*
X163595238Y-134633333D01*
X163690476Y-134680952D01*
X163738095Y-134728571D01*
X163785714Y-134823809D01*
X163785714Y-135061904D01*
X163738095Y-135157142D01*
X163690476Y-135204761D01*
X163595238Y-135252380D01*
X163309523Y-135252380D01*
X163214285Y-135204761D01*
X163166666Y-135157142D01*
%TO.C,D7*%
X206361904Y-135252380D02*
X206361904Y-134252380D01*
X206600000Y-134252380D01*
X206742857Y-134300000D01*
X206838095Y-134395238D01*
X206885714Y-134490476D01*
X206933333Y-134680952D01*
X206933333Y-134823809D01*
X206885714Y-135014285D01*
X206838095Y-135109523D01*
X206742857Y-135204761D01*
X206600000Y-135252380D01*
X206361904Y-135252380D01*
X207266666Y-134252380D02*
X207933333Y-134252380D01*
X207504761Y-135252380D01*
%TO.C,C6*%
X200133333Y-139657142D02*
X200085714Y-139704761D01*
X199942857Y-139752380D01*
X199847619Y-139752380D01*
X199704761Y-139704761D01*
X199609523Y-139609523D01*
X199561904Y-139514285D01*
X199514285Y-139323809D01*
X199514285Y-139180952D01*
X199561904Y-138990476D01*
X199609523Y-138895238D01*
X199704761Y-138800000D01*
X199847619Y-138752380D01*
X199942857Y-138752380D01*
X200085714Y-138800000D01*
X200133333Y-138847619D01*
X200990476Y-138752380D02*
X200800000Y-138752380D01*
X200704761Y-138800000D01*
X200657142Y-138847619D01*
X200561904Y-138990476D01*
X200514285Y-139180952D01*
X200514285Y-139561904D01*
X200561904Y-139657142D01*
X200609523Y-139704761D01*
X200704761Y-139752380D01*
X200895238Y-139752380D01*
X200990476Y-139704761D01*
X201038095Y-139657142D01*
X201085714Y-139561904D01*
X201085714Y-139323809D01*
X201038095Y-139228571D01*
X200990476Y-139180952D01*
X200895238Y-139133333D01*
X200704761Y-139133333D01*
X200609523Y-139180952D01*
X200561904Y-139228571D01*
X200514285Y-139323809D01*
X199102380Y-137997619D02*
X199102380Y-138569047D01*
X199102380Y-138283333D02*
X198102380Y-138283333D01*
X198245238Y-138378571D01*
X198340476Y-138473809D01*
X198388095Y-138569047D01*
X198102380Y-137378571D02*
X198102380Y-137283333D01*
X198150000Y-137188095D01*
X198197619Y-137140476D01*
X198292857Y-137092857D01*
X198483333Y-137045238D01*
X198721428Y-137045238D01*
X198911904Y-137092857D01*
X199007142Y-137140476D01*
X199054761Y-137188095D01*
X199102380Y-137283333D01*
X199102380Y-137378571D01*
X199054761Y-137473809D01*
X199007142Y-137521428D01*
X198911904Y-137569047D01*
X198721428Y-137616666D01*
X198483333Y-137616666D01*
X198292857Y-137569047D01*
X198197619Y-137521428D01*
X198150000Y-137473809D01*
X198102380Y-137378571D01*
X198102380Y-136426190D02*
X198102380Y-136330952D01*
X198150000Y-136235714D01*
X198197619Y-136188095D01*
X198292857Y-136140476D01*
X198483333Y-136092857D01*
X198721428Y-136092857D01*
X198911904Y-136140476D01*
X199007142Y-136188095D01*
X199054761Y-136235714D01*
X199102380Y-136330952D01*
X199102380Y-136426190D01*
X199054761Y-136521428D01*
X199007142Y-136569047D01*
X198911904Y-136616666D01*
X198721428Y-136664285D01*
X198483333Y-136664285D01*
X198292857Y-136616666D01*
X198197619Y-136569047D01*
X198150000Y-136521428D01*
X198102380Y-136426190D01*
X198435714Y-135664285D02*
X199102380Y-135664285D01*
X198530952Y-135664285D02*
X198483333Y-135616666D01*
X198435714Y-135521428D01*
X198435714Y-135378571D01*
X198483333Y-135283333D01*
X198578571Y-135235714D01*
X199102380Y-135235714D01*
X198578571Y-134426190D02*
X198578571Y-134759523D01*
X199102380Y-134759523D02*
X198102380Y-134759523D01*
X198102380Y-134283333D01*
%TO.C,C2*%
X156233333Y-139657142D02*
X156185714Y-139704761D01*
X156042857Y-139752380D01*
X155947619Y-139752380D01*
X155804761Y-139704761D01*
X155709523Y-139609523D01*
X155661904Y-139514285D01*
X155614285Y-139323809D01*
X155614285Y-139180952D01*
X155661904Y-138990476D01*
X155709523Y-138895238D01*
X155804761Y-138800000D01*
X155947619Y-138752380D01*
X156042857Y-138752380D01*
X156185714Y-138800000D01*
X156233333Y-138847619D01*
X156614285Y-138847619D02*
X156661904Y-138800000D01*
X156757142Y-138752380D01*
X156995238Y-138752380D01*
X157090476Y-138800000D01*
X157138095Y-138847619D01*
X157185714Y-138942857D01*
X157185714Y-139038095D01*
X157138095Y-139180952D01*
X156566666Y-139752380D01*
X157185714Y-139752380D01*
X155202380Y-137997619D02*
X155202380Y-138569047D01*
X155202380Y-138283333D02*
X154202380Y-138283333D01*
X154345238Y-138378571D01*
X154440476Y-138473809D01*
X154488095Y-138569047D01*
X154202380Y-137378571D02*
X154202380Y-137283333D01*
X154250000Y-137188095D01*
X154297619Y-137140476D01*
X154392857Y-137092857D01*
X154583333Y-137045238D01*
X154821428Y-137045238D01*
X155011904Y-137092857D01*
X155107142Y-137140476D01*
X155154761Y-137188095D01*
X155202380Y-137283333D01*
X155202380Y-137378571D01*
X155154761Y-137473809D01*
X155107142Y-137521428D01*
X155011904Y-137569047D01*
X154821428Y-137616666D01*
X154583333Y-137616666D01*
X154392857Y-137569047D01*
X154297619Y-137521428D01*
X154250000Y-137473809D01*
X154202380Y-137378571D01*
X154202380Y-136426190D02*
X154202380Y-136330952D01*
X154250000Y-136235714D01*
X154297619Y-136188095D01*
X154392857Y-136140476D01*
X154583333Y-136092857D01*
X154821428Y-136092857D01*
X155011904Y-136140476D01*
X155107142Y-136188095D01*
X155154761Y-136235714D01*
X155202380Y-136330952D01*
X155202380Y-136426190D01*
X155154761Y-136521428D01*
X155107142Y-136569047D01*
X155011904Y-136616666D01*
X154821428Y-136664285D01*
X154583333Y-136664285D01*
X154392857Y-136616666D01*
X154297619Y-136569047D01*
X154250000Y-136521428D01*
X154202380Y-136426190D01*
X154535714Y-135664285D02*
X155202380Y-135664285D01*
X154630952Y-135664285D02*
X154583333Y-135616666D01*
X154535714Y-135521428D01*
X154535714Y-135378571D01*
X154583333Y-135283333D01*
X154678571Y-135235714D01*
X155202380Y-135235714D01*
X154678571Y-134426190D02*
X154678571Y-134759523D01*
X155202380Y-134759523D02*
X154202380Y-134759523D01*
X154202380Y-134283333D01*
%TO.C,C1*%
X145033333Y-139657142D02*
X144985714Y-139704761D01*
X144842857Y-139752380D01*
X144747619Y-139752380D01*
X144604761Y-139704761D01*
X144509523Y-139609523D01*
X144461904Y-139514285D01*
X144414285Y-139323809D01*
X144414285Y-139180952D01*
X144461904Y-138990476D01*
X144509523Y-138895238D01*
X144604761Y-138800000D01*
X144747619Y-138752380D01*
X144842857Y-138752380D01*
X144985714Y-138800000D01*
X145033333Y-138847619D01*
X145985714Y-139752380D02*
X145414285Y-139752380D01*
X145700000Y-139752380D02*
X145700000Y-138752380D01*
X145604761Y-138895238D01*
X145509523Y-138990476D01*
X145414285Y-139038095D01*
X144102380Y-137997619D02*
X144102380Y-138569047D01*
X144102380Y-138283333D02*
X143102380Y-138283333D01*
X143245238Y-138378571D01*
X143340476Y-138473809D01*
X143388095Y-138569047D01*
X143102380Y-137378571D02*
X143102380Y-137283333D01*
X143150000Y-137188095D01*
X143197619Y-137140476D01*
X143292857Y-137092857D01*
X143483333Y-137045238D01*
X143721428Y-137045238D01*
X143911904Y-137092857D01*
X144007142Y-137140476D01*
X144054761Y-137188095D01*
X144102380Y-137283333D01*
X144102380Y-137378571D01*
X144054761Y-137473809D01*
X144007142Y-137521428D01*
X143911904Y-137569047D01*
X143721428Y-137616666D01*
X143483333Y-137616666D01*
X143292857Y-137569047D01*
X143197619Y-137521428D01*
X143150000Y-137473809D01*
X143102380Y-137378571D01*
X143102380Y-136426190D02*
X143102380Y-136330952D01*
X143150000Y-136235714D01*
X143197619Y-136188095D01*
X143292857Y-136140476D01*
X143483333Y-136092857D01*
X143721428Y-136092857D01*
X143911904Y-136140476D01*
X144007142Y-136188095D01*
X144054761Y-136235714D01*
X144102380Y-136330952D01*
X144102380Y-136426190D01*
X144054761Y-136521428D01*
X144007142Y-136569047D01*
X143911904Y-136616666D01*
X143721428Y-136664285D01*
X143483333Y-136664285D01*
X143292857Y-136616666D01*
X143197619Y-136569047D01*
X143150000Y-136521428D01*
X143102380Y-136426190D01*
X143435714Y-135664285D02*
X144102380Y-135664285D01*
X143530952Y-135664285D02*
X143483333Y-135616666D01*
X143435714Y-135521428D01*
X143435714Y-135378571D01*
X143483333Y-135283333D01*
X143578571Y-135235714D01*
X144102380Y-135235714D01*
X143578571Y-134426190D02*
X143578571Y-134759523D01*
X144102380Y-134759523D02*
X143102380Y-134759523D01*
X143102380Y-134283333D01*
%TO.C,C7*%
X210933333Y-139657142D02*
X210885714Y-139704761D01*
X210742857Y-139752380D01*
X210647619Y-139752380D01*
X210504761Y-139704761D01*
X210409523Y-139609523D01*
X210361904Y-139514285D01*
X210314285Y-139323809D01*
X210314285Y-139180952D01*
X210361904Y-138990476D01*
X210409523Y-138895238D01*
X210504761Y-138800000D01*
X210647619Y-138752380D01*
X210742857Y-138752380D01*
X210885714Y-138800000D01*
X210933333Y-138847619D01*
X211266666Y-138752380D02*
X211933333Y-138752380D01*
X211504761Y-139752380D01*
X209802380Y-137997619D02*
X209802380Y-138569047D01*
X209802380Y-138283333D02*
X208802380Y-138283333D01*
X208945238Y-138378571D01*
X209040476Y-138473809D01*
X209088095Y-138569047D01*
X208802380Y-137378571D02*
X208802380Y-137283333D01*
X208850000Y-137188095D01*
X208897619Y-137140476D01*
X208992857Y-137092857D01*
X209183333Y-137045238D01*
X209421428Y-137045238D01*
X209611904Y-137092857D01*
X209707142Y-137140476D01*
X209754761Y-137188095D01*
X209802380Y-137283333D01*
X209802380Y-137378571D01*
X209754761Y-137473809D01*
X209707142Y-137521428D01*
X209611904Y-137569047D01*
X209421428Y-137616666D01*
X209183333Y-137616666D01*
X208992857Y-137569047D01*
X208897619Y-137521428D01*
X208850000Y-137473809D01*
X208802380Y-137378571D01*
X208802380Y-136426190D02*
X208802380Y-136330952D01*
X208850000Y-136235714D01*
X208897619Y-136188095D01*
X208992857Y-136140476D01*
X209183333Y-136092857D01*
X209421428Y-136092857D01*
X209611904Y-136140476D01*
X209707142Y-136188095D01*
X209754761Y-136235714D01*
X209802380Y-136330952D01*
X209802380Y-136426190D01*
X209754761Y-136521428D01*
X209707142Y-136569047D01*
X209611904Y-136616666D01*
X209421428Y-136664285D01*
X209183333Y-136664285D01*
X208992857Y-136616666D01*
X208897619Y-136569047D01*
X208850000Y-136521428D01*
X208802380Y-136426190D01*
X209135714Y-135664285D02*
X209802380Y-135664285D01*
X209230952Y-135664285D02*
X209183333Y-135616666D01*
X209135714Y-135521428D01*
X209135714Y-135378571D01*
X209183333Y-135283333D01*
X209278571Y-135235714D01*
X209802380Y-135235714D01*
X209278571Y-134426190D02*
X209278571Y-134759523D01*
X209802380Y-134759523D02*
X208802380Y-134759523D01*
X208802380Y-134283333D01*
%TO.C,C3*%
X167033333Y-139657142D02*
X166985714Y-139704761D01*
X166842857Y-139752380D01*
X166747619Y-139752380D01*
X166604761Y-139704761D01*
X166509523Y-139609523D01*
X166461904Y-139514285D01*
X166414285Y-139323809D01*
X166414285Y-139180952D01*
X166461904Y-138990476D01*
X166509523Y-138895238D01*
X166604761Y-138800000D01*
X166747619Y-138752380D01*
X166842857Y-138752380D01*
X166985714Y-138800000D01*
X167033333Y-138847619D01*
X167366666Y-138752380D02*
X167985714Y-138752380D01*
X167652380Y-139133333D01*
X167795238Y-139133333D01*
X167890476Y-139180952D01*
X167938095Y-139228571D01*
X167985714Y-139323809D01*
X167985714Y-139561904D01*
X167938095Y-139657142D01*
X167890476Y-139704761D01*
X167795238Y-139752380D01*
X167509523Y-139752380D01*
X167414285Y-139704761D01*
X167366666Y-139657142D01*
X166102380Y-137997619D02*
X166102380Y-138569047D01*
X166102380Y-138283333D02*
X165102380Y-138283333D01*
X165245238Y-138378571D01*
X165340476Y-138473809D01*
X165388095Y-138569047D01*
X165102380Y-137378571D02*
X165102380Y-137283333D01*
X165150000Y-137188095D01*
X165197619Y-137140476D01*
X165292857Y-137092857D01*
X165483333Y-137045238D01*
X165721428Y-137045238D01*
X165911904Y-137092857D01*
X166007142Y-137140476D01*
X166054761Y-137188095D01*
X166102380Y-137283333D01*
X166102380Y-137378571D01*
X166054761Y-137473809D01*
X166007142Y-137521428D01*
X165911904Y-137569047D01*
X165721428Y-137616666D01*
X165483333Y-137616666D01*
X165292857Y-137569047D01*
X165197619Y-137521428D01*
X165150000Y-137473809D01*
X165102380Y-137378571D01*
X165102380Y-136426190D02*
X165102380Y-136330952D01*
X165150000Y-136235714D01*
X165197619Y-136188095D01*
X165292857Y-136140476D01*
X165483333Y-136092857D01*
X165721428Y-136092857D01*
X165911904Y-136140476D01*
X166007142Y-136188095D01*
X166054761Y-136235714D01*
X166102380Y-136330952D01*
X166102380Y-136426190D01*
X166054761Y-136521428D01*
X166007142Y-136569047D01*
X165911904Y-136616666D01*
X165721428Y-136664285D01*
X165483333Y-136664285D01*
X165292857Y-136616666D01*
X165197619Y-136569047D01*
X165150000Y-136521428D01*
X165102380Y-136426190D01*
X165435714Y-135664285D02*
X166102380Y-135664285D01*
X165530952Y-135664285D02*
X165483333Y-135616666D01*
X165435714Y-135521428D01*
X165435714Y-135378571D01*
X165483333Y-135283333D01*
X165578571Y-135235714D01*
X166102380Y-135235714D01*
X165578571Y-134426190D02*
X165578571Y-134759523D01*
X166102380Y-134759523D02*
X165102380Y-134759523D01*
X165102380Y-134283333D01*
%TO.C,C5*%
X189333333Y-139657142D02*
X189285714Y-139704761D01*
X189142857Y-139752380D01*
X189047619Y-139752380D01*
X188904761Y-139704761D01*
X188809523Y-139609523D01*
X188761904Y-139514285D01*
X188714285Y-139323809D01*
X188714285Y-139180952D01*
X188761904Y-138990476D01*
X188809523Y-138895238D01*
X188904761Y-138800000D01*
X189047619Y-138752380D01*
X189142857Y-138752380D01*
X189285714Y-138800000D01*
X189333333Y-138847619D01*
X190238095Y-138752380D02*
X189761904Y-138752380D01*
X189714285Y-139228571D01*
X189761904Y-139180952D01*
X189857142Y-139133333D01*
X190095238Y-139133333D01*
X190190476Y-139180952D01*
X190238095Y-139228571D01*
X190285714Y-139323809D01*
X190285714Y-139561904D01*
X190238095Y-139657142D01*
X190190476Y-139704761D01*
X190095238Y-139752380D01*
X189857142Y-139752380D01*
X189761904Y-139704761D01*
X189714285Y-139657142D01*
X188202380Y-137997619D02*
X188202380Y-138569047D01*
X188202380Y-138283333D02*
X187202380Y-138283333D01*
X187345238Y-138378571D01*
X187440476Y-138473809D01*
X187488095Y-138569047D01*
X187202380Y-137378571D02*
X187202380Y-137283333D01*
X187250000Y-137188095D01*
X187297619Y-137140476D01*
X187392857Y-137092857D01*
X187583333Y-137045238D01*
X187821428Y-137045238D01*
X188011904Y-137092857D01*
X188107142Y-137140476D01*
X188154761Y-137188095D01*
X188202380Y-137283333D01*
X188202380Y-137378571D01*
X188154761Y-137473809D01*
X188107142Y-137521428D01*
X188011904Y-137569047D01*
X187821428Y-137616666D01*
X187583333Y-137616666D01*
X187392857Y-137569047D01*
X187297619Y-137521428D01*
X187250000Y-137473809D01*
X187202380Y-137378571D01*
X187202380Y-136426190D02*
X187202380Y-136330952D01*
X187250000Y-136235714D01*
X187297619Y-136188095D01*
X187392857Y-136140476D01*
X187583333Y-136092857D01*
X187821428Y-136092857D01*
X188011904Y-136140476D01*
X188107142Y-136188095D01*
X188154761Y-136235714D01*
X188202380Y-136330952D01*
X188202380Y-136426190D01*
X188154761Y-136521428D01*
X188107142Y-136569047D01*
X188011904Y-136616666D01*
X187821428Y-136664285D01*
X187583333Y-136664285D01*
X187392857Y-136616666D01*
X187297619Y-136569047D01*
X187250000Y-136521428D01*
X187202380Y-136426190D01*
X187535714Y-135664285D02*
X188202380Y-135664285D01*
X187630952Y-135664285D02*
X187583333Y-135616666D01*
X187535714Y-135521428D01*
X187535714Y-135378571D01*
X187583333Y-135283333D01*
X187678571Y-135235714D01*
X188202380Y-135235714D01*
X187678571Y-134426190D02*
X187678571Y-134759523D01*
X188202380Y-134759523D02*
X187202380Y-134759523D01*
X187202380Y-134283333D01*
%TO.C,C8*%
X216333333Y-139657142D02*
X216285714Y-139704761D01*
X216142857Y-139752380D01*
X216047619Y-139752380D01*
X215904761Y-139704761D01*
X215809523Y-139609523D01*
X215761904Y-139514285D01*
X215714285Y-139323809D01*
X215714285Y-139180952D01*
X215761904Y-138990476D01*
X215809523Y-138895238D01*
X215904761Y-138800000D01*
X216047619Y-138752380D01*
X216142857Y-138752380D01*
X216285714Y-138800000D01*
X216333333Y-138847619D01*
X216904761Y-139180952D02*
X216809523Y-139133333D01*
X216761904Y-139085714D01*
X216714285Y-138990476D01*
X216714285Y-138942857D01*
X216761904Y-138847619D01*
X216809523Y-138800000D01*
X216904761Y-138752380D01*
X217095238Y-138752380D01*
X217190476Y-138800000D01*
X217238095Y-138847619D01*
X217285714Y-138942857D01*
X217285714Y-138990476D01*
X217238095Y-139085714D01*
X217190476Y-139133333D01*
X217095238Y-139180952D01*
X216904761Y-139180952D01*
X216809523Y-139228571D01*
X216761904Y-139276190D01*
X216714285Y-139371428D01*
X216714285Y-139561904D01*
X216761904Y-139657142D01*
X216809523Y-139704761D01*
X216904761Y-139752380D01*
X217095238Y-139752380D01*
X217190476Y-139704761D01*
X217238095Y-139657142D01*
X217285714Y-139561904D01*
X217285714Y-139371428D01*
X217238095Y-139276190D01*
X217190476Y-139228571D01*
X217095238Y-139180952D01*
X215502380Y-137997619D02*
X215502380Y-138569047D01*
X215502380Y-138283333D02*
X214502380Y-138283333D01*
X214645238Y-138378571D01*
X214740476Y-138473809D01*
X214788095Y-138569047D01*
X214502380Y-137378571D02*
X214502380Y-137283333D01*
X214550000Y-137188095D01*
X214597619Y-137140476D01*
X214692857Y-137092857D01*
X214883333Y-137045238D01*
X215121428Y-137045238D01*
X215311904Y-137092857D01*
X215407142Y-137140476D01*
X215454761Y-137188095D01*
X215502380Y-137283333D01*
X215502380Y-137378571D01*
X215454761Y-137473809D01*
X215407142Y-137521428D01*
X215311904Y-137569047D01*
X215121428Y-137616666D01*
X214883333Y-137616666D01*
X214692857Y-137569047D01*
X214597619Y-137521428D01*
X214550000Y-137473809D01*
X214502380Y-137378571D01*
X214502380Y-136426190D02*
X214502380Y-136330952D01*
X214550000Y-136235714D01*
X214597619Y-136188095D01*
X214692857Y-136140476D01*
X214883333Y-136092857D01*
X215121428Y-136092857D01*
X215311904Y-136140476D01*
X215407142Y-136188095D01*
X215454761Y-136235714D01*
X215502380Y-136330952D01*
X215502380Y-136426190D01*
X215454761Y-136521428D01*
X215407142Y-136569047D01*
X215311904Y-136616666D01*
X215121428Y-136664285D01*
X214883333Y-136664285D01*
X214692857Y-136616666D01*
X214597619Y-136569047D01*
X214550000Y-136521428D01*
X214502380Y-136426190D01*
X214835714Y-135664285D02*
X215502380Y-135664285D01*
X214930952Y-135664285D02*
X214883333Y-135616666D01*
X214835714Y-135521428D01*
X214835714Y-135378571D01*
X214883333Y-135283333D01*
X214978571Y-135235714D01*
X215502380Y-135235714D01*
X214978571Y-134426190D02*
X214978571Y-134759523D01*
X215502380Y-134759523D02*
X214502380Y-134759523D01*
X214502380Y-134283333D01*
%TO.C,C4*%
X178233333Y-139657142D02*
X178185714Y-139704761D01*
X178042857Y-139752380D01*
X177947619Y-139752380D01*
X177804761Y-139704761D01*
X177709523Y-139609523D01*
X177661904Y-139514285D01*
X177614285Y-139323809D01*
X177614285Y-139180952D01*
X177661904Y-138990476D01*
X177709523Y-138895238D01*
X177804761Y-138800000D01*
X177947619Y-138752380D01*
X178042857Y-138752380D01*
X178185714Y-138800000D01*
X178233333Y-138847619D01*
X179090476Y-139085714D02*
X179090476Y-139752380D01*
X178852380Y-138704761D02*
X178614285Y-139419047D01*
X179233333Y-139419047D01*
X177202380Y-137997619D02*
X177202380Y-138569047D01*
X177202380Y-138283333D02*
X176202380Y-138283333D01*
X176345238Y-138378571D01*
X176440476Y-138473809D01*
X176488095Y-138569047D01*
X176202380Y-137378571D02*
X176202380Y-137283333D01*
X176250000Y-137188095D01*
X176297619Y-137140476D01*
X176392857Y-137092857D01*
X176583333Y-137045238D01*
X176821428Y-137045238D01*
X177011904Y-137092857D01*
X177107142Y-137140476D01*
X177154761Y-137188095D01*
X177202380Y-137283333D01*
X177202380Y-137378571D01*
X177154761Y-137473809D01*
X177107142Y-137521428D01*
X177011904Y-137569047D01*
X176821428Y-137616666D01*
X176583333Y-137616666D01*
X176392857Y-137569047D01*
X176297619Y-137521428D01*
X176250000Y-137473809D01*
X176202380Y-137378571D01*
X176202380Y-136426190D02*
X176202380Y-136330952D01*
X176250000Y-136235714D01*
X176297619Y-136188095D01*
X176392857Y-136140476D01*
X176583333Y-136092857D01*
X176821428Y-136092857D01*
X177011904Y-136140476D01*
X177107142Y-136188095D01*
X177154761Y-136235714D01*
X177202380Y-136330952D01*
X177202380Y-136426190D01*
X177154761Y-136521428D01*
X177107142Y-136569047D01*
X177011904Y-136616666D01*
X176821428Y-136664285D01*
X176583333Y-136664285D01*
X176392857Y-136616666D01*
X176297619Y-136569047D01*
X176250000Y-136521428D01*
X176202380Y-136426190D01*
X176535714Y-135664285D02*
X177202380Y-135664285D01*
X176630952Y-135664285D02*
X176583333Y-135616666D01*
X176535714Y-135521428D01*
X176535714Y-135378571D01*
X176583333Y-135283333D01*
X176678571Y-135235714D01*
X177202380Y-135235714D01*
X176678571Y-134426190D02*
X176678571Y-134759523D01*
X177202380Y-134759523D02*
X176202380Y-134759523D01*
X176202380Y-134283333D01*
D11*
%TO.C,D8*%
X212970000Y-133920000D02*
X212970000Y-117080000D01*
X223830000Y-117080000D02*
X223830000Y-133120000D01*
X223030000Y-133920000D02*
X212970000Y-133920000D01*
X223830000Y-133120000D02*
X223030000Y-133920000D01*
X212970000Y-117080000D02*
X223830000Y-117080000D01*
%TO.C,D4*%
X169320000Y-133920000D02*
X169320000Y-117080000D01*
X180180000Y-117080000D02*
X180180000Y-133120000D01*
X179380000Y-133920000D02*
X169320000Y-133920000D01*
X180180000Y-133120000D02*
X179380000Y-133920000D01*
X169320000Y-117080000D02*
X180180000Y-117080000D01*
%TO.C,D5*%
X180320000Y-133920000D02*
X180320000Y-117080000D01*
X191180000Y-117080000D02*
X191180000Y-133120000D01*
X190380000Y-133920000D02*
X180320000Y-133920000D01*
X191180000Y-133120000D02*
X190380000Y-133920000D01*
X180320000Y-117080000D02*
X191180000Y-117080000D01*
%TO.C,D1*%
X136320000Y-133920000D02*
X136320000Y-117080000D01*
X147180000Y-117080000D02*
X147180000Y-133120000D01*
X146380000Y-133920000D02*
X136320000Y-133920000D01*
X147180000Y-133120000D02*
X146380000Y-133920000D01*
X136320000Y-117080000D02*
X147180000Y-117080000D01*
%TO.C,D6*%
X191320000Y-133920000D02*
X191320000Y-117080000D01*
X202180000Y-117080000D02*
X202180000Y-133120000D01*
X201380000Y-133920000D02*
X191320000Y-133920000D01*
X202180000Y-133120000D02*
X201380000Y-133920000D01*
X191320000Y-117080000D02*
X202180000Y-117080000D01*
%TO.C,D2*%
X147320000Y-133920000D02*
X147320000Y-117080000D01*
X158180000Y-117080000D02*
X158180000Y-133120000D01*
X157380000Y-133920000D02*
X147320000Y-133920000D01*
X158180000Y-133120000D02*
X157380000Y-133920000D01*
X147320000Y-117080000D02*
X158180000Y-117080000D01*
%TO.C,D3*%
X158320000Y-133920000D02*
X158320000Y-117080000D01*
X169180000Y-117080000D02*
X169180000Y-133120000D01*
X168380000Y-133920000D02*
X158320000Y-133920000D01*
X169180000Y-133120000D02*
X168380000Y-133920000D01*
X158320000Y-117080000D02*
X169180000Y-117080000D01*
%TO.C,D7*%
X202070000Y-133920000D02*
X202070000Y-117080000D01*
X212930000Y-117080000D02*
X212930000Y-133120000D01*
X212130000Y-133920000D02*
X202070000Y-133920000D01*
X212930000Y-133120000D02*
X212130000Y-133920000D01*
X202070000Y-117080000D02*
X212930000Y-117080000D01*
%TO.C,C6*%
X200935000Y-135838748D02*
X200935000Y-136361252D01*
X199465000Y-135838748D02*
X199465000Y-136361252D01*
%TO.C,C2*%
X157035000Y-135838748D02*
X157035000Y-136361252D01*
X155565000Y-135838748D02*
X155565000Y-136361252D01*
%TO.C,C1*%
X145935000Y-135838748D02*
X145935000Y-136361252D01*
X144465000Y-135838748D02*
X144465000Y-136361252D01*
%TO.C,C7*%
X210165000Y-135838748D02*
X210165000Y-136361252D01*
X211635000Y-135838748D02*
X211635000Y-136361252D01*
%TO.C,C3*%
X166465000Y-135838748D02*
X166465000Y-136361252D01*
X167935000Y-135838748D02*
X167935000Y-136361252D01*
%TO.C,C5*%
X188565000Y-135701248D02*
X188565000Y-136223752D01*
X190035000Y-135701248D02*
X190035000Y-136223752D01*
%TO.C,C8*%
X217335000Y-135838748D02*
X217335000Y-136361252D01*
X215865000Y-135838748D02*
X215865000Y-136361252D01*
%TO.C,C4*%
X179035000Y-135838748D02*
X179035000Y-136361252D01*
X177565000Y-135838748D02*
X177565000Y-136361252D01*
%TD*%
M02*
