M48
; DRILL file {KiCad 6.0.0+dfsg1-2} date Пт 11 фев 2022 22:47:27
; FORMAT={-:-/ absolute / inch / decimal}
; #@! TF.CreationDate,2022-02-11T22:47:27+03:00
; #@! TF.GenerationSoftware,Kicad,Pcbnew,6.0.0+dfsg1-2
; #@! TF.FileFunction,Plated,1,4,PTH
FMAT,2
INCH
; #@! TA.AperFunction,Plated,PTH,ViaDrill
T1C0.0157
; #@! TA.AperFunction,Plated,PTH,ComponentDrill
T2C0.0157
%
G90
G05
T1
X5.5236Y-4.6417
X5.5345Y-4.7913
X5.535Y-4.7398
X5.5974Y-5.1181
X5.623Y-4.8448
X5.6234Y-4.7878
X5.626Y-4.6929
X5.626Y-5.2362
X5.6328Y-4.9019
X5.6328Y-4.9921
X5.64Y-4.7309
X5.7165Y-5.2756
X5.7256Y-5.4318
X5.7618Y-5.5906
X5.7795Y-5.2894
X5.8228Y-5.561
X5.8484Y-5.6043
X5.9587Y-4.6417
X5.9665Y-5.0669
X6.0295Y-4.8445
X6.0591Y-4.9035
X6.061Y-4.9862
X6.0626Y-4.7935
X6.0685Y-4.7365
X6.1496Y-5.2717
X6.1535Y-5.4449
X6.2913Y-5.3189
X6.3957Y-4.6417
X6.4567Y-4.8445
X6.4898Y-4.7935
X6.4902Y-4.9045
X6.4934Y-4.7323
X6.4941Y-4.9862
X6.5827Y-5.2756
X6.5827Y-5.4409
X6.5945Y-5.6043
X6.8287Y-4.6437
X6.8297Y-4.9873
X6.8799Y-4.9331
X6.9016Y-4.8445
X6.9245Y-4.7897
X6.9301Y-4.9862
X6.9307Y-4.7327
X6.9331Y-4.9016
X7.0197Y-5.2717
X7.0197Y-5.4409
X7.1693Y-5.6024
X7.2303Y-5.5945
X7.2579Y-4.6417
X7.3031Y-5.0157
X7.3307Y-4.8445
X7.3556Y-4.7906
X7.3583Y-4.9016
X7.3637Y-4.7336
X7.3681Y-4.9862
X7.4528Y-5.2717
X7.4528Y-5.4331
X7.5335Y-5.565
X7.6752Y-5.5906
X7.6929Y-4.6417
X7.6949Y-4.9862
X7.7269Y-5.1175
X7.7303Y-5.4429
X7.7776Y-4.9862
X7.7815Y-4.8445
X7.7815Y-4.9016
X7.7929Y-4.7874
X7.7988Y-4.7304
X7.8819Y-5.2736
X7.8819Y-5.4409
X7.9646Y-5.5886
X8.0453Y-5.4252
X8.1161Y-4.6417
X8.126Y-5.563
X8.1478Y-5.0175
X8.2028Y-4.9016
X8.2087Y-4.8445
X8.2126Y-4.9862
X8.2169Y-4.7874
X8.2279Y-4.7304
X8.3031Y-5.2756
X8.3031Y-5.437
X8.313Y-5.4803
X8.3327Y-5.5827
X8.5276Y-5.437
X8.5413Y-4.6437
X8.604Y-5.2409
X8.6211Y-4.9881
X8.6339Y-4.8898
X8.6433Y-4.7937
X8.6437Y-4.8445
X8.6496Y-4.9567
X8.65Y-4.7367
X8.6892Y-4.927
T2
X5.6043Y-5.6713
X5.7043Y-5.6713
X5.8043Y-5.6713
X5.9043Y-5.6713
X6.0043Y-5.6713
X6.1043Y-5.6713
X6.2043Y-5.6713
X6.3043Y-5.6713
X6.4043Y-5.6713
X6.5043Y-5.6713
X6.6043Y-5.6713
X6.7043Y-5.6713
X6.8043Y-5.6713
X6.9043Y-5.6713
X7.0043Y-5.6713
X7.1043Y-5.6713
X7.2043Y-5.6713
X7.3043Y-5.6713
X7.4043Y-5.6713
X7.5043Y-5.6713
X7.6043Y-5.6713
X7.7043Y-5.6713
X7.8043Y-5.6713
X7.9043Y-5.6713
X8.0043Y-5.6713
X8.1043Y-5.6713
X8.2043Y-5.6713
X8.3043Y-5.6713
X8.4043Y-5.6713
X8.5043Y-5.6713
T0
M30
