%TF.GenerationSoftware,KiCad,Pcbnew,6.0.0+dfsg1-2*%
%TF.CreationDate,2022-02-11T22:47:21+03:00*%
%TF.ProjectId,simm3016_n,73696d6d-3330-4313-965f-6e2e6b696361,rev?*%
%TF.SameCoordinates,Original*%
%TF.FileFunction,Copper,L1,Top*%
%TF.FilePolarity,Positive*%
%FSLAX46Y46*%
G04 Gerber Fmt 4.6, Leading zero omitted, Abs format (unit mm)*
G04 Created by KiCad (PCBNEW 6.0.0+dfsg1-2) date 2022-02-11 22:47:21*
%MOMM*%
%LPD*%
G01*
G04 APERTURE LIST*
G04 Aperture macros list*
%AMRoundRect*
0 Rectangle with rounded corners*
0 $1 Rounding radius*
0 $2 $3 $4 $5 $6 $7 $8 $9 X,Y pos of 4 corners*
0 Add a 4 corners polygon primitive as box body*
4,1,4,$2,$3,$4,$5,$6,$7,$8,$9,$2,$3,0*
0 Add four circle primitives for the rounded corners*
1,1,$1+$1,$2,$3*
1,1,$1+$1,$4,$5*
1,1,$1+$1,$6,$7*
1,1,$1+$1,$8,$9*
0 Add four rect primitives between the rounded corners*
20,1,$1+$1,$2,$3,$4,$5,0*
20,1,$1+$1,$4,$5,$6,$7,0*
20,1,$1+$1,$6,$7,$8,$9,0*
20,1,$1+$1,$8,$9,$2,$3,0*%
G04 Aperture macros list end*
%TA.AperFunction,SMDPad,CuDef*%
%ADD10R,3.000000X0.600000*%
%TD*%
%TA.AperFunction,SMDPad,CuDef*%
%ADD11RoundRect,0.250000X-0.475000X0.337500X-0.475000X-0.337500X0.475000X-0.337500X0.475000X0.337500X0*%
%TD*%
%TA.AperFunction,ComponentPad*%
%ADD12R,1.900000X2.000000*%
%TD*%
%TA.AperFunction,ViaPad*%
%ADD13C,0.800000*%
%TD*%
%TA.AperFunction,Conductor*%
%ADD14C,0.250000*%
%TD*%
G04 APERTURE END LIST*
D10*
%TO.P,D8,1,+5V*%
%TO.N,+5V*%
X221830000Y-133120000D03*
%TO.P,D8,2,D*%
%TO.N,/DQ7*%
X221830000Y-131850000D03*
%TO.P,D8,3*%
%TO.N,N/C*%
X221830000Y-130580000D03*
%TO.P,D8,4,~{W}*%
%TO.N,/~{WE}*%
X221830000Y-129310000D03*
%TO.P,D8,5,~{RAS}*%
%TO.N,/~{RAS}*%
X221830000Y-128040000D03*
%TO.P,D8,6,A11*%
%TO.N,/A11*%
X221830000Y-126770000D03*
%TO.P,D8,7,A10*%
%TO.N,/A10*%
X221800000Y-124200000D03*
%TO.P,D8,8,A0*%
%TO.N,/A0*%
X221800000Y-122930000D03*
%TO.P,D8,9,A1*%
%TO.N,/A1*%
X221800000Y-121660000D03*
%TO.P,D8,10,A2*%
%TO.N,/A2*%
X221800000Y-120390000D03*
%TO.P,D8,11,A3*%
%TO.N,/A3*%
X221800000Y-119120000D03*
%TO.P,D8,12*%
%TO.N,N/C*%
X221800000Y-117850000D03*
%TO.P,D8,13,GND*%
%TO.N,GNDD*%
X215000000Y-117900000D03*
%TO.P,D8,14,A4*%
%TO.N,/A4*%
X214970000Y-119120000D03*
%TO.P,D8,15,A5*%
%TO.N,/A5*%
X214970000Y-120390000D03*
%TO.P,D8,16,A6*%
%TO.N,/A6*%
X214970000Y-121660000D03*
%TO.P,D8,17,A7*%
%TO.N,/A7*%
X214970000Y-122930000D03*
%TO.P,D8,18,A8*%
%TO.N,/A8*%
X214970000Y-124200000D03*
%TO.P,D8,19,A9*%
%TO.N,/A9*%
X215000000Y-126800000D03*
%TO.P,D8,20*%
%TO.N,N/C*%
X215000000Y-128070000D03*
%TO.P,D8,21,~{CAS}*%
%TO.N,/~{CAS}*%
X215000000Y-129340000D03*
%TO.P,D8,22*%
%TO.N,N/C*%
X215000000Y-130610000D03*
%TO.P,D8,23,Q*%
%TO.N,/DQ7*%
X215000000Y-131880000D03*
%TO.P,D8,24*%
%TO.N,N/C*%
X215000000Y-133150000D03*
%TD*%
%TO.P,D4,1,+5V*%
%TO.N,+5V*%
X178180000Y-133120000D03*
%TO.P,D4,2,D*%
%TO.N,/DQ3*%
X178180000Y-131850000D03*
%TO.P,D4,3*%
%TO.N,N/C*%
X178180000Y-130580000D03*
%TO.P,D4,4,~{W}*%
%TO.N,/~{WE}*%
X178180000Y-129310000D03*
%TO.P,D4,5,~{RAS}*%
%TO.N,/~{RAS}*%
X178180000Y-128040000D03*
%TO.P,D4,6,A11*%
%TO.N,/A11*%
X178180000Y-126770000D03*
%TO.P,D4,7,A10*%
%TO.N,/A10*%
X178150000Y-124200000D03*
%TO.P,D4,8,A0*%
%TO.N,/A0*%
X178150000Y-122930000D03*
%TO.P,D4,9,A1*%
%TO.N,/A1*%
X178150000Y-121660000D03*
%TO.P,D4,10,A2*%
%TO.N,/A2*%
X178150000Y-120390000D03*
%TO.P,D4,11,A3*%
%TO.N,/A3*%
X178150000Y-119120000D03*
%TO.P,D4,12*%
%TO.N,N/C*%
X178150000Y-117850000D03*
%TO.P,D4,13,GND*%
%TO.N,GNDD*%
X171350000Y-117900000D03*
%TO.P,D4,14,A4*%
%TO.N,/A4*%
X171320000Y-119120000D03*
%TO.P,D4,15,A5*%
%TO.N,/A5*%
X171320000Y-120390000D03*
%TO.P,D4,16,A6*%
%TO.N,/A6*%
X171320000Y-121660000D03*
%TO.P,D4,17,A7*%
%TO.N,/A7*%
X171320000Y-122930000D03*
%TO.P,D4,18,A8*%
%TO.N,/A8*%
X171320000Y-124200000D03*
%TO.P,D4,19,A9*%
%TO.N,/A9*%
X171350000Y-126800000D03*
%TO.P,D4,20*%
%TO.N,N/C*%
X171350000Y-128070000D03*
%TO.P,D4,21,~{CAS}*%
%TO.N,/~{CAS}*%
X171350000Y-129340000D03*
%TO.P,D4,22*%
%TO.N,N/C*%
X171350000Y-130610000D03*
%TO.P,D4,23,Q*%
%TO.N,/DQ3*%
X171350000Y-131880000D03*
%TO.P,D4,24*%
%TO.N,N/C*%
X171350000Y-133150000D03*
%TD*%
%TO.P,D5,1,+5V*%
%TO.N,+5V*%
X189180000Y-133120000D03*
%TO.P,D5,2,D*%
%TO.N,/DQ4*%
X189180000Y-131850000D03*
%TO.P,D5,3*%
%TO.N,N/C*%
X189180000Y-130580000D03*
%TO.P,D5,4,~{W}*%
%TO.N,/~{WE}*%
X189180000Y-129310000D03*
%TO.P,D5,5,~{RAS}*%
%TO.N,/~{RAS}*%
X189180000Y-128040000D03*
%TO.P,D5,6,A11*%
%TO.N,/A11*%
X189180000Y-126770000D03*
%TO.P,D5,7,A10*%
%TO.N,/A10*%
X189150000Y-124200000D03*
%TO.P,D5,8,A0*%
%TO.N,/A0*%
X189150000Y-122930000D03*
%TO.P,D5,9,A1*%
%TO.N,/A1*%
X189150000Y-121660000D03*
%TO.P,D5,10,A2*%
%TO.N,/A2*%
X189150000Y-120390000D03*
%TO.P,D5,11,A3*%
%TO.N,/A3*%
X189150000Y-119120000D03*
%TO.P,D5,12*%
%TO.N,N/C*%
X189150000Y-117850000D03*
%TO.P,D5,13,GND*%
%TO.N,GNDD*%
X182350000Y-117900000D03*
%TO.P,D5,14,A4*%
%TO.N,/A4*%
X182320000Y-119120000D03*
%TO.P,D5,15,A5*%
%TO.N,/A5*%
X182320000Y-120390000D03*
%TO.P,D5,16,A6*%
%TO.N,/A6*%
X182320000Y-121660000D03*
%TO.P,D5,17,A7*%
%TO.N,/A7*%
X182320000Y-122930000D03*
%TO.P,D5,18,A8*%
%TO.N,/A8*%
X182320000Y-124200000D03*
%TO.P,D5,19,A9*%
%TO.N,/A9*%
X182350000Y-126800000D03*
%TO.P,D5,20*%
%TO.N,N/C*%
X182350000Y-128070000D03*
%TO.P,D5,21,~{CAS}*%
%TO.N,/~{CAS}*%
X182350000Y-129340000D03*
%TO.P,D5,22*%
%TO.N,N/C*%
X182350000Y-130610000D03*
%TO.P,D5,23,Q*%
%TO.N,/DQ4*%
X182350000Y-131880000D03*
%TO.P,D5,24*%
%TO.N,N/C*%
X182350000Y-133150000D03*
%TD*%
%TO.P,D1,1,+5V*%
%TO.N,+5V*%
X145180000Y-133120000D03*
%TO.P,D1,2,D*%
%TO.N,/DQ0*%
X145180000Y-131850000D03*
%TO.P,D1,3*%
%TO.N,N/C*%
X145180000Y-130580000D03*
%TO.P,D1,4,~{W}*%
%TO.N,/~{WE}*%
X145180000Y-129310000D03*
%TO.P,D1,5,~{RAS}*%
%TO.N,/~{RAS}*%
X145180000Y-128040000D03*
%TO.P,D1,6,A11*%
%TO.N,/A11*%
X145180000Y-126770000D03*
%TO.P,D1,7,A10*%
%TO.N,/A10*%
X145150000Y-124200000D03*
%TO.P,D1,8,A0*%
%TO.N,/A0*%
X145150000Y-122930000D03*
%TO.P,D1,9,A1*%
%TO.N,/A1*%
X145150000Y-121660000D03*
%TO.P,D1,10,A2*%
%TO.N,/A2*%
X145150000Y-120390000D03*
%TO.P,D1,11,A3*%
%TO.N,/A3*%
X145150000Y-119120000D03*
%TO.P,D1,12*%
%TO.N,N/C*%
X145150000Y-117850000D03*
%TO.P,D1,13,GND*%
%TO.N,GNDD*%
X138350000Y-117900000D03*
%TO.P,D1,14,A4*%
%TO.N,/A4*%
X138320000Y-119120000D03*
%TO.P,D1,15,A5*%
%TO.N,/A5*%
X138320000Y-120390000D03*
%TO.P,D1,16,A6*%
%TO.N,/A6*%
X138320000Y-121660000D03*
%TO.P,D1,17,A7*%
%TO.N,/A7*%
X138320000Y-122930000D03*
%TO.P,D1,18,A8*%
%TO.N,/A8*%
X138320000Y-124200000D03*
%TO.P,D1,19,A9*%
%TO.N,/A9*%
X138350000Y-126800000D03*
%TO.P,D1,20*%
%TO.N,N/C*%
X138350000Y-128070000D03*
%TO.P,D1,21,~{CAS}*%
%TO.N,/~{CAS}*%
X138350000Y-129340000D03*
%TO.P,D1,22*%
%TO.N,N/C*%
X138350000Y-130610000D03*
%TO.P,D1,23,Q*%
%TO.N,/DQ0*%
X138350000Y-131880000D03*
%TO.P,D1,24*%
%TO.N,N/C*%
X138350000Y-133150000D03*
%TD*%
%TO.P,D6,1,+5V*%
%TO.N,+5V*%
X200180000Y-133120000D03*
%TO.P,D6,2,D*%
%TO.N,/DQ5*%
X200180000Y-131850000D03*
%TO.P,D6,3*%
%TO.N,N/C*%
X200180000Y-130580000D03*
%TO.P,D6,4,~{W}*%
%TO.N,/~{WE}*%
X200180000Y-129310000D03*
%TO.P,D6,5,~{RAS}*%
%TO.N,/~{RAS}*%
X200180000Y-128040000D03*
%TO.P,D6,6,A11*%
%TO.N,/A11*%
X200180000Y-126770000D03*
%TO.P,D6,7,A10*%
%TO.N,/A10*%
X200150000Y-124200000D03*
%TO.P,D6,8,A0*%
%TO.N,/A0*%
X200150000Y-122930000D03*
%TO.P,D6,9,A1*%
%TO.N,/A1*%
X200150000Y-121660000D03*
%TO.P,D6,10,A2*%
%TO.N,/A2*%
X200150000Y-120390000D03*
%TO.P,D6,11,A3*%
%TO.N,/A3*%
X200150000Y-119120000D03*
%TO.P,D6,12*%
%TO.N,N/C*%
X200150000Y-117850000D03*
%TO.P,D6,13,GND*%
%TO.N,GNDD*%
X193350000Y-117900000D03*
%TO.P,D6,14,A4*%
%TO.N,/A4*%
X193320000Y-119120000D03*
%TO.P,D6,15,A5*%
%TO.N,/A5*%
X193320000Y-120390000D03*
%TO.P,D6,16,A6*%
%TO.N,/A6*%
X193320000Y-121660000D03*
%TO.P,D6,17,A7*%
%TO.N,/A7*%
X193320000Y-122930000D03*
%TO.P,D6,18,A8*%
%TO.N,/A8*%
X193320000Y-124200000D03*
%TO.P,D6,19,A9*%
%TO.N,/A9*%
X193350000Y-126800000D03*
%TO.P,D6,20*%
%TO.N,N/C*%
X193350000Y-128070000D03*
%TO.P,D6,21,~{CAS}*%
%TO.N,/~{CAS}*%
X193350000Y-129340000D03*
%TO.P,D6,22*%
%TO.N,N/C*%
X193350000Y-130610000D03*
%TO.P,D6,23,Q*%
%TO.N,/DQ5*%
X193350000Y-131880000D03*
%TO.P,D6,24*%
%TO.N,N/C*%
X193350000Y-133150000D03*
%TD*%
%TO.P,D2,1,+5V*%
%TO.N,+5V*%
X156180000Y-133120000D03*
%TO.P,D2,2,D*%
%TO.N,/DQ1*%
X156180000Y-131850000D03*
%TO.P,D2,3*%
%TO.N,N/C*%
X156180000Y-130580000D03*
%TO.P,D2,4,~{W}*%
%TO.N,/~{WE}*%
X156180000Y-129310000D03*
%TO.P,D2,5,~{RAS}*%
%TO.N,/~{RAS}*%
X156180000Y-128040000D03*
%TO.P,D2,6,A11*%
%TO.N,/A11*%
X156180000Y-126770000D03*
%TO.P,D2,7,A10*%
%TO.N,/A10*%
X156150000Y-124200000D03*
%TO.P,D2,8,A0*%
%TO.N,/A0*%
X156150000Y-122930000D03*
%TO.P,D2,9,A1*%
%TO.N,/A1*%
X156150000Y-121660000D03*
%TO.P,D2,10,A2*%
%TO.N,/A2*%
X156150000Y-120390000D03*
%TO.P,D2,11,A3*%
%TO.N,/A3*%
X156150000Y-119120000D03*
%TO.P,D2,12*%
%TO.N,N/C*%
X156150000Y-117850000D03*
%TO.P,D2,13,GND*%
%TO.N,GNDD*%
X149350000Y-117900000D03*
%TO.P,D2,14,A4*%
%TO.N,/A4*%
X149320000Y-119120000D03*
%TO.P,D2,15,A5*%
%TO.N,/A5*%
X149320000Y-120390000D03*
%TO.P,D2,16,A6*%
%TO.N,/A6*%
X149320000Y-121660000D03*
%TO.P,D2,17,A7*%
%TO.N,/A7*%
X149320000Y-122930000D03*
%TO.P,D2,18,A8*%
%TO.N,/A8*%
X149320000Y-124200000D03*
%TO.P,D2,19,A9*%
%TO.N,/A9*%
X149350000Y-126800000D03*
%TO.P,D2,20*%
%TO.N,N/C*%
X149350000Y-128070000D03*
%TO.P,D2,21,~{CAS}*%
%TO.N,/~{CAS}*%
X149350000Y-129340000D03*
%TO.P,D2,22*%
%TO.N,N/C*%
X149350000Y-130610000D03*
%TO.P,D2,23,Q*%
%TO.N,/DQ1*%
X149350000Y-131880000D03*
%TO.P,D2,24*%
%TO.N,N/C*%
X149350000Y-133150000D03*
%TD*%
%TO.P,D3,1,+5V*%
%TO.N,+5V*%
X167180000Y-133120000D03*
%TO.P,D3,2,D*%
%TO.N,/DQ2*%
X167180000Y-131850000D03*
%TO.P,D3,3*%
%TO.N,N/C*%
X167180000Y-130580000D03*
%TO.P,D3,4,~{W}*%
%TO.N,/~{WE}*%
X167180000Y-129310000D03*
%TO.P,D3,5,~{RAS}*%
%TO.N,/~{RAS}*%
X167180000Y-128040000D03*
%TO.P,D3,6,A11*%
%TO.N,/A11*%
X167180000Y-126770000D03*
%TO.P,D3,7,A10*%
%TO.N,/A10*%
X167150000Y-124200000D03*
%TO.P,D3,8,A0*%
%TO.N,/A0*%
X167150000Y-122930000D03*
%TO.P,D3,9,A1*%
%TO.N,/A1*%
X167150000Y-121660000D03*
%TO.P,D3,10,A2*%
%TO.N,/A2*%
X167150000Y-120390000D03*
%TO.P,D3,11,A3*%
%TO.N,/A3*%
X167150000Y-119120000D03*
%TO.P,D3,12*%
%TO.N,N/C*%
X167150000Y-117850000D03*
%TO.P,D3,13,GND*%
%TO.N,GNDD*%
X160350000Y-117900000D03*
%TO.P,D3,14,A4*%
%TO.N,/A4*%
X160320000Y-119120000D03*
%TO.P,D3,15,A5*%
%TO.N,/A5*%
X160320000Y-120390000D03*
%TO.P,D3,16,A6*%
%TO.N,/A6*%
X160320000Y-121660000D03*
%TO.P,D3,17,A7*%
%TO.N,/A7*%
X160320000Y-122930000D03*
%TO.P,D3,18,A8*%
%TO.N,/A8*%
X160320000Y-124200000D03*
%TO.P,D3,19,A9*%
%TO.N,/A9*%
X160350000Y-126800000D03*
%TO.P,D3,20*%
%TO.N,N/C*%
X160350000Y-128070000D03*
%TO.P,D3,21,~{CAS}*%
%TO.N,/~{CAS}*%
X160350000Y-129340000D03*
%TO.P,D3,22*%
%TO.N,N/C*%
X160350000Y-130610000D03*
%TO.P,D3,23,Q*%
%TO.N,/DQ2*%
X160350000Y-131880000D03*
%TO.P,D3,24*%
%TO.N,N/C*%
X160350000Y-133150000D03*
%TD*%
%TO.P,D7,1,+5V*%
%TO.N,+5V*%
X210930000Y-133120000D03*
%TO.P,D7,2,D*%
%TO.N,/DQ6*%
X210930000Y-131850000D03*
%TO.P,D7,3*%
%TO.N,N/C*%
X210930000Y-130580000D03*
%TO.P,D7,4,~{W}*%
%TO.N,/~{WE}*%
X210930000Y-129310000D03*
%TO.P,D7,5,~{RAS}*%
%TO.N,/~{RAS}*%
X210930000Y-128040000D03*
%TO.P,D7,6,A11*%
%TO.N,/A11*%
X210930000Y-126770000D03*
%TO.P,D7,7,A10*%
%TO.N,/A10*%
X210900000Y-124200000D03*
%TO.P,D7,8,A0*%
%TO.N,/A0*%
X210900000Y-122930000D03*
%TO.P,D7,9,A1*%
%TO.N,/A1*%
X210900000Y-121660000D03*
%TO.P,D7,10,A2*%
%TO.N,/A2*%
X210900000Y-120390000D03*
%TO.P,D7,11,A3*%
%TO.N,/A3*%
X210900000Y-119120000D03*
%TO.P,D7,12*%
%TO.N,N/C*%
X210900000Y-117850000D03*
%TO.P,D7,13,GND*%
%TO.N,GNDD*%
X204100000Y-117900000D03*
%TO.P,D7,14,A4*%
%TO.N,/A4*%
X204070000Y-119120000D03*
%TO.P,D7,15,A5*%
%TO.N,/A5*%
X204070000Y-120390000D03*
%TO.P,D7,16,A6*%
%TO.N,/A6*%
X204070000Y-121660000D03*
%TO.P,D7,17,A7*%
%TO.N,/A7*%
X204070000Y-122930000D03*
%TO.P,D7,18,A8*%
%TO.N,/A8*%
X204070000Y-124200000D03*
%TO.P,D7,19,A9*%
%TO.N,/A9*%
X204100000Y-126800000D03*
%TO.P,D7,20*%
%TO.N,N/C*%
X204100000Y-128070000D03*
%TO.P,D7,21,~{CAS}*%
%TO.N,/~{CAS}*%
X204100000Y-129340000D03*
%TO.P,D7,22*%
%TO.N,N/C*%
X204100000Y-130610000D03*
%TO.P,D7,23,Q*%
%TO.N,/DQ6*%
X204100000Y-131880000D03*
%TO.P,D7,24*%
%TO.N,N/C*%
X204100000Y-133150000D03*
%TD*%
D11*
%TO.P,C6,1*%
%TO.N,+5V*%
X200200000Y-135062500D03*
%TO.P,C6,2*%
%TO.N,GNDD*%
X200200000Y-137137500D03*
%TD*%
%TO.P,C2,1*%
%TO.N,+5V*%
X156300000Y-135062500D03*
%TO.P,C2,2*%
%TO.N,GNDD*%
X156300000Y-137137500D03*
%TD*%
%TO.P,C1,1*%
%TO.N,+5V*%
X145200000Y-135062500D03*
%TO.P,C1,2*%
%TO.N,GNDD*%
X145200000Y-137137500D03*
%TD*%
%TO.P,C7,1*%
%TO.N,+5V*%
X210900000Y-135062500D03*
%TO.P,C7,2*%
%TO.N,GNDD*%
X210900000Y-137137500D03*
%TD*%
%TO.P,C3,1*%
%TO.N,+5V*%
X167200000Y-135062500D03*
%TO.P,C3,2*%
%TO.N,GNDD*%
X167200000Y-137137500D03*
%TD*%
%TO.P,C5,1*%
%TO.N,+5V*%
X189300000Y-134925000D03*
%TO.P,C5,2*%
%TO.N,GNDD*%
X189300000Y-137000000D03*
%TD*%
%TO.P,C8,1*%
%TO.N,+5V*%
X216600000Y-135062500D03*
%TO.P,C8,2*%
%TO.N,GNDD*%
X216600000Y-137137500D03*
%TD*%
%TO.P,C4,1*%
%TO.N,+5V*%
X178300000Y-135062500D03*
%TO.P,C4,2*%
%TO.N,GNDD*%
X178300000Y-137137500D03*
%TD*%
D12*
%TO.P,J1,1,Pin_1*%
%TO.N,+5V*%
X142350000Y-144750000D03*
%TO.P,J1,2,Pin_2*%
%TO.N,/~{CAS}*%
X144890000Y-144750000D03*
%TO.P,J1,3,Pin_3*%
%TO.N,/DQ0*%
X147430000Y-144750000D03*
%TO.P,J1,4,Pin_4*%
%TO.N,/A0*%
X149970000Y-144750000D03*
%TO.P,J1,5,Pin_5*%
%TO.N,/A1*%
X152510000Y-144750000D03*
%TO.P,J1,6,Pin_6*%
%TO.N,/DQ1*%
X155050000Y-144750000D03*
%TO.P,J1,7,Pin_7*%
%TO.N,/A2*%
X157590000Y-144750000D03*
%TO.P,J1,8,Pin_8*%
%TO.N,/A3*%
X160130000Y-144750000D03*
%TO.P,J1,9,Pin_9*%
%TO.N,GNDD*%
X162670000Y-144750000D03*
%TO.P,J1,10,Pin_10*%
%TO.N,/DQ2*%
X165210000Y-144750000D03*
%TO.P,J1,11,Pin_11*%
%TO.N,/A4*%
X167750000Y-144750000D03*
%TO.P,J1,12,Pin_12*%
%TO.N,/A5*%
X170290000Y-144750000D03*
%TO.P,J1,13,Pin_13*%
%TO.N,/DQ3*%
X172830000Y-144750000D03*
%TO.P,J1,14,Pin_14*%
%TO.N,/A6*%
X175370000Y-144750000D03*
%TO.P,J1,15,Pin_15*%
%TO.N,/A7*%
X177910000Y-144750000D03*
%TO.P,J1,16,Pin_16*%
%TO.N,/DQ4*%
X180450000Y-144750000D03*
%TO.P,J1,17,Pin_17*%
%TO.N,/A8*%
X182990000Y-144750000D03*
%TO.P,J1,18,Pin_18*%
%TO.N,/A9*%
X185530000Y-144750000D03*
%TO.P,J1,19,Pin_19*%
%TO.N,/A10*%
X188070000Y-144750000D03*
%TO.P,J1,20,Pin_20*%
%TO.N,/DQ5*%
X190610000Y-144750000D03*
%TO.P,J1,21,Pin_21*%
%TO.N,/~{WE}*%
X193150000Y-144750000D03*
%TO.P,J1,22,Pin_22*%
%TO.N,GNDD*%
X195690000Y-144750000D03*
%TO.P,J1,23,Pin_23*%
%TO.N,/DQ6*%
X198230000Y-144750000D03*
%TO.P,J1,24,Pin_24*%
%TO.N,/A11*%
X200770000Y-144750000D03*
%TO.P,J1,25,Pin_25*%
%TO.N,/DQ7*%
X203310000Y-144750000D03*
%TO.P,J1,26,Pin_26*%
%TO.N,GNDD*%
X205850000Y-144750000D03*
%TO.P,J1,27,Pin_27*%
%TO.N,/~{RAS}*%
X208390000Y-144750000D03*
%TO.P,J1,28,Pin_28*%
%TO.N,unconnected-(J1-Pad28)*%
X210930000Y-144750000D03*
%TO.P,J1,29,Pin_29*%
%TO.N,unconnected-(J1-Pad29)*%
X213470000Y-144750000D03*
%TO.P,J1,30,Pin_30*%
%TO.N,+5V*%
X216010000Y-144750000D03*
%TD*%
D13*
%TO.N,+5V*%
X200200000Y-133950000D03*
X178300000Y-133900000D03*
X210900000Y-134000000D03*
X156200000Y-133900000D03*
X167200000Y-134000000D03*
X189300000Y-133900000D03*
X145200000Y-134000000D03*
X218542500Y-133120000D03*
%TO.N,GNDD*%
X140300000Y-117900000D03*
X173450000Y-117950000D03*
X178300000Y-138200000D03*
X206150000Y-117899989D03*
X195400000Y-117899989D03*
X184350000Y-117899989D03*
X145431053Y-137968947D03*
X167200000Y-138200000D03*
X200200000Y-138200000D03*
X156300000Y-138300000D03*
X189300000Y-138000000D03*
X151350000Y-117900000D03*
X210900000Y-138100000D03*
X162450000Y-117900000D03*
X216600000Y-138100000D03*
X216950000Y-117950000D03*
%TO.N,/~{WE}*%
X196264511Y-129985489D03*
%TO.N,/~{RAS}*%
X206954511Y-127445489D03*
%TO.N,/A11*%
X195449502Y-126650000D03*
X164950000Y-126650000D03*
X153950000Y-126650000D03*
X208600000Y-126650000D03*
X143073522Y-126800000D03*
X173475500Y-126677248D03*
X218975500Y-126696501D03*
X187150000Y-126650000D03*
X197550000Y-126650000D03*
X176024500Y-126648381D03*
%TO.N,/A10*%
X208350000Y-124500000D03*
X176100000Y-124500000D03*
X143073522Y-124508100D03*
X164850000Y-124575500D03*
X219300000Y-124200000D03*
X153900000Y-124550000D03*
X197650000Y-124500000D03*
X186900000Y-124500000D03*
%TO.N,/A0*%
X197650000Y-123050000D03*
X219550000Y-123050000D03*
X208500000Y-123050000D03*
X175300000Y-123050000D03*
X142900000Y-133000000D03*
X142824500Y-123059099D03*
X186200000Y-123050000D03*
X164000000Y-123050000D03*
X153150000Y-123050000D03*
%TO.N,/A1*%
X208709989Y-121600999D03*
X140575500Y-121700000D03*
X219540011Y-121759989D03*
X146800000Y-134350000D03*
X175883051Y-121658536D03*
X197940011Y-121600999D03*
X153989849Y-121755989D03*
X142833599Y-121610098D03*
X164839849Y-121755989D03*
X186832116Y-121681554D03*
%TO.N,/A2*%
X208989011Y-120151998D03*
X143255227Y-120163871D03*
X142174500Y-130000000D03*
X154139011Y-120306988D03*
X187039011Y-120232553D03*
X219710989Y-120310989D03*
X176039011Y-120209535D03*
X164933210Y-120200999D03*
X198090477Y-120151998D03*
%TO.N,/A3*%
X142900000Y-119200000D03*
X159800000Y-135100000D03*
%TO.N,/A4*%
X147900000Y-141250000D03*
%TO.N,/A5*%
X148550000Y-142350000D03*
X140590000Y-120390000D03*
X167500000Y-142350000D03*
X146350000Y-142000000D03*
%TO.N,/A6*%
X211650000Y-141800000D03*
X220704605Y-125144687D03*
X204350000Y-137800000D03*
X191350000Y-141350000D03*
X194950000Y-142000000D03*
X183650000Y-142100000D03*
X206400000Y-141300000D03*
%TO.N,/A7*%
X219700000Y-125900000D03*
X202300000Y-141950000D03*
X182100000Y-142300000D03*
X196350000Y-138250000D03*
X211150000Y-139200000D03*
%TO.N,/A8*%
X174750000Y-125300000D03*
%TO.N,/A9*%
X185500000Y-127400000D03*
%TO.N,/~{CAS}*%
X151550000Y-128700000D03*
%TD*%
D14*
%TO.N,+5V*%
X156180000Y-133120000D02*
X156180000Y-133880000D01*
X210900000Y-135062500D02*
X210900000Y-133150000D01*
X216600000Y-135062500D02*
X218542500Y-133120000D01*
X200200000Y-135062500D02*
X200200000Y-133140000D01*
X178300000Y-135062500D02*
X178300000Y-133240000D01*
X156180000Y-133880000D02*
X156200000Y-133900000D01*
X189300000Y-134925000D02*
X189300000Y-134000000D01*
X145200000Y-134000000D02*
X145200000Y-133140000D01*
X156300000Y-134000000D02*
X156200000Y-133900000D01*
X218542500Y-133120000D02*
X221830000Y-133120000D01*
X167200000Y-135062500D02*
X167200000Y-133140000D01*
X156300000Y-135062500D02*
X156300000Y-134000000D01*
X189300000Y-134000000D02*
X189300000Y-133240000D01*
X145200000Y-135062500D02*
X145200000Y-134000000D01*
%TO.N,GNDD*%
X178300000Y-137137500D02*
X178300000Y-138200000D01*
X215000000Y-117900000D02*
X216900000Y-117900000D01*
X182350000Y-117900000D02*
X184349989Y-117900000D01*
X204100000Y-117900000D02*
X206149989Y-117900000D01*
X145200000Y-137737894D02*
X145431053Y-137968947D01*
X173400000Y-117900000D02*
X173450000Y-117950000D01*
X189300000Y-137000000D02*
X189300000Y-138000000D01*
X160350000Y-117900000D02*
X162450000Y-117900000D01*
X216900000Y-117900000D02*
X216950000Y-117950000D01*
X193350000Y-117900000D02*
X195399989Y-117900000D01*
X156300000Y-137137500D02*
X156300000Y-138300000D01*
X210900000Y-137137500D02*
X210900000Y-138100000D01*
X138350000Y-117900000D02*
X140300000Y-117900000D01*
X184349989Y-117900000D02*
X184350000Y-117899989D01*
X195399989Y-117900000D02*
X195400000Y-117899989D01*
X145200000Y-137137500D02*
X145200000Y-137737894D01*
X206149989Y-117900000D02*
X206150000Y-117899989D01*
X200200000Y-137137500D02*
X200200000Y-138200000D01*
X167200000Y-137137500D02*
X167200000Y-138200000D01*
X216600000Y-137137500D02*
X216600000Y-138100000D01*
X149350000Y-117900000D02*
X151350000Y-117900000D01*
X171350000Y-117900000D02*
X173400000Y-117900000D01*
%TO.N,/DQ0*%
X141930000Y-131880000D02*
X141930000Y-136415704D01*
X147874614Y-144050000D02*
X149274511Y-142650103D01*
X141930000Y-136415704D02*
X146039795Y-140525499D01*
X149274511Y-141599911D02*
X148200099Y-140525499D01*
X141930000Y-131880000D02*
X145150000Y-131880000D01*
X146039795Y-140525499D02*
X148200099Y-140525499D01*
X149274511Y-142650103D02*
X149274511Y-141599911D01*
X138350000Y-131880000D02*
X141930000Y-131880000D01*
%TO.N,/~{WE}*%
X210930000Y-129930978D02*
X210905489Y-129955489D01*
X167144511Y-129955489D02*
X169055489Y-129955489D01*
X169085489Y-129985489D02*
X175940978Y-129985489D01*
X156180000Y-129310000D02*
X156180000Y-129880000D01*
X213205489Y-129985489D02*
X219640978Y-129985489D01*
X219640978Y-129985489D02*
X220316467Y-129310000D01*
X158335489Y-129985489D02*
X165325489Y-129985489D01*
X200194511Y-129955489D02*
X202055489Y-129955489D01*
X210905489Y-129955489D02*
X213175489Y-129955489D01*
X156255489Y-129955489D02*
X158305489Y-129955489D01*
X187325489Y-129985489D02*
X187355489Y-129955489D01*
X191155489Y-129955489D02*
X191185489Y-129985489D01*
X158305489Y-129955489D02*
X158335489Y-129985489D01*
X213175489Y-129955489D02*
X213205489Y-129985489D01*
X210930000Y-129310000D02*
X210930000Y-129930978D01*
X165355489Y-129955489D02*
X167144511Y-129955489D01*
X189180000Y-129310000D02*
X189180000Y-129840978D01*
X169055489Y-129955489D02*
X169085489Y-129985489D01*
X189180000Y-129840978D02*
X189294511Y-129955489D01*
X209075489Y-129985489D02*
X209105489Y-129955489D01*
X175940978Y-129985489D02*
X175970978Y-129955489D01*
X167180000Y-129920000D02*
X167144511Y-129955489D01*
X200180000Y-129940978D02*
X200194511Y-129955489D01*
X178155489Y-129955489D02*
X180525489Y-129955489D01*
X209105489Y-129955489D02*
X210905489Y-129955489D01*
X156180000Y-129880000D02*
X156255489Y-129955489D01*
X165325489Y-129985489D02*
X165355489Y-129955489D01*
X220316467Y-129310000D02*
X221830000Y-129310000D01*
X146380000Y-129310000D02*
X147034511Y-129964511D01*
X200180000Y-129310000D02*
X200180000Y-129940978D01*
X198355489Y-129955489D02*
X200194511Y-129955489D01*
X189294511Y-129955489D02*
X191155489Y-129955489D01*
X198325489Y-129985489D02*
X198355489Y-129955489D01*
X180555489Y-129985489D02*
X187325489Y-129985489D01*
X202085489Y-129985489D02*
X209075489Y-129985489D01*
X187355489Y-129955489D02*
X189294511Y-129955489D01*
X202055489Y-129955489D02*
X202085489Y-129985489D01*
X154346467Y-129964511D02*
X154355489Y-129955489D01*
X178180000Y-129310000D02*
X178180000Y-129930978D01*
X175970978Y-129955489D02*
X178155489Y-129955489D01*
X147034511Y-129964511D02*
X154346467Y-129964511D01*
X180525489Y-129955489D02*
X180555489Y-129985489D01*
X178180000Y-129930978D02*
X178155489Y-129955489D01*
X154355489Y-129955489D02*
X156255489Y-129955489D01*
X167180000Y-129310000D02*
X167180000Y-129920000D01*
X191185489Y-129985489D02*
X198325489Y-129985489D01*
%TO.N,/~{RAS}*%
X178180000Y-127470000D02*
X178180000Y-128040000D01*
X184054511Y-127504511D02*
X184794991Y-128244991D01*
X200195489Y-127445489D02*
X200180000Y-127460978D01*
X184054511Y-127445489D02*
X184054511Y-127504511D01*
X200180000Y-127460978D02*
X200180000Y-128040000D01*
X221235489Y-127445489D02*
X221830000Y-128040000D01*
X167180000Y-127460978D02*
X167180000Y-128040000D01*
X145180000Y-128040000D02*
X145774511Y-127445489D01*
X167195489Y-127445489D02*
X167180000Y-127460978D01*
X186545987Y-128244991D02*
X187345489Y-127445489D01*
X210995489Y-127445489D02*
X221235489Y-127445489D01*
X145774511Y-127445489D02*
X156154511Y-127445489D01*
X156154511Y-127445489D02*
X167195489Y-127445489D01*
X189295489Y-127445489D02*
X189295489Y-127924511D01*
X156154511Y-127445489D02*
X156180000Y-127470978D01*
X189295489Y-127445489D02*
X200195489Y-127445489D01*
X156180000Y-127470978D02*
X156180000Y-128040000D01*
X167195489Y-127445489D02*
X178204511Y-127445489D01*
X200195489Y-127445489D02*
X210995489Y-127445489D01*
X178204511Y-127445489D02*
X178180000Y-127470000D01*
X178204511Y-127445489D02*
X184054511Y-127445489D01*
X184794991Y-128244991D02*
X186545987Y-128244991D01*
X210995489Y-127445489D02*
X210995489Y-127974511D01*
X187345489Y-127445489D02*
X189295489Y-127445489D01*
%TO.N,/A11*%
X143103522Y-126770000D02*
X143073522Y-126800000D01*
X178180000Y-126770000D02*
X176146119Y-126770000D01*
X176146119Y-126770000D02*
X176024500Y-126648381D01*
X221830000Y-126770000D02*
X219048999Y-126770000D01*
X176024500Y-126648381D02*
X175995633Y-126677248D01*
X167180000Y-126770000D02*
X165070000Y-126770000D01*
X156180000Y-126770000D02*
X154070000Y-126770000D01*
X165070000Y-126770000D02*
X164950000Y-126650000D01*
X187150000Y-126650000D02*
X189060000Y-126650000D01*
X219048999Y-126770000D02*
X218975500Y-126696501D01*
X200180000Y-126770000D02*
X197670000Y-126770000D01*
X197550000Y-126650000D02*
X195449502Y-126650000D01*
X175995633Y-126677248D02*
X173475500Y-126677248D01*
X145180000Y-126770000D02*
X143103522Y-126770000D01*
X208720000Y-126770000D02*
X208600000Y-126650000D01*
X210930000Y-126770000D02*
X208720000Y-126770000D01*
X197670000Y-126770000D02*
X197550000Y-126650000D01*
X154070000Y-126770000D02*
X153950000Y-126650000D01*
%TO.N,/A10*%
X210900000Y-124200000D02*
X210600000Y-124500000D01*
X155800000Y-124550000D02*
X153900000Y-124550000D01*
X167150000Y-124200000D02*
X165225500Y-124200000D01*
X200150000Y-124200000D02*
X199850000Y-124500000D01*
X165225500Y-124200000D02*
X164850000Y-124575500D01*
X178150000Y-124200000D02*
X176400000Y-124200000D01*
X187200000Y-124200000D02*
X186900000Y-124500000D01*
X221800000Y-124200000D02*
X219300000Y-124200000D01*
X143381622Y-124200000D02*
X143073522Y-124508100D01*
X176400000Y-124200000D02*
X176100000Y-124500000D01*
X189150000Y-124200000D02*
X187200000Y-124200000D01*
X156150000Y-124200000D02*
X155800000Y-124550000D01*
X145150000Y-124200000D02*
X143381622Y-124200000D01*
X199850000Y-124500000D02*
X197650000Y-124500000D01*
X210600000Y-124500000D02*
X208350000Y-124500000D01*
%TO.N,/A0*%
X189150000Y-122930000D02*
X186320000Y-122930000D01*
X186320000Y-122930000D02*
X186200000Y-123050000D01*
X142950000Y-136512493D02*
X142900000Y-136462493D01*
X145237507Y-138800000D02*
X142950000Y-136512493D01*
X145150000Y-122930000D02*
X142953599Y-122930000D01*
X142953599Y-122930000D02*
X142824500Y-123059099D01*
X167150000Y-122930000D02*
X164120000Y-122930000D01*
X197770000Y-122930000D02*
X197650000Y-123050000D01*
X200150000Y-122930000D02*
X197770000Y-122930000D01*
X164120000Y-122930000D02*
X164000000Y-123050000D01*
X178150000Y-122930000D02*
X175420000Y-122930000D01*
X153270000Y-122930000D02*
X153150000Y-123050000D01*
X221800000Y-122930000D02*
X219670000Y-122930000D01*
X147110318Y-138800000D02*
X145237507Y-138800000D01*
X149970000Y-141659682D02*
X147110318Y-138800000D01*
X208620000Y-122930000D02*
X208500000Y-123050000D01*
X156150000Y-122930000D02*
X153270000Y-122930000D01*
X219670000Y-122930000D02*
X219550000Y-123050000D01*
X142900000Y-136462493D02*
X142900000Y-133000000D01*
X210900000Y-122930000D02*
X208620000Y-122930000D01*
X175420000Y-122930000D02*
X175300000Y-123050000D01*
X149970000Y-144050000D02*
X149970000Y-141659682D01*
%TO.N,/A1*%
X142743697Y-121700000D02*
X140575500Y-121700000D01*
X219540011Y-121759989D02*
X221700011Y-121759989D01*
X152510000Y-144050000D02*
X152510000Y-140060000D01*
X142833599Y-121610098D02*
X142743697Y-121700000D01*
X176059989Y-121759989D02*
X178050011Y-121759989D01*
X208659989Y-121759989D02*
X210800011Y-121759989D01*
X198109989Y-121759989D02*
X200050011Y-121759989D01*
X164909989Y-121759989D02*
X167050011Y-121759989D01*
X145150000Y-121660000D02*
X143210000Y-121660000D01*
X154159989Y-121759989D02*
X156050011Y-121759989D01*
X152510000Y-140060000D02*
X146800000Y-134350000D01*
X187009989Y-121759989D02*
X189050011Y-121759989D01*
%TO.N,/A2*%
X157925489Y-131225489D02*
X151700000Y-131225489D01*
X143379011Y-131204511D02*
X142174500Y-130000000D01*
X189150000Y-120390000D02*
X187196458Y-120390000D01*
X157590000Y-134110978D02*
X158525489Y-133175489D01*
X154222023Y-120390000D02*
X154139011Y-120306988D01*
X176219476Y-120390000D02*
X176039011Y-120209535D01*
X147339022Y-131234511D02*
X147309022Y-131204511D01*
X165122211Y-120390000D02*
X164933210Y-120200999D01*
X178150000Y-120390000D02*
X176219476Y-120390000D01*
X167150000Y-120390000D02*
X165122211Y-120390000D01*
X210661998Y-120151998D02*
X208989011Y-120151998D01*
X156150000Y-120390000D02*
X154222023Y-120390000D01*
X210900000Y-120390000D02*
X210661998Y-120151998D01*
X145150000Y-120390000D02*
X143481356Y-120390000D01*
X158525489Y-133175489D02*
X158525489Y-131825489D01*
X200150000Y-120390000D02*
X198328479Y-120390000D01*
X147309022Y-131204511D02*
X143379011Y-131204511D01*
X157590000Y-144050000D02*
X157590000Y-134110978D01*
X219710989Y-120310989D02*
X221720989Y-120310989D01*
X151700000Y-131225489D02*
X151690978Y-131234511D01*
X151690978Y-131234511D02*
X147339022Y-131234511D01*
X187196458Y-120390000D02*
X187039011Y-120232553D01*
X143481356Y-120390000D02*
X143255227Y-120163871D01*
X198328479Y-120390000D02*
X198090477Y-120151998D01*
X158525489Y-131825489D02*
X157925489Y-131225489D01*
%TO.N,/A3*%
X174550000Y-119750000D02*
X175180000Y-119120000D01*
X200774511Y-119744511D02*
X207455489Y-119744511D01*
X152255489Y-119744511D02*
X152880000Y-119120000D01*
X210900000Y-119120000D02*
X211524511Y-119744511D01*
X200150000Y-119120000D02*
X200774511Y-119744511D01*
X208080000Y-119120000D02*
X210900000Y-119120000D01*
X218280000Y-119120000D02*
X221800000Y-119120000D01*
X163655489Y-119744511D02*
X164280000Y-119120000D01*
X189150000Y-119120000D02*
X189795489Y-119765489D01*
X178150000Y-119120000D02*
X178795489Y-119765489D01*
X142900000Y-119200000D02*
X145070000Y-119200000D01*
X196580000Y-119120000D02*
X200150000Y-119120000D01*
X189795489Y-119765489D02*
X195934511Y-119765489D01*
X186480000Y-119120000D02*
X189150000Y-119120000D01*
X164280000Y-119120000D02*
X167150000Y-119120000D01*
X167150000Y-119120000D02*
X167780000Y-119750000D01*
X217655489Y-119744511D02*
X218280000Y-119120000D01*
X152880000Y-119120000D02*
X156150000Y-119120000D01*
X145150000Y-119120000D02*
X145774511Y-119744511D01*
X156774511Y-119744511D02*
X163655489Y-119744511D01*
X185834511Y-119765489D02*
X186480000Y-119120000D01*
X167780000Y-119750000D02*
X174550000Y-119750000D01*
X211524511Y-119744511D02*
X217655489Y-119744511D01*
X145774511Y-119744511D02*
X152255489Y-119744511D01*
X175180000Y-119120000D02*
X178150000Y-119120000D01*
X195934511Y-119765489D02*
X196580000Y-119120000D01*
X207455489Y-119744511D02*
X208080000Y-119120000D01*
X160130000Y-144050000D02*
X160130000Y-135430000D01*
X160130000Y-135430000D02*
X159800000Y-135100000D01*
X156150000Y-119120000D02*
X156774511Y-119744511D01*
X178795489Y-119765489D02*
X185834511Y-119765489D01*
%TO.N,/A4*%
X136280000Y-119120000D02*
X138320000Y-119120000D01*
X195204603Y-119120000D02*
X196325489Y-117999114D01*
X173304614Y-119120000D02*
X174224511Y-118200103D01*
X162254614Y-119120000D02*
X163175489Y-118199125D01*
X152074511Y-118200103D02*
X152074511Y-117225489D01*
X205954603Y-119120000D02*
X207075489Y-117999114D01*
X204070000Y-119120000D02*
X205954603Y-119120000D01*
X171320000Y-119120000D02*
X173304614Y-119120000D01*
X217674511Y-117649897D02*
X217674511Y-118250103D01*
X138320000Y-119120000D02*
X140104614Y-119120000D01*
X207075489Y-117999114D02*
X207075489Y-117175489D01*
X174224511Y-118200103D02*
X174224511Y-117175489D01*
X152024511Y-117175489D02*
X163175489Y-117175489D01*
X163175489Y-118199125D02*
X163175489Y-117175489D01*
X136200000Y-137250000D02*
X140200000Y-141250000D01*
X185074511Y-117175489D02*
X196325489Y-117175489D01*
X217674511Y-118250103D02*
X216804614Y-119120000D01*
X140200000Y-141250000D02*
X147900000Y-141250000D01*
X196325489Y-117999114D02*
X196325489Y-117175489D01*
X196325489Y-117175489D02*
X207075489Y-117175489D01*
X163175489Y-117175489D02*
X174224511Y-117175489D01*
X185074511Y-118200092D02*
X185074511Y-117175489D01*
X216804614Y-119120000D02*
X214970000Y-119120000D01*
X184154603Y-119120000D02*
X185074511Y-118200092D01*
X217200103Y-117175489D02*
X217674511Y-117649897D01*
X142049125Y-117175489D02*
X152024511Y-117175489D01*
X152074511Y-117225489D02*
X152024511Y-117175489D01*
X174224511Y-117175489D02*
X185074511Y-117175489D01*
X193320000Y-119120000D02*
X195204603Y-119120000D01*
X151154614Y-119120000D02*
X149320000Y-119120000D01*
X140104614Y-119120000D02*
X142049125Y-117175489D01*
X136200000Y-119200000D02*
X136280000Y-119120000D01*
X160320000Y-119120000D02*
X162254614Y-119120000D01*
X136200000Y-137250000D02*
X136200000Y-119200000D01*
X151154614Y-119120000D02*
X152074511Y-118200103D01*
X207075489Y-117175489D02*
X217200103Y-117175489D01*
X182320000Y-119120000D02*
X184154603Y-119120000D01*
%TO.N,/A5*%
X193320000Y-120390000D02*
X193320000Y-121030000D01*
X198399101Y-121035489D02*
X204014511Y-121035489D01*
X176183150Y-120934035D02*
X176284604Y-121035489D01*
X154293949Y-121035489D02*
X160335489Y-121035489D01*
X142190000Y-120390000D02*
X140590000Y-120390000D01*
X186453581Y-121035489D02*
X186532017Y-120957053D01*
X171320000Y-120390000D02*
X171320000Y-121020000D01*
X148200000Y-142000000D02*
X148550000Y-142350000D01*
X143124599Y-120876498D02*
X142676498Y-120876498D01*
X149314511Y-121035489D02*
X153685749Y-121035489D01*
X138320000Y-120390000D02*
X140590000Y-120390000D01*
X176284604Y-121035489D02*
X182385489Y-121035489D01*
X193320000Y-121030000D02*
X193314511Y-121035489D01*
X214324511Y-121035489D02*
X214970000Y-120390000D01*
X149320000Y-120390000D02*
X149320000Y-121030000D01*
X160320000Y-120390000D02*
X160320000Y-121020000D01*
X149314511Y-121035489D02*
X143283590Y-121035489D01*
X160335489Y-121035489D02*
X164539911Y-121035489D01*
X171320000Y-121020000D02*
X171335489Y-121035489D01*
X165250099Y-120925499D02*
X165360089Y-121035489D01*
X208250899Y-121035489D02*
X208409890Y-120876498D01*
X164649901Y-120925499D02*
X165250099Y-120925499D01*
X165360089Y-121035489D02*
X171335489Y-121035489D01*
X153689750Y-121031488D02*
X154289948Y-121031488D01*
X170290000Y-144050000D02*
X170290000Y-143690000D01*
X187132215Y-120957053D02*
X187210651Y-121035489D01*
X142676498Y-120876498D02*
X142190000Y-120390000D01*
X204070000Y-120980000D02*
X204014511Y-121035489D01*
X175582952Y-120934035D02*
X176183150Y-120934035D01*
X175481498Y-121035489D02*
X175582952Y-120934035D01*
X198240110Y-120876498D02*
X198399101Y-121035489D01*
X170290000Y-143690000D02*
X168950000Y-142350000D01*
X209169079Y-121035489D02*
X214324511Y-121035489D01*
X146350000Y-142000000D02*
X148200000Y-142000000D01*
X204014511Y-121035489D02*
X208250899Y-121035489D01*
X182320000Y-120970000D02*
X182385489Y-121035489D01*
X154289948Y-121031488D02*
X154293949Y-121035489D01*
X193314511Y-121035489D02*
X197480921Y-121035489D01*
X209010088Y-120876498D02*
X209169079Y-121035489D01*
X153685749Y-121035489D02*
X153689750Y-121031488D01*
X143283590Y-121035489D02*
X143124599Y-120876498D01*
X171335489Y-121035489D02*
X175481498Y-121035489D01*
X164539911Y-121035489D02*
X164649901Y-120925499D01*
X187210651Y-121035489D02*
X193314511Y-121035489D01*
X182385489Y-121035489D02*
X186453581Y-121035489D01*
X197480921Y-121035489D02*
X197639912Y-120876498D01*
X204070000Y-120390000D02*
X204070000Y-120980000D01*
X167500000Y-142350000D02*
X168950000Y-142350000D01*
X208409890Y-120876498D02*
X209010088Y-120876498D01*
X160320000Y-121020000D02*
X160335489Y-121035489D01*
X197639912Y-120876498D02*
X198240110Y-120876498D01*
X182320000Y-120390000D02*
X182320000Y-120970000D01*
X149320000Y-121030000D02*
X149314511Y-121035489D01*
X186532017Y-120957053D02*
X187132215Y-120957053D01*
%TO.N,/A6*%
X198105089Y-122480489D02*
X198244111Y-122480489D01*
X209189089Y-122305489D02*
X214324511Y-122305489D01*
X143290001Y-122334599D02*
X143319111Y-122305489D01*
X165419111Y-122305489D02*
X171455489Y-122305489D01*
X176319111Y-122305489D02*
X182294511Y-122305489D01*
X176144111Y-122480489D02*
X176319111Y-122305489D01*
X141090001Y-122334599D02*
X143290001Y-122334599D01*
X175755089Y-122480489D02*
X176144111Y-122480489D01*
X186330921Y-122325499D02*
X186500099Y-122325499D01*
X153685911Y-122480489D02*
X154294111Y-122480489D01*
X206900000Y-141800000D02*
X211650000Y-141800000D01*
X214324511Y-122305489D02*
X214970000Y-121660000D01*
X149320000Y-121660000D02*
X149320000Y-122290978D01*
X171320000Y-121660000D02*
X171320000Y-122170000D01*
X193405489Y-122305489D02*
X197460911Y-122305489D01*
X204094511Y-122305489D02*
X208230889Y-122305489D01*
X204350000Y-137800000D02*
X203500000Y-137800000D01*
X208230889Y-122305489D02*
X208250899Y-122325499D01*
X216170000Y-121660000D02*
X218300000Y-123790000D01*
X171320000Y-122170000D02*
X171455489Y-122305489D01*
X204070000Y-121660000D02*
X204070000Y-122280978D01*
X154469111Y-122305489D02*
X160294511Y-122305489D01*
X154294111Y-122480489D02*
X154469111Y-122305489D01*
X186655089Y-122480489D02*
X187094111Y-122480489D01*
X206900000Y-141800000D02*
X206400000Y-141300000D01*
X220635417Y-125075499D02*
X220704605Y-125144687D01*
X187269111Y-122305489D02*
X193405489Y-122305489D01*
X164535911Y-122480489D02*
X165244111Y-122480489D01*
X141000099Y-122424501D02*
X141090001Y-122334599D01*
X218825499Y-125075499D02*
X220635417Y-125075499D01*
X193320000Y-122220000D02*
X193405489Y-122305489D01*
X140275401Y-122424501D02*
X141000099Y-122424501D01*
X165244111Y-122480489D02*
X165419111Y-122305489D01*
X208800099Y-122325499D02*
X208955089Y-122480489D01*
X190600000Y-142100000D02*
X183650000Y-142100000D01*
X149320000Y-122290978D02*
X149305489Y-122305489D01*
X164360911Y-122305489D02*
X164535911Y-122480489D01*
X208955089Y-122480489D02*
X209014089Y-122480489D01*
X182294511Y-122305489D02*
X186310911Y-122305489D01*
X175380921Y-122325499D02*
X175600099Y-122325499D01*
X143319111Y-122305489D02*
X149305489Y-122305489D01*
X187094111Y-122480489D02*
X187269111Y-122305489D01*
X149305489Y-122305489D02*
X153510911Y-122305489D01*
X175360911Y-122305489D02*
X175380921Y-122325499D01*
X203500000Y-137800000D02*
X199200000Y-142100000D01*
X160294511Y-122305489D02*
X164360911Y-122305489D01*
X218300000Y-124550000D02*
X218825499Y-125075499D01*
X182320000Y-122280000D02*
X182294511Y-122305489D01*
X171455489Y-122305489D02*
X175360911Y-122305489D01*
X160320000Y-121660000D02*
X160320000Y-122280000D01*
X198419111Y-122305489D02*
X204094511Y-122305489D01*
X195050000Y-142100000D02*
X194950000Y-142000000D01*
X186500099Y-122325499D02*
X186655089Y-122480489D01*
X199200000Y-142100000D02*
X195050000Y-142100000D01*
X175600099Y-122325499D02*
X175755089Y-122480489D01*
X197950099Y-122325499D02*
X198105089Y-122480489D01*
X191350000Y-141350000D02*
X190600000Y-142100000D01*
X160320000Y-122280000D02*
X160294511Y-122305489D01*
X209014089Y-122480489D02*
X209189089Y-122305489D01*
X186310911Y-122305489D02*
X186330921Y-122325499D01*
X193320000Y-121660000D02*
X193320000Y-122220000D01*
X218300000Y-123790000D02*
X218300000Y-124550000D01*
X204070000Y-122280978D02*
X204094511Y-122305489D01*
X139510900Y-121660000D02*
X140275401Y-122424501D01*
X198244111Y-122480489D02*
X198419111Y-122305489D01*
X197480921Y-122325499D02*
X197950099Y-122325499D01*
X153510911Y-122305489D02*
X153685911Y-122480489D01*
X182320000Y-121660000D02*
X182320000Y-122280000D01*
X208250899Y-122325499D02*
X208800099Y-122325499D01*
X197460911Y-122305489D02*
X197480921Y-122325499D01*
%TO.N,/A7*%
X182474511Y-123575489D02*
X185400889Y-123575489D01*
X185400889Y-123575489D02*
X185599901Y-123774501D01*
X149324511Y-123575489D02*
X152650889Y-123575489D01*
X163500889Y-123575489D02*
X163699901Y-123774501D01*
X208000889Y-123575489D02*
X208199901Y-123774501D01*
X152849901Y-123774501D02*
X154311203Y-123774501D01*
X188150000Y-140950000D02*
X183450000Y-140950000D01*
X183450000Y-140950000D02*
X182100000Y-142300000D01*
X154311203Y-123774501D02*
X154510215Y-123575489D01*
X211150000Y-139200000D02*
X206750000Y-139200000D01*
X174800889Y-123575489D02*
X174999901Y-123774501D01*
X174999901Y-123774501D02*
X175600099Y-123774501D01*
X204000000Y-141950000D02*
X202300000Y-141950000D01*
X214324511Y-123575489D02*
X214970000Y-122930000D01*
X219500000Y-125700000D02*
X219700000Y-125900000D01*
X197349901Y-123774501D02*
X197950099Y-123774501D01*
X171320000Y-123530000D02*
X171274511Y-123575489D01*
X160320000Y-123530000D02*
X160274511Y-123575489D01*
X208199901Y-123774501D02*
X208800099Y-123774501D01*
X197950099Y-123774501D02*
X198149111Y-123575489D01*
X152650889Y-123575489D02*
X152849901Y-123774501D01*
X186500099Y-123774501D02*
X186699111Y-123575489D01*
X143124599Y-123783600D02*
X143332710Y-123575489D01*
X149320000Y-122930000D02*
X149320000Y-123570978D01*
X149320000Y-123570978D02*
X149324511Y-123575489D01*
X171320000Y-122930000D02*
X171320000Y-123530000D01*
X143332710Y-123575489D02*
X149324511Y-123575489D01*
X182320000Y-123420978D02*
X182474511Y-123575489D01*
X193320000Y-122930000D02*
X193320000Y-123520000D01*
X186699111Y-123575489D02*
X193375489Y-123575489D01*
X218300000Y-125650000D02*
X218350000Y-125700000D01*
X182320000Y-122930000D02*
X182320000Y-123420978D01*
X163699901Y-123774501D02*
X164300099Y-123774501D01*
X197150889Y-123575489D02*
X197349901Y-123774501D01*
X160274511Y-123575489D02*
X163500889Y-123575489D01*
X208800099Y-123774501D02*
X208999111Y-123575489D01*
X164300099Y-123774501D02*
X164499111Y-123575489D01*
X206750000Y-139200000D02*
X204000000Y-141950000D01*
X175799111Y-123575489D02*
X182474511Y-123575489D01*
X154510215Y-123575489D02*
X160274511Y-123575489D01*
X171274511Y-123575489D02*
X174800889Y-123575489D01*
X204070000Y-122930000D02*
X204070000Y-123570000D01*
X216170000Y-122930000D02*
X217200000Y-123960000D01*
X218350000Y-125700000D02*
X219500000Y-125700000D01*
X190850000Y-138250000D02*
X188150000Y-140950000D01*
X193375489Y-123575489D02*
X197150889Y-123575489D01*
X217200000Y-123960000D02*
X217200000Y-124550000D01*
X193320000Y-123520000D02*
X193375489Y-123575489D01*
X198149111Y-123575489D02*
X204075489Y-123575489D01*
X217200000Y-124550000D02*
X218300000Y-125650000D01*
X204070000Y-123570000D02*
X204075489Y-123575489D01*
X160320000Y-122930000D02*
X160320000Y-123530000D01*
X185599901Y-123774501D02*
X186500099Y-123774501D01*
X140373600Y-123783600D02*
X143124599Y-123783600D01*
X208999111Y-123575489D02*
X214324511Y-123575489D01*
X175600099Y-123774501D02*
X175799111Y-123575489D01*
X139520000Y-122930000D02*
X140373600Y-123783600D01*
X204075489Y-123575489D02*
X208000889Y-123575489D01*
X196350000Y-138250000D02*
X190850000Y-138250000D01*
X164499111Y-123575489D02*
X171274511Y-123575489D01*
%TO.N,/A8*%
X193320000Y-125270000D02*
X193350000Y-125300000D01*
X171320000Y-124200000D02*
X171320000Y-125270000D01*
X160300000Y-125300000D02*
X171350000Y-125300000D01*
X204070000Y-124200000D02*
X204070000Y-125220000D01*
X139420000Y-125300000D02*
X149300000Y-125300000D01*
X182320000Y-124200000D02*
X182320000Y-125270000D01*
X204150000Y-125300000D02*
X213870000Y-125300000D01*
X213870000Y-125300000D02*
X214970000Y-124200000D01*
X149320000Y-125280000D02*
X149300000Y-125300000D01*
X204070000Y-125220000D02*
X204150000Y-125300000D01*
X182320000Y-125270000D02*
X182350000Y-125300000D01*
X182350000Y-125300000D02*
X193350000Y-125300000D01*
X149320000Y-124200000D02*
X149320000Y-125280000D01*
X160320000Y-125280000D02*
X160300000Y-125300000D01*
X171320000Y-125270000D02*
X171350000Y-125300000D01*
X138320000Y-124200000D02*
X139420000Y-125300000D01*
X149300000Y-125300000D02*
X160300000Y-125300000D01*
X160320000Y-124200000D02*
X160320000Y-125280000D01*
X193320000Y-124200000D02*
X193320000Y-125270000D01*
X193350000Y-125300000D02*
X204150000Y-125300000D01*
X171350000Y-125300000D02*
X182350000Y-125300000D01*
%TO.N,/A9*%
X160350000Y-125950000D02*
X160350000Y-126800000D01*
X204100000Y-126000000D02*
X204100000Y-126800000D01*
X182500000Y-125900000D02*
X182350000Y-126050000D01*
X175174600Y-125900000D02*
X182500000Y-125900000D01*
X193450000Y-125900000D02*
X193350000Y-126000000D01*
X160400000Y-125900000D02*
X171300000Y-125900000D01*
X204000000Y-125900000D02*
X214100000Y-125900000D01*
X171300000Y-125900000D02*
X171350000Y-125950000D01*
X160400000Y-125900000D02*
X160350000Y-125950000D01*
X173775400Y-125900000D02*
X173899901Y-126024501D01*
X138350000Y-126800000D02*
X139250000Y-125900000D01*
X171300000Y-125900000D02*
X173775400Y-125900000D01*
X173899901Y-126024501D02*
X175050099Y-126024501D01*
X139250000Y-125900000D02*
X149300000Y-125900000D01*
X171350000Y-125950000D02*
X171350000Y-126800000D01*
X204000000Y-125900000D02*
X204100000Y-126000000D01*
X193450000Y-125900000D02*
X204000000Y-125900000D01*
X182500000Y-125900000D02*
X193450000Y-125900000D01*
X175050099Y-126024501D02*
X175174600Y-125900000D01*
X184900000Y-126800000D02*
X185500000Y-127400000D01*
X182350000Y-126050000D02*
X182350000Y-126800000D01*
X214100000Y-125900000D02*
X215000000Y-126800000D01*
X149300000Y-125900000D02*
X160400000Y-125900000D01*
X149300000Y-125900000D02*
X149350000Y-125950000D01*
X193350000Y-126000000D02*
X193350000Y-126800000D01*
X149350000Y-125950000D02*
X149350000Y-126800000D01*
X182350000Y-126800000D02*
X184900000Y-126800000D01*
%TO.N,/~{CAS}*%
X147735489Y-128685489D02*
X147750000Y-128700000D01*
X163485489Y-128664511D02*
X169285489Y-128664511D01*
X182350000Y-128700000D02*
X182350000Y-129340000D01*
X169315489Y-128694511D02*
X171344511Y-128694511D01*
X140204511Y-128685489D02*
X147735489Y-128685489D01*
X193394511Y-128694511D02*
X190949022Y-128694511D01*
X213035489Y-128664511D02*
X213070978Y-128700000D01*
X147750000Y-128700000D02*
X149350000Y-128700000D01*
X139550000Y-129340000D02*
X140204511Y-128685489D01*
X174950498Y-128694511D02*
X174980498Y-128664511D01*
X158215489Y-128694511D02*
X160294511Y-128694511D01*
X195174511Y-128694511D02*
X193394511Y-128694511D01*
X215000000Y-129150000D02*
X215000000Y-129340000D01*
X195183533Y-128685489D02*
X201940000Y-128685489D01*
X195183533Y-128685489D02*
X195174511Y-128694511D01*
X187314511Y-128685489D02*
X190940000Y-128685489D01*
X190949022Y-128694511D02*
X190940000Y-128685489D01*
X169285489Y-128664511D02*
X169315489Y-128694511D01*
X149350000Y-128700000D02*
X154355489Y-128700000D01*
X208250498Y-128694511D02*
X208280498Y-128664511D01*
X208280498Y-128664511D02*
X213035489Y-128664511D01*
X180090978Y-128694511D02*
X182344511Y-128694511D01*
X204005489Y-128694511D02*
X208250498Y-128694511D01*
X201940000Y-128685489D02*
X201949022Y-128694511D01*
X204100000Y-128789022D02*
X204100000Y-129340000D01*
X214550000Y-128700000D02*
X215000000Y-129150000D01*
X160294511Y-128694511D02*
X160350000Y-128750000D01*
X193394511Y-128694511D02*
X193350000Y-128739022D01*
X204005489Y-128694511D02*
X204100000Y-128789022D01*
X154390978Y-128664511D02*
X158185489Y-128664511D01*
X154355489Y-128700000D02*
X154390978Y-128664511D01*
X163455489Y-128694511D02*
X163485489Y-128664511D01*
X149350000Y-128700000D02*
X149350000Y-129340000D01*
X158185489Y-128664511D02*
X158215489Y-128694511D01*
X160294511Y-128694511D02*
X163455489Y-128694511D01*
X171350000Y-128700000D02*
X171350000Y-129340000D01*
X193350000Y-128739022D02*
X193350000Y-129340000D01*
X171344511Y-128694511D02*
X171350000Y-128700000D01*
X187305489Y-128694511D02*
X187314511Y-128685489D01*
X180060978Y-128664511D02*
X180090978Y-128694511D01*
X213070978Y-128700000D02*
X214550000Y-128700000D01*
X174980498Y-128664511D02*
X180060978Y-128664511D01*
X160350000Y-128750000D02*
X160350000Y-129340000D01*
X182344511Y-128694511D02*
X187305489Y-128694511D01*
X201949022Y-128694511D02*
X204005489Y-128694511D01*
X182344511Y-128694511D02*
X182350000Y-128700000D01*
X171344511Y-128694511D02*
X174950498Y-128694511D01*
%TO.N,/DQ1*%
X149350000Y-131880000D02*
X152870000Y-131880000D01*
X152870000Y-131880000D02*
X156150000Y-131880000D01*
X155050000Y-134850000D02*
X152870000Y-132670000D01*
X155050000Y-144050000D02*
X155050000Y-134850000D01*
X152870000Y-132670000D02*
X152870000Y-131880000D01*
%TO.N,/DQ2*%
X160350000Y-131880000D02*
X165220000Y-131880000D01*
X165220000Y-131880000D02*
X167150000Y-131880000D01*
X165210000Y-131890000D02*
X165220000Y-131880000D01*
X165210000Y-144050000D02*
X165210000Y-131890000D01*
%TO.N,/DQ3*%
X173580000Y-131880000D02*
X178150000Y-131880000D01*
X172830000Y-134620000D02*
X173580000Y-133870000D01*
X171350000Y-131880000D02*
X173580000Y-131880000D01*
X172830000Y-144050000D02*
X172830000Y-134620000D01*
X173580000Y-133870000D02*
X173580000Y-131880000D01*
%TO.N,/DQ4*%
X182350000Y-131880000D02*
X185970000Y-131880000D01*
X180450000Y-144050000D02*
X180450000Y-137400000D01*
X180450000Y-137400000D02*
X185970000Y-131880000D01*
X185970000Y-131880000D02*
X189150000Y-131880000D01*
%TO.N,/DQ5*%
X196820000Y-131880000D02*
X197074501Y-132134501D01*
X196820000Y-131880000D02*
X200150000Y-131880000D01*
X195147300Y-139512700D02*
X196412700Y-139512700D01*
X193350000Y-131880000D02*
X196820000Y-131880000D01*
X197074501Y-132134501D02*
X197074501Y-138850899D01*
X197074501Y-138850899D02*
X196412700Y-139512700D01*
X190610000Y-144050000D02*
X195147300Y-139512700D01*
%TO.N,/DQ6*%
X203667300Y-138612700D02*
X204612700Y-138612700D01*
X207570000Y-131880000D02*
X207570000Y-135655400D01*
X207570000Y-131880000D02*
X210900000Y-131880000D01*
X204100000Y-131880000D02*
X207570000Y-131880000D01*
X207570000Y-135655400D02*
X204612700Y-138612700D01*
X198230000Y-144050000D02*
X203667300Y-138612700D01*
%TO.N,/DQ7*%
X211624501Y-140575499D02*
X206099901Y-140575499D01*
X213050000Y-132630000D02*
X213050000Y-139150000D01*
X213800000Y-131880000D02*
X213050000Y-132630000D01*
X221830000Y-131850000D02*
X215030000Y-131850000D01*
X203310000Y-143365400D02*
X203310000Y-144050000D01*
X203310000Y-143365400D02*
X206099901Y-140575499D01*
X213050000Y-139150000D02*
X211624501Y-140575499D01*
%TD*%
M02*
