solid Exported from Blender-2.93.5
facet normal -0.098019 0.995184 0.000000
outer loop
vertex -3.657692 -2.903955 1.568184
vertex -3.852221 -2.923115 1.568184
vertex -3.852221 -2.923115 2.400000
endloop
endfacet
facet normal -0.098019 0.995184 0.000000
outer loop
vertex -3.657692 -2.903955 1.568184
vertex -3.852221 -2.923115 2.400000
vertex -3.657692 -2.903955 2.400000
endloop
endfacet
facet normal 0.098019 0.995184 0.000000
outer loop
vertex -3.867069 -2.923115 2.400000
vertex -3.867069 -2.923115 1.568184
vertex -4.061597 -2.903955 1.568184
endloop
endfacet
facet normal 0.098020 0.995184 0.000000
outer loop
vertex -3.867069 -2.923115 2.400000
vertex -4.061597 -2.903955 1.568184
vertex -4.061597 -2.903955 2.400000
endloop
endfacet
facet normal -1.000000 0.000000 0.000000
outer loop
vertex -2.855101 -1.925995 1.568184
vertex -2.855101 -1.925995 2.400000
vertex -2.855101 -0.023102 2.400000
endloop
endfacet
facet normal -1.000000 0.000000 0.000000
outer loop
vertex -2.855101 -1.925995 1.568184
vertex -2.855101 -0.023102 2.400000
vertex -2.855101 -0.023102 1.568184
endloop
endfacet
facet normal -0.881921 0.471397 0.000000
outer loop
vertex -2.931002 -2.307576 1.568184
vertex -3.023146 -2.479965 1.568184
vertex -3.023146 -2.479965 2.400000
endloop
endfacet
facet normal -0.881921 0.471397 0.000000
outer loop
vertex -2.931002 -2.307576 1.568184
vertex -3.023146 -2.479965 2.400000
vertex -2.931002 -2.307576 2.400000
endloop
endfacet
facet normal -0.773010 0.634394 0.000000
outer loop
vertex -3.023146 -2.479965 1.568184
vertex -3.147151 -2.631065 1.568184
vertex -3.147150 -2.631065 2.400000
endloop
endfacet
facet normal -0.773011 0.634393 0.000000
outer loop
vertex -3.023146 -2.479965 1.568184
vertex -3.147150 -2.631065 2.400000
vertex -3.023146 -2.479965 2.400000
endloop
endfacet
facet normal -0.634394 0.773010 0.000000
outer loop
vertex -3.147151 -2.631065 1.568184
vertex -3.298251 -2.755070 1.568184
vertex -3.298250 -2.755070 2.400000
endloop
endfacet
facet normal -0.634394 0.773010 0.000000
outer loop
vertex -3.147151 -2.631065 1.568184
vertex -3.298250 -2.755070 2.400000
vertex -3.147150 -2.631065 2.400000
endloop
endfacet
facet normal -0.471397 0.881921 0.000000
outer loop
vertex -3.298251 -2.755070 1.568184
vertex -3.470639 -2.847214 1.568184
vertex -3.470639 -2.847214 2.400000
endloop
endfacet
facet normal -0.471396 0.881922 0.000000
outer loop
vertex -3.298251 -2.755070 1.568184
vertex -3.470639 -2.847214 2.400000
vertex -3.298250 -2.755070 2.400000
endloop
endfacet
facet normal -0.290284 0.956941 0.000000
outer loop
vertex -3.470639 -2.847214 1.568184
vertex -3.657692 -2.903955 1.568184
vertex -3.657692 -2.903955 2.400000
endloop
endfacet
facet normal -0.290283 0.956941 0.000000
outer loop
vertex -3.470639 -2.847214 1.568184
vertex -3.657692 -2.903955 2.400000
vertex -3.470639 -2.847214 2.400000
endloop
endfacet
facet normal 0.000000 -1.000000 0.000000
outer loop
vertex -0.426617 -17.323103 0.100000
vertex -0.426617 -17.323103 2.400000
vertex -7.926617 -17.323103 2.400000
endloop
endfacet
facet normal 0.000000 -1.000000 0.000000
outer loop
vertex -0.426617 -17.323103 0.100000
vertex -7.926617 -17.323103 2.400000
vertex -7.926617 -17.323103 0.100000
endloop
endfacet
facet normal -0.956940 0.290285 0.000000
outer loop
vertex -2.874260 -2.120523 1.568184
vertex -2.931002 -2.307576 1.568184
vertex -2.931002 -2.307576 2.400000
endloop
endfacet
facet normal -0.956941 0.290282 0.000000
outer loop
vertex -2.874260 -2.120523 1.568184
vertex -2.931002 -2.307576 2.400000
vertex -2.874260 -2.120523 2.400000
endloop
endfacet
facet normal 0.000000 0.000000 -1.000000
outer loop
vertex -0.426617 -17.223103 -0.000000
vertex -7.926617 -17.223103 -0.000000
vertex -7.926617 -0.023102 -0.000000
endloop
endfacet
facet normal 0.000000 0.000000 -1.000000
outer loop
vertex -0.426617 -17.223103 -0.000000
vertex -7.926617 -0.023102 -0.000000
vertex -0.426617 -0.023102 -0.000000
endloop
endfacet
facet normal 1.000000 0.000000 0.000000
outer loop
vertex -0.326617 -0.023102 0.100000
vertex -0.326617 -0.023102 2.400000
vertex -0.326617 -17.223103 2.400000
endloop
endfacet
facet normal 1.000000 0.000000 0.000000
outer loop
vertex -0.326617 -0.023102 0.100000
vertex -0.326617 -17.223103 2.400000
vertex -0.326617 -17.223103 0.100000
endloop
endfacet
facet normal 0.000000 1.000000 0.000000
outer loop
vertex -7.926617 0.076899 0.100000
vertex -7.926617 0.076899 2.400000
vertex -4.964190 0.076899 2.400000
endloop
endfacet
facet normal 0.000000 1.000000 0.000000
outer loop
vertex -7.926617 0.076899 0.100000
vertex -4.964190 0.076899 2.400000
vertex -4.964190 0.076899 1.368184
endloop
endfacet
facet normal 0.000000 1.000000 0.000000
outer loop
vertex -2.755101 0.076899 2.400000
vertex -0.426617 0.076899 2.400000
vertex -0.426617 0.076899 0.100000
endloop
endfacet
facet normal 0.000000 1.000000 -0.000000
outer loop
vertex -7.926617 0.076899 0.100000
vertex -4.964190 0.076899 1.368184
vertex -2.755100 0.076899 1.368184
endloop
endfacet
facet normal 0.000000 1.000000 0.000000
outer loop
vertex -2.755100 0.076899 1.368184
vertex -2.755101 0.076899 2.400000
vertex -0.426617 0.076899 0.100000
endloop
endfacet
facet normal 0.000000 1.000000 0.000000
outer loop
vertex -7.926617 0.076899 0.100000
vertex -2.755100 0.076899 1.368184
vertex -0.426617 0.076899 0.100000
endloop
endfacet
facet normal 0.000000 0.000000 1.000000
outer loop
vertex -7.926617 -0.023102 2.500000
vertex -7.926617 -17.223103 2.500000
vertex -0.426617 -17.223103 2.500000
endloop
endfacet
facet normal 0.000000 0.000000 1.000000
outer loop
vertex -0.426617 -17.223103 2.500000
vertex -0.426617 -0.023102 2.500000
vertex -2.755101 -0.023102 2.500000
endloop
endfacet
facet normal 0.000002 0.000000 1.000000
outer loop
vertex -0.426617 -17.223103 2.500000
vertex -2.755101 -0.023102 2.500000
vertex -2.755101 -1.930907 2.500000
endloop
endfacet
facet normal 0.000000 0.000000 1.000000
outer loop
vertex -4.964189 -1.930908 2.500000
vertex -4.964190 -0.023102 2.500000
vertex -7.926617 -0.023102 2.500000
endloop
endfacet
facet normal 0.000000 0.000000 1.000000
outer loop
vertex -4.943583 -2.140127 2.500000
vertex -4.964189 -1.930908 2.500000
vertex -7.926617 -0.023102 2.500000
endloop
endfacet
facet normal -0.000003 0.000000 1.000000
outer loop
vertex -0.426617 -17.223103 2.500000
vertex -2.755101 -1.930907 2.500000
vertex -2.775707 -2.140127 2.500000
endloop
endfacet
facet normal 0.000000 0.000000 1.000000
outer loop
vertex -0.426617 -17.223103 2.500000
vertex -2.775707 -2.140127 2.500000
vertex -2.838167 -2.346029 2.500000
endloop
endfacet
facet normal 0.000000 0.000000 1.000000
outer loop
vertex -4.943583 -2.140127 2.500000
vertex -7.926617 -0.023102 2.500000
vertex -0.426617 -17.223103 2.500000
endloop
endfacet
facet normal -0.000634 0.000000 1.000000
outer loop
vertex -4.881123 -2.346030 2.500000
vertex -4.943583 -2.140127 2.500000
vertex -0.426617 -17.223103 2.500000
endloop
endfacet
facet normal -0.000002 0.000000 1.000000
outer loop
vertex -0.426617 -17.223103 2.500000
vertex -2.838167 -2.346029 2.500000
vertex -2.939597 -2.535791 2.500000
endloop
endfacet
facet normal 0.000000 0.000000 1.000000
outer loop
vertex -0.426617 -17.223103 2.500000
vertex -2.939597 -2.535791 2.500000
vertex -3.076097 -2.702118 2.500000
endloop
endfacet
facet normal 0.000011 0.000000 1.000000
outer loop
vertex -4.779694 -2.535791 2.500000
vertex -4.881123 -2.346030 2.500000
vertex -0.426617 -17.223103 2.500000
endloop
endfacet
facet normal 0.000000 0.000000 1.000000
outer loop
vertex -4.643192 -2.702118 2.500000
vertex -4.779694 -2.535791 2.500000
vertex -0.426617 -17.223103 2.500000
endloop
endfacet
facet normal -0.000000 0.000000 1.000000
outer loop
vertex -0.426617 -17.223103 2.500000
vertex -3.076097 -2.702118 2.500000
vertex -3.242424 -2.838619 2.500000
endloop
endfacet
facet normal 0.000001 0.000000 1.000000
outer loop
vertex -0.426617 -17.223103 2.500000
vertex -3.242424 -2.838619 2.500000
vertex -3.432187 -2.940049 2.500000
endloop
endfacet
facet normal 0.000000 0.000000 1.000000
outer loop
vertex -4.476866 -2.838619 2.500000
vertex -4.643192 -2.702118 2.500000
vertex -0.426617 -17.223103 2.500000
endloop
endfacet
facet normal 0.000000 0.000000 1.000000
outer loop
vertex -4.287103 -2.940049 2.500000
vertex -4.476866 -2.838619 2.500000
vertex -0.426617 -17.223103 2.500000
endloop
endfacet
facet normal 0.000000 0.000000 1.000000
outer loop
vertex -0.426617 -17.223103 2.500000
vertex -3.432187 -2.940049 2.500000
vertex -3.638088 -3.002508 2.500000
endloop
endfacet
facet normal 0.000000 0.000000 1.000000
outer loop
vertex -0.426617 -17.223103 2.500000
vertex -3.638088 -3.002508 2.500000
vertex -3.847309 -3.023115 2.500000
endloop
endfacet
facet normal 0.000000 0.000000 1.000000
outer loop
vertex -4.081202 -3.002508 2.500000
vertex -4.287103 -2.940049 2.500000
vertex -0.426617 -17.223103 2.500000
endloop
endfacet
facet normal 0.000000 0.000000 1.000000
outer loop
vertex -0.426617 -17.223103 2.500000
vertex -3.847309 -3.023115 2.500000
vertex -3.871981 -3.023115 2.500000
endloop
endfacet
facet normal 0.000000 0.000000 1.000000
outer loop
vertex -0.426617 -17.223103 2.500000
vertex -3.871981 -3.023115 2.500000
vertex -4.081202 -3.002508 2.500000
endloop
endfacet
facet normal -1.000000 0.000000 0.000000
outer loop
vertex -8.026617 -17.223103 0.100000
vertex -8.026617 -17.223103 2.400000
vertex -8.026617 -0.023102 2.400000
endloop
endfacet
facet normal -1.000000 0.000000 0.000000
outer loop
vertex -8.026617 -17.223103 0.100000
vertex -8.026617 -0.023102 2.400000
vertex -8.026617 -0.023102 0.100000
endloop
endfacet
facet normal -0.995184 0.098021 0.000000
outer loop
vertex -2.855101 -1.925995 1.568184
vertex -2.874260 -2.120523 1.568184
vertex -2.874260 -2.120523 2.400000
endloop
endfacet
facet normal -0.995185 0.098016 0.000000
outer loop
vertex -2.855101 -1.925995 1.568184
vertex -2.874260 -2.120523 2.400000
vertex -2.855101 -1.925995 2.400000
endloop
endfacet
facet normal 0.290284 0.956941 0.000000
outer loop
vertex -4.061597 -2.903955 2.400000
vertex -4.061597 -2.903955 1.568184
vertex -4.248651 -2.847214 1.568184
endloop
endfacet
facet normal 0.290283 0.956941 0.000000
outer loop
vertex -4.061597 -2.903955 2.400000
vertex -4.248651 -2.847214 1.568184
vertex -4.248651 -2.847214 2.400000
endloop
endfacet
facet normal 0.956940 0.290285 0.000000
outer loop
vertex -4.788288 -2.307576 2.400000
vertex -4.788288 -2.307576 1.568184
vertex -4.845030 -2.120523 1.568184
endloop
endfacet
facet normal 0.956941 0.290282 0.000000
outer loop
vertex -4.788288 -2.307576 2.400000
vertex -4.845030 -2.120523 1.568184
vertex -4.845030 -2.120523 2.400000
endloop
endfacet
facet normal 0.881921 0.471397 0.000000
outer loop
vertex -4.696144 -2.479965 2.400000
vertex -4.696144 -2.479965 1.568184
vertex -4.788288 -2.307576 1.568184
endloop
endfacet
facet normal 0.881920 0.471399 0.000000
outer loop
vertex -4.696144 -2.479965 2.400000
vertex -4.788288 -2.307576 1.568184
vertex -4.788288 -2.307576 2.400000
endloop
endfacet
facet normal 0.634394 0.773010 0.000000
outer loop
vertex -4.421039 -2.755070 2.400000
vertex -4.421039 -2.755070 1.568184
vertex -4.572139 -2.631065 1.568184
endloop
endfacet
facet normal 0.634394 0.773010 0.000000
outer loop
vertex -4.421039 -2.755070 2.400000
vertex -4.572139 -2.631065 1.568184
vertex -4.572139 -2.631065 2.400000
endloop
endfacet
facet normal 0.773010 0.634394 0.000000
outer loop
vertex -4.572139 -2.631065 2.400000
vertex -4.572139 -2.631065 1.568184
vertex -4.696144 -2.479965 1.568184
endloop
endfacet
facet normal 0.773011 0.634393 0.000000
outer loop
vertex -4.572139 -2.631065 2.400000
vertex -4.696144 -2.479965 1.568184
vertex -4.696144 -2.479965 2.400000
endloop
endfacet
facet normal 0.471397 0.881921 0.000000
outer loop
vertex -4.248651 -2.847214 2.400000
vertex -4.248651 -2.847214 1.568184
vertex -4.421039 -2.755070 1.568184
endloop
endfacet
facet normal 0.471396 0.881922 0.000000
outer loop
vertex -4.248651 -2.847214 2.400000
vertex -4.421039 -2.755070 1.568184
vertex -4.421039 -2.755070 2.400000
endloop
endfacet
facet normal 0.995185 0.098016 0.000000
outer loop
vertex -4.845030 -2.120523 2.400000
vertex -4.845030 -2.120523 1.568184
vertex -4.864189 -1.925995 1.568184
endloop
endfacet
facet normal 0.995185 0.098016 0.000000
outer loop
vertex -4.845030 -2.120523 2.400000
vertex -4.864189 -1.925995 1.568184
vertex -4.864189 -1.925995 2.400000
endloop
endfacet
facet normal 1.000000 0.000000 0.000000
outer loop
vertex -4.864189 -1.925995 2.400000
vertex -4.864189 -1.925995 1.568184
vertex -4.864189 -0.023102 1.568184
endloop
endfacet
facet normal 1.000000 0.000000 0.000000
outer loop
vertex -4.864189 -1.925995 2.400000
vertex -4.864189 -0.023102 1.568184
vertex -4.864189 -0.023102 2.400000
endloop
endfacet
facet normal 0.000000 1.000000 0.000000
outer loop
vertex -3.867069 -2.923115 1.568184
vertex -3.867069 -2.923115 2.400000
vertex -3.852221 -2.923115 2.400000
endloop
endfacet
facet normal 0.000000 1.000000 0.000000
outer loop
vertex -3.867069 -2.923115 1.568184
vertex -3.852221 -2.923115 2.400000
vertex -3.852221 -2.923115 1.568184
endloop
endfacet
facet normal -0.577356 -0.577354 0.577341
outer loop
vertex -7.926617 -17.323103 2.400000
vertex -7.926617 -17.223103 2.500000
vertex -8.026617 -17.223103 2.400000
endloop
endfacet
facet normal -0.577357 -0.577354 -0.577340
outer loop
vertex -7.926617 -17.223103 -0.000000
vertex -7.926617 -17.323103 0.100000
vertex -8.026617 -17.223103 0.100000
endloop
endfacet
facet normal -0.577351 0.577349 0.577351
outer loop
vertex -7.926617 0.076899 2.400000
vertex -8.026617 -0.023102 2.400000
vertex -7.926617 -0.023102 2.500000
endloop
endfacet
facet normal -0.577352 0.577348 -0.577351
outer loop
vertex -8.026617 -0.023102 0.100000
vertex -7.926617 0.076899 0.100000
vertex -7.926617 -0.023102 -0.000000
endloop
endfacet
facet normal 0.577356 -0.577355 0.577340
outer loop
vertex -0.426617 -17.323103 2.400000
vertex -0.326617 -17.223103 2.400000
vertex -0.426617 -17.223103 2.500000
endloop
endfacet
facet normal 0.577357 -0.577354 -0.577340
outer loop
vertex -0.326617 -17.223103 0.100000
vertex -0.426617 -17.323103 0.100000
vertex -0.426617 -17.223103 -0.000000
endloop
endfacet
facet normal 0.577350 0.577350 0.577351
outer loop
vertex -0.326617 -0.023102 2.400000
vertex -0.426617 0.076899 2.400000
vertex -0.426617 -0.023102 2.500000
endloop
endfacet
facet normal 0.577352 0.577349 -0.577350
outer loop
vertex -0.426617 -0.023102 -0.000000
vertex -0.426617 0.076899 0.100000
vertex -0.326617 -0.023102 0.100000
endloop
endfacet
facet normal 0.301512 0.904534 0.301511
outer loop
vertex -4.864189 -0.023102 1.568184
vertex -4.764189 -0.023102 1.468184
vertex -4.964190 0.076899 1.368184
endloop
endfacet
facet normal -0.301512 0.904534 0.301511
outer loop
vertex -2.955101 -0.023102 1.468184
vertex -2.855101 -0.023102 1.568184
vertex -2.755100 0.076899 1.368184
endloop
endfacet
facet normal 0.577349 0.577350 0.577352
outer loop
vertex -4.964190 0.076899 2.400000
vertex -4.964190 -0.023102 2.500000
vertex -4.864189 -0.023102 2.400000
endloop
endfacet
facet normal -0.577351 0.577349 0.577351
outer loop
vertex -2.755101 0.076899 2.400000
vertex -2.855101 -0.023102 2.400000
vertex -2.755101 -0.023102 2.500000
endloop
endfacet
facet normal 0.703701 0.069308 0.707107
outer loop
vertex -4.864189 -1.925995 1.568184
vertex -4.845030 -2.120523 1.568184
vertex -4.746477 -2.100920 1.468184
endloop
endfacet
facet normal 0.703704 0.069305 0.707105
outer loop
vertex -4.864189 -1.925995 1.568184
vertex -4.746477 -2.100920 1.468184
vertex -4.764189 -1.921082 1.468184
endloop
endfacet
facet normal 0.676658 0.205263 0.707107
outer loop
vertex -4.845030 -2.120523 1.568184
vertex -4.788288 -2.307576 1.568184
vertex -4.695453 -2.269123 1.468184
endloop
endfacet
facet normal 0.676660 0.205261 0.707106
outer loop
vertex -4.845030 -2.120523 1.568184
vertex -4.695453 -2.269123 1.468184
vertex -4.746477 -2.100920 1.468184
endloop
endfacet
facet normal 0.623613 0.333328 0.707106
outer loop
vertex -4.788288 -2.307576 1.568184
vertex -4.696144 -2.479965 1.568184
vertex -4.612595 -2.424139 1.468184
endloop
endfacet
facet normal 0.623612 0.333331 0.707106
outer loop
vertex -4.788288 -2.307576 1.568184
vertex -4.612595 -2.424139 1.468184
vertex -4.695453 -2.269123 1.468184
endloop
endfacet
facet normal 0.546600 0.448585 0.707107
outer loop
vertex -4.696144 -2.479965 1.568184
vertex -4.572139 -2.631065 1.568184
vertex -4.501087 -2.560012 1.468184
endloop
endfacet
facet normal 0.546601 0.448582 0.707108
outer loop
vertex -4.696144 -2.479965 1.568184
vertex -4.501087 -2.560012 1.468184
vertex -4.612595 -2.424139 1.468184
endloop
endfacet
facet normal 0.448584 0.546601 0.707107
outer loop
vertex -4.572139 -2.631065 1.568184
vertex -4.421039 -2.755070 1.568184
vertex -4.365212 -2.671522 1.468184
endloop
endfacet
facet normal 0.448584 0.546602 0.707106
outer loop
vertex -4.572139 -2.631065 1.568184
vertex -4.365212 -2.671522 1.468184
vertex -4.501087 -2.560012 1.468184
endloop
endfacet
facet normal 0.333327 0.623610 0.707109
outer loop
vertex -4.421039 -2.755070 1.568184
vertex -4.248651 -2.847214 1.568184
vertex -4.210198 -2.754378 1.468184
endloop
endfacet
facet normal 0.333328 0.623614 0.707105
outer loop
vertex -4.421039 -2.755070 1.568184
vertex -4.210198 -2.754378 1.468184
vertex -4.365212 -2.671522 1.468184
endloop
endfacet
facet normal 0.205260 0.676660 0.707107
outer loop
vertex -4.248651 -2.847214 1.568184
vertex -4.061597 -2.903955 1.568184
vertex -4.041993 -2.805403 1.468184
endloop
endfacet
facet normal 0.205263 0.676660 0.707105
outer loop
vertex -4.248651 -2.847214 1.568184
vertex -4.041993 -2.805403 1.468184
vertex -4.210198 -2.754378 1.468184
endloop
endfacet
facet normal 0.069310 0.703702 0.707107
outer loop
vertex -4.061597 -2.903955 1.568184
vertex -3.867069 -2.923115 1.568184
vertex -3.862157 -2.823115 1.468184
endloop
endfacet
facet normal 0.069310 0.703699 0.707109
outer loop
vertex -4.061597 -2.903955 1.568184
vertex -3.862157 -2.823115 1.468184
vertex -4.041993 -2.805403 1.468184
endloop
endfacet
facet normal -0.703702 0.069310 0.707106
outer loop
vertex -2.874260 -2.120523 1.568184
vertex -2.855101 -1.925995 1.568184
vertex -2.955101 -1.921083 1.468184
endloop
endfacet
facet normal -0.703702 0.069310 0.707106
outer loop
vertex -2.874260 -2.120523 1.568184
vertex -2.955101 -1.921083 1.468184
vertex -2.972813 -2.100920 1.468184
endloop
endfacet
facet normal -0.676659 0.205263 0.707107
outer loop
vertex -2.931002 -2.307576 1.568184
vertex -2.874260 -2.120523 1.568184
vertex -2.972813 -2.100920 1.468184
endloop
endfacet
facet normal -0.676659 0.205260 0.707108
outer loop
vertex -2.931002 -2.307576 1.568184
vertex -2.972813 -2.100920 1.468184
vertex -3.023837 -2.269123 1.468184
endloop
endfacet
facet normal -0.623612 0.333328 0.707107
outer loop
vertex -3.023146 -2.479965 1.568184
vertex -2.931002 -2.307576 1.568184
vertex -3.023837 -2.269123 1.468184
endloop
endfacet
facet normal -0.623614 0.333327 0.707106
outer loop
vertex -3.023146 -2.479965 1.568184
vertex -3.023837 -2.269123 1.468184
vertex -3.106695 -2.424139 1.468184
endloop
endfacet
facet normal -0.546600 0.448585 0.707107
outer loop
vertex -3.147151 -2.631065 1.568184
vertex -3.023146 -2.479965 1.568184
vertex -3.106695 -2.424139 1.468184
endloop
endfacet
facet normal -0.546601 0.448583 0.707108
outer loop
vertex -3.147151 -2.631065 1.568184
vertex -3.106695 -2.424139 1.468184
vertex -3.218203 -2.560012 1.468184
endloop
endfacet
facet normal -0.448584 0.546600 0.707107
outer loop
vertex -3.298251 -2.755070 1.568184
vertex -3.147151 -2.631065 1.568184
vertex -3.218203 -2.560012 1.468184
endloop
endfacet
facet normal -0.448586 0.546600 0.707107
outer loop
vertex -3.298251 -2.755070 1.568184
vertex -3.218203 -2.560012 1.468184
vertex -3.354077 -2.671522 1.468184
endloop
endfacet
facet normal -0.333328 0.623615 0.707105
outer loop
vertex -3.470639 -2.847214 1.568184
vertex -3.298251 -2.755070 1.568184
vertex -3.354077 -2.671522 1.468184
endloop
endfacet
facet normal -0.333326 0.623615 0.707106
outer loop
vertex -3.470639 -2.847214 1.568184
vertex -3.354077 -2.671522 1.468184
vertex -3.509092 -2.754378 1.468184
endloop
endfacet
facet normal -0.205262 0.676660 0.707106
outer loop
vertex -3.657692 -2.903955 1.568184
vertex -3.470639 -2.847214 1.568184
vertex -3.509092 -2.754378 1.468184
endloop
endfacet
facet normal -0.205262 0.676659 0.707106
outer loop
vertex -3.657692 -2.903955 1.568184
vertex -3.509092 -2.754378 1.468184
vertex -3.677297 -2.805403 1.468184
endloop
endfacet
facet normal -0.069311 0.703702 0.707107
outer loop
vertex -3.852221 -2.923115 1.568184
vertex -3.657692 -2.903955 1.568184
vertex -3.677297 -2.805403 1.468184
endloop
endfacet
facet normal -0.069309 0.703703 0.707106
outer loop
vertex -3.852221 -2.923115 1.568184
vertex -3.677297 -2.805403 1.468184
vertex -3.857133 -2.823115 1.468184
endloop
endfacet
facet normal 0.707107 0.000000 0.707107
outer loop
vertex -4.864189 -0.023102 1.568184
vertex -4.864189 -1.925995 1.568184
vertex -4.764189 -1.921082 1.468184
endloop
endfacet
facet normal 0.707108 0.000000 0.707106
outer loop
vertex -4.864189 -0.023102 1.568184
vertex -4.764189 -1.921082 1.468184
vertex -4.764189 -0.023102 1.468184
endloop
endfacet
facet normal 0.000000 0.707113 0.707100
outer loop
vertex -3.867069 -2.923115 1.568184
vertex -3.852221 -2.923115 1.568184
vertex -3.857133 -2.823115 1.468184
endloop
endfacet
facet normal 0.000000 0.707116 0.707098
outer loop
vertex -3.867069 -2.923115 1.568184
vertex -3.857133 -2.823115 1.468184
vertex -3.862157 -2.823115 1.468184
endloop
endfacet
facet normal 0.707108 0.000000 -0.707106
outer loop
vertex -0.426617 -17.223103 -0.000000
vertex -0.426617 -0.023102 -0.000000
vertex -0.326617 -0.023102 0.100000
endloop
endfacet
facet normal 0.707108 0.000000 -0.707106
outer loop
vertex -0.426617 -17.223103 -0.000000
vertex -0.326617 -0.023102 0.100000
vertex -0.326617 -17.223103 0.100000
endloop
endfacet
facet normal 0.000000 -0.707107 -0.707106
outer loop
vertex -7.926617 -17.223103 -0.000000
vertex -0.426617 -17.223103 -0.000000
vertex -0.426617 -17.323103 0.100000
endloop
endfacet
facet normal 0.000000 -0.707093 -0.707121
outer loop
vertex -7.926617 -17.223103 -0.000000
vertex -0.426617 -17.323103 0.100000
vertex -7.926617 -17.323103 0.100000
endloop
endfacet
facet normal -0.707109 -0.707105 0.000000
outer loop
vertex -8.026617 -17.223103 2.400000
vertex -8.026617 -17.223103 0.100000
vertex -7.926617 -17.323103 0.100000
endloop
endfacet
facet normal -0.707109 -0.707105 0.000000
outer loop
vertex -8.026617 -17.223103 2.400000
vertex -7.926617 -17.323103 0.100000
vertex -7.926617 -17.323103 2.400000
endloop
endfacet
facet normal 0.707108 0.707105 0.000000
outer loop
vertex -0.426617 0.076899 0.100000
vertex -0.426617 0.076899 2.400000
vertex -0.326617 -0.023102 2.400000
endloop
endfacet
facet normal 0.707108 0.707105 0.000000
outer loop
vertex -0.426617 0.076899 0.100000
vertex -0.326617 -0.023102 2.400000
vertex -0.326617 -0.023102 0.100000
endloop
endfacet
facet normal -0.707109 0.707105 0.000000
outer loop
vertex -7.926617 0.076899 2.400000
vertex -7.926617 0.076899 0.100000
vertex -8.026617 -0.023102 0.100000
endloop
endfacet
facet normal -0.707109 0.707105 0.000000
outer loop
vertex -7.926617 0.076899 2.400000
vertex -8.026617 -0.023102 0.100000
vertex -8.026617 -0.023102 2.400000
endloop
endfacet
facet normal 0.707108 -0.707105 0.000000
outer loop
vertex -0.426617 -17.323103 2.400000
vertex -0.426617 -17.323103 0.100000
vertex -0.326617 -17.223103 0.100000
endloop
endfacet
facet normal 0.707108 -0.707105 0.000000
outer loop
vertex -0.426617 -17.323103 2.400000
vertex -0.326617 -17.223103 0.100000
vertex -0.326617 -17.223103 2.400000
endloop
endfacet
facet normal 0.000000 0.707106 0.707108
outer loop
vertex -2.755101 -0.023102 2.500000
vertex -0.426617 -0.023102 2.500000
vertex -0.426617 0.076899 2.400000
endloop
endfacet
facet normal 0.000000 0.707106 0.707108
outer loop
vertex -2.755101 -0.023102 2.500000
vertex -0.426617 0.076899 2.400000
vertex -2.755101 0.076899 2.400000
endloop
endfacet
facet normal -0.707107 0.000000 0.707106
outer loop
vertex -7.926617 -17.223103 2.500000
vertex -7.926617 -0.023102 2.500000
vertex -8.026617 -0.023102 2.400000
endloop
endfacet
facet normal -0.707107 0.000000 0.707106
outer loop
vertex -7.926617 -17.223103 2.500000
vertex -8.026617 -0.023102 2.400000
vertex -8.026617 -17.223103 2.400000
endloop
endfacet
facet normal 0.000000 0.707106 -0.707108
outer loop
vertex -0.426617 -0.023102 -0.000000
vertex -7.926617 -0.023102 -0.000000
vertex -7.926617 0.076899 0.100000
endloop
endfacet
facet normal 0.000000 0.707106 -0.707108
outer loop
vertex -0.426617 -0.023102 -0.000000
vertex -7.926617 0.076899 0.100000
vertex -0.426617 0.076899 0.100000
endloop
endfacet
facet normal 0.707107 0.000000 0.707106
outer loop
vertex -0.426617 -0.023102 2.500000
vertex -0.426617 -17.223103 2.500000
vertex -0.326617 -17.223103 2.400000
endloop
endfacet
facet normal 0.707107 0.000000 0.707106
outer loop
vertex -0.426617 -0.023102 2.500000
vertex -0.326617 -17.223103 2.400000
vertex -0.326617 -0.023102 2.400000
endloop
endfacet
facet normal 0.000000 -0.707107 0.707106
outer loop
vertex -0.426617 -17.223103 2.500000
vertex -7.926617 -17.223103 2.500000
vertex -7.926617 -17.323103 2.400000
endloop
endfacet
facet normal 0.000000 -0.707093 0.707121
outer loop
vertex -0.426617 -17.223103 2.500000
vertex -7.926617 -17.323103 2.400000
vertex -0.426617 -17.323103 2.400000
endloop
endfacet
facet normal -0.707108 0.000000 -0.707106
outer loop
vertex -7.926617 -0.023102 -0.000000
vertex -7.926617 -17.223103 -0.000000
vertex -8.026617 -17.223103 0.100000
endloop
endfacet
facet normal -0.707108 0.000000 -0.707106
outer loop
vertex -7.926617 -0.023102 -0.000000
vertex -8.026617 -17.223103 0.100000
vertex -8.026617 -0.023102 0.100000
endloop
endfacet
facet normal -0.069312 0.703701 0.707107
outer loop
vertex -3.847309 -3.023115 2.500000
vertex -3.638088 -3.002508 2.500000
vertex -3.657692 -2.903955 2.400000
endloop
endfacet
facet normal -0.069309 0.703705 0.707103
outer loop
vertex -3.847309 -3.023115 2.500000
vertex -3.657692 -2.903955 2.400000
vertex -3.852221 -2.923115 2.400000
endloop
endfacet
facet normal 0.000000 0.707112 0.707101
outer loop
vertex -3.852221 -2.923115 2.400000
vertex -3.867069 -2.923115 2.400000
vertex -3.871981 -3.023115 2.500000
endloop
endfacet
facet normal 0.000000 0.707098 0.707115
outer loop
vertex -3.852221 -2.923115 2.400000
vertex -3.871981 -3.023115 2.500000
vertex -3.847309 -3.023115 2.500000
endloop
endfacet
facet normal 0.069310 0.703705 0.707104
outer loop
vertex -3.867069 -2.923115 2.400000
vertex -4.061597 -2.903955 2.400000
vertex -4.081202 -3.002508 2.500000
endloop
endfacet
facet normal 0.069311 0.703702 0.707106
outer loop
vertex -3.867069 -2.923115 2.400000
vertex -4.081202 -3.002508 2.500000
vertex -3.871981 -3.023115 2.500000
endloop
endfacet
facet normal 0.205262 0.676661 0.707105
outer loop
vertex -4.061597 -2.903955 2.400000
vertex -4.248651 -2.847214 2.400000
vertex -4.287103 -2.940049 2.500000
endloop
endfacet
facet normal 0.205262 0.676659 0.707107
outer loop
vertex -4.061597 -2.903955 2.400000
vertex -4.287103 -2.940049 2.500000
vertex -4.081202 -3.002508 2.500000
endloop
endfacet
facet normal -0.333329 0.623614 0.707105
outer loop
vertex -3.432187 -2.940049 2.500000
vertex -3.242424 -2.838619 2.500000
vertex -3.298250 -2.755070 2.400000
endloop
endfacet
facet normal -0.333327 0.623613 0.707107
outer loop
vertex -3.432187 -2.940049 2.500000
vertex -3.298250 -2.755070 2.400000
vertex -3.470639 -2.847214 2.400000
endloop
endfacet
facet normal -0.205262 0.676660 0.707106
outer loop
vertex -3.638088 -3.002508 2.500000
vertex -3.432187 -2.940049 2.500000
vertex -3.470639 -2.847214 2.400000
endloop
endfacet
facet normal -0.205261 0.676659 0.707107
outer loop
vertex -3.638088 -3.002508 2.500000
vertex -3.470639 -2.847214 2.400000
vertex -3.657692 -2.903955 2.400000
endloop
endfacet
facet normal 0.333329 0.623613 0.707106
outer loop
vertex -4.476866 -2.838619 2.500000
vertex -4.287103 -2.940049 2.500000
vertex -4.248651 -2.847214 2.400000
endloop
endfacet
facet normal 0.333328 0.623615 0.707105
outer loop
vertex -4.476866 -2.838619 2.500000
vertex -4.248651 -2.847214 2.400000
vertex -4.421039 -2.755070 2.400000
endloop
endfacet
facet normal -0.546602 0.448584 0.707106
outer loop
vertex -3.076097 -2.702118 2.500000
vertex -2.939597 -2.535791 2.500000
vertex -3.023146 -2.479965 2.400000
endloop
endfacet
facet normal -0.546602 0.448583 0.707106
outer loop
vertex -3.076097 -2.702118 2.500000
vertex -3.023146 -2.479965 2.400000
vertex -3.147150 -2.631065 2.400000
endloop
endfacet
facet normal -0.448584 0.546601 0.707107
outer loop
vertex -3.242424 -2.838619 2.500000
vertex -3.076097 -2.702118 2.500000
vertex -3.147150 -2.631065 2.400000
endloop
endfacet
facet normal -0.448585 0.546601 0.707105
outer loop
vertex -3.242424 -2.838619 2.500000
vertex -3.147150 -2.631065 2.400000
vertex -3.298250 -2.755070 2.400000
endloop
endfacet
facet normal 0.448584 0.546602 0.707105
outer loop
vertex -4.643192 -2.702118 2.500000
vertex -4.476866 -2.838619 2.500000
vertex -4.421039 -2.755070 2.400000
endloop
endfacet
facet normal 0.448583 0.546600 0.707108
outer loop
vertex -4.643192 -2.702118 2.500000
vertex -4.421039 -2.755070 2.400000
vertex -4.572139 -2.631065 2.400000
endloop
endfacet
facet normal -0.623615 0.333326 0.707105
outer loop
vertex -2.939597 -2.535791 2.500000
vertex -2.838167 -2.346029 2.500000
vertex -2.931002 -2.307576 2.400000
endloop
endfacet
facet normal -0.623610 0.333329 0.707108
outer loop
vertex -2.939597 -2.535791 2.500000
vertex -2.931002 -2.307576 2.400000
vertex -3.023146 -2.479965 2.400000
endloop
endfacet
facet normal 0.623614 0.333327 0.707106
outer loop
vertex -4.881123 -2.346030 2.500000
vertex -4.779694 -2.535791 2.500000
vertex -4.696144 -2.479965 2.400000
endloop
endfacet
facet normal 0.623612 0.333329 0.707106
outer loop
vertex -4.881123 -2.346030 2.500000
vertex -4.696144 -2.479965 2.400000
vertex -4.788288 -2.307576 2.400000
endloop
endfacet
facet normal 0.546601 0.448582 0.707108
outer loop
vertex -4.779694 -2.535791 2.500000
vertex -4.643192 -2.702118 2.500000
vertex -4.572139 -2.631065 2.400000
endloop
endfacet
facet normal 0.546601 0.448583 0.707107
outer loop
vertex -4.779694 -2.535791 2.500000
vertex -4.572139 -2.631065 2.400000
vertex -4.696144 -2.479965 2.400000
endloop
endfacet
facet normal 0.676662 0.205263 0.707104
outer loop
vertex -4.943583 -2.140127 2.500000
vertex -4.881123 -2.346030 2.500000
vertex -4.788288 -2.307576 2.400000
endloop
endfacet
facet normal 0.676659 0.205262 0.707107
outer loop
vertex -4.943583 -2.140127 2.500000
vertex -4.788288 -2.307576 2.400000
vertex -4.845030 -2.120523 2.400000
endloop
endfacet
facet normal -0.676661 0.205262 0.707105
outer loop
vertex -2.838167 -2.346029 2.500000
vertex -2.775707 -2.140127 2.500000
vertex -2.874260 -2.120523 2.400000
endloop
endfacet
facet normal -0.676658 0.205262 0.707108
outer loop
vertex -2.838167 -2.346029 2.500000
vertex -2.874260 -2.120523 2.400000
vertex -2.931002 -2.307576 2.400000
endloop
endfacet
facet normal -0.703704 0.069311 0.707105
outer loop
vertex -2.775707 -2.140127 2.500000
vertex -2.755101 -1.930907 2.500000
vertex -2.855101 -1.925995 2.400000
endloop
endfacet
facet normal -0.703703 0.069308 0.707106
outer loop
vertex -2.775707 -2.140127 2.500000
vertex -2.855101 -1.925995 2.400000
vertex -2.874260 -2.120523 2.400000
endloop
endfacet
facet normal 0.703703 0.069311 0.707105
outer loop
vertex -4.964189 -1.930908 2.500000
vertex -4.943583 -2.140127 2.500000
vertex -4.845030 -2.120523 2.400000
endloop
endfacet
facet normal 0.703702 0.069308 0.707106
outer loop
vertex -4.964189 -1.930908 2.500000
vertex -4.845030 -2.120523 2.400000
vertex -4.864189 -1.925995 2.400000
endloop
endfacet
facet normal 0.000000 0.707106 0.707108
outer loop
vertex -4.764189 -0.023102 1.468184
vertex -2.955101 -0.023102 1.468184
vertex -2.755100 0.076899 1.368184
endloop
endfacet
facet normal 0.000000 0.707105 0.707108
outer loop
vertex -4.764189 -0.023102 1.468184
vertex -2.755100 0.076899 1.368184
vertex -4.964190 0.076899 1.368184
endloop
endfacet
facet normal 0.707107 0.707106 0.000000
outer loop
vertex -4.964190 0.076899 1.368184
vertex -4.964190 0.076899 2.400000
vertex -4.864189 -0.023102 2.400000
endloop
endfacet
facet normal 0.707105 0.707108 0.000000
outer loop
vertex -4.964190 0.076899 1.368184
vertex -4.864189 -0.023102 2.400000
vertex -4.864189 -0.023102 1.568184
endloop
endfacet
facet normal 0.707104 0.000000 0.707110
outer loop
vertex -4.864189 -1.925995 2.400000
vertex -4.864189 -0.023102 2.400000
vertex -4.964190 -0.023102 2.500000
endloop
endfacet
facet normal 0.707111 0.000000 0.707103
outer loop
vertex -4.864189 -1.925995 2.400000
vertex -4.964190 -0.023102 2.500000
vertex -4.964189 -1.930908 2.500000
endloop
endfacet
facet normal -0.707107 0.000000 0.707107
outer loop
vertex -2.855101 -0.023102 2.400000
vertex -2.855101 -1.925995 2.400000
vertex -2.755101 -1.930907 2.500000
endloop
endfacet
facet normal -0.707107 0.000000 0.707106
outer loop
vertex -2.855101 -0.023102 2.400000
vertex -2.755101 -1.930907 2.500000
vertex -2.755101 -0.023102 2.500000
endloop
endfacet
facet normal -0.707109 0.707104 0.000000
outer loop
vertex -2.855101 -0.023102 1.568184
vertex -2.855101 -0.023102 2.400000
vertex -2.755101 0.076899 2.400000
endloop
endfacet
facet normal -0.707109 0.707105 -0.000000
outer loop
vertex -2.855101 -0.023102 1.568184
vertex -2.755101 0.076899 2.400000
vertex -2.755100 0.076899 1.368184
endloop
endfacet
facet normal 0.000000 0.707106 0.707108
outer loop
vertex -7.926617 -0.023102 2.500000
vertex -4.964190 -0.023102 2.500000
vertex -4.964190 0.076899 2.400000
endloop
endfacet
facet normal 0.000000 0.707106 0.707108
outer loop
vertex -7.926617 -0.023102 2.500000
vertex -4.964190 0.076899 2.400000
vertex -7.926617 0.076899 2.400000
endloop
endfacet
facet normal -0.707107 0.000000 0.707107
outer loop
vertex -2.855101 -1.925995 1.568184
vertex -2.855101 -0.023102 1.568184
vertex -2.955101 -0.023102 1.468184
endloop
endfacet
facet normal -0.707108 0.000000 0.707106
outer loop
vertex -2.855101 -1.925995 1.568184
vertex -2.955101 -0.023102 1.468184
vertex -2.955101 -1.921083 1.468184
endloop
endfacet
facet normal 0.000000 0.000000 1.000000
outer loop
vertex -2.955101 -0.023102 1.468184
vertex -4.764189 -0.023102 1.468184
vertex -4.764189 -1.921082 1.468184
endloop
endfacet
facet normal 0.000005 0.000000 1.000000
outer loop
vertex -4.764189 -1.921082 1.468184
vertex -4.746477 -2.100920 1.468184
vertex -4.695453 -2.269123 1.468184
endloop
endfacet
facet normal 0.000000 0.000000 1.000000
outer loop
vertex -4.695453 -2.269123 1.468184
vertex -4.612595 -2.424139 1.468184
vertex -4.501087 -2.560012 1.468184
endloop
endfacet
facet normal 0.000000 0.000000 1.000000
outer loop
vertex -4.501087 -2.560012 1.468184
vertex -4.365212 -2.671522 1.468184
vertex -4.210198 -2.754378 1.468184
endloop
endfacet
facet normal -0.000001 0.000000 1.000000
outer loop
vertex -4.210198 -2.754378 1.468184
vertex -4.041993 -2.805403 1.468184
vertex -3.862157 -2.823115 1.468184
endloop
endfacet
facet normal 0.000000 0.000000 1.000000
outer loop
vertex -3.862157 -2.823115 1.468184
vertex -3.857133 -2.823115 1.468184
vertex -3.677297 -2.805403 1.468184
endloop
endfacet
facet normal -0.000002 0.000000 1.000000
outer loop
vertex -3.677297 -2.805403 1.468184
vertex -3.509092 -2.754378 1.468184
vertex -3.354077 -2.671522 1.468184
endloop
endfacet
facet normal -0.000005 0.000000 1.000000
outer loop
vertex -3.354077 -2.671522 1.468184
vertex -3.218203 -2.560012 1.468184
vertex -3.106695 -2.424139 1.468184
endloop
endfacet
facet normal 0.000005 0.000000 1.000000
outer loop
vertex -3.106695 -2.424139 1.468184
vertex -3.023837 -2.269123 1.468184
vertex -2.972813 -2.100920 1.468184
endloop
endfacet
facet normal 0.000000 0.000000 1.000000
outer loop
vertex -2.972813 -2.100920 1.468184
vertex -2.955101 -1.921083 1.468184
vertex -2.955101 -0.023102 1.468184
endloop
endfacet
facet normal -0.000000 0.000000 1.000000
outer loop
vertex -2.955101 -0.023102 1.468184
vertex -4.764189 -1.921082 1.468184
vertex -4.695453 -2.269123 1.468184
endloop
endfacet
facet normal 0.000001 0.000000 1.000000
outer loop
vertex -4.695453 -2.269123 1.468184
vertex -4.501087 -2.560012 1.468184
vertex -4.210198 -2.754378 1.468184
endloop
endfacet
facet normal 0.000000 0.000000 1.000000
outer loop
vertex -4.210198 -2.754378 1.468184
vertex -3.862157 -2.823115 1.468184
vertex -3.677297 -2.805403 1.468184
endloop
endfacet
facet normal 0.000000 0.000000 1.000000
outer loop
vertex -3.677297 -2.805403 1.468184
vertex -3.354077 -2.671522 1.468184
vertex -3.106695 -2.424139 1.468184
endloop
endfacet
facet normal 0.000002 0.000000 1.000000
outer loop
vertex -3.106695 -2.424139 1.468184
vertex -2.972813 -2.100920 1.468184
vertex -2.955101 -0.023102 1.468184
endloop
endfacet
facet normal -0.000000 0.000000 1.000000
outer loop
vertex -2.955101 -0.023102 1.468184
vertex -4.695453 -2.269123 1.468184
vertex -4.210198 -2.754378 1.468184
endloop
endfacet
facet normal 0.000000 0.000000 1.000000
outer loop
vertex -4.210198 -2.754378 1.468184
vertex -3.677297 -2.805403 1.468184
vertex -3.106695 -2.424139 1.468184
endloop
endfacet
facet normal 0.000000 0.000000 1.000000
outer loop
vertex -4.210198 -2.754378 1.468184
vertex -3.106695 -2.424139 1.468184
vertex -2.955101 -0.023102 1.468184
endloop
endfacet
endsolid Exported from Blender-2.93.5
